<svg xmlns="http://www.w3.org/2000/svg" width="16" height="16" fill="currentColor" class="qi-1001" viewBox="0 0 16 16">
  <g clip-path="url(#a)">
    <path d="M9.201 1.001c-3.76-.07-6.61 2.54-6.88 5.7-.29 3.49 2.11 4.95 2.43 5.23-1.9-.03-4.17-2.15-4.55-4.13a.097.097 0 0 0-.1-.08c-.06 0-.11.05-.1.11.4 3.53 3.4 6.2 6.79 6.18 3.6-.02 6.52-2.15 6.89-5.64.35-3.29-2.11-5.01-2.42-5.29 2.02.02 4.16 2.15 4.54 4.13.01.05.05.08.1.08.06 0 .11-.05.1-.11-.42-3.52-3.42-6.12-6.8-6.18zm-1.21 8.01c-.83 0-1.5-.67-1.5-1.5s.67-1.5 1.5-1.5 1.5.67 1.5 1.5-.67 1.5-1.5 1.5z"/>
  </g>
  <defs>
    <clipPath id="a">
      <path d="M0 0h16v16H0z"/>
    </clipPath>
  </defs>
</svg>