<svg xmlns="http://www.w3.org/2000/svg" width="16" height="16" fill="currentColor" class="qi-1001" viewBox="0 0 16 16">
  <path d="M9.21 1.001C5.454.935 2.598 3.538 2.33 6.706c-.292 3.494 2.107 4.947 2.428 5.232C2.853 11.91.585 9.79.204 7.805a.104.104 0 0 0-.1-.085.103.103 0 0 0-.103.114c.403 3.526 3.405 6.2 6.79 6.186 3.604-.016 6.518-2.147 6.89-5.646.35-3.295-2.108-5.008-2.424-5.292 2.023.02 4.162 2.15 4.54 4.133.008.048.05.084.098.085A.103.103 0 0 0 16 7.186C15.593 3.665 12.594 1.06 9.211 1ZM8 9.013A1.502 1.502 0 1 1 8 6.01a1.502 1.502 0 0 1 0 3.004Z"/>
</svg>