<svg xmlns="http://www.w3.org/2000/svg" width="16" height="16" fill="currentColor" class="qi-1001" viewBox="0 0 16 16">
  <path d="M9.208 1.492A6.516 6.516 0 0 0 2.329 7.2a5.567 5.567 0 0 0 2.427 5.232C2.852 12.4.583 10.281.2 8.3a.105.105 0 0 0-.1-.09.1.1 0 0 0-.1.114 6.945 6.945 0 0 0 6.789 6.185c3.6-.015 6.518-2.146 6.89-5.644a5.883 5.883 0 0 0-2.423-5.291c2.022.019 4.162 2.15 4.538 4.132a.105.105 0 0 0 .1.085.1.1 0 0 0 .1-.114 7.015 7.015 0 0 0-6.786-6.185zM8 9.5A1.5 1.5 0 1 1 9.5 8 1.5 1.5 0 0 1 8 9.5z"/>
</svg>