<svg xmlns="http://www.w3.org/2000/svg" width="16" height="16" fill="currentColor" class="qi-1002" viewBox="0 0 16 16">
  <path d="M2.973 4.976c-.09-.28-.09-.51.01-.7.47-.86 1.94-1.78 4.11-2.17 2.44-.44 4.07.05 4.53.66.07.1.25.37.03.74.8-.47 1.03-.96.9-1.4-.25-.89-2.7-1.43-5.65-.89-3.03.56-4.84 1.97-4.76 2.87.04.3.35.71.83.89z"/>
  <path d="M10.883 3.716c-.16-.55-1.49-1.32-3.54-.93-2.1.4-2.97 1.6-2.92 2.16.02.19.21.44.51.55-.06-.17-.06-.32.01-.44.29-.53 1.21-1.1 2.55-1.35 1.51-.27 2.52.03 2.81.41.05.06.15.23.02.46.5-.28.64-.59.56-.86z"/>
  <path d="M13.533 4.896c.68-.79.98-1.6.92-2.2-.08-.85-1.66-1.32-1.66-1.32.3.29.42.52.48.86.18 1.19-1.91 3-5.11 3.52-2.88.47-5.56-.22-6.41-1.12-.28-.3-.25-.91-.25-.91-.34.39-.56.85-.49 1.22.14.81.97 1.74 2.57 2.25 0 .16.01.3.04.41.16.56.72 1.16 1.57 1.61-.08.16-.13.33-.12.48-.05.65.72 1.4.86 1.52.11.1.55.35.51.61-.02.1-.07.25-.13.44-.09.27-.15.35-.18.49-.07.28-.02.51.02.7.18.85.94 1.76 1.04 1.75.17-.01.09-.39.26-.7.09-.15.31-.18.51-.36.23-.2.29-.55.44-.7.31-.31.53-.14.84-.37.32-.24.33-.56.81-.91.29-.21.76-.01 1.3-.52.16-.15.41-.47.5-.65.48-.98 1.25-.98 1.35-1.65.05-.32-.07-.68-.3-.92-.02-.02-.03-.02-.05-.04 1.04-.79 1.52-1.76 1.42-2.62-.05-.39-.42-.68-.74-.87zm-1.36 4.5c-.75 1-2 1.5-3.01 1.59-1.8.16-3.07-.81-3.55-1.36-.05-.06-.09-.16-.13-.26 1.03.45 2.42.67 4.07.36 1.19-.22 2.15-.6 2.88-1.06-.02.25-.1.51-.26.73zm-2.83-1.1c-2.33.37-4.07-.07-5.06-.76-.08-.05-.14-.13-.2-.2 1.12.26 2.55.33 4.33.06 2.37-.36 3.98-1.3 4.94-2.32.06.11.11.23.13.35.15 1-1.54 2.46-4.14 2.87z"/>
</svg>