<svg xmlns="http://www.w3.org/2000/svg" width="16" height="16" fill="currentColor" class="qi-1002" viewBox="0 0 16 16">
  <path d="M2.978 4.923a.851.851 0 0 1 .013-.7c.47-.858 1.943-1.779 4.115-2.169 2.436-.436 4.068.05 4.527.662a.632.632 0 0 1 .03.743c.8-.469 1.027-.96.9-1.4-.254-.887-2.7-1.433-5.647-.889-3.032.555-4.842 1.965-4.759 2.86a1.238 1.238 0 0 0 .821.893z"/>
  <path d="M10.89 3.659c-.158-.551-1.487-1.323-3.541-.93-2.1.4-2.971 1.6-2.919 2.157a.768.768 0 0 0 .51.554.523.523 0 0 1 .008-.44A3.7 3.7 0 0 1 7.5 3.658c1.512-.271 2.525.031 2.81.411a.39.39 0 0 1 .019.461c.496-.291.64-.596.561-.871z"/>
  <path d="M13.534 4.84a3.2 3.2 0 0 0 .92-2.2c-.079-.847-1.663-1.324-1.663-1.324a1.357 1.357 0 0 1 .478.863c.183 1.188-1.907 3-5.115 3.521-2.878.466-5.562-.217-6.409-1.12a1.455 1.455 0 0 1-.253-.91A1.621 1.621 0 0 0 1 4.892c.139.808.965 1.743 2.57 2.251a1.727 1.727 0 0 0 .044.407 2.992 2.992 0 0 0 1.574 1.6.994.994 0 0 0-.123.481c-.048.654.723 1.4.856 1.518.114.1.549.348.51.61a2.866 2.866 0 0 1-.131.441c-.095.272-.145.352-.183.494a1.425 1.425 0 0 0 .016.7 3.582 3.582 0 0 0 1.036 1.754c.168-.011.085-.393.263-.7.086-.147.306-.182.511-.358.226-.2.293-.554.442-.7.312-.312.533-.141.844-.372s.332-.563.808-.912c.289-.211.757-.009 1.3-.516a2.919 2.919 0 0 0 .5-.647c.48-.979 1.251-.977 1.353-1.652a1.137 1.137 0 0 0-.3-.924c-.016-.016-.032-.021-.048-.036a3.029 3.029 0 0 0 1.425-2.62 1.342 1.342 0 0 0-.733-.871zm-1.356 4.5a4.356 4.356 0 0 1-6.557.232.8.8 0 0 1-.121-.254 7 7 0 0 0 4.066.363 8.18 8.18 0 0 0 2.882-1.064 1.484 1.484 0 0 1-.27.725zm-2.832-1.1a7.072 7.072 0 0 1-5.064-.755.836.836 0 0 1-.2-.2 11.527 11.527 0 0 0 4.328.064 8.4 8.4 0 0 0 4.944-2.317 1.076 1.076 0 0 1 .133.351c.151.986-1.543 2.448-4.141 2.86z"/>
</svg>