<svg xmlns="http://www.w3.org/2000/svg" width="16" height="16" fill="currentColor" class="qi-1003" viewBox="0 0 16 16">
  <g clip-path="url(#a)">
    <path d="M4.89 13.37c0 .63.55 1.28 1.24 1.28s1.24-.65 1.24-1.28c0-.84-1.24-2.14-1.24-2.14s-1.24 1.29-1.24 2.14zm-3.87 0c0 .63.55 1.28 1.24 1.28S3.5 14 3.5 13.37c0-.84-1.24-2.14-1.24-2.14s-1.24 1.29-1.24 2.14zm7.72 0c0 .63.55 1.28 1.24 1.28.68 0 1.24-.65 1.24-1.28 0-.84-1.24-2.14-1.24-2.14s-1.24 1.29-1.24 2.14zm3.86 0c0 .63.55 1.28 1.24 1.28s1.24-.65 1.24-1.28c0-.84-1.24-2.14-1.24-2.14s-1.24 1.29-1.24 2.14zm1.38-7.48c-.4-.56-1.03-.97-1.75-1.13-.18-1.58-1.45-2.74-2.86-2.76-1.12-.02-2.19.7-2.69 1.8-.26.03-.81.14-1.36.55-.51.39-.77.85-.88 1.08-1.16-.16-1.99.45-2.35 1.18-.14-.04-.67-.16-1.21.13-.5.27-.88.8-.88 1.43 0 .71.49 1.29 1.08 1.51.73.27 1.38-.09 1.47-.14.17.14.79.64 1.72.64.74 0 1.27-.31 1.47-.45.33.16 1.14.5 2.19.37.79-.1 1.37-.43 1.67-.63.26.18 1.02.66 2.07.63.75-.02 1.31-.29 1.6-.45.12.06.83.37 1.58.06.77-.32 1.19-1.14 1.16-1.87-.06-.99-.9-1.85-2.03-1.95z"/>
  </g>
  <defs>
    <clipPath id="a">
      <path d="M0 0h16v16H0z"/>
    </clipPath>
  </defs>
</svg>