<svg xmlns="http://www.w3.org/2000/svg" width="16" height="16" fill="currentColor" class="qi-1005" viewBox="0 0 16 16">
  <path d="M4.419 5.109a10.186 10.186 0 0 0 3.419-.63c4.59-1.635 6.684-.04 6.766.024a.7.7 0 1 0 .896-1.078c-.109-.091-2.727-2.186-8.127-.266-3.8 1.352-5.857-.191-5.946-.26A.7.7 0 0 0 .552 4a6.429 6.429 0 0 0 3.867 1.109zm2.95 2.197c-3.8 1.351-5.857-.19-5.946-.26a.7.7 0 0 0-.871 1.1 6.429 6.429 0 0 0 3.867 1.11 10.165 10.165 0 0 0 3.419-.631c4.59-1.633 6.684-.039 6.766.025a.7.7 0 1 0 .896-1.078c-.113-.09-2.731-2.185-8.131-.266zm-.879 4.136c-3.223 1.106-4.974-.246-5.056-.313a.7.7 0 0 0-.892 1.079 5.737 5.737 0 0 0 3.544 1.066 8.775 8.775 0 0 0 2.858-.508.7.7 0 1 0-.454-1.324zm8.035-.073h-1.259l.63-1.091a.7.7 0 0 0-1.213-.7l-.63 1.091-.63-1.091a.7.7 0 0 0-1.213.7l.63 1.091H9.58a.7.7 0 0 0 0 1.4h1.26l-.63 1.091a.7.7 0 0 0 1.213.7l.63-1.091.63 1.091a.7.7 0 0 0 .607.35.691.691 0 0 0 .349-.094.7.7 0 0 0 .257-.956l-.631-1.091h1.26a.7.7 0 1 0 0-1.4z"/>
</svg>