<svg xmlns="http://www.w3.org/2000/svg" width="16" height="16" fill="currentColor" class="qi-1005" viewBox="0 0 16 16">
  <path d="M4.134 5.766c.97 0 2.12-.17 3.42-.63 4.59-1.63 6.68-.04 6.77.02.3.25.74.2.99-.09a.7.7 0 0 0-.09-.99c-.11-.09-2.73-2.19-8.13-.27-3.8 1.35-5.86-.19-5.95-.26a.699.699 0 0 0-.87 1.09c.07.07 1.42 1.13 3.86 1.13zm2.95 2.19c-3.8 1.35-5.86-.19-5.95-.26a.699.699 0 0 0-.87 1.09c.08.06 1.43 1.11 3.87 1.11.97 0 2.12-.17 3.42-.63 4.59-1.63 6.68-.04 6.77.02.3.25.74.21.99-.09a.7.7 0 0 0-.09-.99c-.12-.07-2.74-2.17-8.14-.25zm-.88 4.14c-3.22 1.11-4.97-.25-5.06-.31-.3-.24-.74-.2-.98.09a.7.7 0 0 0 .09.99c.07.06 1.31 1.07 3.54 1.07.82 0 1.78-.14 2.86-.51.37-.13.56-.52.44-.89a.693.693 0 0 0-.89-.44zm8.04-.07h-1.26l.63-1.09c.19-.33.08-.76-.26-.96a.707.707 0 0 0-.96.26l-.63 1.09-.63-1.09a.71.71 0 0 0-.96-.26.71.71 0 0 0-.26.96l.63 1.09h-1.26c-.39 0-.7.31-.7.7 0 .39.31.7.7.7h1.26l-.63 1.09c-.19.33-.08.76.26.96a.717.717 0 0 0 .96-.26l.63-1.09.63 1.09a.717.717 0 0 0 .96.26.71.71 0 0 0 .26-.96l-.63-1.09h1.26c.39 0 .7-.31.7-.7 0-.39-.32-.7-.7-.7z"/>
</svg>