<svg xmlns="http://www.w3.org/2000/svg" width="16" height="16" fill="currentColor" class="qi-1007" viewBox="0 0 16 16">
  <path d="m14.92 7.784-1.46-1.45a.193.193 0 0 0-.33.14v.88h-2.88c-.63-.07-1.53-.23-2.55-.64-1.16-.46-2.86-1.15-2.58-2.42.28-1.3 2.25-1.79 3.52-1.33.94.33 1.13 1.07 1.27 1.49.09.25.28.37.46.37h1.39c.27 0 .51-.25.45-.52-.13-.59-.48-1.59-1.44-2.36-1.23-.99-3.96-1.46-6.03-.1-.35.23-.82.64-1.21 1.3-1.25 2.12.64 4.06.76 4.22H1.7c-.39 0-.7.31-.7.69 0 .38.31.69.7.69 0 0 4.58-.19 6.1 0 .77.09 1.42.37 1.84.65 1.24.85 1.97 3.31-.59 3.72-.67.11-1.24.04-1.72-.12-1.21-.41-2.13-1.88-2.27-2.18-.02-.04-.07-.18-.22-.26-.12-.07-.25-.06-.3-.06-.26.01-.68.01-1.24.01-.28 0-.48.27-.39.54.28.89 1.17 2.57 2.87 3.42 1.8.9 4.34.63 5.8-.78.21-.2.83-.81 1.09-1.81.05-.18.34-1.36-.25-2.58-.11-.24-.23-.42-.33-.55h1.05v.63c0 .17.21.26.33.14l1.46-1.45c.07-.08.07-.21-.01-.28z"/>
</svg>