<svg xmlns="http://www.w3.org/2000/svg" width="16" height="16" fill="currentColor" class="qi-1007-sandstorm-warning" viewBox="0 0 16 16">
  <path d="M15.859 8.141 14.34 9.66a.2.2 0 0 1-.34-.143V9H1a1 1 0 1 1 0-2h13v-.517a.2.2 0 0 1 .341-.142L15.86 7.86a.2.2 0 0 1 0 .282Z"/>
  <path d="M10.462 2.99c.388.39 1.052.476 1.516.156.44-.303.536-.862.177-1.238a7.2 7.2 0 0 0-1.52-1.241Q9.548 0 8.082 0 6.189 0 4.984 1.063 3.802 2.104 3.802 3.625q0 .708.307 1.417.307.708.97 1.333.286.262.768.625h3.366l-.162-.104q-2.034-1.334-2.6-1.917-.569-.583-.568-1.354 0-.792.59-1.292.615-.5 1.49-.5.9 0 1.561.396.413.234.938.761M11.725 9q.18.189.33.375.945 1.167.945 2.458 0 1.687-1.49 2.938Q10.044 16 8.082 16q-3.056 0-4.946-2.662c-.284-.4-.105-.918.36-1.154a1.175 1.175 0 0 1 1.43.328q1.329 1.738 2.92 1.738 1.228 0 2.104-.688.875-.687.875-1.604 0-.915-.733-1.729Q9.617 9.689 8.694 9z"/>
</svg>