<svg xmlns="http://www.w3.org/2000/svg" width="16" height="16" fill="currentColor" class="qi-1007" viewBox="0 0 16 16">
  <path d="M14.957 7.85 13.493 6.4a.2.2 0 0 0-.333.136v.882h-2.883a9.574 9.574 0 0 1-2.551-.641C6.57 6.315 4.87 5.631 5.145 4.355c.279-1.3 2.246-1.792 3.518-1.331A2.018 2.018 0 0 1 9.938 4.51a.489.489 0 0 0 .455.366h1.386a.455.455 0 0 0 .452-.516A4.162 4.162 0 0 0 10.793 2a5.528 5.528 0 0 0-6.032-.1 3.939 3.939 0 0 0-1.214 1.3c-1.252 2.118.644 4.063.76 4.219H1.716a.695.695 0 1 0 0 1.389s4.583-.185 6.1 0a4.283 4.283 0 0 1 1.839.653c1.243.848 1.973 3.31-.587 3.72a3.527 3.527 0 0 1-1.718-.122 4.9 4.9 0 0 1-2.27-2.179.547.547 0 0 0-.218-.262.532.532 0 0 0-.3-.061c-.258.011-.685.011-1.241.012a.414.414 0 0 0-.393.543 6.081 6.081 0 0 0 2.872 3.42 5.329 5.329 0 0 0 5.8-.782 3.869 3.869 0 0 0 1.087-1.808 3.919 3.919 0 0 0-.248-2.583 3.664 3.664 0 0 0-.327-.551h1.048v.628a.2.2 0 0 0 .333.137l1.464-1.449a.193.193 0 0 0 0-.274z"/>
</svg>