<svg xmlns="http://www.w3.org/2000/svg" width="16" height="16" fill="currentColor" class="qi-1008" viewBox="0 0 16 16">
  <path d="M14.29 10.283c-.39 0-.7.31-.7.7v3.15H2.4v-3.09c0-.38-.32-.7-.7-.7-.38 0-.7.32-.7.7v3.79c0 .39.31.7.7.7h12.59c.39 0 .7-.31.7-.7v-3.85c0-.38-.31-.7-.7-.7z"/>
  <path d="M3.81 8.033h2.98l-1.49 2.58c-.19.33-.08.76.26.96a.717.717 0 0 0 .96-.26l1.49-2.58 1.49 2.58a.717.717 0 0 0 .96.26.71.71 0 0 0 .26-.96l-1.49-2.58h2.98c.39 0 .7-.31.7-.7 0-.39-.31-.7-.7-.7H9.23l1.49-2.58c.19-.33.08-.76-.26-.96a.707.707 0 0 0-.96.26L8 5.933l-1.49-2.58a.71.71 0 0 0-.96-.26.71.71 0 0 0-.26.96l1.49 2.58H3.8c-.39 0-.7.31-.7.7 0 .39.32.7.71.7z"/>
</svg>