<svg xmlns="http://www.w3.org/2000/svg" width="16" height="16" fill="currentColor" class="qi-1009" viewBox="0 0 16 16">
  <path d="M6.065 4.663H4.576v-1.49a.7.7 0 1 0-1.4 0v1.49H1.687a.7.7 0 1 0 0 1.4h1.49v1.489a.7.7 0 0 0 1.4 0V6.064h1.488a.7.7 0 0 0 0-1.401Zm7.68 3.364V3.749a2.954 2.954 0 0 0-2.95-2.95 2.954 2.954 0 0 0-2.95 2.95v4.278a4.178 4.178 0 0 0-1.25 2.968c0 2.316 1.885 4.2 4.2 4.2 2.315 0 4.2-1.884 4.2-4.2a4.177 4.177 0 0 0-1.25-2.968Zm-2.95 5.768a2.803 2.803 0 0 1-2.8-2.8 2.79 2.79 0 0 1 1.002-2.126.7.7 0 0 0 .248-.534V3.749c0-.854.695-1.55 1.55-1.55.855 0 1.55.695 1.55 1.55v4.586a.7.7 0 0 0 .248.534 2.787 2.787 0 0 1 1.002 2.126c0 1.544-1.256 2.8-2.8 2.8Z"/>
  <path d="M11.245 9.403V5.275a.5.5 0 0 0-1 0v4.141a1.754 1.754 0 0 0 .522 3.431 1.76 1.76 0 0 0 1.759-1.759c0-.805-.543-1.476-1.281-1.685Z"/>
</svg>