<svg xmlns="http://www.w3.org/2000/svg" width="16" height="16" fill="currentColor" class="qi-1009" viewBox="0 0 16 16">
  <path d="M6.065 4.663H4.576V3.174a.7.7 0 1 0-1.4 0v1.489H1.687a.7.7 0 1 0 0 1.4h1.489v1.49a.7.7 0 0 0 1.4 0V6.064h1.489a.7.7 0 1 0 0-1.4zm7.68 3.364V3.749a2.95 2.95 0 1 0-5.9 0v4.278a4.2 4.2 0 1 0 5.9 0zM10.8 13.8A2.786 2.786 0 0 1 9 8.869a.7.7 0 0 0 .248-.534V3.749a1.55 1.55 0 0 1 3.1 0v4.586a.7.7 0 0 0 .248.534A2.786 2.786 0 0 1 10.8 13.8z"/>
  <path d="M11.245 9.4V5.275a.5.5 0 0 0-1 0v4.142a1.757 1.757 0 1 0 1-.014z"/>
</svg>