<svg xmlns="http://www.w3.org/2000/svg" width="16" height="16" fill="currentColor" class="qi-1009" viewBox="0 0 16 16">
  <path d="M6.08 4.87H4.59V3.38c0-.39-.31-.7-.7-.7-.39 0-.7.31-.7.7v1.49H1.7c-.39 0-.7.31-.7.7 0 .39.31.7.7.7h1.49v1.49c0 .39.31.7.7.7.39 0 .7-.31.7-.7V6.27h1.49c.39 0 .7-.31.7-.7 0-.39-.32-.7-.7-.7zm7.68 3.36V3.95a2.949 2.949 0 1 0-5.9 0v4.28c-.8.79-1.25 1.85-1.25 2.97a4.2 4.2 0 1 0 8.4 0c0-1.11-.46-2.18-1.25-2.97zM10.81 14c-1.54 0-2.8-1.26-2.8-2.8 0-.81.37-1.59 1-2.13.16-.13.25-.33.25-.53V3.95c0-.85.7-1.55 1.55-1.55.85 0 1.55.7 1.55 1.55v4.59c0 .21.09.4.25.53.64.54 1 1.31 1 2.13 0 1.55-1.26 2.8-2.8 2.8z"/>
  <path d="M11.26 9.61V5.48c0-.28-.22-.5-.5-.5s-.5.22-.5.5v4.14c-.71.22-1.24.88-1.24 1.67 0 .97.79 1.76 1.76 1.76s1.76-.79 1.76-1.76c0-.8-.55-1.47-1.28-1.68z"/>
</svg>