<svg xmlns="http://www.w3.org/2000/svg" width="16" height="16" fill="currentColor" class="qi-101" viewBox="0 0 16 16">
  <path fill-rule="evenodd" d="M5.176 2.052a.516.516 0 0 1-.181-.29L4.74.612A.516.516 0 0 1 5.746.388l.256 1.15a.517.517 0 0 1-.826.514ZM2.267 4.153l-.994-.633a.516.516 0 0 1 .554-.87l.995.633a.516.516 0 0 1-.555.87Zm-.239 3.62-1.15.255A.516.516 0 1 1 .655 7.02l1.15-.256a.516.516 0 1 1 .223 1.008Zm9.2-2.037a.516.516 0 1 1-.224-1.008l1.15-.256a.516.516 0 1 1 .224 1.008l-1.15.256ZM9.161 2.781a.516.516 0 0 1-.547-.78l.633-.994a.516.516 0 0 1 .87.554l-.633.994a.516.516 0 0 1-.323.226ZM3.4 7.887a3.506 3.506 0 0 1-.33-.87 3.535 3.535 0 1 1 6.901-1.536c.033.17.053.34.061.512a5.42 5.42 0 0 0-1.063-.25.114.114 0 0 1-.003-.019c0-.006 0-.012-.002-.019a2.5 2.5 0 0 0-2.988-1.9 2.504 2.504 0 0 0-1.9 2.988c.05.212.129.417.233.608a3.13 3.13 0 0 1-.909.486Zm8.452 6.65a4.766 4.766 0 0 1-3.446 1.448 4.77 4.77 0 0 1-3.402-1.404.322.322 0 0 0-.324-.077 2.917 2.917 0 0 1-.867.131c-1.554 0-2.813-1.209-2.813-2.7s1.26-2.7 2.813-2.7c.104 0 .207.006.309.016a.316.316 0 0 0 .3-.138c.827-1.277 2.302-2.128 3.984-2.128 1.692 0 3.174.86 3.998 2.15a.32.32 0 0 0 .32.137c.15-.024.306-.037.463-.037 1.554 0 2.813 1.209 2.813 2.7s-1.26 2.7-2.813 2.7c-.35 0-.685-.061-.994-.173a.323.323 0 0 0-.341.074Zm-.305-1.084c.11-.162.359-.19.52-.074.313.224.7.356 1.12.356 1.036 0 1.876-.806 1.876-1.8s-.84-1.8-1.876-1.8c-.288 0-.561.063-.805.174-.182.084-.421.01-.497-.17-.555-1.322-1.904-2.254-3.479-2.254-1.554 0-2.887.908-3.456 2.2-.072.165-.282.238-.455.173a1.94 1.94 0 0 0-.683-.123c-1.035 0-1.874.806-1.874 1.8s.839 1.8 1.875 1.8c.376 0 .727-.107 1.021-.29.156-.098.376-.067.482.08a3.792 3.792 0 0 0 3.09 1.56c1.315 0 2.471-.65 3.14-1.632Z"/>
</svg>