<svg xmlns="http://www.w3.org/2000/svg" width="16" height="16" fill="currentColor" class="qi-1010" viewBox="0 0 16 16">
  <path d="M8.254 6.75a.671.671 0 0 0-.79.53c-.07.36.16.72.53.79.11.02.75.14 1.51.14.53 0 1.12-.06 1.62-.26 1.61-.63 2.66.01 2.7.03.31.21.73.12.93-.19.2-.31.12-.73-.19-.93-.07-.04-1.64-1.06-3.93-.17-.72.29-1.96.14-2.38.06zm6.31 2.9c-.07-.04-1.64-1.06-3.93-.17-.72.28-1.96.13-2.38.05a.671.671 0 0 0-.79.53c-.07.36.16.72.53.79.11.02.75.14 1.51.14.53 0 1.12-.06 1.62-.26 1.61-.63 2.66.01 2.7.03.31.21.73.12.93-.19.2-.31.12-.71-.19-.92z"/>
  <path d="M13.604 12.1c-.34.19-.46.61-.27.95.06.11.02.2 0 .23-.03.06-.08.08-.13.08H2.554c-.05 0-.1-.03-.13-.08a.225.225 0 0 1 0-.23l5.33-9.56c.07-.12.2-.12.27 0l.51.93c.19.34.61.46.95.27.34-.19.46-.61.28-.95l-.51-.93c-.28-.51-.79-.81-1.36-.81-.57 0-1.08.3-1.36.81l-5.33 9.56c-.28.5-.27 1.13.02 1.62.29.48.79.77 1.34.77h10.65c.55 0 1.05-.29 1.34-.77.29-.5.3-1.12.02-1.62a.74.74 0 0 0-.97-.27z"/>
</svg>