<svg xmlns="http://www.w3.org/2000/svg" width="16" height="16" fill="currentColor" class="qi-1010" viewBox="0 0 16 16">
  <path d="M8.389 6.411a.673.673 0 0 0-.264 1.319 8.365 8.365 0 0 0 1.512.144 4.592 4.592 0 0 0 1.62-.255 3.112 3.112 0 0 1 2.7.034.672.672 0 1 0 .743-1.121 4.41 4.41 0 0 0-3.93-.166 5.287 5.287 0 0 1-2.381.045zM14.7 9.314a4.407 4.407 0 0 0-3.93-.166 5.3 5.3 0 0 1-2.379.045.673.673 0 0 0-.264 1.319 8.365 8.365 0 0 0 1.512.144 4.592 4.592 0 0 0 1.62-.255 3.108 3.108 0 0 1 2.7.034.672.672 0 0 0 .741-1.121z"/>
  <path d="M13.736 11.764a.7.7 0 0 0-.273.951.235.235 0 0 1 0 .234.15.15 0 0 1-.132.085H2.673a.15.15 0 0 1-.132-.085.232.232 0 0 1 0-.231l5.324-9.562a.146.146 0 0 1 .27 0l.513.931a.7.7 0 0 0 1.227-.675l-.514-.931a1.544 1.544 0 0 0-2.72 0l-5.329 9.558a1.641 1.641 0 0 0 .023 1.622 1.545 1.545 0 0 0 1.338.773h10.654a1.545 1.545 0 0 0 1.338-.773 1.638 1.638 0 0 0 .022-1.622.7.7 0 0 0-.951-.275z"/>
</svg>