<svg xmlns="http://www.w3.org/2000/svg" width="16" height="16" fill="currentColor" class="qi-1010" viewBox="0 0 16 16">
  <path d="M8.01 2.504a.5.5 0 0 1-.501-.5v-1.5a.5.5 0 1 1 1 0v1.5a.5.5 0 0 1-.5.5ZM3.766 4.257a.498.498 0 0 1-.353-.147L2.351 3.05a.5.5 0 0 1 .707-.708l1.064 1.06a.5.5 0 0 1-.355.854ZM2.004 8.496h-1.5a.5.5 0 1 1 0-1h1.5a.5.5 0 0 1 0 1Zm.691 5.305a.501.501 0 0 1-.354-.854l1.062-1.06a.5.5 0 0 1 .708.707l-1.063 1.06a.497.497 0 0 1-.353.147Zm5.301 2.202a.5.5 0 0 1-.5-.5v-1.5a.5.5 0 0 1 1 0v1.5a.5.5 0 0 1-.5.5Zm-.869-3.585a4.5 4.5 0 0 0 1.373.06v-8.95A4.498 4.498 0 0 0 3.848 6.28a4.503 4.503 0 0 0 3.28 6.138Zm8.876-4.408A.506.506 0 0 0 16 7.955v.11a.506.506 0 0 0 .003-.055ZM14.062 5c.679-.038 1.06.07 1.723.484.095.06.19-.108.21-.376.022-.268-.038-.533-.133-.592-.69-.433-1.1-.549-1.807-.509-.44.025-.777.274-1.095.51l-.005.003c-.32.236-.621.458-1.017.48-.679.038-1.06-.07-1.723-.484-.095-.06-.19.108-.21.376-.022.268.038.533.133.592.69.433 1.1.548 1.807.509.44-.025.777-.274 1.095-.51l.005-.003c.32-.236.621-.458 1.017-.48Z"/>
  <path d="M15.785 8.484c-.662-.415-1.044-.522-1.723-.484-.396.022-.697.244-1.017.48l-.005.003c-.318.236-.655.485-1.095.51-.707.04-1.117-.076-1.807-.509-.095-.06-.155-.324-.134-.592.021-.268.116-.436.21-.376.663.415 1.045.522 1.724.484.396-.022.697-.244 1.017-.48l.005-.003c.318-.236.655-.485 1.095-.51.707-.04 1.117.076 1.807.509.095.06.155.324.134.592-.021.268-.116.436-.21.376ZM14.062 11c.679-.038 1.06.07 1.723.485.095.06.19-.11.21-.377.022-.268-.038-.533-.133-.593-.69-.432-1.1-.548-1.807-.508-.44.025-.777.274-1.095.51l-.005.003c-.32.236-.621.458-1.017.48-.679.038-1.06-.07-1.723-.485-.095-.06-.19.11-.21.377-.022.268.038.533.133.593.69.432 1.1.548 1.807.508.44-.025.777-.274 1.095-.51l.005-.003c.32-.236.621-.458 1.017-.48Z"/>
</svg>