<svg xmlns="http://www.w3.org/2000/svg" width="16" height="16" fill="currentColor" class="qi-1011" viewBox="0 0 16 16">
  <path d="M4.9 1.5c-.9.3-1.2 1.1-1.1 1.6-.7-.8-.7-1.7-.6-3.1-2.1.8-1.6 3.2-1.7 4C1 3.5.9 2.5.9 2.5.3 2.8 0 3.6 0 4.3 0 5.9 1.3 7 2.8 7c1.5 0 2.7-1.2 2.7-2.7 0-1.1-.6-1.4-.6-2.8ZM2 9h6a1 1 0 1 0-.943-1.333.5.5 0 1 1-.943-.334A2 2 0 1 1 8 10H2a.5.5 0 0 1 0-1Z"/>
  <path d="M11.079 8.375A2.5 2.5 0 0 1 16 9c0 1.397-1.24 2.5-2.5 2.5H.5a.5.5 0 0 1 0-1h13c.74 0 1.5-.688 1.5-1.5a1.5 1.5 0 0 0-2.953-.375.5.5 0 1 1-.968-.25ZM2.5 12.5A.5.5 0 0 1 3 12h8a2 2 0 1 1-1.886 2.667.5.5 0 1 1 .943-.334A1 1 0 1 0 11 13H3a.5.5 0 0 1-.5-.5Z"/>
</svg>