<svg xmlns="http://www.w3.org/2000/svg" width="16" height="16" fill="currentColor" class="qi-1011" viewBox="0 0 16 16">
  <path d="M11.1 10.76c-.74-.89-.79-1.92-.7-3.39-2.36.92-1.81 3.56-1.88 4.36-.59-.5-.71-1.7-.71-1.7-.63.33-.94 1.22-.94 1.94 0 1.74 1.4 3.01 3.09 3.01s3.02-1.27 3.02-3.01c0-1.03-.71-1.38-.63-2.93-1.02.3-1.31 1.17-1.25 1.72z"/>
  <path d="M14.56 3.69S7.58 1.63 5.24 1.02a.702.702 0 0 0-.84.5l-3.38 12.6c-.09.37.12.74.48.85.37.11.77-.11.88-.48l1.46-5.45 10.83-4.21c.49-.26.43-.99-.11-1.14z"/>
</svg>