<svg xmlns="http://www.w3.org/2000/svg" width="16" height="16" fill="currentColor" class="qi-1012" viewBox="0 0 16 16">
  <path d="M11.3 8.089a3.074 3.074 0 0 0 1.436-.4 1.8 1.8 0 0 0 1.422.051 1.761 1.761 0 0 0 1.035-1.69 1.939 1.939 0 0 0-1.823-1.737A2.639 2.639 0 0 0 11.8 3.3 2.731 2.731 0 0 0 9.228.811a2.678 2.678 0 0 0-2.423 1.623 2.588 2.588 0 0 0-2.013 1.472 1.988 1.988 0 0 0-2.115 1.063 1.527 1.527 0 0 0-1.084.117 1.462 1.462 0 0 0-.785 1.273 1.482 1.482 0 0 0 .97 1.358A1.6 1.6 0 0 0 3.1 7.588a2.418 2.418 0 0 0 1.543.576 2.38 2.38 0 0 0 1.138-.293v2.656a2.563 2.563 0 0 1-2.913 2.547.863.863 0 0 0-.98.746.831.831 0 0 0 .98.7c2.394-.172 4.352-1.585 4.352-3.988V8.1a3.369 3.369 0 0 0 .72-.012 3.416 3.416 0 0 0 .881-.238v2.676c0 2.4 1.809 3.862 4.352 3.988a.888.888 0 0 0 1.012-.72.88.88 0 0 0-1.012-.721 2.563 2.563 0 0 1-2.913-2.547v-2.6a2.959 2.959 0 0 0 1.04.163z"/>
</svg>