<svg xmlns="http://www.w3.org/2000/svg" width="16" height="16" fill="currentColor" class="qi-1012" viewBox="0 0 16 16">
  <path d="M11.46 8.29c.68-.02 1.18-.26 1.44-.4.11.05.74.34 1.42.05.69-.29 1.07-1.02 1.04-1.69-.04-.87-.81-1.65-1.82-1.74-.36-.51-.92-.87-1.57-1.02C11.81 2.07 10.66 1.02 9.4 1c-1.01-.02-1.97.63-2.42 1.62a2.608 2.608 0 0 0-2.01 1.47c-1.05-.14-1.79.41-2.11 1.06-.12-.03-.6-.14-1.08.12-.44.23-.78.71-.78 1.27 0 .64.44 1.16.97 1.36.66.25 1.24-.08 1.32-.13.15.13.71.57 1.54.58.5 0 .9-.16 1.14-.29v2.66c0 1.61-1.31 2.66-2.91 2.55-.57-.04-.98.37-.98.75s.41.74.98.7c2.39-.17 4.35-1.59 4.35-3.99V8.3c.22.02.46.02.72-.01.34-.04.64-.14.88-.24v2.68c0 2.4 1.81 3.86 4.35 3.99.57.03 1.01-.34 1.01-.72 0-.38-.44-.76-1.01-.72-1.6.12-2.91-.94-2.91-2.55v-2.6c.26.09.6.17 1.01.16z"/>
</svg>