<svg xmlns="http://www.w3.org/2000/svg" width="16" height="16" fill="currentColor" class="qi-1013" viewBox="0 0 16 16">
  <path d="M5.534 11.7h-.651l.325-.563a.681.681 0 0 0-1.18-.682l-.325.563-.325-.563a.682.682 0 0 0-1.181.682l.325.563h-.65a.682.682 0 1 0 0 1.363h.65l-.325.563a.682.682 0 0 0 1.181.682l.325-.563.325.563a.681.681 0 1 0 1.18-.682l-.325-.563h.651a.682.682 0 0 0 0-1.363zm7.747.406h-.3l.149-.259a.681.681 0 1 0-1.18-.682l-.15.259-.149-.259a.682.682 0 0 0-1.181.682l.15.259h-.3a.682.682 0 0 0 0 1.363h.3l-.15.259a.682.682 0 0 0 1.181.681l.149-.259.15.259a.681.681 0 1 0 1.18-.681l-.149-.259h.3a.682.682 0 1 0 0-1.363zM14.5 6.065h-.419l.209-.363a.681.681 0 0 0-1.18-.682l-.21.363-.209-.363a.681.681 0 1 0-1.18.682l.209.363h-.42a.682.682 0 0 0 0 1.363h.419l-.209.362a.681.681 0 1 0 1.18.682l.209-.363.21.363a.681.681 0 1 0 1.18-.682l-.209-.362h.42a.682.682 0 0 0 0-1.363zM1.86 5.287h.563l-.282.487a.681.681 0 0 0 1.18.681l.279-.488.282.488a.681.681 0 0 0 1.179-.681l-.281-.487h.563a.682.682 0 0 0 0-1.363h-.56l.281-.487a.681.681 0 1 0-1.179-.682l-.285.488-.282-.488a.681.681 0 0 0-1.18.682l.282.487h-.56a.682.682 0 1 0 0 1.363zm7.766 4.769-.512-.676.842-.105a.682.682 0 0 0-.169-1.353l-.842.1.33-.781a.681.681 0 0 0-1.256-.529L7.69 7.5l-.512-.676a.681.681 0 0 0-1.086.822l.508.674-.842.105a.682.682 0 0 0 .169 1.353l.841-.105-.329.781a.681.681 0 1 0 1.255.529l.33-.781.512.676a.681.681 0 1 0 1.086-.822zM7.472 4.1a2.978 2.978 0 0 0 .493-.056l-.16.377a.682.682 0 0 0 .363.893.688.688 0 0 0 .717-.114.742.742 0 0 0 .176-.247l.159-.378.248.327a.681.681 0 0 0 1.087-.822l-.248-.327.407-.051a.682.682 0 0 0-.169-1.353l-.407.051.159-.378a.681.681 0 0 0-1.255-.529l-.16.378-.247-.331a.681.681 0 1 0-1.087.822l.248.327-.407.051a.682.682 0 0 0 .083 1.36z"/>
</svg>