<svg xmlns="http://www.w3.org/2000/svg" width="16" height="16" fill="currentColor" class="qi-1013" viewBox="0 0 16 16">
  <path d="M5.36 11.645h-.65l.33-.56c.19-.33.08-.74-.25-.93a.675.675 0 0 0-.93.25l-.33.56-.33-.56a.677.677 0 0 0-.93-.25c-.33.19-.44.6-.25.93l.33.56H1.7a.68.68 0 0 0 0 1.36h.65l-.33.56c-.19.32-.07.74.25.93.32.19.74.07.93-.25l.33-.56.33.56c.19.32.61.44.93.25.32-.19.44-.61.25-.93l-.33-.56h.65a.68.68 0 0 0 0-1.36zm7.74.4h-.3l.15-.26c.19-.33.08-.74-.25-.93a.677.677 0 0 0-.93.25l-.15.26-.15-.26a.675.675 0 0 0-.93-.25c-.33.19-.44.6-.25.93l.15.26h-.3a.68.68 0 0 0 0 1.36h.3l-.15.26c-.19.32-.07.74.25.93.32.19.74.07.93-.25l.15-.26.15.26c.19.32.61.44.93.25.32-.19.44-.61.25-.93l-.15-.26h.3a.68.68 0 0 0 0-1.36zm1.22-6.04h-.42l.21-.36c.19-.33.08-.74-.25-.93a.677.677 0 0 0-.93.25l-.21.36-.21-.36a.675.675 0 0 0-.93-.25c-.33.19-.44.6-.25.93l.21.36h-.42a.68.68 0 0 0 0 1.36h.42l-.21.36c-.19.32-.07.74.25.93.32.19.74.07.93-.25l.21-.36.21.36c.19.32.61.44.93.25.32-.19.44-.61.25-.93l-.21-.36h.42a.68.68 0 0 0 0-1.36zm-12.64-.78h.56l-.28.49c-.19.32-.07.74.25.93.32.19.74.07.93-.25l.28-.49.28.49c.19.32.61.44.93.25.32-.19.44-.61.25-.93l-.28-.49h.56a.68.68 0 0 0 0-1.36H4.6l.28-.49c.19-.33.08-.74-.25-.93a.677.677 0 0 0-.93.25l-.28.49-.28-.49a.675.675 0 0 0-.93-.25c-.33.19-.44.6-.25.93l.28.49h-.56a.68.68 0 0 0 0 1.36zm7.77 4.77-.51-.68.84-.11c.37-.05.64-.39.59-.76a.69.69 0 0 0-.76-.59l-.84.11.33-.78a.676.676 0 0 0-.36-.89.676.676 0 0 0-.89.36l-.33.78-.51-.68a.674.674 0 0 0-.95-.13c-.3.23-.36.65-.13.95l.51.68-.84.11c-.37.05-.64.39-.59.76.05.37.39.64.76.59l.84-.11-.33.78c-.15.34.02.75.36.89.34.14.75-.02.89-.36l.33-.78.51.68c.23.3.66.36.95.13a.69.69 0 0 0 .13-.95zm-2.16-5.96c.16 0 .39-.03.49-.06l-.16.38c-.02.04-.11.27 0 .52.01.04.11.26.37.37a.691.691 0 0 0 .9-.37l.16-.38.25.33c.23.3.66.36.95.13.3-.23.36-.66.13-.95l-.25-.33.41-.05c.37-.05.64-.39.59-.76a.685.685 0 0 0-.76-.59l-.41.05.16-.38a.676.676 0 0 0-.36-.89.676.676 0 0 0-.89.36l-.16.38-.25-.31a.674.674 0 0 0-.95-.13c-.3.23-.36.65-.13.95l.25.33-.41.05c-.37.05-.64.39-.59.76.03.34.33.59.66.59z"/>
</svg>