<svg xmlns="http://www.w3.org/2000/svg" width="16" height="16" fill="currentColor" class="qi-1015" viewBox="0 0 16 16">
  <g clip-path="url(#a)">
    <path d="m1.18 11.56 1.34 2.82 1.39-2.82-1.39-1.5-1.34 1.5zm3.67 0 1.34 2.82 1.39-2.82-1.39-1.5-1.34 1.5zm3.66 0 1.34 2.82 1.39-2.82-1.39-1.5-1.34 1.5zm3.67 0 1.34 2.82 1.39-2.82-1.39-1.5-1.34 1.5zm1.79-6.67c-.4-.56-1.03-.97-1.75-1.13-.18-1.58-1.45-2.74-2.86-2.76-1.12-.02-2.19.7-2.69 1.8-.26.03-.81.14-1.36.55-.51.39-.77.85-.88 1.08-1.16-.16-1.99.45-2.35 1.18-.14-.04-.67-.16-1.21.13C.38 6 0 6.53 0 7.15c0 .71.49 1.29 1.08 1.51.73.27 1.38-.09 1.47-.14.17.14.79.64 1.72.64.74 0 1.27-.31 1.47-.45.33.16 1.14.5 2.19.37.79-.1 1.37-.43 1.67-.63.26.18 1.02.66 2.07.63.75-.02 1.31-.29 1.6-.45.12.06.83.37 1.58.06.77-.32 1.19-1.14 1.16-1.87-.07-.97-.91-1.83-2.04-1.93z"/>
  </g>
  <defs>
    <clipPath id="a">
      <path d="M0 0h16v16H0z"/>
    </clipPath>
  </defs>
</svg>