<svg xmlns="http://www.w3.org/2000/svg" width="16" height="16" fill="currentColor" class="qi-1016" viewBox="0 0 16 16">
  <path d="M14.29 3c-.39 0-.7.31-.7.7v10.6H2.4V3.7c0-.39-.32-.7-.7-.7-.38 0-.7.32-.7.7V15c0 .39.31.7.7.7h12.59c.39 0 .7-.31.7-.7V3.7c0-.39-.31-.7-.7-.7z"/>
  <path d="M4.12 9.02h2.65l-1.32 2.29c-.19.33-.08.76.26.96a.717.717 0 0 0 .96-.26l1.32-2.29 1.32 2.29a.717.717 0 0 0 .96.26.71.71 0 0 0 .26-.96L9.21 9.02h2.65c.39 0 .7-.31.7-.7 0-.39-.31-.7-.7-.7H9.21l1.32-2.29a.704.704 0 0 0-1.22-.7L7.99 6.92 6.67 4.63a.71.71 0 0 0-.96-.26.71.71 0 0 0-.26.96l1.32 2.29H4.12c-.39 0-.7.31-.7.7 0 .39.32.7.7.7z"/>
</svg>