<svg xmlns="http://www.w3.org/2000/svg" width="16" height="16" fill="currentColor" class="qi-1016" viewBox="0 0 16 16">
  <path d="M14.3 2.05a.7.7 0 0 0-.7.7v10.6H2.4V2.752a.7.7 0 1 0-1.4 0v11.3a.7.7 0 0 0 .7.7h12.6a.7.7 0 0 0 .7-.7v-11.3a.7.7 0 0 0-.7-.702z"/>
  <path d="M4.133 8.073h2.648l-1.324 2.293a.7.7 0 1 0 1.213.7l1.324-2.293 1.323 2.293a.7.7 0 1 0 1.213-.7L9.206 8.073h2.648a.7.7 0 1 0 0-1.4H9.207l1.323-2.294a.7.7 0 0 0-1.213-.7L7.994 5.972 6.67 3.679a.7.7 0 0 0-1.213.7l1.324 2.293H4.133a.7.7 0 0 0 0 1.4z"/>
</svg>