<svg xmlns="http://www.w3.org/2000/svg" width="16" height="16" fill="currentColor" class="qi-1017" viewBox="0 0 16 16">
  <path d="M12.699 8.052a.23.23 0 0 0-.398 0l-3.27 5.67a.227.227 0 0 0 .198.34h6.542a.227.227 0 0 0 .198-.34l-3.27-5.67Zm-.744 1.876c-.028-.247.224-.46.545-.46.32 0 .573.213.545.46l-.246 2.166H12.2l-.246-2.166Zm.986 3.04a.438.438 0 1 1-.875 0 .438.438 0 0 1 .875 0ZM0 3.79C0 3.352.347 3 .774 3h14.452c.427 0 .774.353.774.79a.782.782 0 0 1-.774.789H.774A.782.782 0 0 1 0 3.789ZM0 8c0-.436.347-.79.774-.79h9.29c.428 0 .775.354.775.79 0 .436-.347.79-.774.79H.775A.782.782 0 0 1 0 8Zm0 4.21c0-.436.347-.789.774-.789h6.71c.427 0 .774.354.774.79a.782.782 0 0 1-.774.789H.774A.782.782 0 0 1 0 12.21Z"/>
</svg>