<svg xmlns="http://www.w3.org/2000/svg" width="16" height="16" fill="currentColor" class="qi-1018" viewBox="0 0 16 16">
  <path d="M7.856 11.93a2.81 2.81 0 1 0 0-5.62 2.81 2.81 0 0 0 0 5.62zm0-6.78c.97 0 1.64.48 1.83.63.01-.17.03-.38.03-.63C9.736 2.8 8.756 0 7.856 0c-.68 0-1.85 2.31-1.85 5.15 0 .21.02.41.03.62.2-.15.86-.62 1.82-.62zm-3.33 6.1a2.94 2.94 0 0 1-.37-1.9c-.15.07-.34.17-.56.29-2.05 1.16-3.98 3.4-3.53 4.18.34.59 2.92.45 5.38-.97.18-.11.35-.22.52-.33-.23-.1-.96-.43-1.44-1.27zm7.87-1.76c-.21-.12-.4-.21-.55-.28.08.63-.03 1.29-.38 1.88-.35.6-.87 1.02-1.46 1.27.17.11.34.23.53.34 2.46 1.42 5.05 1.56 5.39.97.46-.78-1.49-3.02-3.53-4.18z"/>
</svg>