<svg xmlns="http://www.w3.org/2000/svg" width="16" height="16" fill="currentColor" class="qi-1019" viewBox="0 0 16 16">
  <path d="M15.51 5.78c-.11-.2-.72-1.2-1.96-1.61 0 0-.51-.17-1.08-.17C10.91 4 8.81 5.56 8 6.67 7.75 6.38 5.62 3.98 3.53 4c-.56 0-1.06.17-1.06.17C1.22 4.57.61 5.58.49 5.79.37 6 0 6.68 0 7.63c0 .95.36 1.63.49 1.84.12.2.72 1.2 1.96 1.61 0 0 .51.17 1.08.17 1.54 0 3.65-1.58 4.47-2.69.82 1.12 2.93 2.69 4.47 2.69.6 0 1.12-.19 1.12-.19 1.21-.42 1.8-1.39 1.92-1.6.12-.21.49-.89.49-1.84a3.84 3.84 0 0 0-.49-1.84z"/>
</svg>