<svg xmlns="http://www.w3.org/2000/svg" width="16" height="16" fill="currentColor" class="qi-1020" viewBox="0 0 16 16">
  <path d="M11.85 10.27h-1.43c-.06 0-.09-.06-.06-.11l1.36-2.1c.07-.1-.01-.23-.13-.23H9.14c-.11 0-.21.06-.26.15l-1.82 3.28c-.08.14.02.32.19.32h1.46c.05 0 .08.05.07.09l-1.01 3.46L12 10.64c.14-.15.05-.37-.15-.37z"/>
  <path d="M14.56 3.69S7.58 1.63 5.24 1.02a.702.702 0 0 0-.84.5L1.02 14.13c-.09.37.12.74.48.85.37.11.77-.11.88-.48l1.46-5.45 10.83-4.21c.49-.27.43-1-.11-1.15z"/>
</svg>