<svg xmlns="http://www.w3.org/2000/svg" width="16" height="16" fill="currentColor" class="qi-1020" viewBox="0 0 16 16">
  <path d="M2 3h6a1 1 0 1 0-.943-1.333.5.5 0 1 1-.943-.334A2 2 0 1 1 8 4H2a.5.5 0 0 1 0-1Z"/>
  <path d="M11.079 2.375A2.5 2.5 0 0 1 16 3c0 1.397-1.24 2.5-2.5 2.5H.5a.5.5 0 0 1 0-1h13c.74 0 1.5-.688 1.5-1.5a1.5 1.5 0 0 0-2.953-.375.5.5 0 1 1-.968-.25ZM2.5 6.5A.5.5 0 0 1 3 6h8a2 2 0 1 1-1.886 2.667.5.5 0 1 1 .943-.334A1 1 0 1 0 11 7H3a.5.5 0 0 1-.5-.5Zm2.96 6.126c-.054 0-.089-.05-.065-.093l.792-1.438C6.21 11.05 6.176 11 6.122 11H4.544a.147.147 0 0 0-.076.02.158.158 0 0 0-.058.057l-1.397 2.637c-.042.079.022.17.118.17h1.42c.05 0 .084.043.069.086l-.739 1.943c-.027.07.072.118.124.063l2.978-3.243c.04-.042.006-.107-.055-.107H5.46Zm4.698 2.886a1.666 1.666 0 0 1-.488-1.179c0-.833.926-2.325 1.667-3.333.74 1.008 1.666 2.5 1.666 3.333a1.666 1.666 0 0 1-2.845 1.179Z"/>
</svg>