<svg xmlns="http://www.w3.org/2000/svg" width="16" height="16" fill="currentColor" class="qi-1021" viewBox="0 0 16 16">
  <path d="m8.61 11.9 6.35-1.63-3.66-.78 1.62-2.58a.77.77 0 0 0 .12-.44l-.09-3.14a.816.816 0 0 0-.37-.65L8.51.12a.8.8 0 0 0-.75-.05L4.9 1.35c-.14.06-.26.17-.35.3l-1.9 3c-.24.37-.13.86.25 1.09.37.23.86.12 1.09-.25l.12-.19L9.8 8.88l-.14.26-5.89-1.26 2.46 2.08L0 11.62l9.09 3.48L16 13.8l-7.39-1.9zM5.76 4.91A.797.797 0 0 1 5 4.1a.781.781 0 0 1 1.56.04c-.01.44-.37.78-.8.77zm3.58 1.94a.781.781 0 0 1 1.56.04c-.01.43-.37.77-.8.76-.44-.02-.78-.37-.76-.8z"/>
</svg>