<svg xmlns="http://www.w3.org/2000/svg" width="16" height="16" fill="currentColor" class="qi-1022" viewBox="0 0 16 16">
  <path d="M14.13 13.06h-.55l-1.47-3.37 2.22-2.98c.2-.27.21-.64.03-.92l-2.2-4.43a.792.792 0 0 0-1.1-.23c-.37.24-.47.74-.23 1.11l1.89 3.96-2.17 2.91c-.17.23-.21.54-.09.8l1.38 3.16H9.25L7.78 9.7 10 6.72c.2-.27.21-.64.03-.92l-2.2-4.43a.792.792 0 0 0-1.1-.23c-.37.23-.47.72-.23 1.09l1.89 3.96L6.22 9.1c-.17.23-.21.54-.09.8l1.38 3.16H5.14L3.67 9.69l2.22-2.98c.2-.27.21-.64.03-.92l-2.2-4.43a.792.792 0 0 0-1.1-.23c-.37.24-.47.74-.23 1.11L4.28 6.2 2.11 9.11c-.17.23-.21.54-.09.8l1.38 3.16H1.79c-.44 0-.79.36-.79.8 0 .44.36.8.79.8h12.34c.44 0 .79-.36.79-.8 0-.45-.36-.81-.79-.81z"/>
</svg>