<svg xmlns="http://www.w3.org/2000/svg" width="16" height="16" fill="currentColor" class="qi-1022" viewBox="0 0 16 16">
  <path d="M14.165 13.4h-.551l-1.469-3.375 2.223-2.982a.807.807 0 0 0 .029-.921L12.2 1.692a.792.792 0 0 0-1.1-.229.8.8 0 0 0-.228 1.109l1.889 3.958-2.167 2.906a.8.8 0 0 0-.092.8l1.376 3.164H9.286l-1.469-3.376 2.224-2.982a.805.805 0 0 0 .028-.921l-2.2-4.429a.792.792 0 0 0-1.1-.229.8.8 0 0 0-.227 1.109L8.433 6.53 6.266 9.436a.806.806 0 0 0-.092.8L7.55 13.4H5.176l-1.469-3.376 2.224-2.982a.805.805 0 0 0 .028-.921l-2.2-4.429a.792.792 0 0 0-1.1-.229.8.8 0 0 0-.227 1.109l1.9 3.958-2.176 2.906a.806.806 0 0 0-.092.8L3.44 13.4H1.829a.8.8 0 0 0 0 1.6h12.336a.8.8 0 0 0 0-1.6z"/>
</svg>