<svg xmlns="http://www.w3.org/2000/svg" width="16" height="16" fill="currentColor" class="qi-1023" viewBox="0 0 16 16">
  <path d="M14.64 9.86c-.09-.05-2.21-1.26-5.34-.19-1.34.46-3.58.08-3.6.07a.708.708 0 0 0-.81.57.7.7 0 0 0 .57.81c.06.01 1 .18 2.11.18.73 0 1.53-.07 2.19-.3 2.49-.86 4.11.03 4.17.07.33.19.76.08.96-.25.19-.33.08-.76-.25-.96zm0 2.66c-.09-.05-2.21-1.27-5.34-.19-1.34.46-3.58.08-3.6.07a.7.7 0 0 0-.24 1.38c.06.01 1 .17 2.11.17.73 0 1.53-.07 2.2-.3 2.49-.86 4.11.03 4.17.07.33.19.76.08.96-.25.18-.32.07-.75-.26-.95z"/>
  <path d="M14.56 3.69S7.58 1.63 5.24 1.02a.702.702 0 0 0-.84.5L1.02 14.13c-.09.37.12.74.48.85.37.11.77-.11.88-.48l1.46-5.45 10.83-4.21c.49-.27.42-1-.11-1.15z"/>
</svg>