<svg xmlns="http://www.w3.org/2000/svg" width="16" height="16" fill="currentColor" class="qi-1024" viewBox="0 0 16 16">
  <path d="M11.245 8.952V5.076a.5.5 0 1 0-1 0v3.89a1.995 1.995 0 1 0 1-.014z"/>
  <path d="M13.937 7.825v-4a3.039 3.039 0 1 0-6.075.109 3.21 3.21 0 0 0-1.481-.176 3.29 3.29 0 0 0 .252 6.549 4.2 4.2 0 0 0-.059.583 4.326 4.326 0 1 0 7.363-3.063zM10.9 13.777a2.876 2.876 0 0 1-1.852-5.083.724.724 0 0 0 .252-.551v-4.32a1.6 1.6 0 1 1 3.191 0v4.32a.723.723 0 0 0 .256.551 2.876 2.876 0 0 1-1.847 5.083z"/>
  <path d="M6.227 3.136a.786.786 0 0 0 .083-.005.658.658 0 0 0 .568-.731l-.136-1.081A.669.669 0 0 0 6.008.75a.658.658 0 0 0-.568.734l.137 1.078a.658.658 0 0 0 .65.574zM2.893 4.669a.656.656 0 0 0 .92-.117.658.658 0 0 0-.113-.922l-.857-.665a.657.657 0 0 0-.8 1.04zM2.97 7.31a.664.664 0 0 0-.732-.569l-1.077.137a.658.658 0 0 0 .082 1.31.821.821 0 0 0 .084-.005L2.4 8.045a.659.659 0 0 0 .57-.735zm.37 2.84-.664.859a.659.659 0 0 0 .117.921.655.655 0 0 0 .921-.117l.663-.859a.656.656 0 1 0-1.037-.8z"/>
</svg>