<svg xmlns="http://www.w3.org/2000/svg" width="16" height="16" fill="currentColor" class="qi-1024" viewBox="0 0 16 16">
  <path d="M11.654 9.202v-3.87c0-.28-.22-.5-.5-.5s-.5.22-.5.5v3.89c-.85.23-1.48 1-1.48 1.92 0 1.1.9 2 2 2s2-.9 2-2c.01-.94-.64-1.72-1.52-1.94z"/>
  <path d="M14.354 8.082v-4c-.01-1.68-1.39-3.04-3.04-3.04-1.68 0-3.08 1.43-3.04 3.15-.46-.16-.96-.24-1.48-.18-1.8.23-3.07 1.88-2.84 3.68.2 1.61 1.54 2.79 3.1 2.87-.03.19-.06.39-.06.58 0 2.39 1.94 4.33 4.33 4.33 2.38 0 4.33-1.94 4.33-4.33a4.402 4.402 0 0 0-1.3-3.06zm-3.04 5.95a2.89 2.89 0 0 1-2.88-2.89c0-.84.38-1.64 1.03-2.19a.74.74 0 0 0 .26-.55v-4.33c0-.88.72-1.6 1.6-1.6.88 0 1.6.72 1.6 1.6v4.32c0 .21.09.41.26.55.66.56 1.03 1.36 1.03 2.19-.02 1.6-1.31 2.9-2.9 2.9z"/>
  <path d="M6.644 3.392c.03 0 .05 0 .08-.01.36-.05.61-.38.57-.73l-.14-1.08a.675.675 0 0 0-.73-.57c-.36.05-.61.38-.57.73l.14 1.08c.04.33.32.58.65.58zm-3.34 1.53c.12.09.26.14.4.14.2 0 .39-.09.52-.25.22-.29.17-.7-.12-.92l-.86-.66a.655.655 0 0 0-.92.12c-.22.29-.17.7.12.92l.86.65zm.08 2.64a.667.667 0 0 0-.73-.57l-1.08.14a.67.67 0 0 0-.57.74c.04.33.32.57.65.57h.08l1.07-.14a.67.67 0 0 0 .58-.74zm.37 2.84-.66.86c-.22.29-.17.7.12.92a.654.654 0 0 0 .92-.11l.66-.86c.22-.29.17-.7-.12-.92a.644.644 0 0 0-.92.11z"/>
</svg>