<svg xmlns="http://www.w3.org/2000/svg" width="16" height="16" fill="currentColor" class="qi-1025" viewBox="0 0 16 16">
  <path d="M10.23 9.723c-1.59-.35-2.75-1.71-2.75-3.39 0-1.68 1.47-2.58 1.47-2.58l-1.97-2.64a.291.291 0 0 0-.46 0l-2.5 3.35c-.12.17.01.39.23.39H5.4l-2.6 3.49c-.18.24.01.56.33.56h.72l-2.75 3.54c-.26.33.02.77.48.77h4.41v1.76c0 .41.33.74.74.74s.74-.33.74-.74v-1.76h4.41c.46 0 .73-.44.48-.77l-2.13-2.72z"/>
  <path d="M13.98 3.502c-.93.27-1.19 1.05-1.13 1.55-.66-.8-.71-1.73-.63-3.05-2.12.82-1.62 3.2-1.69 3.92-.53-.45-.63-1.53-.63-1.53-.56.3-.84 1.1-.84 1.74 0 1.56 1.26 2.71 2.77 2.71s2.71-1.14 2.71-2.71c.01-.93-.64-1.24-.56-2.63z"/>
</svg>