<svg xmlns="http://www.w3.org/2000/svg" width="16" height="16" fill="currentColor" class="qi-1025" viewBox="0 0 16 16">
  <path d="M10.49 9.369c-1.59-.347-2.748-1.71-2.748-3.393 0-1.682 1.473-2.579 1.473-2.579L7.249.76a.298.298 0 0 0-.464 0l-2.5 3.35c-.124.167.009.391.233.391h1.15L3.066 7.994c-.18.24.012.563.334.563h.718l-2.75 3.54c-.256.33.018.774.478.774h4.409v1.757a.736.736 0 1 0 1.47 0v-1.757h4.409c.46 0 .734-.444.478-.774l-2.12-2.728Z"/>
  <path d="M14.243 3.147c-.925.272-1.185 1.055-1.126 1.546-.66-.801-.708-1.725-.633-3.051-2.117.824-1.624 3.201-1.688 3.923-.532-.45-.633-1.525-.633-1.525-.561.297-.843 1.095-.843 1.742 0 1.565 1.26 2.705 2.775 2.705s2.71-1.141 2.71-2.705c0-.93-.64-1.237-.562-2.635Z"/>
</svg>