<svg xmlns="http://www.w3.org/2000/svg" width="16" height="16" fill="currentColor" class="qi-1026" viewBox="0 0 16 16">
  <path d="M12.981 9.862a3.7 3.7 0 0 1-2.007-.469 10.4 10.4 0 0 0-1.394 3.678 21.8 21.8 0 0 0-.812-5.437 10.656 10.656 0 0 0-5.651-6.559 15.246 15.246 0 0 1 2.41 6.968 15.856 15.856 0 0 1-.22 5.856 7.744 7.744 0 0 0-.807-3.186 8.847 8.847 0 0 0-3.416-3.641 17.827 17.827 0 0 1 1.4 4.369 5.8 5.8 0 0 1-.278 3.04h12.023c-.956-1.821-.021-4.675.007-4.81a4.649 4.649 0 0 1-1.255.191z"/>
  <path d="M15.038 3.967a1.348 1.348 0 0 0-1.183 1.3 3.72 3.72 0 0 1-.272-2.85c-2.016.541-1.8 2.761-1.934 3.413a2.472 2.472 0 0 1-.425-1.456 1.858 1.858 0 0 0-.946 1.507 2.488 2.488 0 0 0 2.263 2.749 2.437 2.437 0 0 0 2.746-2.2c.093-.849-.46-1.194-.249-2.463z"/>
</svg>