<svg xmlns="http://www.w3.org/2000/svg" width="16" height="16" fill="currentColor" class="qi-1026" viewBox="0 0 16 16">
  <path d="M12.89 9.79c-.83 0-1.35-.11-2.01-.47-.65 1.09-1.22 2.44-1.39 3.68-.03-1.77-.3-3.59-.81-5.44C7.99 5.1 6.28 2.71 3.03 1c1.52 2.21 2.09 4.53 2.41 6.97.26 2.01.23 4.26-.22 5.86a7.84 7.84 0 0 0-.81-3.19C3.73 9.27 2.64 8 1 7c.74 1.67 1.21 3.13 1.4 4.37.17 1.11.08 2.13-.28 3.04h12.02c-.96-1.82-.02-4.68.01-4.81-.4.11-.82.19-1.26.19z"/>
  <path d="M14.95 3.9c-.87.16-1.19.84-1.18 1.3-.52-.8-.47-1.65-.27-2.85-2.02.54-1.8 2.76-1.93 3.41-.44-.46-.43-1.46-.43-1.46-.54.22-.88.92-.95 1.51-.16 1.43.88 2.6 2.26 2.75 1.38.15 2.59-.77 2.75-2.2.09-.85-.46-1.19-.25-2.46z"/>
</svg>