<svg xmlns="http://www.w3.org/2000/svg" width="16" height="16" fill="currentColor" class="qi-1027" viewBox="0 0 16 16">
  <g clip-path="url(#a)">
    <path d="M7 4.867a.71.71 0 0 0-.96-.26.71.71 0 0 0-.26.96l1 1.74H4.77c-.39 0-.7.31-.7.7 0 .39.31.7.7.7h2.01l-1 1.74c-.19.33-.08.76.26.96a.717.717 0 0 0 .96-.26l1-1.74 1 1.74a.717.717 0 0 0 .96.26.71.71 0 0 0 .26-.96l-1-1.74h2.01c.39 0 .7-.31.7-.7 0-.39-.31-.7-.7-.7H9.22l1-1.74a.704.704 0 0 0-1.22-.7l-1 1.74-1-1.74z"/>
    <path d="M14.65 3.748 8.35.098a.677.677 0 0 0-.7 0l-6.3 3.65c-.22.13-.35.36-.35.61v7.3c0 .25.13.48.35.61l6.3 3.65a.73.73 0 0 0 .7 0l6.3-3.65c.22-.13.35-.36.35-.61v-7.3c0-.25-.13-.48-.35-.61zm-1.05 7.5L8 14.488l-5.6-3.24v-6.48L8 1.527l5.6 3.24v6.48z"/>
  </g>
  <defs>
    <clipPath id="a">
      <path d="M0 0h16v16H0z"/>
    </clipPath>
  </defs>
</svg>