<svg xmlns="http://www.w3.org/2000/svg" width="16" height="16" fill="currentColor" class="qi-1028" viewBox="0 0 16 16">
  <path d="M15.29 4.87c.28-.34.45-.77.45-1.24 0-1.09-.88-1.97-1.97-1.97-.41 0-.79.13-1.11.34A6.86 6.86 0 0 0 9.1 1a6.89 6.89 0 0 0-6.89 6.89c0 .82.15 1.61.42 2.34A2.93 2.93 0 0 0 1 12.86c0 1.63 1.32 2.95 2.95 2.95 1.11 0 2.07-.63 2.58-1.54A6.89 6.89 0 0 0 16 7.88a7.122 7.122 0 0 0-.71-3.01zM3.94 14.44c-.87 0-1.58-.71-1.58-1.58 0-.87.71-1.58 1.58-1.58.87 0 1.58.71 1.58 1.58 0 .87-.71 1.58-1.58 1.58zm-.72-4.43c.02 0 .03-.01.05-.01-.02 0-.03.01-.05.01zm5.88 3.4c-.79 0-1.53-.17-2.21-.47 0-.03.01-.05.01-.08 0-1.62-1.31-2.93-2.92-2.95-.25-.63-.39-1.31-.39-2.02 0-3.04 2.47-5.51 5.51-5.51 1.01 0 1.96.28 2.77.76-.04.16-.07.32-.07.49 0 1.09.88 1.97 1.97 1.97.11 0 .21-.02.32-.03.33.71.52 1.5.52 2.33a5.52 5.52 0 0 1-5.51 5.51zm-2.33.26c0-.02.01-.03.01-.05 0 .02 0 .04-.01.05z"/>
  <path d="M9.06 5.1a2.69 2.69 0 1 0 .002 5.382A2.69 2.69 0 0 0 9.06 5.1z"/>
</svg>