<svg xmlns="http://www.w3.org/2000/svg" width="16" height="16" fill="currentColor" class="qi-1028" viewBox="0 0 16 16">
  <path d="M14.8 4.463a1.964 1.964 0 0 0-2.624-2.87A6.877 6.877 0 0 0 2.135 9.825a2.945 2.945 0 1 0 3.9 4.046A6.881 6.881 0 0 0 14.8 4.463zM3.453 14.029a1.575 1.575 0 1 1 1.575-1.575 1.577 1.577 0 0 1-1.575 1.575zM2.73 9.6l.047-.014zM8.609 13a5.488 5.488 0 0 1-2.21-.466c0-.026.008-.05.008-.077A2.952 2.952 0 0 0 3.485 9.5a5.5 5.5 0 0 1 7.9-6.777 1.948 1.948 0 0 0-.069.492A1.934 1.934 0 0 0 13.6 5.156 5.5 5.5 0 0 1 8.609 13zm-2.328.264c0-.016.01-.03.014-.046-.004.013-.01.027-.014.043z"/>
  <path d="M8.57 4.685a2.689 2.689 0 1 0 2.689 2.689A2.689 2.689 0 0 0 8.57 4.685z"/>
</svg>