<svg xmlns="http://www.w3.org/2000/svg" width="16" height="16" fill="currentColor" class="qi-1029" viewBox="0 0 16 16">
  <path d="M3.038 10.942h.152l.046.145c.032.106.076.2.111.3l1.385.5-.165-2.13-2.512-1.4a2.447 2.447 0 0 0-.069.54c0 1.13.473 2.045 1.052 2.045zM4.657 9.12a.967.967 0 0 1 .758-.433c.87-.065 2.157-.154 2.727-.153.543 0 1.763.087 2.6.151a.971.971 0 0 1 .75.423L14.1 7.647a5.863 5.863 0 0 0 .091-.971 6.115 6.115 0 0 0-12.23 0 5.879 5.879 0 0 0 .094.99zm6.4 3.523a1.039 1.039 0 0 1-.487.183c-.857.083-1.936.2-2.5.2s-1.627-.114-2.479-.2a1.039 1.039 0 0 1-.45-.159l-1.506-.539a5.078 5.078 0 0 0 4.443 3.311 5.081 5.081 0 0 0 4.449-3.321zm.537-2.903-.165 2.133 1.38-.493c.034-.1.076-.191.107-.293l.046-.145h.152c.58 0 1.06-.922 1.06-2.043a2.468 2.468 0 0 0-.075-.562z"/>
</svg>