<svg xmlns="http://www.w3.org/2000/svg" width="16" height="16" fill="currentColor" class="qi-1030" viewBox="0 0 16 16">
  <g clip-path="url(#a)">
    <path d="M14.65 3.748 8.35.098a.677.677 0 0 0-.7 0l-6.3 3.65c-.22.13-.35.36-.35.61v7.3c0 .25.13.48.35.61l6.3 3.65a.73.73 0 0 0 .7 0l6.3-3.65c.22-.13.35-.36.35-.61v-7.3c0-.25-.13-.48-.35-.61zm-1.05 7.5L8 14.488l-5.6-3.24v-6.48L8 1.527l5.6 3.24v6.48z"/>
    <path d="M7.77 5.298a.707.707 0 0 0-.96.26l-.61 1.05-.61-1.05a.71.71 0 0 0-.96-.26.71.71 0 0 0-.26.96L5 7.308H3.78c-.39 0-.7.31-.7.7 0 .39.31.7.7.7H5l-.61 1.05c-.19.33-.08.76.26.96.33.19.76.08.96-.26l.61-1.05.61 1.05c.19.33.62.45.96.26a.71.71 0 0 0 .26-.96l-.61-1.05h1.22c.39 0 .7-.31.7-.7 0-.39-.31-.7-.7-.7H7.44l.61-1.05c.17-.34.06-.77-.28-.96zm2.62 2.22c.06.01.11.02.17.02.31 0 .6-.21.68-.53l.22-.88a.701.701 0 0 0-1.36-.34l-.22.88c-.1.38.13.76.51.85zm1.46 1.8c.06.01.11.02.17.02.31 0 .6-.21.68-.53l.22-.88a.701.701 0 0 0-1.36-.34l-.22.88c-.1.37.13.75.51.85zm-1.94 1.909c.06.01.11.02.17.02.31 0 .6-.21.68-.53l.22-.88a.701.701 0 0 0-.51-.85c-.37-.1-.75.13-.85.51l-.22.88c-.09.38.14.76.51.85z"/>
  </g>
  <defs>
    <clipPath id="a">
      <path d="M0 0h16v16H0z"/>
    </clipPath>
  </defs>
</svg>