<svg xmlns="http://www.w3.org/2000/svg" width="16" height="16" fill="currentColor" class="qi-1031" viewBox="0 0 16 16">
  <path d="M1.983 8.635 5.408 6.47a.287.287 0 0 0-.068-.516l-1.849-.578a5.006 5.006 0 0 1 2.47-2.2 5.288 5.288 0 0 1 4.077 0 5.262 5.262 0 0 1 2.788 2.788.7.7 0 0 0 1.289-.544 6.651 6.651 0 0 0-3.532-3.533 6.631 6.631 0 0 0-7.277 1.42 6.606 6.606 0 0 0-1.17 1.645L.4 4.409a.287.287 0 0 0-.351.382L1.565 8.5a.286.286 0 0 0 .418.135zm13.995 2.398-1.515-3.71a.286.286 0 0 0-.419-.134L10.62 9.354a.286.286 0 0 0 .068.515l1.907.6a5.036 5.036 0 0 1-2.556 2.361 5.246 5.246 0 0 1-6.866-2.788.7.7 0 0 0-1.289.544 6.6 6.6 0 0 0 12.066.307l1.677.525a.287.287 0 0 0 .351-.385z"/>
</svg>