<svg xmlns="http://www.w3.org/2000/svg" width="16" height="16" fill="currentColor" class="qi-1031" viewBox="0 0 16 16">
  <path d="m1.961 8.268 3.42-2.16c.21-.13.17-.44-.07-.52l-1.85-.58c.23-.39.49-.76.81-1.08.48-.48 1.04-.86 1.66-1.12a5.34 5.34 0 0 1 4.08 0c.62.26 1.18.64 1.67 1.12.48.48.86 1.04 1.12 1.67.15.36.56.52.92.37.36-.15.52-.56.37-.92-.33-.79-.81-1.5-1.42-2.11a6.541 6.541 0 0 0-2.11-1.42 6.715 6.715 0 0 0-5.17 0c-.79.33-1.5.81-2.11 1.42-.49.48-.86 1.04-1.17 1.64l-1.74-.54a.287.287 0 0 0-.35.38l1.52 3.71c.06.17.26.23.42.14zm13.99 2.39-1.52-3.71a.282.282 0 0 0-.42-.13l-3.42 2.16c-.21.13-.17.44.07.52l1.91.6c-.24.45-.53.87-.89 1.24-.48.48-1.04.86-1.66 1.12a5.34 5.34 0 0 1-4.08 0 5.33 5.33 0 0 1-1.67-1.12c-.48-.48-.86-1.04-1.12-1.67a.701.701 0 0 0-.92-.37.69.69 0 0 0-.37.91c.33.79.81 1.5 1.42 2.11.61.61 1.32 1.09 2.11 1.42.82.35 1.69.52 2.58.52.9 0 1.76-.18 2.58-.52.79-.33 1.5-.81 2.11-1.42.53-.53.93-1.14 1.26-1.8l1.68.52c.23.08.44-.15.35-.38z"/>
</svg>