<svg xmlns="http://www.w3.org/2000/svg" width="16" height="16" fill="currentColor" class="qi-1031" viewBox="0 0 16 16">
  <path d="M1.983 8.635 5.408 6.47a.287.287 0 0 0-.068-.516l-1.849-.578a5.18 5.18 0 0 1 .806-1.079 5.244 5.244 0 0 1 1.665-1.123 5.288 5.288 0 0 1 4.077 0 5.21 5.21 0 0 1 1.665 1.123c.478.477.86 1.043 1.123 1.665a.7.7 0 0 0 1.289-.545 6.599 6.599 0 0 0-1.422-2.11 6.623 6.623 0 0 0-2.11-1.422 6.688 6.688 0 0 0-5.168 0 6.606 6.606 0 0 0-2.11 1.422c-.484.484-.859 1.046-1.17 1.645L.4 4.409a.287.287 0 0 0-.351.382l1.515 3.71a.288.288 0 0 0 .419.134Zm13.995 2.398-1.515-3.71a.285.285 0 0 0-.418-.134L10.62 9.354a.288.288 0 0 0 .068.516l1.907.597a5.23 5.23 0 0 1-.891 1.238 5.21 5.21 0 0 1-3.703 1.532c-.7 0-1.393-.14-2.039-.409a5.233 5.233 0 0 1-1.665-1.123 5.232 5.232 0 0 1-1.123-1.666.7.7 0 0 0-1.289.545c.333.79.812 1.5 1.422 2.11A6.618 6.618 0 0 0 8 14.638a6.603 6.603 0 0 0 4.693-1.944 6.62 6.62 0 0 0 1.256-1.804l1.678.525a.288.288 0 0 0 .351-.382Z"/>
</svg>