<svg xmlns="http://www.w3.org/2000/svg" width="16" height="16" fill="currentColor" class="qi-1032" viewBox="0 0 16 16">
  <path d="M6.26 1C3.36 1 1 3.52 1 6.66s2.36 5.62 5.26 5.62 5.27-2.48 5.27-5.62S9.16 1 6.26 1zm0 9.84c-2.11 0-3.82-1.83-3.82-4.19 0-2.35 1.71-4.23 3.82-4.23s3.83 1.87 3.83 4.23c0 2.36-1.72 4.19-3.83 4.19zm8.05 1.02c.59-.45.72-1.25.5-1.84-.16-.44-.52-.7-.6-.75-.09-.06-.47-.3-1-.28-.61.03-1.16.4-1.42.9-.14.26-.17.5-.19.64h.84c.01-.04.13-.5.57-.64.12-.04.39-.12.68.04.33.18.42.51.4.76-.04.43-.65.85-1.53.81v.74c.93-.09 1.59.44 1.61.93.02.39-.36.92-.89.93-.38 0-.74-.26-.87-.66h-.84c.01.13.09.7.6 1.12.44.36.92.38 1.06.39.14 0 .77 0 1.27-.49.08-.08.53-.55.51-1.3-.04-.84-.63-1.24-.7-1.3z"/>
</svg>