<svg xmlns="http://www.w3.org/2000/svg" width="16" height="16" fill="currentColor" class="qi-1033" viewBox="0 0 16 16">
  <path d="M3.439 11.9H3.19l.125-.216a.5.5 0 0 0-.866-.5l-.125.216-.124-.212a.5.5 0 0 0-.867.5l.125.216h-.249a.5.5 0 1 0 0 1h.249l-.125.216a.5.5 0 0 0 .184.683.488.488 0 0 0 .249.067.5.5 0 0 0 .434-.25l.124-.216.125.216a.5.5 0 1 0 .866-.5l-.125-.22h.249a.5.5 0 0 0 0-1zm5.676 0h-.249l.125-.216a.5.5 0 0 0-.866-.5L8 11.4l-.125-.216a.5.5 0 1 0-.866.5l.125.216h-.249a.5.5 0 0 0 0 1h.249l-.125.216a.5.5 0 0 0 .183.683.5.5 0 0 0 .683-.183L8 13.4l.125.216a.5.5 0 0 0 .866-.5l-.125-.216h.249a.5.5 0 0 0 0-1zm5.676 0h-.249l.125-.216a.5.5 0 0 0-.867-.5l-.124.216-.125-.216a.5.5 0 1 0-.866.5l.125.216h-.249a.5.5 0 0 0 0 1h.249l-.125.216a.5.5 0 0 0 .183.683.5.5 0 0 0 .683-.183l.125-.216.124.216a.5.5 0 0 0 .434.25.488.488 0 0 0 .249-.067.5.5 0 0 0 .184-.683l-.125-.216h.249a.5.5 0 0 0 0-1zm-.816-6.754a2.94 2.94 0 0 0-1.751-1.13 3.037 3.037 0 0 0-2.858-2.762 2.98 2.98 0 0 0-2.695 1.8 2.874 2.874 0 0 0-2.24 1.635 2.214 2.214 0 0 0-2.353 1.186 1.705 1.705 0 0 0-1.207.13A1.628 1.628 0 0 0 0 7.419a1.647 1.647 0 0 0 1.08 1.51 1.782 1.782 0 0 0 1.468-.143 2.7 2.7 0 0 0 1.717.639 2.66 2.66 0 0 0 1.473-.45 3.9 3.9 0 0 0 2.2.367 3.854 3.854 0 0 0 1.662-.63 3.481 3.481 0 0 0 2.071.63 3.433 3.433 0 0 0 1.6-.448 2.01 2.01 0 0 0 1.582.056A1.956 1.956 0 0 0 16 7.076a2.155 2.155 0 0 0-2.025-1.93z"/>
</svg>