<svg xmlns="http://www.w3.org/2000/svg" width="16" height="16" fill="currentColor" class="qi-1035-continuous-rain" viewBox="0 0 16 16">
  <path d="M8.293 15.707A1 1 0 0 1 8 15c0-.5.555-1.395 1-2 .445.605 1 1.5 1 2a1 1 0 0 1-1.707.707m-6-6A1 1 0 0 1 2 9c0-.5.555-1.395 1-2 .445.605 1 1.5 1 2a1 1 0 0 1-1.707.707m10 6A1 1 0 0 1 12 15c0-.5.555-1.395 1-2 .445.605 1 1.5 1 2a1 1 0 0 1-1.707.707M7.268 5.162a.22.22 0 0 0-.233.042A3 3 0 0 1 5 6a3 3 0 0 1-2.035-.796.22.22 0 0 0-.233-.042 2 2 0 1 1-.383-3.832.22.22 0 0 0 .22-.087A3 3 0 0 1 5 0c1 0 1.887.49 2.432 1.243.05.069.136.102.22.087a2 2 0 1 1-.383 3.832ZM5 5.25c.752 0 1.418-.37 1.827-.936.086-.12.273-.134.388-.041a1.25 1.25 0 1 0 .209-2.082c-.132.068-.312.017-.373-.118a2.25 2.25 0 0 0-4.102 0c-.06.135-.241.186-.372.118a1.25 1.25 0 1 0 .209 2.082c.114-.093.301-.079.387.04A2.25 2.25 0 0 0 5 5.25m8.137 5.855A3 3 0 0 1 11 12a3 3 0 0 1-2.138-.895 2 2 0 1 1-.375-3.745A3 3 0 0 1 11 6c1.052 0 1.977.541 2.512 1.36A2.004 2.004 0 0 1 16 9.3a2 2 0 0 1-2.863 1.805m-2.85-3.224.276 1.759h.863l.286-1.822a.68.68 0 0 0-.327-.682l-.056-.034a.61.61 0 0 0-.645-.018c-.26.157-.442.508-.397.797m1.193 2.639a.48.48 0 1 0-.96 0 .48.48 0 0 0 .96 0"/>
</svg>