<svg xmlns="http://www.w3.org/2000/svg" width="16" height="16" fill="currentColor" class="qi-1035" viewBox="0 0 16 16">
  <path d="M13.975 5.113a2.931 2.931 0 0 0-1.751-1.13A3.039 3.039 0 0 0 9.366 1.22a2.979 2.979 0 0 0-2.695 1.805 2.874 2.874 0 0 0-2.24 1.635 2.212 2.212 0 0 0-2.353 1.181 1.707 1.707 0 0 0-1.207.131A1.626 1.626 0 0 0 0 7.386 1.649 1.649 0 0 0 1.078 8.9a1.781 1.781 0 0 0 1.468-.144 2.694 2.694 0 0 0 1.717.64 2.659 2.659 0 0 0 1.473-.451A3.841 3.841 0 0 0 9.6 8.679a3.5 3.5 0 0 0 2.071.63 3.419 3.419 0 0 0 1.6-.449 2.005 2.005 0 0 0 1.582.056A1.955 1.955 0 0 0 16 7.043a2.154 2.154 0 0 0-2.025-1.93zM5.616 10.4a.7.7 0 0 0-.937.319L3.358 13.4a.7.7 0 0 0 .319.937.692.692 0 0 0 .308.072.7.7 0 0 0 .629-.391l1.321-2.683a.7.7 0 0 0-.319-.935zm-2.901 0a.7.7 0 0 0-.938.315l-.723 1.451a.7.7 0 1 0 1.253.624l.723-1.451a.7.7 0 0 0-.315-.939zm8.764 0a.7.7 0 0 0-.937.319L9.22 13.4a.7.7 0 1 0 1.256.618l1.324-2.686a.7.7 0 0 0-.321-.932zm-2.901 0a.7.7 0 0 0-.939.315l-.722 1.451a.7.7 0 1 0 1.252.624l.723-1.451a.7.7 0 0 0-.314-.939zm5.862 0a.7.7 0 0 0-.939.315l-.722 1.451a.7.7 0 1 0 1.253.624l.722-1.451a.7.7 0 0 0-.314-.939z"/>
</svg>