<svg xmlns="http://www.w3.org/2000/svg" width="16" height="16" fill="currentColor" class="qi-1036" viewBox="0 0 16 16">
  <path d="M13.005 9.125c.089.007.177.01.264.01 1.236 0 2.209-.665 2.253-.695a.699.699 0 0 0-.273-1.26.703.703 0 0 0-.523.108c-.007.005-.769.506-1.611.441-.546-.043-.75-.105-1.008-.185a7.793 7.793 0 0 0-.33-.093V5.824c.279.084.59.168 1.229.218.089.007.177.01.264.01 1.236 0 2.209-.665 2.253-.695a.699.699 0 0 0-.273-1.26.703.703 0 0 0-.523.108c-.007.005-.769.505-1.611.441-.546-.043-.76-.109-1.008-.185a8.288 8.288 0 0 0-.368-.103C11.547 2.455 9.954.958 8 .958c-1.759 0-3.228 1.214-3.646 2.844-.183-.037-.363-.075-.578-.107-1.882-.283-3.135.535-3.188.571a.696.696 0 0 0-.195.963c.21.322.642.414.966.206.035-.023.888-.556 2.208-.355.243.036.456.078.657.122v1.659c-.147-.029-.282-.059-.448-.084-1.882-.281-3.135.536-3.188.571a.696.696 0 0 0-.195.963c.21.322.642.414.966.206.035-.022.889-.557 2.209-.354.242.036.455.078.656.121v1.659c-.147-.028-.282-.058-.448-.083-1.883-.283-3.136.536-3.188.571a.696.696 0 0 0-.195.963c.21.322.642.413.966.206.035-.023.889-.557 2.209-.354.246.037.462.08.667.124A3.774 3.774 0 0 0 8 15.042a3.778 3.778 0 0 0 3.705-3.073c.297.091.608.185 1.3.239.089.007.177.01.264.01 1.236 0 2.209-.665 2.253-.695a.699.699 0 0 0-.273-1.26.703.703 0 0 0-.523.108c-.007.005-.769.508-1.611.441-.546-.043-.75-.105-1.008-.185a7.838 7.838 0 0 0-.33-.093V8.907c.277.084.589.168 1.228.218Zm-3.229 2.141c0 .979-.797 1.776-1.776 1.776a1.772 1.772 0 0 1-1.688-1.251c.316.027.633.031.95.012a.7.7 0 0 0-.08-1.397 5.08 5.08 0 0 1-.958-.034V8.698c.345.035.692.042 1.038.021a.702.702 0 0 0 .191-1.361.697.697 0 0 0-.271-.037c-.32.02-.64.009-.958-.033V5.616a6.06 6.06 0 0 0 1.038.021.7.7 0 1 0-.08-1.398 5.07 5.07 0 0 1-.871-.025A1.773 1.773 0 0 1 8 2.958c.979 0 1.776.797 1.776 1.776v6.532Z"/>
</svg>