<svg xmlns="http://www.w3.org/2000/svg" width="16" height="16" fill="currentColor" class="qi-1036" viewBox="0 0 16 16">
  <path d="M12.743 9.16c.09.01.18.01.26.01 1.24 0 2.21-.67 2.25-.69.32-.22.39-.65.18-.97a.694.694 0 0 0-.97-.18c-.01.01-.77.51-1.61.44-.55-.04-.75-.11-1.01-.19-.1-.03-.21-.06-.33-.09V5.86c.28.08.59.17 1.23.22.09.01.18.01.26.01 1.24 0 2.21-.67 2.25-.69.32-.22.39-.65.18-.97a.694.694 0 0 0-.97-.18c-.01.01-.77.5-1.61.44-.55-.04-.76-.11-1.01-.19-.11-.03-.23-.07-.37-.1-.19-1.9-1.78-3.4-3.74-3.4-1.76 0-3.23 1.21-3.65 2.84-.18-.04-.36-.08-.58-.11-1.88-.28-3.14.54-3.19.57-.32.21-.41.64-.2.96.21.32.64.41.97.21.04-.02.89-.55 2.21-.35.24.04.46.08.66.12V6.9c-.15-.03-.28-.06-.45-.08-1.88-.28-3.14.54-3.19.57-.32.21-.41.64-.2.96.21.32.64.41.97.21.04-.02.89-.56 2.21-.35.24.04.46.08.66.12v1.66c-.15-.03-.28-.06-.45-.08-1.88-.28-3.14.54-3.19.57-.32.21-.41.64-.2.96.21.32.64.41.97.21.04-.02.89-.56 2.21-.35.25.04.46.08.67.12a3.779 3.779 0 0 0 3.77 3.67c1.84 0 3.37-1.33 3.71-3.07.3.09.61.19 1.3.24.09.01.18.01.26.01 1.24 0 2.21-.67 2.25-.69.32-.22.39-.65.18-.97a.694.694 0 0 0-.97-.18c-.01.01-.77.51-1.61.44-.55-.04-.75-.11-1.01-.19-.1-.03-.21-.06-.33-.09V8.94c.28.08.59.17 1.23.22zm-3.23 2.14c0 .98-.8 1.78-1.78 1.78-.8 0-1.46-.53-1.69-1.25.17.01.35.02.54.02.13 0 .27 0 .41-.01.39-.02.68-.35.66-.74a.69.69 0 0 0-.74-.66c-.37.02-.67 0-.96-.03V8.73c.19.02.4.03.62.03.13 0 .27 0 .41-.01.39-.02.68-.35.66-.74a.69.69 0 0 0-.74-.66c-.37.02-.67 0-.96-.03V5.65c.2.02.4.03.63.03.13 0 .27 0 .41-.01.39-.02.68-.35.66-.74a.69.69 0 0 0-.74-.66c-.34.02-.61 0-.87-.03.22-.72.89-1.26 1.69-1.26.98 0 1.78.8 1.78 1.78v6.54h.01z"/>
</svg>