<svg xmlns="http://www.w3.org/2000/svg" width="16" height="16" fill="currentColor" class="qi-1036" viewBox="0 0 16 16">
  <path d="M13.005 9.125c.089.007.177.01.264.01a4.328 4.328 0 0 0 2.252-.7.7.7 0 0 0-.795-1.152 2.9 2.9 0 0 1-1.612.441 3.775 3.775 0 0 1-1.008-.185q-.147-.045-.33-.093V5.824a5.071 5.071 0 0 0 1.229.218c.089.008.177.011.264.011a4.328 4.328 0 0 0 2.252-.7.7.7 0 0 0-.795-1.152 2.915 2.915 0 0 1-1.612.441 3.9 3.9 0 0 1-1.008-.185 4.934 4.934 0 0 0-.368-.1A3.757 3.757 0 0 0 4.354 3.8c-.183-.037-.363-.075-.578-.107a4.762 4.762 0 0 0-3.188.571.7.7 0 0 0 .77 1.168 3.379 3.379 0 0 1 2.209-.352c.243.036.456.078.657.122v1.659c-.147-.029-.282-.059-.448-.084a4.782 4.782 0 0 0-3.188.571.7.7 0 0 0 .77 1.169 3.354 3.354 0 0 1 2.209-.355c.243.037.456.079.657.122v1.659c-.147-.028-.282-.058-.448-.083a4.769 4.769 0 0 0-3.188.571.7.7 0 0 0 .77 1.168 3.358 3.358 0 0 1 2.209-.354c.246.037.463.079.667.124a3.768 3.768 0 0 0 7.471.6 5.159 5.159 0 0 0 1.3.24c.089.007.177.01.264.01a4.328 4.328 0 0 0 2.252-.7.7.7 0 0 0-.795-1.152 2.879 2.879 0 0 1-1.612.441 3.817 3.817 0 0 1-1.008-.185c-.1-.03-.208-.062-.33-.093V8.907a5.163 5.163 0 0 0 1.229.218zm-3.229 2.141a1.771 1.771 0 0 1-3.464.524c.169.015.346.024.538.024.13 0 .267 0 .412-.012a.7.7 0 0 0-.08-1.4 4.993 4.993 0 0 1-.958-.034V8.7a6 6 0 0 0 .624.033q.2 0 .414-.012a.7.7 0 1 0-.08-1.4 5 5 0 0 1-.958-.033V5.616c.195.019.4.032.626.032.13 0 .267 0 .412-.012a.7.7 0 1 0-.08-1.4 5.034 5.034 0 0 1-.871-.025 1.771 1.771 0 0 1 3.465.52z"/>
</svg>