<svg xmlns="http://www.w3.org/2000/svg" width="16" height="16" fill="currentColor" class="qi-1038" viewBox="0 0 16 16">
  <path d="M3.677 12.866A1.12 1.12 0 0 0 4.7 14a1.12 1.12 0 0 0 1.027-1.13A5.962 5.962 0 0 0 4.7 10.923a5.964 5.964 0 0 0-1.023 1.943zm2.968-1.003a1.12 1.12 0 0 0 1.027 1.13 1.12 1.12 0 0 0 1.028-1.13 5.971 5.971 0 0 0-1.028-1.944 5.969 5.969 0 0 0-1.027 1.944zm2.969 1.003A1.119 1.119 0 0 0 10.64 14a1.12 1.12 0 0 0 1.026-1.13 5.964 5.964 0 0 0-1.026-1.943 5.964 5.964 0 0 0-1.026 1.939zm-6.899-2.474a.7.7 0 0 0-.938.314l-.936 1.87a.7.7 0 0 0 1.253.623l.936-1.87a.7.7 0 0 0-.315-.937zm11.725 0a.7.7 0 0 0-.939.314l-.936 1.87a.7.7 0 0 0 1.253.623l.936-1.87a.7.7 0 0 0-.314-.937zm-.465-5.279a2.931 2.931 0 0 0-1.751-1.13A3.039 3.039 0 0 0 9.366 1.22a2.979 2.979 0 0 0-2.695 1.805 2.874 2.874 0 0 0-2.24 1.635 2.212 2.212 0 0 0-2.353 1.181 1.707 1.707 0 0 0-1.207.131A1.626 1.626 0 0 0 0 7.386 1.649 1.649 0 0 0 1.078 8.9a1.781 1.781 0 0 0 1.468-.144 2.694 2.694 0 0 0 1.717.64 2.659 2.659 0 0 0 1.473-.451A3.837 3.837 0 0 0 9.6 8.678a3.486 3.486 0 0 0 2.071.631 3.419 3.419 0 0 0 1.6-.449 2.005 2.005 0 0 0 1.582.056A1.955 1.955 0 0 0 16 7.043a2.154 2.154 0 0 0-2.025-1.93z"/>
</svg>