<svg xmlns="http://www.w3.org/2000/svg" width="16" height="16" fill="currentColor" class="qi-1039" viewBox="0 0 16 16">
  <path d="M14.505 9.164h-1.221a.491.491 0 0 0-.325.122l-4.967 4.349-4.966-4.349a.491.491 0 0 0-.326-.122H1.48a.1.1 0 0 0-.067.177l6.376 5.583a.307.307 0 0 0 .407 0l6.376-5.583a.1.1 0 0 0-.067-.177zM5.652 4.022a.418.418 0 0 0 .316-.133.464.464 0 0 0 .126-.332.45.45 0 0 0-.126-.329.423.423 0 0 0-.316-.13.415.415 0 0 0-.315.133.493.493 0 0 0 0 .658.415.415 0 0 0 .315.133z"/>
  <path d="M7.836 12.376a.235.235 0 0 0 .312 0L14.4 6.9a.3.3 0 0 0-.2-.532h-2.272V1.456a.475.475 0 0 0-.474-.475H4.4a.475.475 0 0 0-.475.475v4.913H1.784a.3.3 0 0 0-.2.532zm0-8.541a2.179 2.179 0 0 1 1.327-.15 2.3 2.3 0 0 1 .994.464 2.9 2.9 0 0 1 .555.612l-.485.52a1.866 1.866 0 0 0-1.042-.774 1.553 1.553 0 0 0-1.943 1.549 1.577 1.577 0 0 0 2.034 1.579 1.759 1.759 0 0 0 .958-.706l.474.5a2.624 2.624 0 0 1-.868.758 2.081 2.081 0 0 1-1.092.242 2.373 2.373 0 0 1-1.648-.66 2.476 2.476 0 0 1-.653-1.743 2.422 2.422 0 0 1 1.39-2.191zm-2.81-.894a.866.866 0 0 1 .627-.253.88.88 0 0 1 .64.242.821.821 0 0 1 .249.616.837.837 0 0 1-.249.62.864.864 0 0 1-.628.244.887.887 0 0 1-.639-.249.807.807 0 0 1-.261-.608.824.824 0 0 1 .26-.612z"/>
</svg>