<svg xmlns="http://www.w3.org/2000/svg" width="16" height="16" fill="currentColor" class="qi-104-fill" viewBox="0 0 16 16">
  <path d="M12.603 7.225a3.345 3.345 0 0 0-.423.042 4.987 4.987 0 0 0-8.36 0 3.345 3.345 0 0 0-.423-.042 3.397 3.397 0 1 0 1.326 6.524 4.917 4.917 0 0 0 6.554 0 3.397 3.397 0 1 0 1.326-6.524z"/>
  <path d="M4.008 6.136a1.545 1.545 0 0 1 1.54-1.467.915.915 0 0 1 .108.012l.084.012a1 1 0 0 0 .961-.445 2.74 2.74 0 0 1 4.598 0 1 1 0 0 0 .961.445l.084-.012a.92.92 0 0 1 .108-.012 1.524 1.524 0 0 1 1.455 2.048 3.379 3.379 0 0 1 .86.538A2.484 2.484 0 0 0 12.136 3.7a3.74 3.74 0 0 0-6.27 0 2.508 2.508 0 0 0-.317-.032A2.548 2.548 0 0 0 3 6.216a2.464 2.464 0 0 0 .069.517 1.705 1.705 0 0 1 .94-.597z"/>
</svg>