<svg xmlns="http://www.w3.org/2000/svg" width="16" height="16" fill="currentColor" class="qi-1040" viewBox="0 0 16 16">
  <path d="M6.66 11.503H5.4l.63-1.09a.704.704 0 0 0-1.22-.7l-.63 1.09-.63-1.09a.71.71 0 0 0-.96-.26.71.71 0 0 0-.26.96l.63 1.09H1.7c-.39 0-.7.31-.7.7 0 .39.31.7.7.7h1.26l-.63 1.09c-.19.33-.08.76.26.96a.717.717 0 0 0 .96-.26l.63-1.09.63 1.09a.717.717 0 0 0 .96.26.71.71 0 0 0 .26-.96l-.63-1.09h1.26c.39 0 .7-.31.7-.7 0-.39-.32-.7-.7-.7zm7.67 0h-1.26l.63-1.09a.704.704 0 0 0-1.22-.7l-.63 1.09-.63-1.09a.71.71 0 0 0-.96-.26.71.71 0 0 0-.26.96l.63 1.09H9.37c-.39 0-.7.31-.7.7 0 .39.31.7.7.7h1.26l-.63 1.09c-.19.33-.08.76.26.96a.717.717 0 0 0 .96-.26l.63-1.09.63 1.09a.717.717 0 0 0 .96.26.71.71 0 0 0 .26-.96l-.63-1.09h1.26c.39 0 .7-.31.7-.7 0-.39-.32-.7-.7-.7zm-4.57-2.88c.12 0 .24-.03.35-.09a.71.71 0 0 0 .26-.96l-1.19-2.06h2.38c.39 0 .7-.31.7-.7 0-.39-.31-.7-.7-.7H9.18l1.19-2.06a.704.704 0 0 0-1.22-.7l-1.19 2.06-1.19-2.06a.71.71 0 0 0-.96-.26.71.71 0 0 0-.26.96l1.19 2.06H4.36c-.39 0-.7.31-.7.7 0 .39.31.7.7.7h2.38l-1.19 2.06c-.19.33-.08.76.26.96a.717.717 0 0 0 .96-.26l1.19-2.06 1.19 2.06c.13.22.37.35.61.35z"/>
</svg>