<svg xmlns="http://www.w3.org/2000/svg" width="16" height="16" fill="currentColor" class="qi-1041" viewBox="0 0 16 16">
  <path d="M13.475 2.625c-.787.263-1.05.962-.963 1.4-.612-.7-.612-1.488-.524-2.713-1.838.7-1.4 2.8-1.488 3.5-.438-.437-.525-1.312-.525-1.312-.525.263-.787.963-.787 1.575 0 1.4 1.137 2.362 2.45 2.362A2.353 2.353 0 0 0 14 5.075c0-.963-.525-1.225-.525-2.45Z"/>
  <path d="M8.313 4.988c0 1.575 1.05 2.8 2.45 3.15H8.75l3.37 3.69a.2.2 0 0 1-.148.335H7.175v1.717a46.583 46.583 0 0 0-1.925-.265v-1.453H.447a.2.2 0 0 1-.15-.333L3.676 8.05H1.988a.2.2 0 0 1-.157-.324L4.2 4.725H3.028a.2.2 0 0 1-.16-.32l3.188-4.2a.2.2 0 0 1 .317-.002l2.465 3.122a3.092 3.092 0 0 0-.525 1.663Z"/>
  <path d="M0 14s1-.5 3.5-.5 6.5 1 8.5 1 4-.5 4-.5v2H0v-2Z"/>
</svg>