<svg xmlns="http://www.w3.org/2000/svg" width="16" height="16" fill="currentColor" class="qi-1042" viewBox="0 0 16 16">
  <g clip-path="url(#a)">
    <path d="M14.48 8.686c-.58 0-1.13.37-1.39.94h-.67l-1.43-3.54a.71.71 0 0 0-.67-.44c-.29.01-.55.2-.64.49l-1.52 4.69-.83-9.19a.701.701 0 0 0-.59-.63.706.706 0 0 0-.75.43l-3.3 8.07H.7c-.39 0-.7.31-.7.7 0 .39.31.7.7.7h2.46c.28 0 .54-.17.65-.44l2.4-5.86.89 9.74a.698.698 0 0 0 1.36.15l1.98-6.12.89 2.19c.11.26.36.44.65.44h1.29c.05.07.51.67 1.24.66.75-.01 1.5-.64 1.5-1.5-.03-.83-.75-1.48-1.53-1.48z"/>
  </g>
  <defs>
    <clipPath id="a">
      <path d="M0 0h16v16H0z"/>
    </clipPath>
  </defs>
</svg>