<svg xmlns="http://www.w3.org/2000/svg" width="16" height="16" fill="currentColor" class="qi-1044" viewBox="0 0 16 16">
  <path d="M14.305 2.8h-2.379V1.687a.7.7 0 1 0-1.394 0V2.8H5.738V1.687a.7.7 0 1 0-1.4 0V2.8H1.7a.7.7 0 0 0-.7.7v10.762a.7.7 0 0 0 .7.7h5.36a.7.7 0 0 0 0-1.4H2.4v-6.63h11.208v.658a.7.7 0 1 0 1.392 0V3.5a.7.7 0 0 0-.695-.7zM2.4 5.535V4.2h11.208v1.335z"/>
  <path d="M11.675 8.4a3.294 3.294 0 1 0 3.288 3.3 3.291 3.291 0 0 0-3.288-3.3zm0 1.4a1.579 1.579 0 0 1 .59.1l-2.248 2.691a1.739 1.739 0 0 1-.236-.9A2.071 2.071 0 0 1 11.675 9.8zm0 3.794a1.573 1.573 0 0 1-.589-.1l2.248-2.694a1.725 1.725 0 0 1 .235.9 2.07 2.07 0 0 1-1.894 1.892z"/>
</svg>