<svg xmlns="http://www.w3.org/2000/svg" width="16" height="16" fill="currentColor" class="qi-1044" viewBox="0 0 16 16">
  <path d="M14.31 2.81h-2.38V1.7c0-.39-.31-.7-.7-.7-.39 0-.7.31-.7.7v1.11H5.74V1.7c0-.39-.31-.7-.7-.7-.39 0-.7.31-.7.7v1.11H1.7c-.39 0-.7.31-.7.7v10.76c0 .39.31.7.7.7h5.36c.39 0 .7-.31.7-.7 0-.39-.31-.7-.7-.7H2.4V6.94h11.21v.66c0 .39.31.7.7.7.39 0 .7-.31.7-.7V3.51c0-.39-.32-.7-.7-.7zM2.4 5.54V4.21h11.21v1.34H2.4v-.01z"/>
  <path d="M11.68 8.41c-1.82 0-3.29 1.47-3.29 3.29s1.47 3.29 3.29 3.29 3.29-1.47 3.29-3.29c0-1.81-1.47-3.29-3.29-3.29zm0 1.4c.25-.01.46.05.59.1l-2.25 2.69c-.22-.39-.24-.72-.24-.9.03-.98.98-1.87 1.9-1.89zm0 3.79c-.25.01-.46-.05-.59-.1l2.25-2.69c.22.39.24.72.24.9-.03.98-.98 1.87-1.9 1.89z"/>
</svg>