<svg xmlns="http://www.w3.org/2000/svg" width="16" height="16" fill="currentColor" class="qi-1045" viewBox="0 0 16 16">
  <path d="M8.5 1C4.36 1 1 4.36 1 8.5 1 12.64 4.36 16 8.5 16c4.14 0 7.5-3.36 7.5-7.5C16 4.36 12.65 1 8.5 1zM2.4 8.5c0-3.36 2.74-6.1 6.1-6.1 1.38 0 2.66.47 3.68 1.25L8.69 7.83l-.48-.44c.28-.36.49-.65.49-.71a2.54 2.54 0 0 0-2.54-2.55c-.18 0-.63.08-.67.09-.17.05-.23.27-.1.39l1.28 1.28c.17.17.26.4.26.64a.9.9 0 0 1-.26.64.9.9 0 0 1-.64.26.9.9 0 0 1-.64-.26L4.11 5.89c-.13-.13-.35-.07-.39.1-.01.05-.09.49-.09.67 0 1.4 1.14 2.54 2.54 2.54.18 0 .35-.02.52-.05.04-.01.18-.16.38-.38l.47.43-3.16 3.77v.01A6.078 6.078 0 0 1 2.4 8.5zm6.1 6.1c-1.09 0-2.11-.29-2.99-.79l3.06-3.66 2.39 2.19c.17.16.39.23.6.23a.895.895 0 0 0 .6-1.56L9.72 8.77l3.48-4.16c.87 1.06 1.4 2.41 1.4 3.88 0 3.37-2.73 6.11-6.1 6.11z"/>
</svg>