<svg xmlns="http://www.w3.org/2000/svg" width="16" height="16" fill="currentColor" class="qi-1045" viewBox="0 0 16 16">
  <path d="M8 .5A7.5 7.5 0 1 0 15.5 8 7.5 7.5 0 0 0 8 .5zM1.9 8a6.089 6.089 0 0 1 9.784-4.851L8.19 7.325l-.476-.438a3.593 3.593 0 0 0 .486-.712 2.543 2.543 0 0 0-2.537-2.551 4.789 4.789 0 0 0-.671.09.235.235 0 0 0-.1.394l1.272 1.275a.905.905 0 0 1-1.28 1.281L3.608 5.388a.236.236 0 0 0-.394.1 4.789 4.789 0 0 0-.09.671A2.541 2.541 0 0 0 5.665 8.7a2.492 2.492 0 0 0 .522-.054 2.1 2.1 0 0 0 .381-.375l.469.431-3.157 3.774v.006A6.076 6.076 0 0 1 1.9 8zM8 14.1a6.062 6.062 0 0 1-2.992-.79L8.07 9.65l2.385 2.189a.9.9 0 0 0 1.21-1.326L9.222 8.272 12.7 4.116A6.1 6.1 0 0 1 8 14.1z"/>
</svg>