<svg xmlns="http://www.w3.org/2000/svg" width="16" height="16" fill="currentColor" class="qi-1046" viewBox="0 0 16 16">
  <path d="M1.586 12.321a19.379 19.379 0 0 0 2.99.241 10 10 0 0 0 3.063-.406 8.209 8.209 0 0 1 6.311.123.7.7 0 1 0 .69-1.218 9.576 9.576 0 0 0-7.44-.233 13.986 13.986 0 0 1-5.373.113.71.71 0 0 0-.807.573.7.7 0 0 0 .566.807z"/>
  <path d="M14.64 13.5a9.584 9.584 0 0 0-7.44-.229 14.031 14.031 0 0 1-5.373.113.7.7 0 0 0-.236 1.38 19.593 19.593 0 0 0 2.99.24 10.03 10.03 0 0 0 3.063-.4 8.209 8.209 0 0 1 6.311.123.7.7 0 0 0 .69-1.219zM2.714 9.419H13.3a.591.591 0 0 0 .478-.94L8.483 1.226a.593.593 0 0 0-.956 0l-5.29 7.253a.591.591 0 0 0 .477.94zM8.005 7.68a.433.433 0 1 1 .433-.432.432.432 0 0 1-.433.432zm0-3.585a.538.538 0 0 1 .533.613L8.3 6.421h-.589l-.239-1.713a.538.538 0 0 1 .533-.608z"/>
</svg>