<svg xmlns="http://www.w3.org/2000/svg" width="16" height="16" fill="currentColor" class="qi-1047" viewBox="0 0 16 16">
  <path d="M2.446 4.676a.613.613 0 0 0 0-1.225.613.613 0 0 0 0 1.225ZM.975 8.831a.415.415 0 0 0-.408.418c0 .234.188.418.408.418a.42.42 0 0 0 .29-.71.415.415 0 0 0-.29-.126Zm2.143-2.542a.87.87 0 0 0-.868-.867.87.87 0 0 0-.868.867c0 .477.39.868.868.868a.87.87 0 0 0 .868-.868Zm-.408 5.562a.41.41 0 0 0-.408.408.41.41 0 0 0 .408.408c.22 0 .408-.188.408-.408a.41.41 0 0 0-.408-.408Zm3.538-5.102a.58.58 0 0 0 .578-.578.58.58 0 0 0-1.114-.222.58.58 0 0 0 .536.8Zm1.746-2.552a.59.59 0 0 0 0-1.178.59.59 0 0 0 0 1.178Zm5.661.29a.496.496 0 1 0 0-.992.496.496 0 0 0 0 .992Zm-9.261 6.038a1.276 1.276 0 1 0 0-2.552 1.276 1.276 0 0 0 0 2.552Zm-.211-6.981a.87.87 0 0 0 .867-.867.87.87 0 0 0-.867-.868.87.87 0 0 0-.868.868c0 .478.39.867.868.867Zm6.998 5.348a.4.4 0 0 0-.408.408.41.41 0 0 0 .408.408.41.41 0 0 0 .408-.408.41.41 0 0 0-.408-.408Zm1.684-1.735a.87.87 0 0 0 .868-.868.869.869 0 0 0-1.736 0c0 .477.39.868.868.868Zm.139 4.171a.87.87 0 0 0-.868.867c0 .477.39.868.868.868a.87.87 0 0 0 0-1.735Zm1.499-3.287a.878.878 0 0 0-.875.875c0 .481.394.875.875.875a.878.878 0 0 0 .875-.875.877.877 0 0 0-.875-.875Zm-3.118-4.809a.87.87 0 0 0 .867-.868.87.87 0 0 0-.867-.868.87.87 0 0 0-.868.868.87.87 0 0 0 .868.868ZM9.497 5.014A1.28 1.28 0 0 0 8.22 6.29c0 .706.57 1.276 1.276 1.276.706 0 1.276-.57 1.276-1.276 0-.707-.57-1.276-1.276-1.276Zm-3.785 7.591c-.65 0-1.18.531-1.18 1.18 0 .649.53 1.18 1.18 1.18.649 0 1.18-.531 1.18-1.18 0-.649-.531-1.18-1.18-1.18Zm2.05-2.488a.868.868 0 1 0 0-1.736.868.868 0 0 0 0 1.736Zm1.481 3.036a.958.958 0 1 0 0-1.916.958.958 0 0 0 0 1.916Z"/>
</svg>