<svg xmlns="http://www.w3.org/2000/svg" width="16" height="16" fill="currentColor" class="qi-1047" viewBox="0 0 16 16">
  <path d="M2.88 4.18c.34 0 .61-.28.61-.61a.62.62 0 0 0-.61-.61c-.33 0-.61.28-.61.61 0 .33.27.61.61.61zM1.41 8.33a.42.42 0 0 0 0 .84.42.42 0 0 0 0-.84zm2.14-2.54a.87.87 0 1 0-1.741.001.87.87 0 0 0 1.741-.001zm-.41 5.56c-.22 0-.41.18-.41.41 0 .23.19.41.41.41.22 0 .41-.19.41-.41 0-.23-.18-.41-.41-.41zm3.54-5.1c.32 0 .58-.27.58-.58 0-.32-.27-.58-.58-.58-.32 0-.58.25-.58.58 0 .32.27.58.58.58zM8.43 3.7a.591.591 0 0 0 0-1.18.591.591 0 0 0 0 1.18zm5.66.29a.5.5 0 1 0 0-1 .5.5 0 0 0 0 1zm-9.26 6.04a1.28 1.28 0 1 0 0-2.56 1.28 1.28 0 0 0 0 2.56zm-.21-6.99a.87.87 0 1 0-.001-1.741.87.87 0 0 0 .001 1.741zm7 5.35a.4.4 0 0 0-.41.41c0 .23.19.41.41.41.23 0 .41-.19.41-.41a.418.418 0 0 0-.41-.41zm1.68-1.73a.87.87 0 1 0-.001-1.741.87.87 0 0 0 .001 1.741zm.14 4.17a.87.87 0 1 0 .001 1.741.87.87 0 0 0-.001-1.741zm1.5-3.29a.87.87 0 1 0 .001 1.741.87.87 0 0 0-.001-1.741zm-3.12-4.81c.48 0 .87-.39.87-.87S12.3 1 11.82 1a.87.87 0 0 0-.87.87c0 .48.39.86.87.86zM9.93 4.51c-.71 0-1.28.58-1.28 1.28 0 .71.57 1.28 1.28 1.28.71 0 1.28-.57 1.28-1.28 0-.71-.57-1.28-1.28-1.28zm-3.78 7.6c-.65 0-1.18.53-1.18 1.18 0 .65.53 1.18 1.18 1.18.65 0 1.18-.53 1.18-1.18 0-.65-.53-1.18-1.18-1.18zM8.2 9.62a.87.87 0 1 0 0-1.74.87.87 0 0 0 0 1.74zm1.48 3.04a.96.96 0 1 0 0-1.92.96.96 0 0 0 0 1.92z"/>
</svg>