<svg xmlns="http://www.w3.org/2000/svg" width="16" height="16" fill="currentColor" class="qi-1048" viewBox="0 0 16 16">
  <path d="M5.154 3.71a.445.445 0 0 0-.45.46.445.445 0 0 0 .45.46c.13 0 .23-.04.32-.13.08-.09.13-.2.13-.33a.445.445 0 0 0-.45-.46z"/>
  <path d="M13.704 8.93h-2.27V1.47a.47.47 0 0 0-.47-.47h-7.05a.47.47 0 0 0-.47.47v7.46h-2.14c-.28 0-.41.35-.2.53l6.25 5.48c.09.08.22.08.31 0l6.25-5.48c.2-.19.07-.53-.21-.53zm-8.54-3.91c-.25 0-.47-.08-.64-.25a.832.832 0 0 1-.26-.61c0-.24.09-.44.26-.61.17-.17.38-.25.63-.25.26 0 .47.08.64.24.17.16.25.37.25.62s-.08.46-.25.62c-.17.16-.38.24-.63.24zm3.61 3.22c.51-.13.82-.51.96-.71l.47.51c-.25.35-.57.6-.87.76-.47.26-.91.25-1.09.24-.19-.01-1.03-.02-1.65-.66-.63-.65-.65-1.45-.65-1.74 0-.65.24-1.21.67-1.67.1-.11.36-.35.72-.52.61-.28 1.17-.18 1.33-.15.14.03.57.12.99.46.24.2.46.46.55.61l-.48.52c-.11-.18-.49-.63-1.04-.77-.78-.2-1.93.26-1.94 1.55-.01 1.27 1.1 1.82 2.03 1.57z"/>
</svg>