<svg xmlns="http://www.w3.org/2000/svg" width="16" height="16" fill="currentColor" class="qi-1049" viewBox="0 0 16 16">
  <path d="m13.964 7.065.153.033a5.473 5.473 0 0 0-4.186-5.949 5.236 5.236 0 0 0-6.018 3.428 4.5 4.5 0 0 0 .937 4.44 4.346 4.346 0 0 1-2.814-3.983L1.884 5a5.465 5.465 0 0 0 4.185 5.949 5.284 5.284 0 0 0 5.992-3.4 4.644 4.644 0 0 0-.9-4.465 4.212 4.212 0 0 1 2.803 3.981zm-6.2.18A1.219 1.219 0 1 1 9.2 6.287a1.219 1.219 0 0 1-1.438.958zM.993 13.759a1.22 1.22 0 0 0 2.44 0 8.059 8.059 0 0 0-1.22-2.441 8.059 8.059 0 0 0-1.22 2.441zm3.849 0a1.22 1.22 0 1 0 2.44 0 8.059 8.059 0 0 0-1.22-2.441 8.059 8.059 0 0 0-1.22 2.441zm3.849 0a1.22 1.22 0 1 0 2.44 0 8.059 8.059 0 0 0-1.22-2.441 8.059 8.059 0 0 0-1.22 2.441zm5.069-2.441a8.059 8.059 0 0 0-1.22 2.441 1.221 1.221 0 0 0 2.441 0 8.057 8.057 0 0 0-1.221-2.441z" style="fill-rule:evenodd"/>
</svg>