<svg xmlns="http://www.w3.org/2000/svg" width="16" height="16" fill="currentColor" class="qi-1049" viewBox="0 0 16 16">
  <path fill-rule="evenodd" d="m13.97 7.025.15.03c.29-2.85-1.59-5.41-4.19-5.95-2.55-.53-5.32.99-6.02 3.43-.77 2.68.74 4.17.94 4.44-1.46-.32-2.87-2.36-2.81-3.98l-.15-.03c-.29 2.85 1.59 5.42 4.19 5.95 2.53.52 5.22-1 5.99-3.4.81-2.51-.7-4.2-.9-4.46 1.55.32 2.86 2.36 2.8 3.97zm-6.2.18a1.218 1.218 0 1 1 1.43-.96c-.13.67-.77 1.1-1.43.96zM1 13.725c0 .67.55 1.22 1.22 1.22.67 0 1.22-.55 1.22-1.22 0-.67-1.22-2.44-1.22-2.44S1 13.045 1 13.725zm3.85 0c0 .67.55 1.22 1.22 1.22.67 0 1.22-.55 1.22-1.22 0-.67-1.22-2.44-1.22-2.44s-1.22 1.76-1.22 2.44zm3.85 0c0 .67.55 1.22 1.22 1.22.67 0 1.22-.55 1.22-1.22 0-.67-1.22-2.44-1.22-2.44s-1.22 1.76-1.22 2.44zm5.07-2.44s-1.22 1.77-1.22 2.44c0 .67.55 1.22 1.22 1.22.67 0 1.22-.55 1.22-1.22 0-.67-1.22-2.44-1.22-2.44z"/>
</svg>