<svg xmlns="http://www.w3.org/2000/svg" width="16" height="16" fill="currentColor" class="qi-1050" viewBox="0 0 16 16">
  <path d="M5.321 10.8h-.6l.3-.522a.7.7 0 0 0-1.213-.7l-.3.521-.3-.521a.7.7 0 0 0-1.213.7l.3.522h-.6a.7.7 0 1 0 0 1.4h.6l-.3.521a.7.7 0 0 0 1.213.7l.3-.52.3.52a.7.7 0 1 0 1.213-.7l-.3-.521h.6a.7.7 0 0 0 0-1.4zm8.424-2.973V3.949a2.95 2.95 0 1 0-5.9 0v3.878a4.2 4.2 0 1 0 5.9 0zM10.8 13.6A2.786 2.786 0 0 1 9 8.669a.7.7 0 0 0 .248-.534V3.949a1.55 1.55 0 0 1 3.1 0v4.186a.7.7 0 0 0 .248.534A2.786 2.786 0 0 1 10.8 13.6zM7.22 5.227a.7.7 0 0 0-.7-.7h-1.2l.6-1.038a.7.7 0 1 0-1.213-.7l-.6 1.037-.6-1.037a.7.7 0 1 0-1.213.7l.6 1.038H1.7a.7.7 0 1 0 0 1.4h1.2l-.6 1.038a.7.7 0 0 0 1.213.7l.6-1.038.6 1.038a.7.7 0 0 0 1.213-.7l-.6-1.038h1.2a.7.7 0 0 0 .694-.7z"/>
  <path d="M11.245 9.2V7.076a.5.5 0 1 0-1 0v2.141a1.757 1.757 0 1 0 1-.014z"/>
</svg>