<svg xmlns="http://www.w3.org/2000/svg" width="16" height="16" fill="currentColor" class="qi-1050" viewBox="0 0 16 16">
  <path d="M5.321 10.798h-.602l.301-.521a.7.7 0 0 0-1.212-.701l-.3.52-.3-.52a.701.701 0 0 0-1.214.7l.301.521h-.602a.7.7 0 1 0 0 1.4h.601l-.3.521a.7.7 0 1 0 1.213.699l.3-.52.3.52a.7.7 0 1 0 1.213-.699l-.3-.521h.601a.698.698 0 0 0 .67-.973.7.7 0 0 0-.67-.426Zm8.424-2.971V3.949a2.954 2.954 0 0 0-2.95-2.95 2.954 2.954 0 0 0-2.95 2.95v3.878a4.178 4.178 0 0 0-1.25 2.968c0 2.316 1.885 4.2 4.2 4.2 2.315 0 4.2-1.884 4.2-4.2a4.177 4.177 0 0 0-1.25-2.968Zm-2.95 5.768a2.803 2.803 0 0 1-2.8-2.8 2.79 2.79 0 0 1 1.002-2.126.7.7 0 0 0 .248-.534V3.949c0-.854.695-1.55 1.55-1.55.855 0 1.55.695 1.55 1.55v4.186a.7.7 0 0 0 .248.534 2.787 2.787 0 0 1 1.002 2.126c0 1.544-1.256 2.8-2.8 2.8ZM7.22 5.227a.7.7 0 0 0-.7-.7H5.322l.599-1.038a.702.702 0 0 0-.256-.957.703.703 0 0 0-.957.257l-.599 1.037-.599-1.037a.702.702 0 0 0-1.283.169.702.702 0 0 0 .07.531l.599 1.038H1.698a.7.7 0 1 0 0 1.4h1.198l-.599 1.038a.7.7 0 0 0 1.213.7l.599-1.038.599 1.038a.7.7 0 1 0 1.213-.7l-.599-1.038H6.52a.7.7 0 0 0 .7-.7Z"/>
  <path d="M11.245 9.203V7.076a.5.5 0 0 0-1 0v2.141a1.752 1.752 0 0 0-.722 2.915 1.759 1.759 0 0 0 3.003-1.244c0-.805-.543-1.476-1.28-1.685Z"/>
</svg>