<svg xmlns="http://www.w3.org/2000/svg" width="16" height="16" fill="currentColor" class="qi-1051" viewBox="0 0 16 16">
  <path fill-rule="evenodd" d="M3.421 10.82h1.38c.16 0 .3.09.42.32.37.74 1.52 2.79 4.07 2.37 2.62-.42 1.87-2.96.6-3.84-1.13-.78-4.13-.81-5.57-2.19-1.44-1.38-1.59-4.18.58-5.61 2.12-1.4 4.91-.92 6.16.11.98.8 1.34 1.82 1.47 2.44.06.27-.19.53-.46.53h-1.42c-.18 0-.37-.12-.47-.38-.15-.43-.34-1.2-1.3-1.53-1.3-.48-3.35.01-3.65 1.35-.29 1.41 1.57 1.98 2.8 2.32 1.32.37 3.7 1.01 4.53 2.5.92 1.64.78 3.51-.68 4.89s-4.26 1.65-5.93.81c-1.73-.88-2.64-2.61-2.93-3.53-.09-.28.12-.56.4-.56z"/>
</svg>