<svg xmlns="http://www.w3.org/2000/svg" width="16" height="16" fill="currentColor" class="qi-1051" viewBox="0 0 16 16">
  <path d="M3.356 10.625h1.38c.159 0 .3.086.419.321a3.816 3.816 0 0 0 4.07 2.374c2.615-.423 1.87-2.963.6-3.838C8.69 8.7 5.7 8.665 4.25 7.288a3.626 3.626 0 0 1 .578-5.613 5.6 5.6 0 0 1 6.165.106 4.3 4.3 0 0 1 1.469 2.437.468.468 0 0 1-.462.533h-1.416a.5.5 0 0 1-.466-.378 2.077 2.077 0 0 0-1.3-1.533c-1.3-.477-3.347.01-3.65 1.346-.292 1.419 1.569 1.99 2.793 2.33 1.321.367 3.7 1.01 4.53 2.5a3.851 3.851 0 0 1-.678 4.888 5.754 5.754 0 0 1-5.926.807 6.271 6.271 0 0 1-2.932-3.53.427.427 0 0 1 .401-.556z" style="fill-rule:evenodd"/>
</svg>