<svg xmlns="http://www.w3.org/2000/svg" width="16" height="16" fill="currentColor" class="qi-1052" viewBox="0 0 16 16">
  <path d="M1.571 12.294c.09.02 1.43.24 2.99.24 1.02 0 2.13-.09 3.06-.41 3.75-1.25 6.21.07 6.31.12.34.19.76.07.95-.26.19-.34.07-.76-.26-.95-.09-.05-1.82-1-4.56-.81l2.81-2.98c.12-.12.03-.33-.14-.33h-1.28c-.05 0-.08-.06-.05-.1l1.22-1.47a.136.136 0 0 0-.11-.21h-2.21a.24.24 0 0 0-.2.12l-1.64 2.54c-.07.13.02.29.17.29h1.31c.04 0 .07.04.06.08l-.62 2.13c-.68.09-1.41.25-2.19.51-.88.29-2 .35-2.99.33l1.31-4.46 6.73-3.31c.31-.15.27-.6-.06-.7l-5.8-1.65c-.35-.07-.7.13-.8.48l-2.8 9.55c-.57-.06-.94-.12-.95-.12a.716.716 0 0 0-.81.57c-.08.38.17.74.55.8zm13.06 1.18c-.12-.07-3.07-1.69-7.44-.23-2.02.68-5.34.12-5.37.11a.708.708 0 0 0-.81.57.7.7 0 0 0 .57.81c.09.02 1.43.24 2.99.24 1.02 0 2.13-.09 3.06-.41 3.75-1.25 6.21.07 6.31.12.34.19.76.07.95-.26.19-.33.07-.75-.26-.95z"/>
</svg>