<svg xmlns="http://www.w3.org/2000/svg" width="16" height="16" fill="currentColor" class="qi-1053" viewBox="0 0 16 16">
  <path d="M1.562 5.204c.09.02 1.44.27 3.01.27 1.03 0 2.15-.11 3.09-.47 3.72-1.41 6.15.07 6.25.14a.7.7 0 0 0 .97-.21c.21-.33.12-.76-.21-.97-.12-.08-3.1-1.94-7.51-.27-2 .76-5.3.13-5.33.12a.69.69 0 0 0-.82.56c-.07.39.17.76.55.83zm13.11 2.62c-.12-.08-3.1-1.94-7.51-.27-2 .76-5.3.13-5.33.13a.69.69 0 0 0-.82.56c-.07.38.17.75.55.82.09.02 1.43.27 3.01.27 1.03 0 2.15-.11 3.09-.47 3.72-1.41 6.15.07 6.25.14a.7.7 0 0 0 .97-.21c.21-.33.12-.76-.21-.97zm0 3.85c-.12-.08-3.1-1.94-7.51-.27-2 .76-5.3.13-5.33.12a.704.704 0 0 0-.27 1.38c.09.02 1.44.27 3.01.27 1.03 0 2.15-.11 3.09-.47 3.72-1.41 6.15.07 6.25.14a.7.7 0 0 0 .97-.21.69.69 0 0 0-.21-.96z"/>
</svg>