<svg xmlns="http://www.w3.org/2000/svg" width="16" height="16" fill="currentColor" class="qi-1053" viewBox="0 0 16 16">
  <path d="M1.568 5.11a17.453 17.453 0 0 0 3.009.274 9 9 0 0 0 3.09-.465 7.266 7.266 0 0 1 6.251.136.7.7 0 0 0 .759-1.182 8.632 8.632 0 0 0-7.508-.268c-2 .758-5.3.133-5.332.125a.7.7 0 0 0-.269 1.38zm13.109 2.616a8.628 8.628 0 0 0-7.509-.268c-2 .76-5.3.132-5.331.125a.7.7 0 0 0-.269 1.38 17.317 17.317 0 0 0 3.007.274 8.966 8.966 0 0 0 3.092-.466 7.269 7.269 0 0 1 6.251.136.7.7 0 1 0 .759-1.181zm0 3.853a8.626 8.626 0 0 0-7.508-.267c-2 .757-5.3.132-5.332.124a.7.7 0 0 0-.269 1.38 17.34 17.34 0 0 0 3.009.274 8.978 8.978 0 0 0 3.09-.465 7.26 7.26 0 0 1 6.251.136.7.7 0 0 0 .759-1.182z"/>
</svg>