<svg xmlns="http://www.w3.org/2000/svg" width="16" height="16" fill="currentColor" class="qi-1054" viewBox="0 0 16 16">
  <path d="M1.586 12.32c.09.02 1.43.24 2.99.24 1.02 0 2.13-.09 3.06-.41 3.75-1.25 6.21.07 6.31.12.34.19.76.07.95-.26.19-.34.07-.76-.26-.95-.12-.07-3.07-1.69-7.44-.23-.31.1-.65.18-1.01.23l5.78-6.14c.22-.23.05-.61-.26-.61h-2.38c-.09 0-.15-.1-.1-.18l2.26-2.74a.251.251 0 0 0-.21-.39h-4.11c-.16 0-.3.09-.38.22l-3.05 4.73c-.13.24.04.54.32.54h2.43c.08 0 .14.08.11.15l-1.31 4.51c-1.72.09-3.44-.2-3.47-.2a.716.716 0 0 0-.81.57c-.05.38.2.74.58.8zm13.06 1.18c-.12-.07-3.07-1.69-7.44-.23-2.02.68-5.34.12-5.37.11a.708.708 0 0 0-.81.57.7.7 0 0 0 .57.81c.09.02 1.43.24 2.99.24 1.02 0 2.13-.09 3.06-.41 3.75-1.25 6.21.07 6.31.12.34.19.76.07.95-.26.19-.33.07-.75-.26-.95z"/>
</svg>