<svg xmlns="http://www.w3.org/2000/svg" width="16" height="16" fill="currentColor" class="qi-1055" viewBox="0 0 16 16">
  <path d="M1.602 12.277c.09.02 1.43.24 2.99.24 1.02 0 2.13-.09 3.06-.41 3.75-1.25 6.21.07 6.31.12.34.19.76.07.95-.26.19-.34.07-.76-.26-.95-.09-.05-1.72-.94-4.31-.83.85-.63 1.52-1.48 1.85-2.5.83-2.58-.72-4.32-.93-4.59 1.6.33 2.95 2.43 2.88 4.1l.16.03c.3-2.93-1.64-5.57-4.31-6.12-2.62-.54-5.48 1.02-6.19 3.53-.79 2.76.76 4.29.96 4.57-1.5-.32-2.96-2.43-2.9-4.1l-.16-.03c-.29 2.79 1.46 5.29 3.93 6-1.83.15-3.79-.17-3.82-.18a.716.716 0 0 0-.81.57c-.03.39.22.75.6.81zm6.66-7.35c.68.14 1.12.8.99 1.47-.14.68-.8 1.12-1.48.99-.68-.14-1.12-.8-.99-1.48.14-.68.8-1.12 1.48-.98zm6.4 8.53c-.12-.07-3.07-1.69-7.44-.23-2.02.68-5.34.12-5.37.11a.708.708 0 0 0-.81.57.7.7 0 0 0 .57.81c.09.02 1.43.24 2.99.24 1.02 0 2.13-.09 3.06-.41 3.75-1.25 6.21.07 6.31.12.34.19.76.07.95-.26.19-.33.07-.75-.26-.95z"/>
</svg>