<svg xmlns="http://www.w3.org/2000/svg" width="16" height="16" fill="currentColor" class="qi-1055" viewBox="0 0 16 16">
  <path d="M1.586 12.321a19.379 19.379 0 0 0 2.99.241 10 10 0 0 0 3.063-.406 8.209 8.209 0 0 1 6.311.123.7.7 0 1 0 .69-1.218 8.536 8.536 0 0 0-4.314-.826 5.061 5.061 0 0 0 1.853-2.5 4.782 4.782 0 0 0-.926-4.594c1.6.334 2.947 2.433 2.885 4.1l.156.035a5.631 5.631 0 0 0-4.307-6.124A5.387 5.387 0 0 0 3.8 4.679a4.621 4.621 0 0 0 .964 4.569c-1.505-.324-2.958-2.433-2.9-4.1l-.157-.034a5.63 5.63 0 0 0 3.933 6 17.6 17.6 0 0 1-3.817-.179.71.71 0 0 0-.807.573.7.7 0 0 0 .57.813zm6.659-7.357a1.255 1.255 0 1 1-1.475.986 1.255 1.255 0 0 1 1.475-.986z"/>
  <path d="M14.64 13.5a9.584 9.584 0 0 0-7.44-.229 14.031 14.031 0 0 1-5.373.113.7.7 0 0 0-.236 1.38 19.593 19.593 0 0 0 2.99.24 10.03 10.03 0 0 0 3.063-.4 8.209 8.209 0 0 1 6.311.123.7.7 0 0 0 .69-1.219z"/>
</svg>