<svg xmlns="http://www.w3.org/2000/svg" width="16" height="16" fill="currentColor" class="qi-1056" viewBox="0 0 16 16">
  <path d="M13.72 7.83V3.95a2.949 2.949 0 1 0-5.9 0v3.88c-.8.79-1.25 1.85-1.25 2.97a4.2 4.2 0 1 0 8.4 0c0-1.12-.45-2.18-1.25-2.97zm-2.95 5.77c-1.54 0-2.8-1.26-2.8-2.8 0-.81.37-1.59 1-2.13.16-.13.25-.33.25-.53V3.95c0-.85.7-1.55 1.55-1.55.85 0 1.55.7 1.55 1.55v4.19c0 .21.09.4.25.53.64.54 1 1.31 1 2.13 0 1.54-1.25 2.8-2.8 2.8zM5.45 3.98H1.7c-.39 0-.7.31-.7.7 0 .39.31.7.7.7h3.75c.39 0 .7-.31.7-.7 0-.39-.31-.7-.7-.7z"/>
  <path d="M11.22 9.2V7.08c0-.28-.22-.5-.5-.5s-.5.22-.5.5v2.14c-.71.22-1.24.88-1.24 1.67 0 .97.79 1.76 1.76 1.76s1.76-.79 1.76-1.76c0-.8-.54-1.48-1.28-1.69z"/>
</svg>