<svg xmlns="http://www.w3.org/2000/svg" width="16" height="16" fill="currentColor" class="qi-1057" viewBox="0 0 16 16">
  <path d="M10.923 13.394c-2.53-.437-4.678-1.752-6.648-3.258a.164.164 0 0 0-.225.024l-.606.718a.167.167 0 0 0 .036.247c2.154 1.386 4.741 2.077 7.435 2.322l.008-.053Zm-5.322-.549a.165.165 0 0 0-.206.071l-.315.562a.166.166 0 0 0 .096.24c2.65.798 5.4 1.218 8.167 1.247l-.003-.069c-2.443-.129-5.185-.99-7.739-2.051Zm-1.496-9.2a1.218 1.218 0 1 0 .07-2.435 1.218 1.218 0 0 0-.07 2.435Z"/>
  <path d="m14.762 5.552-4.027.324c-.45.036-.888.16-1.29.365l-1.568.798-1.074-2.966c1.355-.921 2.4-1.764 2.817-3.127a.499.499 0 0 0-.525-.645.494.494 0 0 0-.43.352c-.38 1.239-1.459 1.956-3.092 3.04-.56.372-1.172.778-1.824 1.254-2.274 1.66-2.263 3.914-1.938 4.874a.498.498 0 0 0 .92.064.501.501 0 0 0 .028-.381c-.026-.081-.586-1.908 1.252-3.486l1.645 2.929c.274.486.746.828 1.292.937l2.488.496c.455.09.865.334 1.163.689l2.161 2.576a.466.466 0 0 0 .47.154l.03-.007a.468.468 0 0 0 .304-.673L11.58 9.298a1.371 1.371 0 0 0-.847-.688l-.82-.229.312-.259c.362-.3.783-.522 1.235-.652l3.47-.998a.47.47 0 0 0-.168-.92Z"/>
</svg>