<svg xmlns="http://www.w3.org/2000/svg" width="16" height="16" fill="currentColor" class="qi-1057" viewBox="0 0 16 16">
  <path d="M10.253 14.115c-2.53-.44-4.68-1.75-6.65-3.26a.182.182 0 0 0-.23.02l-.61.72c-.06.08-.05.19.04.25 2.15 1.39 4.74 2.08 7.43 2.32l.02-.05zm-5.32-.55c-.08-.03-.17 0-.21.07l-.31.56c-.05.09 0 .21.1.24 2.6.78 5.33 1.22 8.17 1.25v-.07c-2.46-.13-5.2-.99-7.75-2.05zm-1.5-9.2c.67 0 1.22-.55 1.22-1.22 0-.67-.55-1.22-1.22-1.22-.67 0-1.22.55-1.22 1.22 0 .67.55 1.22 1.22 1.22z"/>
  <path d="m14.093 6.265-4.03.32a3.6 3.6 0 0 0-1.29.36l-1.57.8-1.07-2.97c1.36-.92 2.4-1.76 2.82-3.13a.5.5 0 0 0-.33-.62.492.492 0 0 0-.62.33c-.38 1.24-1.46 1.96-3.09 3.04-.56.37-1.17.78-1.82 1.25-2.27 1.66-2.26 3.91-1.94 4.87a.492.492 0 0 0 .63.31c.26-.09.4-.37.32-.63-.03-.08-.59-1.91 1.25-3.49l1.65 2.93c.27.49.74.83 1.29.94l2.49.5c.45.09.87.33 1.16.69l2.16 2.58c.11.14.3.2.47.15l.03-.01c.3-.07.45-.4.31-.67l-2-3.8c-.18-.34-.48-.59-.85-.69l-.82-.23.31-.26c.36-.3.78-.52 1.24-.65l3.47-1a.48.48 0 0 0 .34-.42.48.48 0 0 0-.51-.5z"/>
</svg>