<svg xmlns="http://www.w3.org/2000/svg" width="16" height="16" fill="currentColor" class="qi-1058" viewBox="0 0 16 16">
  <path d="M15.497 3.077S7.525.722 4.845.023a.794.794 0 0 0-.956.568L.024 15a.81.81 0 0 0 .544.968.811.811 0 0 0 1-.554l1.671-6.23 12.373-4.817a.696.696 0 0 0-.115-1.291Zm-2.562 7.525c-.085 0-.141-.08-.103-.15l1.267-2.3c.038-.07-.018-.152-.103-.152H11.47a.234.234 0 0 0-.122.031.253.253 0 0 0-.092.092l-2.235 4.22c-.067.125.035.27.189.27h2.272c.08 0 .135.07.11.139l-1.182 3.11c-.044.11.115.188.198.1l4.765-5.189c.062-.067.01-.171-.088-.171h-2.35Z"/>
</svg>