<svg xmlns="http://www.w3.org/2000/svg" width="16" height="16" fill="currentColor" class="qi-1058" viewBox="0 0 16 16">
  <path d="M13.37 9.43c-.22-.31-.57-.53-.97-.62-.1-.87-.8-1.51-1.58-1.52-.62-.01-1.21.38-1.49 1-.14.02-.45.08-.75.3-.28.21-.42.47-.48.6-.64-.09-1.1.25-1.3.65a.934.934 0 0 0-.67.07c-.27.14-.48.44-.48.78 0 .39.27.71.6.83.4.15.76-.05.81-.08.09.08.44.35.95.35.41 0 .7-.17.81-.25.1.05.28.12.51.17l-.65 1.01c-.05.09.01.19.11.19h.86c.03 0 .05.03.04.05L9.1 15l2.49-2.64c.08-.08.02-.22-.09-.22h-.84c-.03 0-.05-.04-.04-.06l.49-.59a1.876 1.876 0 0 0 1.87 0c.07.03.46.21.87.03.42-.18.66-.63.64-1.03-.03-.53-.5-1.01-1.12-1.06z"/>
  <path d="M14.56 3.69S7.58 1.63 5.24 1.02a.702.702 0 0 0-.84.5L1.02 14.13c-.09.37.12.74.48.85.37.11.77-.11.88-.48l1.46-5.45 10.83-4.21c.49-.27.42-1-.11-1.15z"/>
</svg>