<svg xmlns="http://www.w3.org/2000/svg" width="16" height="16" fill="currentColor" class="qi-1059" viewBox="0 0 16 16">
  <path d="M12.923 9.18c-.12 0-.24.04-.33.12l-4.97 4.35-4.97-4.35a.497.497 0 0 0-.33-.12h-1.22c-.09 0-.14.12-.07.18l6.38 5.58c.12.1.29.1.41 0l6.38-5.58c.07-.06.03-.18-.07-.18h-1.21z"/>
  <path d="M7.433 12.43c.12.1.29.1.41 0l6.38-5.58c.07-.06.03-.18-.07-.18h-1.22c-.12 0-.24.04-.33.12l-4.97 4.35-4.97-4.35a.497.497 0 0 0-.33-.12h-1.22c-.09 0-.14.12-.07.18l6.39 5.58z"/>
  <path d="M7.473 9.89c.09.08.22.08.31 0l6.25-5.48c.21-.18.08-.53-.2-.53h-2.27V1.47a.47.47 0 0 0-.47-.47h-7.05a.47.47 0 0 0-.47.47v2.42h-2.14c-.28 0-.41.35-.2.53l6.24 5.47z"/>
</svg>