<svg xmlns="http://www.w3.org/2000/svg" width="16" height="16" fill="currentColor" class="qi-1059" viewBox="0 0 16 16">
  <path d="M13.284 9.164a.491.491 0 0 0-.325.122l-4.967 4.349-4.966-4.349a.491.491 0 0 0-.326-.122H1.48a.1.1 0 0 0-.067.177l6.376 5.583a.307.307 0 0 0 .407 0l6.376-5.583a.1.1 0 0 0-.067-.177z"/>
  <path d="M7.789 12.42a.309.309 0 0 0 .407 0l6.376-5.583a.1.1 0 0 0-.067-.178h-1.221a.5.5 0 0 0-.325.122L7.992 11.13 3.026 6.781a.5.5 0 0 0-.326-.122H1.48a.1.1 0 0 0-.067.178z"/>
  <path d="M7.836 9.883a.237.237 0 0 0 .312 0L14.4 4.407a.3.3 0 0 0-.2-.532h-2.272V1.456a.475.475 0 0 0-.474-.475H4.4a.475.475 0 0 0-.475.475v2.419H1.784a.3.3 0 0 0-.2.532z"/>
</svg>