<svg xmlns="http://www.w3.org/2000/svg" width="16" height="16" fill="currentColor" class="qi-1059" viewBox="0 0 16 16">
  <path d="M13.284 9.164a.491.491 0 0 0-.325.122l-4.966 4.349-4.967-4.349a.491.491 0 0 0-.325-.122H1.48a.102.102 0 0 0-.067.178l6.376 5.583a.31.31 0 0 0 .407 0l6.376-5.583a.101.101 0 0 0 .027-.112.101.101 0 0 0-.094-.066h-1.221Z"/>
  <path d="M7.789 12.42a.31.31 0 0 0 .407 0l6.376-5.583a.101.101 0 0 0 .027-.112.101.101 0 0 0-.094-.066h-1.221a.491.491 0 0 0-.325.122L7.992 11.13 3.026 6.781a.49.49 0 0 0-.325-.122H1.48a.102.102 0 0 0-.067.178l6.376 5.583Z"/>
  <path d="M7.836 9.883a.237.237 0 0 0 .312 0l6.253-5.475a.304.304 0 0 0-.2-.532h-2.272v-2.42a.475.475 0 0 0-.475-.475H4.403a.475.475 0 0 0-.475.475v2.419H1.784a.303.303 0 0 0-.2.532l6.252 5.476Z"/>
</svg>