<svg xmlns="http://www.w3.org/2000/svg" width="16" height="16" fill="currentColor" class="qi-1060" viewBox="0 0 16 16">
  <path d="M8 10a2 2 0 1 0 0-4 2 2 0 0 0 0 4Z"/>
  <path d="M15 8c0 1.333-4.188 4-7 4-2.812 0-7-2.667-7-4 0-1.333 4.188-4 7-4 2.812 0 7 2.667 7 4Zm-1.043-.041a2.441 2.441 0 0 0-.363-.44c-.362-.363-.901-.773-1.551-1.16C10.716 5.57 9.149 5 8 5c-1.15 0-2.716.569-4.042 1.36-.65.386-1.19.796-1.552 1.159A2.437 2.437 0 0 0 2.02 8a2.437 2.437 0 0 0 .386.481c.362.363.902.773 1.552 1.16C5.284 10.43 6.85 11 8 11s2.716-.569 4.043-1.36c.65-.386 1.189-.796 1.55-1.159A2.441 2.441 0 0 0 13.98 8a.914.914 0 0 0-.024-.041Z"/>
  <path d="m4 3 8.485 8.485-.707.707-8.485-8.485L4 3ZM1 4V1h3v1H2v2H1Zm14 8v3h-3v-1h2v-2h1ZM12 1v1h2v2h1V1h-3ZM4 15H1v-3h1v2h2v1Z"/>
</svg>