<svg xmlns="http://www.w3.org/2000/svg" width="16" height="16" fill="currentColor" class="qi-1061" viewBox="0 0 16 16">
  <path d="m14.297 12.181-12.59-.038h-.002a.703.703 0 0 0-.651.967.703.703 0 0 0 .649.433l12.59.038h.002a.703.703 0 0 0 .652-.967.703.703 0 0 0-.65-.433ZM1.556 6.429a1.5 1.5 0 1 0 0-3 1.5 1.5 0 0 0 0 3Zm6.444 0a1.5 1.5 0 1 0 0-3 1.5 1.5 0 0 0 0 3Zm-3.469 3.968a1.757 1.757 0 1 0 0-3.514 1.757 1.757 0 0 0 0 3.514Zm6.938 0a1.757 1.757 0 1 0 0-3.514 1.757 1.757 0 0 0 0 3.514ZM14.5 6.429a1.5 1.5 0 1 0 0-3 1.5 1.5 0 0 0 0 3Z"/>
</svg>