<svg xmlns="http://www.w3.org/2000/svg" width="16" height="16" fill="currentColor" class="qi-1063" viewBox="0 0 16 16">
  <path stroke="#000" d="M1.926 9.004 2 8.885l.074.119c.119.194.232.397.314.579.089.198.112.31.112.346 0 .348-.256.571-.5.571s-.5-.223-.5-.571c0-.036.023-.148.112-.346a5.39 5.39 0 0 1 .314-.58Zm12 0L14 8.885l.074.119c.119.194.232.397.314.579.089.198.112.31.112.346 0 .348-.256.571-.5.571s-.5-.223-.5-.571c0-.036.023-.148.112-.346.082-.182.195-.385.314-.58ZM8.5 13.929c0 .348-.256.571-.5.571s-.5-.223-.5-.571c0-.036.023-.148.112-.346A5.393 5.393 0 0 1 8 12.886l.074.118c.119.194.232.397.314.579.089.198.112.31.112.346Zm2.426-1.925.074-.118.074.118c.119.194.232.397.314.579.089.198.112.31.112.346 0 .348-.256.571-.5.571s-.5-.223-.5-.571c0-.036.023-.148.112-.346a5.39 5.39 0 0 1 .314-.58Zm-5.426.925c0 .348-.256.571-.5.571s-.5-.223-.5-.571c0-.036.023-.148.112-.346A5.393 5.393 0 0 1 5 11.886l.074.118c.119.194.232.397.314.579.089.198.112.31.112.346Z"/>
  <path d="M7.5 4.5a.5.5 0 0 1 1 0V6H10a.5.5 0 0 1 0 1H8a.5.5 0 0 1-.5-.5v-2Z"/>
  <path d="M7 1.1c0 .22.18.4.4.4h.1V2a4.5 4.5 0 1 0 3.546 1.16l.256-.255.094.095a.25.25 0 1 0 .354-.354l-.566-.565a.25.25 0 0 0-.353.353l.117.118-.29.29A4.476 4.476 0 0 0 8.5 2v-.5h.1a.4.4 0 0 0 0-.8H7.4a.4.4 0 0 0-.4.4Zm4.7 5.373a3.7 3.7 0 1 1-7.4 0 3.7 3.7 0 0 1 7.4 0Z"/>
</svg>