<svg xmlns="http://www.w3.org/2000/svg" width="16" height="16" fill="currentColor" class="qi-1065" viewBox="0 0 16 16">
  <path d="M1.568 5.11c.092.018 1.436.274 3.01.274 1.027 0 2.151-.11 3.09-.466 3.717-1.409 6.153.074 6.251.136a.704.704 0 0 0 .76-1.182c-.124-.079-3.099-1.941-7.509-.268-2.003.759-5.3.134-5.333.126a.703.703 0 0 0-.269 1.38Zm13.11 2.616c-.125-.079-3.102-1.941-7.51-.268-2.002.76-5.299.132-5.33.125a.703.703 0 0 0-.27 1.38c.091.018 1.435.273 3.008.273 1.027 0 2.152-.109 3.091-.466 3.721-1.41 6.153.074 6.251.136a.7.7 0 1 0 .76-1.18Zm0 3.853c-.125-.079-3.1-1.942-7.51-.268-2.002.758-5.299.132-5.332.124a.703.703 0 0 0-.269 1.38c.092.018 1.436.274 3.01.274 1.027 0 2.151-.11 3.09-.466 3.72-1.41 6.152.074 6.25.136a.704.704 0 0 0 1.067-.74.7.7 0 0 0-.307-.44Z"/>
</svg>