<svg xmlns="http://www.w3.org/2000/svg" width="16" height="16" fill="currentColor" class="qi-1066" viewBox="0 0 16 16">
  <path d="M11.828 1.179a.25.25 0 0 0 .427-.177v-.75a.25.25 0 0 0-.5 0v.75c0 .066.026.13.073.177Zm-2.04.931a.25.25 0 0 0 .273-.409l-.532-.53a.25.25 0 0 0-.354.354l.532.53a.25.25 0 0 0 .08.054ZM8.252 4.248h.75a.25.25 0 0 0 0-.5h-.75a.25.25 0 0 0 0 .5Zm.956 2.611a.25.25 0 0 0 .316-.032l.531-.53a.25.25 0 0 0-.353-.354l-.532.53a.25.25 0 0 0 .038.386Zm2.613 1.069a.25.25 0 0 0 .427-.177v-.75a.25.25 0 0 0-.5 0v.75c0 .067.026.13.073.177Zm2.733-1.042a.249.249 0 0 0 .327-.135.25.25 0 0 0-.054-.273l-.53-.53a.25.25 0 1 0-.354.354l.53.53a.25.25 0 0 0 .081.054Zm.447-2.631h.75a.25.25 0 0 0 0-.5h-.75a.25.25 0 0 0 0 .5Zm-1.015-2.164a.25.25 0 0 0 .316-.031l.53-.53a.25.25 0 0 0-.081-.408.25.25 0 0 0-.273.054l-.53.53a.25.25 0 0 0 .038.385Zm-3.234.039a2.25 2.25 0 1 1 2.5 3.74 2.25 2.25 0 0 1-2.5-3.74Zm2.223.415a1.75 1.75 0 1 0-1.945 2.91 1.75 1.75 0 0 0 1.945-2.91ZM7 8.5a2.5 2.5 0 1 1-5 0 2.5 2.5 0 0 1 5 0Zm-3.805.305a.667.667 0 0 0 1.138-.472c0-.333-.37-.93-.666-1.333C3.37 7.403 3 8 3 8.333c0 .177.07.347.195.472ZM4.5 11.5c-.996 0-1.636.006-2.5.5-1.516.867-2 4-2 4h9s-.484-3.133-2-4c-.864-.494-1.504-.5-2.5-.5ZM2.35 2.8a.25.25 0 0 1 .35.05l.14.186a.818.818 0 0 1-.201 1.172.318.318 0 0 0-.078.456l.139.186a.25.25 0 1 1-.4.3l-.14-.186a.818.818 0 0 1 .201-1.172.318.318 0 0 0 .078-.456L2.3 3.15a.25.25 0 0 1 .05-.35Zm2 0a.25.25 0 0 1 .35.05l.14.186a.818.818 0 0 1-.201 1.172.318.318 0 0 0-.078.456l.139.186a.25.25 0 1 1-.4.3l-.14-.186a.818.818 0 0 1 .201-1.172.318.318 0 0 0 .078-.456L4.3 3.15a.25.25 0 0 1 .05-.35Zm2.35.05a.25.25 0 0 0-.4.3l.14.186a.318.318 0 0 1-.079.456.818.818 0 0 0-.2 1.172l.139.186a.25.25 0 1 0 .4-.3l-.14-.186a.318.318 0 0 1 .079-.456.818.818 0 0 0 .2-1.172L6.7 2.85Z"/>
</svg>