<svg xmlns="http://www.w3.org/2000/svg" width="16" height="16" fill="currentColor" class="qi-1068" viewBox="0 0 16 16">
  <path d="M11.678 9.635c-.285.468-.642.702-1.071.702-.43 0-.788-.234-1.076-.702-.285-.47-.427-1.182-.427-2.135 0-.953.142-1.663.427-2.13.288-.471.647-.707 1.076-.707.429 0 .786.236 1.07.706.289.468.433 1.178.433 2.131 0 .953-.144 1.664-.432 2.135Z"/>
  <path d="M6.5 1c.656 0 1.254.253 1.7.667a1.994 1.994 0 0 1 2.204.41 2.5 2.5 0 0 1 3.745 3.203 2.5 2.5 0 0 1 .559 4.046 2.5 2.5 0 0 1-1.71 3.625l.002.099a2.5 2.5 0 0 1-4.357 1.674A2.489 2.489 0 0 1 7.5 15c-.356 0-.694-.074-1-.208a2.5 2.5 0 0 1-3.338-3.18A2.5 2.5 0 0 1 2.018 9.8a2.5 2.5 0 0 1 .073-4.63A2.503 2.503 0 0 1 4.5 2c.456-.607 1.182-1 2-1Zm-.6 10c.405 0 .864-.092 1.375-.276v-.779c-.476.264-.946.396-1.41.396-.35 0-.669-.112-.957-.336-.288-.227-.524-.567-.71-1.02A3.891 3.891 0 0 1 3.922 7.5c0-.527.09-1.015.269-1.463.18-.45.414-.792.705-1.025a1.53 1.53 0 0 1 .97-.349c.467 0 .937.132 1.41.396v-.783C6.764 4.092 6.305 4 5.9 4c-.54 0-1.036.14-1.485.421-.45.28-.798.693-1.045 1.238C3.123 6.203 3 6.817 3 7.5c0 .689.125 1.307.375 1.854.25.545.599.956 1.049 1.234.449.275.941.412 1.476.412Zm2.926-.944c.412.63 1.005.944 1.78.944.78 0 1.373-.315 1.781-.944.409-.632.613-1.484.613-2.556 0-1.069-.204-1.918-.613-2.547-.408-.633-1.002-.949-1.78-.949-.776 0-1.37.316-1.78.949-.41.629-.613 1.478-.613 2.547 0 1.072.204 1.924.612 2.556Z"/>
</svg>