<svg xmlns="http://www.w3.org/2000/svg" width="16" height="16" fill="currentColor" class="qi-1069" viewBox="0 0 16 16">
  <path d="M14 7.981a5.5 5.5 0 0 1-8.42 4.662l-.503.865a6.5 6.5 0 1 0-2.709-3.366l.922-.395A5.5 5.5 0 1 1 14 7.98Z"/>
  <path d="M10.476 4.303 8.78 6l.566.566.003-.003L10.5 7.715l.566-.566-1.152-1.152 1.128-1.128-.566-.566Zm-4.868.003 1.697 1.697-.566.566-.003-.003-1.152 1.152-.566-.566L6.17 6 5.042 4.872l.566-.566Zm.892 7.496-.27-.27.86-1.477 1.627.984 1.551-1.034 1.232 1.231-.566.566-.768-.768L8.717 12l-1.449-.966-.768.768Z"/>
  <path d="M8.187 7.834a.25.25 0 0 1 .029.292l-3.5 6a.25.25 0 0 1-.333.095l-1.166-.615a.25.25 0 0 1-.132-.251l.144-1.194-2.322-.929a.25.25 0 0 1-.005-.462l7-3a.25.25 0 0 1 .285.064Zm-6.534 3.158 1.94.776a.25.25 0 0 1 .155.262l-.146 1.214.803.423 2.998-5.139-5.75 2.464Z"/>
</svg>