<svg xmlns="http://www.w3.org/2000/svg" width="16" height="16" fill="currentColor" class="qi-1072" viewBox="0 0 16 16">
  <path d="M5.164 1.275a.25.25 0 0 0-.233-.265c-1.45-.094-2.964.49-3.882 1.729a.25.25 0 0 0 .402.297c.803-1.085 2.144-1.612 3.448-1.527a.25.25 0 0 0 .265-.234ZM4.815 2.7a.25.25 0 0 0-.267-.231 3.892 3.892 0 0 0-2.343.979.25.25 0 0 0 .336.37 3.392 3.392 0 0 1 2.042-.85.25.25 0 0 0 .232-.268ZM11 1.275a.25.25 0 0 1 .234-.265c1.45-.094 2.964.49 3.882 1.729a.25.25 0 1 1-.402.297c-.803-1.085-2.144-1.612-3.448-1.527a.25.25 0 0 1-.265-.234Zm.35 1.425a.25.25 0 0 1 .267-.231c.852.06 1.692.387 2.343.979a.25.25 0 1 1-.336.37 3.392 3.392 0 0 0-2.042-.85.25.25 0 0 1-.232-.268Z"/>
  <path d="M8 4.507C11.606 1.01 20.622 7.131 8 15-4.622 7.13 4.394 1.01 8 4.507Zm-.986 2.808L7.41 10h1.18l.396-2.685C9.088 6.627 8.618 6 8 6s-1.088.627-.986 1.315ZM8.6 11.4a.6.6 0 1 0-1.2 0 .6.6 0 0 0 1.2 0Z"/>
</svg>