<svg xmlns="http://www.w3.org/2000/svg" width="16" height="16" fill="currentColor" class="qi-1073" viewBox="0 0 16 16">
  <path d="M10.833 13c1.809-.038 2.828.07 4.594.485a.47.47 0 0 0 .562-.377.497.497 0 0 0-.357-.593c-1.84-.432-2.934-.548-4.818-.508-1.174.025-2.072.274-2.922.51l-.012.003c-.852.236-1.657.458-2.713.48-1.809.038-2.828-.07-4.594-.485a.47.47 0 0 0-.562.377.497.497 0 0 0 .357.593c1.84.432 2.934.548 4.818.508 1.174-.025 2.072-.274 2.922-.51l.012-.003c.852-.236 1.657-.458 2.713-.48Zm0 2c1.809-.038 2.828.07 4.594.485a.47.47 0 0 0 .562-.377.497.497 0 0 0-.357-.593c-1.84-.432-2.934-.548-4.818-.508-1.174.025-2.072.274-2.922.51l-.012.003c-.852.236-1.657.458-2.713.48-1.809.038-2.828-.07-4.594-.485a.47.47 0 0 0-.562.377.497.497 0 0 0 .357.593c1.84.432 2.934.547 4.818.508 1.174-.025 2.072-.274 2.922-.51l.012-.003c.852-.236 1.657-.458 2.713-.48Z"/>
  <path d="M5.536 5.293a.398.398 0 0 1 .385.103L9.418 9.03c.207.215-.008.496-.317.413l-1.176-.315-.974 3.636A8.37 8.37 0 0 1 5.167 13c-1.801.038-2.82-.068-4.571-.48l1.34-4.997-1.177-.315C.451 7.125.405 6.774.691 6.69l4.845-1.398ZM4.16 9.203a.52.52 0 0 0-.634.371l-.271 1.011a.52.52 0 0 0 .363.64l.999.267a.52.52 0 0 0 .634-.372l.271-1.01a.52.52 0 0 0-.363-.64l-.999-.267ZM14.291 4.05a.2.2 0 0 1 .322.086l.94 2.777a.2.2 0 0 1-.242.258l-.363-.098.584 1.91a.2.2 0 0 1-.243.252l-.328-.088.545 1.903a.2.2 0 0 1-.245.248l-1.66-.444-.33 1.234A17.27 17.27 0 0 0 11.224 12l.446-1.665-1.522-.408a.2.2 0 0 1-.087-.337l1.423-1.375-.328-.088a.2.2 0 0 1-.084-.34l1.46-1.362-.363-.097a.2.2 0 0 1-.08-.344l2.202-1.935ZM.293 2.707A1 1 0 0 1 0 2C0 1.5.555.605 1 0c.445.605 1 1.5 1 2a1 1 0 0 1-1.707.707Zm6 0A1 1 0 0 1 6 2c0-.5.555-1.395 1-2 .445.605 1 1.5 1 2a1 1 0 0 1-1.707.707ZM3 2a1 1 0 0 0 2 0c0-.5-.555-1.395-1-2-.445.605-1 1.5-1 2Z"/>
</svg>