<svg xmlns="http://www.w3.org/2000/svg" width="16" height="16" fill="currentColor" class="qi-1077" viewBox="0 0 16 16">
  <path d="M15.438 3.813c-.844.28-1.126 1.03-1.032 1.5-.656-.75-.656-1.594-.562-2.907-1.969.75-1.5 3-1.594 3.75-.469-.468-.563-1.406-.563-1.406-.562.281-.843 1.031-.843 1.688 0 1.5 1.219 2.53 2.625 2.53A2.52 2.52 0 0 0 16 6.439c0-1.032-.563-1.313-.563-2.625Z"/>
  <path d="M12.531 9.719a3.435 3.435 0 0 1-2.625-3.375c0-.563.188-1.219.563-1.782l-2.653-3.36a.2.2 0 0 0-.316.004L4.056 5.742a.2.2 0 0 0 .16.32H5.5l-2.557 3.24a.2.2 0 0 0 .157.323h1.837l-3.64 4.073a.2.2 0 0 0 .15.333h5.178V15.8c0 .11.09.2.2.2h1.663a.2.2 0 0 0 .2-.2v-1.769h5.171a.2.2 0 0 0 .148-.335L10.375 9.72h2.156ZM2.392.737a.156.156 0 0 0 .267-.11v-.47a.156.156 0 0 0-.313 0v.47c0 .04.017.08.046.11Zm-1.275.581a.156.156 0 0 0 .17-.255L.957.732a.156.156 0 0 0-.221.22l.332.332a.156.156 0 0 0 .05.034Zm-.96 1.337h.47a.156.156 0 0 0 0-.313h-.47a.156.156 0 0 0 0 .313Zm.598 1.632a.156.156 0 0 0 .198-.02l.332-.331a.156.156 0 0 0-.222-.221l-.331.33a.156.156 0 0 0 .023.242Zm1.633.668a.156.156 0 0 0 .267-.11v-.47a.156.156 0 0 0-.313 0v.47c0 .041.017.08.046.11Zm1.708-.651a.156.156 0 0 0 .213-.175.156.156 0 0 0-.042-.08l-.332-.331a.156.156 0 1 0-.22.22l.33.332a.156.156 0 0 0 .051.034Zm.28-1.644h.469a.156.156 0 1 0 0-.313h-.47a.156.156 0 1 0 0 .312Zm-.635-1.353a.156.156 0 0 0 .198-.02L4.27.956a.156.156 0 1 0-.221-.221l-.332.331a.156.156 0 0 0 .024.241ZM1.72 1.33a1.406 1.406 0 1 1 1.563 2.34A1.406 1.406 0 0 1 1.72 1.33Zm1.39.26a1.094 1.094 0 1 0-1.216 1.82 1.094 1.094 0 0 0 1.215-1.82Z"/>
</svg>