<svg xmlns="http://www.w3.org/2000/svg" width="16" height="16" fill="currentColor" class="qi-1079" viewBox="0 0 16 16">
  <path d="M8 15A7 7 0 1 0 8 1a7 7 0 0 0 0 14Zm0-1a6.01 6.01 0 0 1-1.484-.185c.552-.654 1.518-1.467 2.768-2.248a19.34 19.34 0 0 1 3.665-1.78c-1.068.86-1.635 1.633-1.928 2.3-.215.49-.278.919-.29 1.257A5.96 5.96 0 0 1 8 14Zm5.716-4.171a6.016 6.016 0 0 1-2.457 3.21c.033-.222.097-.472.22-.751.288-.657.908-1.49 2.237-2.46Zm-4.295-.433a25.135 25.135 0 0 0-2.764.894.856.856 0 0 0-.152-.133 2.317 2.317 0 0 0-.326-.187 8.093 8.093 0 0 0-1.04-.396c-.631-.2-1.447-.41-2.423-.605a15.08 15.08 0 0 1 3.952-.22c.768.062 1.452.184 2.002.35.3.09.551.19.751.297Zm-3.298 1.109c-1.083.45-2.012.927-2.712 1.36A5.98 5.98 0 0 1 2.157 9.37c1.17.218 2.125.457 2.83.68.42.134.747.26.974.37.063.03.117.059.162.085ZM2.03 8.604a6 6 0 1 1 11.929.105c-1.32.043-2.634.238-3.88.525-.297-.252-.741-.456-1.265-.614-.59-.178-1.312-.306-2.107-.37a15.493 15.493 0 0 0-4.677.354Zm10.057.868a20.022 20.022 0 0 0-3.121 1.586c-1.384.865-2.479 1.798-3.065 2.565a6.003 6.003 0 0 1-2.072-1.31c.94-.569 2.304-1.225 3.907-1.78a23.105 23.105 0 0 1 4.351-1.06Z"/>
  <path d="M7.972 3c-.494 0-.87.47-.789.986L7.5 6h.944l.317-2.014C8.842 3.47 8.466 3 7.972 3Zm0 4.479a.5.5 0 1 0 0-1 .5.5 0 0 0 0 1Z"/>
</svg>