<svg xmlns="http://www.w3.org/2000/svg" width="16" height="16" fill="currentColor" class="qi-1081" viewBox="0 0 16 16">
  <path d="M7.197 4.316a.581.581 0 0 0-1.007.581l.832 1.44H5.358a.58.58 0 1 0 0 1.161h1.664l-.832 1.44a.582.582 0 0 0 1.007.582l.83-1.44.832 1.44a.58.58 0 1 0 1.006-.582l-.831-1.44h1.663a.58.58 0 1 0 0-1.16H9.034l.831-1.44a.581.581 0 0 0-1.006-.582l-.831 1.44-.831-1.44Z"/>
  <path d="M13.7 3.807 8.3 1.071a.66.66 0 0 0-.6 0L2.3 3.807A.572.572 0 0 0 2.08 4a.479.479 0 0 0-.08.264v5.471a.52.52 0 0 0 .3.457l5.4 2.736a.655.655 0 0 0 .6 0l5.398-2.736A.57.57 0 0 0 13.92 10a.477.477 0 0 0 .08-.265V4.264A.479.479 0 0 0 13.92 4a.572.572 0 0 0-.22-.193Zm-.903 5.624L8 11.862 3.203 9.431V4.569L8 2.137l4.797 2.431v4.863Z"/>
  <path fill-rule="evenodd" d="M2.866 15a1 1 0 1 1 0-1h10.768a1 1 0 1 1 0 1H2.866Zm11.634.1a.6.6 0 1 0 0-1.2.6.6 0 0 0 0 1.2Z"/>
</svg>