<svg xmlns="http://www.w3.org/2000/svg" width="16" height="16" fill="currentColor" class="qi-1084" viewBox="0 0 16 16">
  <path d="M0 15.2s1-.2 3.5-.2 6.5.4 8.5.4 4-.2 4-.2v.8H0v-.8ZM15.438 3.813c-.844.28-1.126 1.03-1.032 1.5-.656-.75-.656-1.594-.562-2.907-1.969.75-1.5 3-1.594 3.75-.469-.468-.563-1.406-.563-1.406-.562.281-.843 1.031-.843 1.688 0 1.5 1.219 2.53 2.625 2.53A2.52 2.52 0 0 0 16 6.439c0-1.032-.563-1.313-.563-2.625Z"/>
  <path d="M9.906 6.344c0 1.687 1.125 3 2.625 3.375h-2.156l3.632 3.977a.2.2 0 0 1-.148.335H8.688v1.217l-.49-.031c-.52-.034-1.05-.068-1.573-.099v-1.087H1.447a.2.2 0 0 1-.15-.333l3.64-4.073H3.1a.2.2 0 0 1-.157-.324L5.5 6.063H4.215a.2.2 0 0 1-.159-.321L7.5 1.206a.2.2 0 0 1 .316-.003l2.653 3.36c-.375.562-.563 1.218-.563 1.78ZM2.392.737a.156.156 0 0 0 .267-.11v-.47a.156.156 0 0 0-.313 0v.47c0 .04.017.08.046.11Zm-1.275.581a.156.156 0 0 0 .17-.255L.957.732a.156.156 0 0 0-.221.22l.332.332a.156.156 0 0 0 .05.034Zm-.96 1.337h.47a.156.156 0 0 0 0-.313h-.47a.156.156 0 0 0 0 .313Zm.598 1.632a.156.156 0 0 0 .198-.02l.332-.331a.156.156 0 0 0-.222-.221l-.331.33a.156.156 0 0 0 .023.242Zm1.633.668a.156.156 0 0 0 .267-.11v-.47a.156.156 0 0 0-.313 0v.47c0 .041.017.08.046.11Zm1.708-.651a.156.156 0 0 0 .213-.175.156.156 0 0 0-.042-.08l-.332-.331a.156.156 0 1 0-.22.22l.33.332a.156.156 0 0 0 .051.034Zm.28-1.644h.469a.156.156 0 1 0 0-.313h-.47a.156.156 0 1 0 0 .312Zm-.635-1.353a.156.156 0 0 0 .198-.02L4.27.956a.156.156 0 1 0-.221-.221l-.332.331a.156.156 0 0 0 .024.241ZM1.72 1.33a1.406 1.406 0 1 1 1.563 2.34A1.406 1.406 0 0 1 1.72 1.33Zm1.39.26a1.094 1.094 0 1 0-1.216 1.82 1.094 1.094 0 0 0 1.215-1.82Z"/>
</svg>