<svg xmlns="http://www.w3.org/2000/svg" width="16" height="16" fill="currentColor" class="qi-1086" viewBox="0 0 16 16">
  <path d="M4.5 7a.5.5 0 0 1 .5.5v2.063a2 2 0 1 1-1 0V7.5a.5.5 0 0 1 .5-.5Z"/>
  <path d="m5.8 8.399.532.356a3.3 3.3 0 1 1-3.665 0l.533-.356V2.5a1.3 1.3 0 0 1 2.6 0v5.899ZM7 2.5a2.5 2.5 0 0 0-5 0v5.258a4.5 4.5 0 1 0 5 0V2.5Zm5.465-.033a.467.467 0 0 0-.933 0v.725l-.628-.363a.467.467 0 0 0-.467.808l.628.363-.628.363a.467.467 0 0 0 .467.808l.628-.363v.725a.467.467 0 1 0 .933 0v-.725l.628.363a.467.467 0 1 0 .467-.808L12.932 4l.628-.363a.467.467 0 0 0-.467-.808l-.628.363v-.725Z"/>
  <path d="m8.675 1.872 3.15-1.824a.346.346 0 0 1 .35 0l3.15 1.824a.353.353 0 0 1 .175.304v3.648a.352.352 0 0 1-.175.305l-3.15 1.824a.344.344 0 0 1-.35 0L8.676 6.129a.351.351 0 0 1-.176-.305V2.176a.353.353 0 0 1 .175-.304Zm.526 3.75L12 7.241l2.799-1.62V2.38L12 .758 9.201 2.38v3.242Z"/>
</svg>