<svg xmlns="http://www.w3.org/2000/svg" width="16" height="16" fill="currentColor" class="qi-1089" viewBox="0 0 16 16">
  <path d="M1 14.5a.5.5 0 0 1 .5-.5h13a.5.5 0 0 1 0 1h-13a.5.5 0 0 1-.5-.5zM4 4.232A2 2 0 0 1 4.732 1.5l.866-.5a2 2 0 0 1-.732 2.732l-.866.5zm1.341-2.506-.359.207a1.5 1.5 0 0 0-.725 1.573l.36-.207a1.5 1.5 0 0 0 .724-1.573z"/>
  <path d="M5 6H3a2 2 0 0 1-2-2h1a2 2 0 0 1 2 1.982A2 2 0 0 1 6 4h1a2 2 0 0 1-2 2zm-.415-.5H5a1.5 1.5 0 0 0 1.415-1H6a1.5 1.5 0 0 0-1.415 1zm-1.17 0A1.5 1.5 0 0 0 2 4.5h-.415A1.5 1.5 0 0 0 3 5.5h.415z"/>
  <path d="M1.063 6.5A2 2 0 0 0 3 8h2a2 2 0 0 0 2-2H6a2 2 0 0 0-2 1.982A2 2 0 0 0 2 6H1c0 .173.022.34.063.5zM2 6.5a1.5 1.5 0 0 1 1.415 1H3a1.5 1.5 0 0 1-1.415-1H2zm2.585 1A1.5 1.5 0 0 1 6 6.5h.415A1.5 1.5 0 0 1 5 7.5h-.415zM5 14l-.5-2H5a2 2 0 0 0 2-2H6a2 2 0 0 0-2 2 2 2 0 0 0-2-2H1a2 2 0 0 0 2 2h.5l.5 2h1zm1-3.5h.415A1.5 1.5 0 0 1 5 11.5h-.415A1.5 1.5 0 0 1 6 10.5zm-2.585 1H3a1.5 1.5 0 0 1-1.415-1H2a1.5 1.5 0 0 1 1.415 1z"/>
  <path d="M6.937 8.5A2 2 0 0 1 5 10H4a2 2 0 0 1 2-2h1c0 .173-.022.34-.063.5zM6 8.5a1.5 1.5 0 0 0-1.415 1H5a1.5 1.5 0 0 0 1.415-1H6zM4 10H3a2 2 0 0 1-2-2h1a2 2 0 0 1 2 2zm-.585-.5A1.5 1.5 0 0 0 2 8.5h-.415A1.5 1.5 0 0 0 3 9.5h.415zm7.305-6.514c-.08-.516.295-.986.79-.986.494 0 .87.47.789.986L11.982 5h-.944l-.317-2.014zM12 6a.5.5 0 1 1-1 0 .5.5 0 0 1 1 0z"/>
  <path d="M15 4.5a3.5 3.5 0 1 1-7 0 3.5 3.5 0 0 1 7 0zm-.5 0a3 3 0 1 0-6 0 3 3 0 0 0 6 0z"/>
</svg>