<svg xmlns="http://www.w3.org/2000/svg" width="16" height="16" fill="currentColor" class="qi-1101" viewBox="0 0 16 16">
  <path d="M1.581 11.12c.09.02 1.41.24 2.96.24 1.01 0 2.12-.09 3.04-.41 3.71-1.25 6.14.07 6.24.12a.704.704 0 0 0 .7-1.22c-.06-.04-.91-.5-2.32-.72l.43-2.41 1.5.27c.33.06.55-.33.33-.59l-4.49-5.06a.994.994 0 0 0-1.22-.22l-6.08 3.19c-.3.16-.23.61.1.67l1.51.27-.81 4.68c-.94-.06-1.64-.18-1.65-.18a.708.708 0 0 0-.81.57c-.07.38.19.74.57.8zm5.55-1.49c-.33.11-.69.19-1.07.24l.28-1.63c.06-.33.37-.55.7-.49l2.14.38c.33.06.54.37.49.7l-.05.27c-.77.07-1.6.23-2.49.53zm7.38 2.9c-.12-.07-3.05-1.7-7.38-.23-2 .67-5.28.12-5.31.11a.7.7 0 0 0-.24 1.38c.09.02 1.42.24 2.97.24 1.01 0 2.11-.1 3.03-.41 3.71-1.25 6.14.07 6.24.12.33.19.76.08.96-.26.19-.33.07-.76-.27-.95z"/>
</svg>