<svg xmlns="http://www.w3.org/2000/svg" width="16" height="16" fill="currentColor" class="qi-1202" viewBox="0 0 16 16">
  <path d="M6 0h5v12.004l-.186.003c-1.174.025-2.072.274-2.922.51l-.012.003c-.614.17-1.203.333-1.88.419V0Zm1 5v7h1V5H7Zm3-4H7v1h3V1ZM7 3v1h3V3H7Zm3 2H9v7h1V5Zm-5 8.003V5a.5.5 0 0 0-.5-.5h-2A.5.5 0 0 0 2 5v7.81c.975.165 1.821.213 3 .193ZM3.5 8.5a.5.5 0 1 1 0-1 .5.5 0 0 1 0 1ZM4 10a.5.5 0 1 1-1 0 .5.5 0 0 1 1 0Zm-.5-3.5a.5.5 0 1 1 0-1 .5.5 0 0 1 0 1ZM15 12.373V.5h-1v2l-2 1.232v8.274c1.045.026 1.903.133 3 .367ZM14 5v1h-1V5h1Zm-1 2h1v1h-1V7Zm1 2v2h-1V9h1Z"/>
  <path d="M10.833 13c1.809-.038 2.828.07 4.594.485a.47.47 0 0 0 .562-.377.497.497 0 0 0-.357-.593c-1.84-.432-2.934-.548-4.818-.508-1.174.025-2.072.274-2.922.51l-.012.003c-.852.236-1.657.458-2.713.48-1.809.038-2.828-.07-4.594-.485a.47.47 0 0 0-.562.377.497.497 0 0 0 .357.593c1.84.432 2.934.548 4.818.508 1.174-.025 2.072-.274 2.922-.51l.012-.003c.852-.236 1.657-.458 2.713-.48Zm0 2c1.809-.038 2.828.07 4.594.485a.47.47 0 0 0 .562-.377.497.497 0 0 0-.357-.593c-1.84-.432-2.934-.548-4.818-.508-1.174.025-2.072.274-2.922.51l-.012.003c-.852.236-1.657.458-2.713.48-1.809.038-2.828-.07-4.594-.485a.47.47 0 0 0-.562.377.497.497 0 0 0 .357.593c1.84.432 2.934.547 4.818.508 1.174-.025 2.072-.274 2.922-.51l.012-.003c.852-.236 1.657-.458 2.713-.48Z"/>
</svg>