<svg xmlns="http://www.w3.org/2000/svg" width="16" height="16" fill="currentColor" class="qi-1203" viewBox="0 0 16 16">
  <path d="M10.833 13c1.809-.038 2.828.07 4.594.485a.47.47 0 0 0 .562-.377.497.497 0 0 0-.357-.593c-1.84-.432-2.934-.548-4.818-.508-1.174.025-2.072.274-2.922.51l-.012.003c-.852.236-1.657.458-2.713.48-1.809.038-2.828-.07-4.594-.485a.47.47 0 0 0-.562.377.497.497 0 0 0 .357.593c1.84.432 2.934.548 4.818.508 1.174-.025 2.072-.274 2.922-.51l.012-.003c.852-.236 1.657-.458 2.713-.48Zm0 2c1.809-.038 2.828.07 4.594.485a.47.47 0 0 0 .562-.377.497.497 0 0 0-.357-.593c-1.84-.432-2.934-.548-4.818-.508-1.174.025-2.072.274-2.922.51l-.012.003c-.852.236-1.657.458-2.713.48-1.809.038-2.828-.07-4.594-.485a.47.47 0 0 0-.562.377.497.497 0 0 0 .357.593c1.84.432 2.934.547 4.818.508 1.174-.025 2.072-.274 2.922-.51l.012-.003c.852-.236 1.657-.458 2.713-.48ZM4.195 1.23c.447.3.75.855 1.002 1.418.124.276.024.613-.223.75-.247.139-.548.027-.671-.25-.248-.555-.445-.84-.623-.959-.118-.08-.302-.135-.706.09-.458.257-.776.534-.974.784-.203.257-.25.448-.25.544v7.833c0 .31-.224.56-.5.56s-.5-.25-.5-.56V3.607c0-.464.203-.907.5-1.284.302-.383.734-.74 1.276-1.044.596-.334 1.162-.39 1.669-.05Zm5-.025c.447.268.75.764 1.002 1.268a.5.5 0 1 1-.894.447c-.248-.497-.445-.75-.623-.857-.118-.072-.302-.122-.706.08-.458.23-.776.477-.974.7-.203.23-.25.4-.25.486V9.5a.5.5 0 0 1-1 0V3.33c0-.415.203-.811.5-1.148.302-.342.734-.662 1.276-.933.596-.298 1.162-.348 1.669-.044Zm6.002 1.268c-.252-.504-.555-1-1.002-1.268-.507-.304-1.073-.254-1.669.044-.542.271-.974.59-1.276.933-.297.337-.5.733-.5 1.147v3.975a.5.5 0 0 0 1 0V3.329c0-.085.047-.256.25-.485.198-.224.516-.472.974-.7.404-.203.588-.153.706-.081.178.106.375.36.623.857a.5.5 0 1 0 .894-.447Z"/>
</svg>