<svg xmlns="http://www.w3.org/2000/svg" width="16" height="16" fill="currentColor" class="qi-1207" viewBox="0 0 16 16">
  <path d="M4.875 7.725c-.427-.081-.835-.22-1.337-.44-.186-.083-.41-.012-.5.157-.09.17-.013.374.174.455.646.284 1.17.45 1.746.534a3.4 3.4 0 0 0 .832 1.593A3.03 3.03 0 0 0 8 11a3.03 3.03 0 0 0 2.21-.976 3.45 3.45 0 0 0 .915-2.357c0-1.516-1.436-4.121-2.74-6.098A42.46 42.46 0 0 0 8 1c-.126.182-.254.373-.384.57A30.85 30.85 0 0 0 6.12 4.067c-1.03.008-1.64-.12-2.583-.534-.186-.082-.41-.01-.5.158-.09.17-.013.374.174.455.935.411 1.613.575 2.565.6-.192.398-.363.788-.503 1.161-.586-.062-1.081-.211-1.736-.499-.186-.082-.41-.01-.5.158-.09.17-.013.374.174.455.682.3 1.228.468 1.843.547a4.126 4.126 0 0 0-.18 1.156Zm.628.078a2.856 2.856 0 0 1-.003-.136c0-.268.063-.62.195-1.048.158.006.323.007.497.005.78-.01 1.246-.08 1.988-.3.196-.06.303-.252.239-.43-.065-.18-.277-.277-.473-.218a5.49 5.49 0 0 1-1.763.267h-.246a15.048 15.048 0 0 1 .55-1.201c.613-.023 1.049-.102 1.693-.294.196-.058.303-.25.239-.43-.065-.178-.277-.276-.473-.217a5.663 5.663 0 0 1-1.084.233c.357-.647.75-1.291 1.138-1.887A28.34 28.34 0 0 1 9.533 4.78c.295.585.54 1.146.711 1.652.174.513.256.928.256 1.235a2.76 2.76 0 0 1-.732 1.885c-.47.5-1.105.781-1.768.781s-1.299-.28-1.768-.78a2.702 2.702 0 0 1-.61-1.062c.18.008.369.01.57.008.78-.01 1.246-.08 1.988-.3.196-.06.303-.252.239-.43-.065-.18-.277-.277-.473-.218a5.49 5.49 0 0 1-1.763.267 8.734 8.734 0 0 1-.68-.015Z"/>
  <path d="M9.907 4.122c1.047-.015 1.676.057 2.735.306a.294.294 0 0 0 .35-.235.31.31 0 0 0-.222-.37c-1.15-.271-1.834-.343-3.011-.318a5.569 5.569 0 0 0-.185.007c.115.203.226.407.333.61Zm.856 1.888c.61.031 1.14.119 1.879.293a.294.294 0 0 0 .35-.235.31.31 0 0 0-.222-.37c-.882-.208-1.49-.299-2.258-.319.093.215.177.426.251.63Zm1.879 2.168a10.879 10.879 0 0 0-1.525-.268 2.95 2.95 0 0 0-.018-.624 11.21 11.21 0 0 1 1.67.286.31.31 0 0 1 .224.37.294.294 0 0 1-.351.236ZM10.833 13c1.809-.038 2.828.07 4.594.485a.47.47 0 0 0 .562-.377.497.497 0 0 0-.357-.593c-1.84-.432-2.934-.548-4.818-.508-1.174.025-2.072.274-2.922.51l-.012.003c-.852.236-1.657.458-2.713.48-1.809.038-2.828-.07-4.594-.485a.47.47 0 0 0-.562.377.497.497 0 0 0 .357.593c1.84.432 2.934.548 4.818.508 1.174-.025 2.072-.274 2.922-.51l.012-.003c.852-.236 1.657-.458 2.713-.48Zm0 2c1.809-.038 2.828.07 4.594.485a.47.47 0 0 0 .562-.377.497.497 0 0 0-.357-.593c-1.84-.432-2.934-.548-4.818-.508-1.174.025-2.072.274-2.922.51l-.012.003c-.852.236-1.657.458-2.713.48-1.809.038-2.828-.07-4.594-.485a.47.47 0 0 0-.562.377.497.497 0 0 0 .357.593c1.84.432 2.934.547 4.818.508 1.174-.025 2.072-.274 2.922-.51l.012-.003c.852-.236 1.657-.458 2.713-.48Z"/>
</svg>