<svg xmlns="http://www.w3.org/2000/svg" width="16" height="16" fill="currentColor" class="qi-1208" viewBox="0 0 16 16">
  <path d="M11.979 10.603c.014.137.021.27.021.397a5 5 0 1 1-10 0c0-2.2 2.152-5.931 4.183-8.857.277-.398.55-.78.817-1.143.266.362.54.745.817 1.143.872 1.256 1.766 2.66 2.503 4.028.372-.175.653-.351.826-.525.163-.163.288-.411.369-.736.08-.322.11-.684.11-1.035 0-.098-.002-.194-.006-.287l-.265.266a.5.5 0 0 1-.708-.708L12 1.793l1.354 1.353a.5.5 0 0 1-.708.708l-.021-.022v.043c0 .4-.033.85-.14 1.277-.106.426-.294.865-.631 1.202-.285.284-.673.515-1.076.707.443.901.797 1.768 1.007 2.545.157-.061.31-.124.454-.19.412-.187.721-.376.907-.562.164-.164.288-.412.369-.737.08-.322.11-.684.11-1.035 0-.098-.002-.194-.006-.287l-.265.266a.5.5 0 1 1-.707-.707L14 5l1.354 1.354a.5.5 0 1 1-.707.707l-.022-.022v.043c0 .4-.033.85-.14 1.278-.106.425-.294.864-.631 1.2-.314.315-.755.563-1.202.766-.216.099-.443.19-.673.277ZM3.333 11a3.666 3.666 0 0 0 7.333.05c-.264.087-.506.166-.722.244a4.793 4.793 0 0 0-.431.175 1.28 1.28 0 0 0-.124.067l-.036.025c-.19.191-.238.309-.265.43a2.502 2.502 0 0 0-.04.303l-.005.049c-.01.121-.024.268-.048.435a.5.5 0 0 1-.99-.142c.02-.14.031-.261.042-.383l.005-.052c.013-.133.027-.28.06-.427.073-.33.226-.612.535-.92a1.59 1.59 0 0 1 .432-.286c.154-.074.334-.145.524-.214.249-.09.541-.185.842-.283l.077-.025a8.76 8.76 0 0 0-.245-.786 16.436 16.436 0 0 0-.742-1.705 29.005 29.005 0 0 1-.803.267c-.29.095-.555.18-.788.265a4.776 4.776 0 0 0-.431.175 1.263 1.263 0 0 0-.124.067.277.277 0 0 0-.036.025c-.19.19-.238.309-.265.43a2.503 2.503 0 0 0-.04.303l-.005.049a7.24 7.24 0 0 1-.048.435.5.5 0 1 1-.99-.142c.02-.14.031-.261.042-.383l.005-.052c.013-.133.027-.28.06-.428.073-.329.226-.611.534-.92.124-.124.288-.215.433-.285.154-.074.334-.145.524-.214.249-.09.541-.185.842-.283l.46-.15.162-.056A41.105 41.105 0 0 0 7 3.308a40.457 40.457 0 0 0-2.159 3.52c-.467.869-.852 1.695-1.118 2.432-.272.754-.39 1.336-.39 1.74Z"/>
</svg>