<svg xmlns="http://www.w3.org/2000/svg" width="16" height="16" fill="currentColor" class="qi-1209" viewBox="0 0 16 16">
  <path d="M10.833 13c1.809-.038 2.828.07 4.594.485a.47.47 0 0 0 .562-.377.497.497 0 0 0-.357-.593c-1.84-.432-2.934-.548-4.818-.508-1.174.025-2.072.274-2.922.51l-.012.003c-.852.236-1.657.458-2.713.48-1.809.038-2.828-.07-4.594-.485a.47.47 0 0 0-.562.377.497.497 0 0 0 .357.593c1.84.432 2.934.548 4.818.508 1.174-.025 2.072-.274 2.922-.51l.012-.003c.852-.236 1.657-.458 2.713-.48Zm0 2c1.809-.038 2.828.07 4.594.485a.47.47 0 0 0 .562-.377.497.497 0 0 0-.357-.593c-1.84-.432-2.934-.548-4.818-.508-1.174.025-2.072.274-2.922.51l-.012.003c-.852.236-1.657.458-2.713.48-1.809.038-2.828-.07-4.594-.485a.47.47 0 0 0-.562.377.497.497 0 0 0 .357.593c1.84.432 2.934.547 4.818.508 1.174-.025 2.072-.274 2.922-.51l.012-.003c.852-.236 1.657-.458 2.713-.48Z"/>
  <path d="m7.406 2.056-6.21 2.602c-.368.154-.337.694.046.795l1.192.313-1.778 6.769c1.716.4 2.73.503 4.511.465 1.056-.022 1.861-.244 2.713-.48l.012-.003c.432-.12.876-.243 1.362-.338l1.135-4.324 1.193.314c.382.1.675-.355.43-.67l-4.13-5.317a.404.404 0 0 0-.476-.126ZM4.704 8.93l2.386.627a.41.41 0 0 1 .293.502l-.626 2.387a.411.411 0 0 1-.503.293l-2.386-.627a.411.411 0 0 1-.293-.502L4.2 9.223a.411.411 0 0 1 .503-.294Z"/>
  <path d="M14.746 6.125a.17.17 0 0 0-.283-.076l-3.414 3.416a.167.167 0 0 0 .077.28l1.8.482-.482 1.796c.347.017.678.045 1.013.086l.434-1.623 1.897.508c.125.034.24-.08.206-.204l-1.248-4.665Zm-.888 1.195c.027-.181.247-.284.476-.223.229.061.368.26.3.43l-.589 1.497-.425-.114.238-1.59Zm.122 2.355a.323.323 0 1 1-.624-.168.323.323 0 0 1 .624.168Z"/>
</svg>