<svg xmlns="http://www.w3.org/2000/svg" width="16" height="16" fill="currentColor" class="qi-1210" viewBox="0 0 16 16">
  <path d="M2.5.5A.5.5 0 0 1 3 1v1.5h4V2H6a.5.5 0 0 1 0-1h3a.5.5 0 0 1 0 1H8v.5h4V1a.5.5 0 0 1 1 0v1.5h.25c.69 0 1.25.56 1.25 1.25 0 .138.112.25.25.25h.75a.5.5 0 0 1 0 1h-.75c-.69 0-1.25-.56-1.25-1.25a.25.25 0 0 0-.25-.25H13V11h2v5H0v-5h2V3.5H.5a.5.5 0 0 1 0-1H2V1a.5.5 0 0 1 .5-.5ZM3 11h9V3.5H8V5h3l-1.556 5H5.556L4 5h3V3.5H3V11Zm4.5-2c.556 0 1-.444 1-1 0-.639-1-2-1-2s-1 1.333-1 2c0 .556.444 1 1 1Z"/>
</svg>