<svg xmlns="http://www.w3.org/2000/svg" width="16" height="16" fill="currentColor" class="qi-1213" viewBox="0 0 16 16">
  <path d="M6.5 0h5v12c.354 0 .683.009 1 .026V3.732l2-1.232v-2h1v11.985l.132.03c.253.06.413.325.357.593a.47.47 0 0 1-.562.377c-1.766-.416-2.785-.523-4.594-.485-1.056.022-1.861.244-2.713.48l-.012.003c-.85.236-1.748.485-2.922.51-1.884.04-2.978-.076-4.818-.508a.497.497 0 0 1-.357-.593.47.47 0 0 1 .562-.377c.735.173 1.34.293 1.927.37v-3.26H.197a.195.195 0 0 1-.17-.291L2.83 4.473a.197.197 0 0 1 .34 0l2.804 4.86a.195.195 0 0 1-.17.292H3.5v3.355c.503.03 1.037.033 1.667.02a8.01 8.01 0 0 0 1.333-.14V0Zm1 5v7h1V5h-1Zm3-4h-3v1h3V1Zm-3 2v1h3V3h-3Zm3 2h-1v7h1V5Zm4 0h-1v1h1V5Zm-1 2v1h1V7h-1Zm1 2h-1v2h1V9ZM2.533 6.08l.211 1.857h.512l.21-1.856c.025-.212-.191-.394-.466-.394s-.491.182-.467.394Zm.845 2.607a.375.375 0 1 0-.75 0 .375.375 0 0 0 .75 0Zm12.049 6.798c-1.766-.416-2.785-.523-4.594-.485-1.056.022-1.861.244-2.713.48l-.012.003c-.85.236-1.748.485-2.922.51-1.884.04-2.978-.076-4.818-.508a.497.497 0 0 1-.357-.593.47.47 0 0 1 .562-.377c1.766.416 2.785.523 4.594.485 1.056-.022 1.861-.244 2.713-.48l.012-.003c.85-.236 1.748-.485 2.922-.51 1.884-.04 2.978.076 4.818.508.253.06.413.325.357.593a.47.47 0 0 1-.562.377Z"/>
</svg>