<svg xmlns="http://www.w3.org/2000/svg" width="16" height="16" fill="currentColor" class="qi-1216" viewBox="0 0 16 16">
  <path d="M1.842.842c0-.465.377-.842.843-.842h8.42a.842.842 0 0 1 0 1.684H7.738v.842h3.21A5.053 5.053 0 0 1 16 7.58v1.684h-3.368V7.58c0-.93-.754-1.684-1.685-1.684H0v-3.37h6.053v-.842H2.685a.842.842 0 0 1-.843-.842ZM14.267 16a1.66 1.66 0 0 0 1.666-1.667c0-1.065-1.666-3.333-1.666-3.333S12.6 13.222 12.6 14.333c0 .926.74 1.667 1.667 1.667Z"/>
  <path d="M7.227 7.63a.263.263 0 0 0-.454 0l-3.738 6.482a.26.26 0 0 0 .227.388h7.476a.26.26 0 0 0 .227-.388L7.227 7.63Zm-.85 2.144c-.032-.282.256-.524.623-.524s.655.242.623.524L7.34 12.25h-.68l-.282-2.476Zm1.127 3.476a.5.5 0 1 1-1 0 .5.5 0 0 1 1 0Z"/>
</svg>