<svg xmlns="http://www.w3.org/2000/svg" width="16" height="16" fill="currentColor" class="qi-1217" viewBox="0 0 16 16">
  <path d="M8.017 0a8.001 8.001 0 0 1 8 8 8 8 0 0 1-16 0H0c0-.095.008-.19.022-.282A8.001 8.001 0 0 1 8.017 0ZM5.384 1.512A7.019 7.019 0 0 0 1.329 5.93c.66-.468 1.54-.861 2.568-1.15.324-1.311.841-2.438 1.487-3.268ZM3.675 5.894c-.326.11-.63.23-.907.36-.53.248-.914.503-1.186.746h1.97c.027-.377.068-.747.123-1.106ZM4.555 7h2.962V5.257c-1.002.03-1.94.15-2.776.34-.086.447-.15.916-.186 1.403Zm2.962-2.743V1.082c-.597.193-1.24.739-1.81 1.751a8.376 8.376 0 0 0-.703 1.689c.784-.149 1.63-.24 2.513-.265Zm1 1.001V7h2.963c-.037-.484-.1-.95-.184-1.394a14.523 14.523 0 0 0-2.779-.348Zm2.516-.73a8.387 8.387 0 0 0-.705-1.695c-.57-1.012-1.214-1.558-1.81-1.751v3.176a15.9 15.9 0 0 1 2.515.27Zm1.108.263c1.035.294 1.917.695 2.575 1.17a7.019 7.019 0 0 0-4.065-4.449c.647.832 1.165 1.963 1.49 3.279Zm.22 1.115c.055.356.095.72.122 1.094h1.935c-.272-.243-.657-.498-1.186-.746a8.432 8.432 0 0 0-.87-.348ZM3.6 7l1.9 2.1-1.1 1.6-2.8.9.2.6 2.7-.8.8 1.8.6-.3L5 11l1.1-1.5 1.7.1L8.9 12l.6-.2L8.2 9l-2.1-.2L4.4 7h-.8ZM11 9.4l-1.3.3.1.7 1.4-.4 1.4 1-2.6 3.3.5.4 2.6-3.3.6.4.4-.5-2.4-1.8.7-2.5h-.7L11 9.4Z"/>
</svg>