<svg xmlns="http://www.w3.org/2000/svg" width="16" height="16" fill="currentColor" class="qi-1221" viewBox="0 0 16 16">
  <path d="M12.533 4c0-.162.048-.395.156-.696.107-.295.26-.625.447-.973.254-.471.558-.958.864-1.407.306.449.61.936.864 1.407.186.348.34.678.447.973.108.301.156.534.156.696a1.467 1.467 0 0 1-2.934 0Zm1.14-3.543C12.861 1.627 12 3.12 12 4a2 2 0 1 0 4 0c0-.88-.86-2.373-1.673-3.543A18.44 18.44 0 0 0 14 0c-.107.145-.216.298-.327.457Zm-8.34 3.21C4.417 1.833 3.042 0 3.042 0S0 4.042 0 6a3.015 3.015 0 0 0 2.583 3c.584-1.708 1.709-3.708 2.75-5.333ZM9.25 13a3.715 3.715 0 0 1 2.792-3.625C11.167 6.25 7.75 1.708 7.75 1.708s-4.542 5.959-4.542 8.959c0 2.5 2 4.5 4.5 4.5.709 0 1.334-.167 1.959-.459A3.83 3.83 0 0 1 9.25 13Z"/>
  <path d="M13 16.042a3.042 3.042 0 1 0 0-6.084 3.042 3.042 0 0 0 0 6.084Zm1.333-1.334c-.083 0-.208-.041-.25-.125L13 13.5l-1.083 1.083c-.125.125-.209.125-.292.125-.083 0-.208-.041-.25-.125-.167-.166-.167-.375 0-.541l1.083-1.084-1.125-1.125c-.166-.166-.166-.375 0-.541.167-.167.375-.167.542 0L13 12.417l1.125-1.125c.167-.167.375-.167.542 0 .166.166.166.375 0 .541l-1.125 1.125 1.083 1.084c.167.166.167.375 0 .541-.083.125-.167.125-.292.125Z"/>
</svg>