<svg xmlns="http://www.w3.org/2000/svg" width="16" height="16" fill="currentColor" class="qi-1242" viewBox="0 0 16 16">
  <path d="M0 0v16h16s-3.078-3.807-5.854-4.103c-.606-.064-.631-.07-1.146-.397-.438-.278-.394-.605-.345-.974.043-.314.09-.657-.155-1.026-.312-.472-.775-.496-1.245-.52-.456-.024-.918-.048-1.255-.48-.442-.566-.453-1.174-.464-1.764C5.524 6.115 5.513 5.513 5 5c-.494-.494-.75-.618-1-.74-.255-.125-.505-.247-1-.76-.453-.47-.383-.91-.314-1.346.07-.442.14-.878-.345-1.333C1.635.157 0 0 0 0Zm6.244 3.692c-.88-.489-1.8-1.073-1.561-2.051C4.896.766 5.748.575 6.634.411 7.73.206 8.751.301 9.366 1.23c.53.801.595 1.706 0 2.461-.755.958-2.056.593-3.122 0Zm2.732 3.693c-.125-.699.075-1.564.78-1.641.66-.073.929.613 1.17 1.23.235.597.447 1.181 0 1.641-.626.647-1.792-.344-1.95-1.23Z"/>
  <path d="M12.878 10.667c-.433.087-.765.378-.78.82-.02.558.623.931 1.17.82.434-.087.766-.378.78-.82.02-.558-.623-.93-1.17-.82Z"/>
</svg>