<svg xmlns="http://www.w3.org/2000/svg" width="16" height="16" fill="currentColor" class="qi-1245" viewBox="0 0 16 16">
  <path d="M5.272.155a.229.229 0 0 0-.368-.098L2.387 2.269a.229.229 0 0 0 .092.392l.416.112-1.67 1.557a.229.229 0 0 0 .096.387l.375.1L.07 6.39a.229.229 0 0 0 .1.385l1.738.466L1.437 9H0v7h16V9h-5.5L9 10.5l1.5 1.5-2 1 .5 2-2-2 1.5-1-3-2 2-1H3.803l.313-1.167 1.897.508a.229.229 0 0 0 .28-.284L5.67 5.883l.374.1a.229.229 0 0 0 .278-.288l-.668-2.183.416.111a.229.229 0 0 0 .275-.294L5.272.155Z"/>
</svg>