<svg xmlns="http://www.w3.org/2000/svg" width="16" height="16" fill="currentColor" class="qi-1248" viewBox="0 0 16 16">
  <path d="M8.531 6.829 16 13.922 5.5 16 0 13.832l6.318-6.461-.999 2.606a.396.396 0 0 0 .002.251.23.23 0 0 0 .055.092.109.109 0 0 0 .075.033H6.47c.008 0 .015.003.022.009a.068.068 0 0 1 .017.024.12.12 0 0 1 .01.035.138.138 0 0 1-.002.038l-.7 4.041L8.76 9.254c.09-.162.022-.427-.11-.427h-.996a.036.036 0 0 1-.025-.012.079.079 0 0 1-.019-.031.13.13 0 0 1 .003-.085l.919-1.87Zm-.905-4.58c-.019-.201.154-.374.374-.374s.393.173.374.374l-.17 1.764h-.409l-.169-1.764Zm.655 2.345a.281.281 0 1 1-.562 0 .281.281 0 0 1 .562 0Z"/>
  <path d="M7.83.473a.197.197 0 0 1 .34 0l2.804 4.86a.195.195 0 0 1-.17.292H5.196a.195.195 0 0 1-.17-.291L7.83.473Zm2.533 4.702L8 1.078 5.637 5.175h4.726Z"/>
</svg>