<svg xmlns="http://www.w3.org/2000/svg" width="16" height="16" fill="currentColor" class="qi-1249" viewBox="0 0 16 16">
  <path d="M8.531 6.829 16 13.922 5.5 16 0 13.832l6.318-6.461-.999 2.606a.396.396 0 0 0 .002.251.23.23 0 0 0 .055.092.109.109 0 0 0 .075.033H6.47c.008 0 .015.003.022.009a.068.068 0 0 1 .017.024.12.12 0 0 1 .01.035.138.138 0 0 1-.002.038l-.7 4.041L8.76 9.254c.09-.162.022-.427-.11-.427h-.996a.036.036 0 0 1-.025-.012.079.079 0 0 1-.019-.031.13.13 0 0 1 .003-.085l.919-1.87ZM7.74 6c.922 0 1.746-.416 2.296-1.07a1.8 1.8 0 1 0 .332-3.378 3 3 0 0 0-5.243-.023 1.8 1.8 0 1 0 .352 3.44A2.993 2.993 0 0 0 7.74 6Zm-.475-3.839c-.034-.217.102-.48.298-.598a.455.455 0 0 1 .484.014l.042.025c.18.11.277.31.245.512L8.119 3.48h-.646l-.208-1.319ZM8.16 4.14a.36.36 0 1 1-.72 0 .36.36 0 0 1 .72 0Z"/>
</svg>