<svg xmlns="http://www.w3.org/2000/svg" width="16" height="16" fill="currentColor" class="qi-1250" viewBox="0 0 16 16">
  <path d="M5.973 10.328 9 4.866 7.073.142a.243.243 0 0 0-.08-.105A.186.186 0 0 0 6.88 0a.18.18 0 0 0-.113.042.247.247 0 0 0-.077.107L.022 15.635a.296.296 0 0 0 .01.246.232.232 0 0 0 .077.088c.031.02.067.031.103.031l4.696-.016 1.76-3.927-.695-1.729Zm10.009 4.348L13.5 10 10 14.969l5.82.031c.132 0 .22-.174.162-.324ZM12.065 3l-.46 4.56 1.748.146L7.7 15.068l1.81-5.23-1.606.212L12.065 3Z"/>
</svg>