<svg xmlns="http://www.w3.org/2000/svg" width="16" height="16" fill="currentColor" class="qi-1251" viewBox="0 0 16 16">
  <path d="M5.973 10.328 9 4.866 7.073.142a.243.243 0 0 0-.08-.105A.186.186 0 0 0 6.88 0a.18.18 0 0 0-.113.042.247.247 0 0 0-.077.107L.022 15.635a.296.296 0 0 0 .01.246.232.232 0 0 0 .077.088c.031.02.067.031.103.031l4.696-.016 1.76-3.927-.695-1.729Zm5.632-2.768.46-4.56-4.16 7.05 1.605-.212-1.81 5.23 5.653-7.362-1.748-.145Zm1.225 2.913a.197.197 0 0 1 .34 0l2.804 4.86a.195.195 0 0 1-.17.292h-5.607a.195.195 0 0 1-.17-.291l2.803-4.861Zm.17 1.214c-.275 0-.491.182-.467.394l.211 1.857h.512l.21-1.857c.025-.212-.191-.393-.466-.393Zm.003 3.376a.375.375 0 1 0 0-.75.375.375 0 0 0 0 .75Z"/>
</svg>