<svg xmlns="http://www.w3.org/2000/svg" width="16" height="16" fill="currentColor" class="qi-1302" viewBox="0 0 16 16">
  <path d="M10.378 1.947 7.677 3.769l.059 4.446 1.128.179-3.916 6.617H16L10.378 1.947Zm-1.629.229a.744.744 0 1 0-1.195-.886.744.744 0 0 0 1.195.886Zm-2.794 8.063a.744.744 0 1 0-1.195-.886.744.744 0 0 0 1.195.886Zm.901-6.323A1.037 1.037 0 1 0 5.214 2.65a1.037 1.037 0 0 0 1.642 1.266Zm-.69 3.535a1.417 1.417 0 1 0-2.299-1.659 1.417 1.417 0 0 0 2.299 1.659Zm-2.211 3.487a1.871 1.871 0 1 0-2.19 3.035 1.871 1.871 0 0 0 2.19-3.035Z"/>
</svg>