<svg xmlns="http://www.w3.org/2000/svg" width="16" height="16" fill="currentColor" class="qi-1302" viewBox="0 0 16 16">
  <g clip-path="url(#a)">
    <path d="m10.383 1.952-2.7 1.83.06 4.44 1.13.18-3.92 6.62h11.06l-5.63-13.07zm-1.63.23a.74.74 0 0 0-.17-1.04.74.74 0 0 0-1.04.17c-.24.33-.17.8.17 1.04s.8.17 1.04-.17zm-2.79 8.07a.74.74 0 0 0-.17-1.04.74.74 0 0 0-1.04.17c-.24.33-.17.8.17 1.04.33.24.8.16 1.04-.17zm.9-6.33c.34-.46.23-1.11-.23-1.45a1.04 1.04 0 0 0-1.45.23c-.34.46-.23 1.11.23 1.45.47.34 1.12.24 1.45-.23zm-.69 3.54c.46-.64.32-1.52-.32-1.98-.64-.46-1.52-.32-1.98.32-.46.63-.32 1.52.32 1.98.64.46 1.52.31 1.98-.32zm-2.21 3.49a1.87 1.87 0 1 0 .42 2.61c.61-.84.42-2.01-.42-2.61z"/>
  </g>
  <defs>
    <clipPath id="a">
      <path d="M0 0h16v16H0z"/>
    </clipPath>
  </defs>
</svg>