<svg xmlns="http://www.w3.org/2000/svg" width="16" height="16" fill="currentColor" class="qi-152-fill" viewBox="0 0 16 16">
  <path d="M8.357 11.215a2.097 2.097 0 0 0-.264.026 3.144 3.144 0 0 0-5.225 0 2.097 2.097 0 0 0-.265-.026 2.09 2.09 0 1 0 0 4.18 2.146 2.146 0 0 0 .83-.165 3.11 3.11 0 0 0 4.095 0 2.146 2.146 0 0 0 .83.166 2.09 2.09 0 1 0 0-4.18zm0 3.18a1.145 1.145 0 0 1-.443-.088 1 1 0 0 0-1.038.165 2.11 2.11 0 0 1-2.791 0 1 1 0 0 0-1.038-.165 1.145 1.145 0 0 1-.444.089 1.09 1.09 0 1 1-.006-2.18c.026 0 .05.005.076.008l.072.01a1 1 0 0 0 .955-.439 2.144 2.144 0 0 1 3.56 0 1 1 0 0 0 .956.439l.072-.01.07-.009a1.09 1.09 0 1 1 0 2.18z"/>
  <path d="M14.865 8.348a5.428 5.428 0 0 1-3.259-.133 5.559 5.559 0 0 1-3.541-6.612.498.498 0 0 0-.657-.6 6.204 6.204 0 0 0-3.877 6.138 6.023 6.023 0 0 0 .553 2.18 3.87 3.87 0 0 1 4.387 1.096 2.915 2.915 0 0 1 2.756 2.354A6.202 6.202 0 0 0 15.486 9a.504.504 0 0 0-.62-.652z"/>
</svg>