<svg xmlns="http://www.w3.org/2000/svg" width="16" height="16" fill="currentColor" class="qi-152-fill" viewBox="0 0 16 16">
  <path d="M7.268 15.162a.224.224 0 0 0-.233.042A2.99 2.99 0 0 1 5 16a2.99 2.99 0 0 1-2.035-.796.224.224 0 0 0-.233-.042 2 2 0 1 1-.383-3.832.224.224 0 0 0 .22-.087A2.996 2.996 0 0 1 5 10c1 0 1.887.49 2.432 1.243.05.069.136.102.22.087a2 2 0 1 1-.383 3.832ZM5 15.25c.752 0 1.418-.37 1.827-.936.086-.12.273-.134.388-.041a1.25 1.25 0 1 0 .209-2.082c-.132.068-.312.017-.373-.118a2.25 2.25 0 0 0-4.102 0c-.06.135-.241.186-.372.118a1.25 1.25 0 1 0 .209 2.082c.114-.093.301-.079.387.04A2.247 2.247 0 0 0 5 15.25ZM8.158.593c.085-.37-.263-.718-.608-.549a6.404 6.404 0 0 0-1.53 1.051 6.242 6.242 0 0 0-.98 8.045 3.144 3.144 0 0 1 3.539 1.255 2.16 2.16 0 0 1 .265-.026 2.09 2.09 0 0 1 2.035 1.614 6.42 6.42 0 0 0 5.064-3.132c.193-.328-.137-.693-.518-.633-2.028.323-4.662-.256-6.175-1.843S7.704 2.568 8.158.593Z"/>
</svg>