<svg xmlns="http://www.w3.org/2000/svg" width="16" height="16" fill="currentColor" class="qi-153-fill" viewBox="0 0 16 16">
  <path d="M15.33 7.6a5.33 5.33 0 0 1-3.24 0 5.47 5.47 0 0 1-3.57-3.3 5.57 5.57 0 0 1-.26-3.07.49.49 0 0 0-.67-.57A6.17 6.17 0 0 0 4 6.93a6 6 0 0 0 1.1 2.8 4.61 4.61 0 0 1 2.6-.93h.19a4.66 4.66 0 0 1 2.85.91h.31a3.15 3.15 0 0 1 2.3.89 3.39 3.39 0 0 1 .49.64 6.19 6.19 0 0 0 2.13-3 .5.5 0 0 0-.64-.64z"/>
  <path d="M11.59 10.72a2.29 2.29 0 0 0-.6.08 4.07 4.07 0 0 0-2.87-1.23 4.07 4.07 0 0 0-3 1.36 2.78 2.78 0 0 0-.58-.06 2.94 2.94 0 0 0-2.43 1.23 1.55 1.55 0 0 0-.43-.1 1.68 1.68 0 1 0 .88 3.1 3.06 3.06 0 0 0 2 .71 3.18 3.18 0 0 0 1.52-.39 4 4 0 0 0 4.38-.2 2.31 2.31 0 0 0 1.14.3 2.41 2.41 0 0 0 2.4-2.38 2.51 2.51 0 0 0-2.41-2.42zm0 3.83a1.4 1.4 0 0 1-.67-.18 1 1 0 0 0-.47-.12 1.06 1.06 0 0 0-.59.19 2.89 2.89 0 0 1-1.74.56 3 3 0 0 1-1.55-.41 1 1 0 0 0-.5-.14 1 1 0 0 0-.49.13 2.13 2.13 0 0 1-1 .26 2.08 2.08 0 0 1-1.34-.47 1 1 0 0 0-.65-.24c-.18 0-.6.25-.88.25a.68.68 0 1 1 0-1.35s.39.06.48.06a.84.84 0 0 0 .78-.43 2 2 0 0 1 1.61-.79c.14 0 .49.07.61.07a1 1 0 0 0 .72-.35 3.1 3.1 0 0 1 2.24-1 3.06 3.06 0 0 1 2.15.93 1 1 0 0 0 .72.3c.1 0 .46-.08.57-.08a1.55 1.55 0 0 1 1.41 1.4 1.41 1.41 0 0 1-1.41 1.41z"/>
</svg>