<svg xmlns="http://www.w3.org/2000/svg" width="16" height="16" fill="currentColor" class="qi-1601" viewBox="0 0 16 16">
  <path d="M15.399 2.696c.237.266.601.675.601 1.304 0 .344-.036.653-.137.954-.1.302-.256.57-.463.846a.5.5 0 0 1-.8-.6c.164-.218.258-.391.315-.562.056-.17.085-.365.085-.638 0-.222-.11-.37-.374-.668l-.025-.028C14.364 3.038 14 2.629 14 2c0-.344.036-.653.137-.954.1-.302.256-.57.463-.846a.5.5 0 0 1 .8.6 1.967 1.967 0 0 0-.315.562C15.03 1.532 15 1.727 15 2c0 .222.11.37.374.668l.025.028Zm-11-.899c.237.178.601.45.601.87 0 .23-.036.435-.137.636-.1.201-.256.38-.463.564-.166.147-.48.177-.7.066-.22-.11-.266-.32-.1-.466.164-.146.258-.261.315-.375A.912.912 0 0 0 4 2.667c0-.148-.11-.247-.374-.446l-.025-.018C3.364 2.025 3 1.753 3 1.333c0-.23.036-.435.137-.636.1-.201.256-.38.463-.564.166-.147.48-.177.7-.066.22.11.266.32.1.466a1.289 1.289 0 0 0-.315.375.912.912 0 0 0-.085.425c0 .148.11.247.374.446l.025.018ZM2 4c0-.629-.364-1.038-.601-1.304l-.025-.028C1.109 2.37 1 2.222 1 2c0-.273.029-.468.085-.638A1.97 1.97 0 0 1 1.4.8.5.5 0 1 0 .6.2a2.952 2.952 0 0 0-.463.846C.037 1.347 0 1.656 0 2c0 .629.364 1.038.601 1.304l.025.028C.891 3.63 1 3.778 1 4c0 .273-.029.468-.085.638A1.97 1.97 0 0 1 .6 5.2a.5.5 0 1 0 .8.6c.207-.276.363-.544.463-.846.1-.301.137-.61.137-.954Zm11-1.333c0-.42-.364-.692-.601-.87l-.025-.018C12.11 1.58 12 1.48 12 1.333a.92.92 0 0 1 .085-.425c.057-.114.151-.229.315-.375.166-.147.12-.356-.1-.466-.22-.11-.534-.08-.7.066-.207.184-.363.363-.463.564a1.38 1.38 0 0 0-.137.636c0 .42.364.692.601.87l.025.018c.264.199.374.298.374.446a.912.912 0 0 1-.085.425 1.289 1.289 0 0 1-.315.375c-.166.147-.12.356.1.466.22.11.534.08.7-.066.207-.184.363-.363.463-.564.1-.201.137-.407.137-.636ZM6.235 8.595A.454.454 0 0 0 6 8.533a.466.466 0 0 0-.235.872c.07.041.15.062.235.062a.454.454 0 0 0 .403-.23A.444.444 0 0 0 6.468 9a.467.467 0 0 0-.233-.406Z"/>
  <path d="M3.097 15.223a.5.5 0 0 0 .649.538L8 14.4l4.254 1.361a.5.5 0 0 0 .649-.538L12 8h2.481c.52 0 .716-.804.275-1.129L8.275 2.093a.452.452 0 0 0-.55 0L1.245 6.87C.802 7.196.997 8 1.518 8H4l-.903 7.223Zm2.4-7.09A.975.975 0 0 1 6 8c.184 0 .352.044.503.133.151.09.272.211.362.362A.98.98 0 0 1 7 9.001 1.006 1.006 0 0 1 6 10a1.006 1.006 0 0 1-1-.999.98.98 0 0 1 .135-.506c.09-.15.21-.272.362-.362ZM11 10h-.725a.874.874 0 0 0-.322-.542.871.871 0 0 0-.283-.142 1.125 1.125 0 0 0-.34-.05c-.215 0-.407.053-.573.16a1.05 1.05 0 0 0-.392.464 1.74 1.74 0 0 0-.142.743c0 .298.047.549.142.753.095.203.226.356.392.46.166.103.357.154.572.154.118 0 .23-.015.333-.046a.921.921 0 0 0 .281-.138.84.84 0 0 0 .332-.528l.725.003a1.541 1.541 0 0 1-1.035 1.24c-.194.068-.41.102-.646.102-.35 0-.66-.08-.935-.238a1.672 1.672 0 0 1-.647-.686c-.158-.299-.237-.658-.237-1.076 0-.42.08-.778.239-1.076.159-.3.375-.528.65-.686.273-.159.583-.238.93-.238.22 0 .426.03.616.091s.36.15.508.268c.15.117.271.26.367.43.097.169.16.361.19.578Z"/>
</svg>