<svg xmlns="http://www.w3.org/2000/svg" width="16" height="16" fill="currentColor" class="qi-1601" viewBox="0 0 16 16">
  <path d="M13.27 8.23V3.95a2.949 2.949 0 1 0-5.9 0v4.28c-.8.79-1.25 1.85-1.25 2.97a4.2 4.2 0 1 0 8.4 0c0-1.12-.45-2.19-1.25-2.97zm-2.95 5.76c-1.54 0-2.8-1.26-2.8-2.8 0-.81.37-1.59 1-2.13.16-.13.25-.33.25-.53V3.95c0-.85.7-1.55 1.55-1.55.85 0 1.55.7 1.55 1.55v4.59c0 .21.09.4.25.53.64.54 1 1.31 1 2.13a2.8 2.8 0 0 1-2.8 2.79z"/>
  <path d="M10.77 9.6V5.47c0-.28-.22-.5-.5-.5s-.5.22-.5.5v4.14c-.71.22-1.24.88-1.24 1.67 0 .97.79 1.76 1.76 1.76s1.76-.79 1.76-1.76c0-.8-.54-1.47-1.28-1.68zM5.92 3.34c-.93.27-1.19 1.05-1.13 1.55-.66-.8-.71-1.73-.63-3.05-2.12.82-1.62 3.2-1.69 3.92-.53-.45-.63-1.53-.63-1.53-.56.3-.84 1.1-.84 1.74 0 1.56 1.26 2.71 2.77 2.71s2.71-1.14 2.71-2.71c.01-.92-.63-1.23-.56-2.63z"/>
</svg>