<svg xmlns="http://www.w3.org/2000/svg" width="16" height="16" fill="currentColor" class="qi-1602" viewBox="0 0 16 16">
  <path d="M15.18 4.77c-1.84 1.24-5.03 1.2-8.69.43C3.03 4.46 1 6.17 1 6.17c3.17-.07 5.86.94 8.21 1.39 5.57 1.05 5.97-2.79 5.97-2.79z"/>
  <path d="M13.52 8.36s-3.26 1-5.9-.41c-2.27-1.22-4.83-1.33-5.95-.74 0 0 1.74-.26 4.68 1.68 3.07 2.01 5.52.87 7.17-.53zM2.85 3.96c.02 0 2.12-.22 3.71.27 1.04.33 1.91.49 2.62.49.57 0 1.04-.1 1.43-.31.49-.26.84-.68 1.01-1.23.25-.79.14-1.57-.31-2.18a2.44 2.44 0 0 0-1.92-1c-.64-.01-1.27.25-1.72.73-.27.28-.26.72.02.99s.72.26.99-.02c.11-.11.34-.3.69-.3.32.01.64.17.82.43.19.26.22.57.11.95a.65.65 0 0 1-.33.41c-.29.15-1.07.32-2.98-.28-1.88-.59-4.19-.34-4.28-.33-.38.04-.66.39-.62.77.04.38.38.64.76.61z"/>
  <path d="M13.09 10.3c-.73-.12-1.5.12-2.31.38-.51.16-1.03.32-1.56.41-2.42.39-4.92-1.96-4.94-1.98a.697.697 0 0 0-.99.02c-.27.28-.26.72.02.99.12.12 3 2.85 6.13 2.35.63-.1 1.23-.29 1.76-.45.65-.2 1.27-.39 1.66-.33.19.03.66.17.85.76.18.57-.14 1.17-.71 1.35-.34.11-.71.04-1-.19a.699.699 0 0 0-.87 1.09c.45.36 1 .55 1.55.55a2.48 2.48 0 0 0 2.37-3.21c-.29-.93-1.02-1.58-1.96-1.74z"/>
</svg>