<svg xmlns="http://www.w3.org/2000/svg" width="16" height="16" fill="currentColor" class="qi-1602" viewBox="0 0 16 16">
  <path d="M14.245 6c-.87 0-1.784-.425-2.575-1.207l-.022-.022L8.08.782a.46.46 0 0 1 .045-.66.472.472 0 0 1 .666.046l3.557 3.966c.61.592 1.276.927 1.897.927a1.807 1.807 0 0 0 1.818-1.798c0-.738-.61-1.341-1.355-1.341-.621 0-.994.402-.994 1.072 0 .492.384.503.407.503a.375.375 0 0 0 .27-.123c.068-.078.091-.178.08-.324a.476.476 0 0 1 .418-.525.462.462 0 0 1 .519.414c.045.402-.057.77-.305 1.05-.248.268-.61.436-.982.436-.655 0-1.355-.503-1.355-1.43 0-1.185.801-2 1.93-2C15.962.994 17 2.01 17 3.273 17 4.77 15.758 6 14.245 6Zm-2.213 10c-1.536 0-3.14-.749-4.517-2.123l-.034-.033-6.278-7.017a.822.822 0 0 1 .068-1.162.843.843 0 0 1 1.174.067l6.256 7.005c1.061 1.05 2.247 1.62 3.33 1.62 1.762 0 3.185-1.418 3.185-3.15 0-1.296-1.073-2.358-2.382-2.358-1.096 0-1.74.704-1.74 1.877 0 .86.678.872.712.872a.66.66 0 0 0 .474-.213c.124-.134.17-.323.136-.57a.828.828 0 0 1 .722-.916.833.833 0 0 1 .926.716 2.333 2.333 0 0 1-.542 1.854 2.342 2.342 0 0 1-1.716.771c-1.152 0-2.371-.883-2.371-2.514 0-2.067 1.4-3.52 3.399-3.52 2.235 0 4.042 1.8 4.042 4 0 2.638-2.168 4.794-4.844 4.794Z"/>
  <path d="M4.907 5.933c.632.637 1.377.983 2.089.983 1.242 0 2.247-.994 2.27-2.2 0-1.029-.848-1.856-1.875-1.856-.926 0-1.57.67-1.57 1.632 0 .748.565 1.162 1.096 1.162.293 0 .587-.134.79-.358.203-.235.282-.536.249-.86a.383.383 0 0 0-.43-.335.38.38 0 0 0-.338.424c.011.112-.012.19-.068.257a.342.342 0 0 1-.226.1c-.011 0-.327 0-.327-.402 0-.547.293-.871.801-.871.61 0 1.107.492 1.107 1.095 0 .804-.666 1.464-1.48 1.464-.496 0-1.038-.269-1.535-.749l-2.89-3.24a.392.392 0 0 0-.542-.034.382.382 0 0 0-.034.537l2.902 3.24.01.011Z"/>
</svg>