<svg xmlns="http://www.w3.org/2000/svg" width="16" height="16" fill="currentColor" class="qi-1602" viewBox="0 0 16 16">
  <path d="M14.846 4.986c-1.84 1.243-5.034 1.205-8.687.427a6.642 6.642 0 0 0-5.487.966c3.174-.072 5.856.939 8.208 1.386 5.569 1.059 5.966-2.779 5.966-2.779z"/>
  <path d="M13.194 8.568a8.64 8.64 0 0 1-5.9-.414C5.018 6.933 2.46 6.819 1.345 7.415c0 0 1.737-.259 4.678 1.678a5.509 5.509 0 0 0 7.171-.525zM2.523 4.175a10.866 10.866 0 0 1 3.713.274 9.037 9.037 0 0 0 2.618.49 3.027 3.027 0 0 0 1.431-.31A2.033 2.033 0 0 0 11.3 3.4a2.416 2.416 0 0 0-.308-2.181A2.45 2.45 0 0 0 9.057.212a2.363 2.363 0 0 0-1.722.73.7.7 0 1 0 1.009.968.954.954 0 0 1 .688-.3 1.07 1.07 0 0 1 .822.426 1.021 1.021 0 0 1 .106.945.634.634 0 0 1-.326.407c-.292.154-1.068.321-2.981-.277a12.141 12.141 0 0 0-4.283-.33.7.7 0 0 0-.618.772.715.715 0 0 0 .771.622z"/>
  <path d="M12.759 10.516a5.165 5.165 0 0 0-2.312.375 11.03 11.03 0 0 1-1.565.407c-2.419.387-4.915-1.957-4.94-1.981a.7.7 0 0 0-.97 1.01c.121.115 3 2.846 6.129 2.354a12.327 12.327 0 0 0 1.765-.454 4.473 4.473 0 0 1 1.661-.33 1.05 1.05 0 0 1 .846.758 1.08 1.08 0 0 1-1.708 1.161.7.7 0 1 0-.877 1.091 2.48 2.48 0 0 0 3.923-2.665 2.441 2.441 0 0 0-1.952-1.726z"/>
</svg>