<svg xmlns="http://www.w3.org/2000/svg" width="16" height="16" fill="currentColor" class="qi-1603" viewBox="0 0 16 16">
  <path d="m14.183 3.286-1.438.816-1.208 2.09-2.384.994-1.081 1.739-3.506.884-3.663 5.202h14.659L14.183 3.286Z"/>
  <path d="M11.23 5.558a.712.712 0 1 1-1.376-.363.712.712 0 0 1 1.377.363Zm-5.6 4.305a.826.826 0 1 0-1.34-.966.826.826 0 0 0 1.34.966ZM3.835 7.438a.913.913 0 1 0-1.48-1.069.913.913 0 0 0 1.48 1.069Zm8.678-4.778a1.15 1.15 0 1 0-1.836-1.383 1.15 1.15 0 0 0 1.836 1.383Zm-4.239.906A1.15 1.15 0 1 0 6.409 2.22a1.15 1.15 0 0 0 1.865 1.346Zm-.084 4.16a1.572 1.572 0 1 0-2.5-1.907 1.572 1.572 0 0 0 2.5 1.907Zm-5.784 4.602a1.313 1.313 0 1 0-1.537 2.13 1.313 1.313 0 0 0 1.537-2.13Z"/>
</svg>