<svg xmlns="http://www.w3.org/2000/svg" width="16" height="16" fill="currentColor" class="qi-1603" viewBox="0 0 16 16">
  <path d="m14.28 2.548-1.43.82-6.31 10.91h9.12l-1.38-11.73z"/>
  <path d="m12.33 5.168-3.08 1.28-4.86 7.83h7.81l.13-9.11z"/>
  <path d="m9.25 7.918-4.58 1.16-3.67 5.2h7.81l.44-6.36zm1.96-2.84c.23-.32.16-.77-.16-1a.718.718 0 0 0-1 .16c-.23.32-.16.77.16 1 .32.23.77.16 1-.16z"/>
  <path d="M5.73 9.128a.82.82 0 0 0-.19-1.15.82.82 0 0 0-1.15.19.82.82 0 0 0 .19 1.15c.37.26.88.18 1.15-.19zm-1.79-2.42c.3-.41.2-.98-.21-1.27-.41-.3-.98-.2-1.27.21-.3.41-.2.98.21 1.27.4.29.97.19 1.27-.21zm4.44-3.88a1.154 1.154 0 0 0-1.87-1.35c-.37.51-.26 1.23.26 1.61.51.38 1.23.26 1.61-.26zm-.09 4.16c.51-.7.35-1.69-.35-2.2a1.58 1.58 0 0 0-2.2.35c-.51.7-.35 1.69.35 2.2.71.52 1.69.36 2.2-.35z"/>
</svg>