<svg xmlns="http://www.w3.org/2000/svg" width="16" height="16" fill="currentColor" class="qi-1603" viewBox="0 0 16 16">
  <path d="M2.8 2.4a1.2 1.2 0 1 1 0-2.4 1.2 1.2 0 0 1 0 2.4Zm-.11 1.505L1.317 3 0 16h14l-3.498-5.768-3.349-.98-1.032-1.928-2.277-1.102L2.69 3.905ZM9.5 8a1.5 1.5 0 1 1 0-3 1.5 1.5 0 0 1 0 3Z"/>
  <path d="M4.6 5.2a1.2 1.2 0 1 0 2.4 0 1.2 1.2 0 0 0-2.4 0ZM12 4a1 1 0 1 0 2 0 1 1 0 0 0-2 0Zm1 6a1 1 0 1 1 0-2 1 1 0 0 1 0 2ZM7 3a1 1 0 1 0 2 0 1 1 0 0 0-2 0Zm7.5 11a1.5 1.5 0 1 1 0-3 1.5 1.5 0 0 1 0 3Z"/>
</svg>