<svg xmlns="http://www.w3.org/2000/svg" width="16" height="16" fill="currentColor" class="qi-1604" viewBox="0 0 16 16">
  <circle cx="8" cy="8" r="4.545"/>
  <circle cx="8" cy="8" r=".085" style="fill:#ea0392"/>
  <path d="M8.085 8.107a3.848 3.848 0 0 1 3.754-6.551 6.1 6.1 0 0 0-7.961 8.179 10.4 10.4 0 0 1 4.207-1.628z"/>
  <path d="M8.135 7.98a3.863 3.863 0 0 1-4.559-5.608 3.79 3.79 0 0 1 .763-.918 6.1 6.1 0 0 0 .581 10.194 6.064 6.064 0 0 0 2.522.789 10.4 10.4 0 0 1 .693-4.457z"/>
  <path d="M8.05 7.873A3.848 3.848 0 0 1 .5 7.9a6.1 6.1 0 0 0 11.064 2.8A10.405 10.405 0 0 1 8.05 7.873z"/>
  <path d="M7.915 7.893a3.848 3.848 0 0 1-3.754 6.551 6.1 6.1 0 0 0 7.961-8.179 10.4 10.4 0 0 1-4.207 1.628z"/>
  <path d="M7.865 8.02a3.863 3.863 0 0 1 4.559 5.608 3.79 3.79 0 0 1-.763.918 6.1 6.1 0 0 0-3.1-10.983 10.4 10.4 0 0 1-.696 4.457z"/>
  <path d="M7.95 8.127A3.848 3.848 0 0 1 15.5 8.1 6.1 6.1 0 0 0 4.436 5.3 10.405 10.405 0 0 1 7.95 8.127z"/>
</svg>