<svg xmlns="http://www.w3.org/2000/svg" width="16" height="16" fill="currentColor" class="qi-1604" viewBox="0 0 16 16">
  <path d="M7.485 3.01a3.874 3.874 0 0 1 3.177-1.655c.413 0 .803.082 1.177.202a6.107 6.107 0 0 0-8.418 4.395 3.877 3.877 0 0 1 .154-3.58c.207-.358.473-.655.763-.918a6.106 6.106 0 0 0-.402 9.487A3.87 3.87 0 0 1 .914 9.017 3.81 3.81 0 0 1 .5 7.898a6.107 6.107 0 0 0 8.014 5.093 3.874 3.874 0 0 1-3.176 1.654 3.83 3.83 0 0 1-1.177-.202 6.108 6.108 0 0 0 8.418-4.396 3.872 3.872 0 0 1-.154 3.581 3.837 3.837 0 0 1-.763.918 6.107 6.107 0 0 0 .404-9.487 3.873 3.873 0 0 1 3.02 1.924c.207.358.331.737.414 1.12a6.107 6.107 0 0 0-8.015-5.092Z"/>
</svg>