<svg xmlns="http://www.w3.org/2000/svg" width="16" height="16" fill="currentColor" class="qi-1604" viewBox="0 0 16 16">
  <path d="M8.49 12.52a4.55 4.55 0 1 0 0-9.1 4.55 4.55 0 0 0 0 9.1z"/>
  <path d="M8.49 8.05a.08.08 0 1 0 0-.16.08.08 0 0 0 0 .16z"/>
  <path d="M8.58 8.07c-.79-.71-1.3-1.73-1.3-2.88 0-2.14 1.74-3.88 3.88-3.88.41 0 .8.08 1.18.2-.75-.32-1.57-.51-2.43-.51A6.11 6.11 0 0 0 3.8 7.11c0 .92.21 1.79.58 2.58.98-.72 2.46-1.3 4.2-1.62z"/>
  <path d="M8.63 7.95c-1.01.33-2.15.26-3.14-.31a3.875 3.875 0 0 1-1.42-5.29c.21-.36.47-.65.76-.92-.65.48-1.22 1.1-1.65 1.85a6.093 6.093 0 0 0 2.24 8.34c.8.46 1.66.71 2.52.79-.14-1.23.09-2.8.69-4.46z"/>
  <path d="M8.54 7.84A3.85 3.85 0 0 1 6.7 10.4a3.867 3.867 0 0 1-5.29-1.42A3.7 3.7 0 0 1 1 7.86a6.113 6.113 0 0 0 9.12 4.6c.8-.46 1.45-1.08 1.94-1.79-1.13-.49-2.37-1.48-3.52-2.83z"/>
  <path d="M8.41 7.86c.79.71 1.3 1.73 1.3 2.88 0 2.14-1.74 3.88-3.88 3.88-.41 0-.8-.08-1.18-.2.75.32 1.57.51 2.43.51a6.11 6.11 0 0 0 6.11-6.11c0-.92-.21-1.79-.58-2.58-.99.72-2.46 1.3-4.2 1.62z"/>
  <path d="M8.36 7.99c1.01-.33 2.15-.26 3.14.31a3.875 3.875 0 0 1 1.42 5.29c-.21.36-.47.65-.76.92.65-.48 1.22-1.1 1.65-1.85 1.69-2.92.69-6.66-2.24-8.34-.8-.46-1.66-.71-2.52-.79.14 1.23-.1 2.79-.69 4.46z"/>
  <path d="M8.44 8.1a3.85 3.85 0 0 1 1.84-2.56 3.867 3.867 0 0 1 5.29 1.42c.21.36.33.74.41 1.12a6.113 6.113 0 0 0-9.12-4.6c-.8.46-1.45 1.08-1.94 1.79 1.14.49 2.38 1.48 3.52 2.83z"/>
</svg>