<svg xmlns="http://www.w3.org/2000/svg" width="16" height="16" fill="currentColor" class="qi-1606" viewBox="0 0 16 16">
  <path d="M10.833 13c1.809-.038 2.828.07 4.594.485a.47.47 0 0 0 .562-.377.497.497 0 0 0-.357-.593c-1.84-.432-2.934-.548-4.818-.508-1.174.025-2.072.274-2.922.51l-.012.003c-.852.236-1.657.458-2.713.48-1.809.038-2.828-.07-4.594-.485a.47.47 0 0 0-.562.377.497.497 0 0 0 .357.593c1.84.432 2.934.548 4.818.508 1.174-.025 2.072-.274 2.922-.51l.012-.003c.852-.236 1.657-.458 2.713-.48Zm0 2c1.809-.038 2.828.07 4.594.485a.47.47 0 0 0 .562-.377.497.497 0 0 0-.357-.593c-1.84-.432-2.934-.548-4.818-.508-1.174.025-2.072.274-2.922.51l-.012.003c-.852.236-1.657.458-2.713.48-1.809.038-2.828-.07-4.594-.485a.47.47 0 0 0-.562.377.497.497 0 0 0 .357.593c1.84.432 2.934.547 4.818.508 1.174-.025 2.072-.274 2.922-.51l.012-.003c.852-.236 1.657-.458 2.713-.48Z"/>
  <path d="M9.9 0v12.074c.287-.036.59-.06.914-.067a20.209 20.209 0 0 1 2.086.046V0h-3Zm.75 1.885h1.5v.961h-1.5v-.961Zm1.5 2.48v.962h-1.5v-.962h1.5Zm-1.5 2.48h1.5v1.923h-1.5V6.845ZM9.2 12.19V4.5a.5.5 0 0 0-.5-.5h-1a.5.5 0 0 0-.5.5v8.203c.227-.058.452-.12.68-.183l.012-.003c.416-.115.843-.234 1.308-.328ZM8.7 7.5a.5.5 0 1 1-1 0 .5.5 0 0 1 1 0ZM8.2 6a.5.5 0 1 1 0-1 .5.5 0 0 1 0 1Zm7.4 6.508V2.5a.5.5 0 0 0-.5-.5h-1a.5.5 0 0 0-.5.5v9.627c.613.08 1.244.204 2 .381ZM15.1 3v1h-1V3h1Zm-1 2h1v1h-1V5Zm1 2v1h-1V7h1Zm-1 2h1v1h-1V9ZM2 3.5a.5.5 0 1 1-1 0 .5.5 0 0 1 1 0Zm-.5 2a.5.5 0 1 0 0-1 .5.5 0 0 0 0 1Zm.5 1a.5.5 0 1 1-1 0 .5.5 0 0 1 1 0Zm.5-3.25a.25.25 0 0 0 0 .5H4a.25.25 0 0 0 0-.5H2.5Zm0 1.5a.25.25 0 0 0 0 .5H4a.25.25 0 0 0 0-.5H2.5Zm0 1.5a.25.25 0 0 0 0 .5H3a.25.25 0 0 0 0-.5h-.5Z"/>
  <path d="M.45 2a.45.45 0 0 0-.45.45v5.6c0 .249.201.45.45.45h3.404L5.5 6.854V2.45A.45.45 0 0 0 5.05 2H.45ZM.5 8V2.5H5v4H3.95a.45.45 0 0 0-.45.45V8h-3Z"/>
</svg>