<svg xmlns="http://www.w3.org/2000/svg" width="16" height="16" fill="currentColor" class="qi-1606" viewBox="0 0 16 16">
  <path d="M9.66 2.94h1.81c.33 0 .6.27.6.6v2.05c0 .39.31.7.7.7.39 0 .7-.31.7-.7V3.54c0-1.1-.9-2-2-2H9.59C9.36 1.22 9 1 8.58 1H6c-.42 0-.78.22-1.01.54H3c-1.1 0-2 .9-2 2v8.17c0 1.1.9 2 2 2h1.37c.39 0 .7-.31.7-.7 0-.39-.31-.7-.7-.7H3c-.33 0-.6-.27-.6-.6V3.54c0-.33.27-.6.6-.6h1.92c.22.38.61.64 1.08.64h2.58c.47 0 .86-.27 1.08-.64z"/>
  <path d="M10.18 7.76c-1.73.62-2.67-.04-2.72-.08a.71.71 0 0 0-.98.12c-.24.3-.19.74.11.98.04.04.83.64 2.2.64.53 0 1.15-.09 1.86-.34 2.14-.76 3.1-.06 3.13-.04.3.25.74.2.99-.09a.7.7 0 0 0-.09-.99c-.17-.14-1.61-1.23-4.5-.2zm0 2.53c-1.73.62-2.67-.04-2.72-.08a.71.71 0 0 0-.98.12c-.24.3-.19.74.11.98.04.04.83.64 2.2.64.53 0 1.15-.09 1.86-.34 2.14-.76 3.1-.06 3.13-.04.3.25.74.21.99-.09a.7.7 0 0 0-.09-.99c-.17-.14-1.61-1.24-4.5-.2zm0 2.52c-1.73.62-2.67-.04-2.72-.08a.71.71 0 0 0-.98.12c-.24.3-.19.74.11.98.04.04.83.64 2.2.64.53 0 1.15-.09 1.86-.34 2.14-.76 3.1-.07 3.13-.05.3.25.74.2.99-.09a.7.7 0 0 0-.09-.99c-.17-.12-1.61-1.22-4.5-.19z"/>
</svg>