<svg xmlns="http://www.w3.org/2000/svg" width="16" height="16" fill="currentColor" class="qi-1606" viewBox="0 0 16 16">
  <path d="M10.833 11c1.809-.038 2.828.07 4.594.485a.47.47 0 0 0 .562-.377.497.497 0 0 0-.357-.593c-1.84-.432-2.934-.548-4.818-.508-1.174.025-2.072.274-2.922.51l-.012.003c-.852.236-1.657.458-2.713.48-1.809.038-2.828-.07-4.594-.485a.47.47 0 0 0-.562.377.497.497 0 0 0 .357.593c1.84.432 2.934.548 4.818.508 1.174-.025 2.072-.274 2.922-.51l.012-.003c.852-.236 1.657-.458 2.713-.48Zm4.594 2.485c-1.766-.416-2.785-.523-4.594-.485-1.056.022-1.861.244-2.713.48l-.012.003c-.85.236-1.748.485-2.922.51-1.884.04-2.978-.076-4.818-.508a.497.497 0 0 1-.357-.593.47.47 0 0 1 .562-.377c1.766.416 2.785.523 4.594.485 1.056-.022 1.861-.244 2.713-.48l.012-.003c.85-.236 1.748-.485 2.922-.51 1.884-.04 2.978.076 4.818.508.253.06.413.325.357.593a.47.47 0 0 1-.562.377Zm0 2c-1.766-.416-2.785-.523-4.594-.485-1.056.022-1.861.244-2.713.48l-.012.003c-.85.236-1.748.485-2.922.51-1.884.04-2.978-.076-4.818-.508a.497.497 0 0 1-.357-.593.47.47 0 0 1 .562-.377c1.766.416 2.785.523 4.594.485 1.056-.022 1.861-.244 2.713-.48l.012-.003c.85-.236 1.748-.485 2.922-.51 1.884-.04 2.978.076 4.818.508.253.06.413.325.357.593a.47.47 0 0 1-.562.377ZM2.417 3.984l1.236.323-.513 1.866c-.82.141-1.549.221-2.113.228-.283.004-.53.222-.527.498l.006.753c.001.217.202.377.424.352a19.243 19.243 0 0 0 1.797-.326l-.233.848c-.095.347-.168.591-.236.796a.479.479 0 0 0 .332.617l.621.162a.505.505 0 0 0 .614-.381c.044-.197.105-.43.2-.774L5.795 2.5c.081-.296.142-.509.198-.684a.499.499 0 0 0-.34-.639l-.612-.16a.493.493 0 0 0-.603.374c-.04.182-.093.398-.178.708l-.22.8-1.236-.324a16.79 16.79 0 0 1-.439-.12c-.276-.08-.58.064-.655.335l-.129.469c-.075.274.118.55.4.617.121.028.262.063.436.109Z"/>
  <path d="m6.526 9.07.772-2.81c1.036-.23 2.288-.606 2.993-.912a.329.329 0 0 0 .179-.44l-.322-.686c-.124-.262-.464-.356-.728-.226a10.44 10.44 0 0 1-1.672.626l.413-1.504c.083-.303.143-.513.202-.692a.49.49 0 0 0-.335-.63l-.582-.151a.493.493 0 0 0-.603.373c-.04.183-.094.398-.179.708l-1.75 6.371c-.154.562-.116.878.165 1.135.19.173.528.302 1.416.534l.208.053c.402-.085.785-.19 1.177-.3l.012-.002c.343-.095.694-.193 1.068-.276.191-.33.38-.788.59-1.425a.485.485 0 0 0-.22-.557 5.264 5.264 0 0 1-.76-.58c-.069-.063-.183-.034-.207.054l-.1.362a8.228 8.228 0 0 1-.403 1.13c-.068.135-.118.203-.179.238-.154.072-.317.06-.751-.053-.377-.099-.45-.17-.404-.34Zm8.22-4.945a.17.17 0 0 0-.283-.076l-3.414 3.416a.167.167 0 0 0 .077.28l1.8.482-.482 1.796c.347.017.678.045 1.013.086l.434-1.623 1.897.508c.125.034.24-.08.206-.204l-1.248-4.665Zm-.888 1.195c.027-.181.247-.284.476-.223.229.061.368.26.3.43l-.589 1.497-.425-.114.238-1.59Zm.122 2.355a.323.323 0 1 1-.624-.168.323.323 0 0 1 .624.168Z"/>
</svg>