<svg xmlns="http://www.w3.org/2000/svg" width="16" height="16" fill="currentColor" class="qi-1606" viewBox="0 0 16 16">
  <path d="M10.151 3.319h1.812a.6.6 0 0 1 .6.6v2.045a.7.7 0 0 0 1.4 0V3.918a2 2 0 0 0-2-2h-1.879a1.245 1.245 0 0 0-1.011-.541H6.492a1.245 1.245 0 0 0-1.01.541H3.49a2 2 0 0 0-2 2v8.17a2 2 0 0 0 2 2h1.369a.7.7 0 0 0 0-1.4H3.49a.6.6 0 0 1-.6-.6v-8.17a.6.6 0 0 1 .6-.6h1.924a1.25 1.25 0 0 0 1.078.642h2.581a1.248 1.248 0 0 0 1.078-.641z"/>
  <path d="M10.67 8.139a2.959 2.959 0 0 1-2.72-.083.7.7 0 0 0-.868 1.1 3.671 3.671 0 0 0 2.2.643 5.513 5.513 0 0 0 1.855-.341c2.137-.758 3.1-.064 3.13-.045a.7.7 0 0 0 .893-1.078c-.154-.129-1.598-1.227-4.49-.196zm0 2.528a2.963 2.963 0 0 1-2.72-.083.7.7 0 0 0-.868 1.1 3.683 3.683 0 0 0 2.2.642 5.513 5.513 0 0 0 1.855-.341c2.137-.759 3.1-.064 3.13-.044a.7.7 0 0 0 .893-1.079c-.154-.129-1.598-1.226-4.49-.195zm0 2.533a2.956 2.956 0 0 1-2.72-.083.7.7 0 0 0-.868 1.1 3.679 3.679 0 0 0 2.2.643 5.513 5.513 0 0 0 1.855-.341c2.14-.761 3.1-.066 3.13-.046a.7.7 0 0 0 .893-1.078c-.154-.134-1.595-1.231-4.49-.195z"/>
</svg>