<svg xmlns="http://www.w3.org/2000/svg" width="16" height="16" fill="currentColor" class="qi-1607" viewBox="0 0 16 16">
  <path d="M13.745 7.927V3.649a2.95 2.95 0 1 0-5.9 0v4.278a4.2 4.2 0 1 0 5.9 0zM10.8 13.7A2.786 2.786 0 0 1 9 8.769a.7.7 0 0 0 .248-.534V3.649a1.55 1.55 0 0 1 3.1 0v4.586a.7.7 0 0 0 .248.534A2.786 2.786 0 0 1 10.8 13.7zM7.22 5.327a.7.7 0 0 0-.7-.7h-1.2l.6-1.038a.7.7 0 1 0-1.213-.7l-.6 1.037-.6-1.037a.7.7 0 1 0-1.213.7l.6 1.038H1.7a.7.7 0 1 0 0 1.4h1.2l-.6 1.038a.7.7 0 0 0 1.213.7l.6-1.038.6 1.038a.7.7 0 0 0 1.213-.7l-.6-1.038h1.2a.7.7 0 0 0 .694-.7z"/>
  <path d="M11.245 9.3V7.175a.5.5 0 1 0-1 0v2.142a1.757 1.757 0 1 0 1-.014z"/>
</svg>