<svg xmlns="http://www.w3.org/2000/svg" width="16" height="16" fill="currentColor" class="qi-1607" viewBox="0 0 16 16">
  <path d="M6.235 4.81A.454.454 0 0 1 6 4.872.465.465 0 0 1 5.765 4 .454.454 0 0 1 6 3.938a.454.454 0 0 1 .403.23c.043.071.065.15.065.236a.467.467 0 0 1-.233.406Z"/>
  <path d="M3.097.777a.5.5 0 0 1 .649-.538L8 1.6 12.254.239a.5.5 0 0 1 .649.538L12 8h2.481c.52 0 .716.804.275 1.129l-6.481 4.778a.452.452 0 0 1-.55 0L1.245 9.13C.802 8.804.997 8 1.518 8H4L3.097.777Zm2.4 4.495A.974.974 0 0 0 6 5.405a.974.974 0 0 0 .503-.133c.151-.09.272-.211.362-.363A.976.976 0 0 0 7 4.404a1.006 1.006 0 0 0-1-.999 1.006 1.006 0 0 0-1 .999c0 .184.045.353.135.505.09.152.21.272.362.363ZM11 5.367a1.578 1.578 0 0 0-.19-.578 1.434 1.434 0 0 0-.367-.43 1.59 1.59 0 0 0-.508-.268A2.012 2.012 0 0 0 9.32 4c-.347 0-.657.08-.93.238a1.67 1.67 0 0 0-.65.686C7.578 5.222 7.5 5.58 7.5 6c0 .418.079.777.237 1.076.157.3.373.528.647.686.274.159.586.238.935.238.236 0 .452-.034.646-.103A1.541 1.541 0 0 0 11 6.657l-.725-.003a.837.837 0 0 1-.332.529.92.92 0 0 1-.281.138c-.103.03-.215.046-.334.046-.214 0-.405-.051-.572-.154a1.059 1.059 0 0 1-.391-.46A1.788 1.788 0 0 1 8.223 6c0-.293.047-.54.142-.743.094-.204.225-.359.391-.464.167-.107.359-.16.574-.16.122 0 .235.017.34.05a.84.84 0 0 1 .49.375.858.858 0 0 1 .115.309H11Zm-9.706 5.229a.5.5 0 0 0-.588.808l5.5 4a.5.5 0 0 0 .588-.808l-5.5-4Zm-.741 3.18a.5.5 0 0 1 .67-.223l3 1.5a.5.5 0 1 1-.447.894l-3-1.5a.5.5 0 0 1-.223-.67Zm14.894 0a.5.5 0 0 0-.67-.223l-3 1.5a.5.5 0 1 0 .447.894l3-1.5a.5.5 0 0 0 .223-.67Zm-.043-3.07a.5.5 0 0 0-.698-.11l-5.5 4a.5.5 0 0 0 .588.808l5.5-4a.5.5 0 0 0 .11-.698Z"/>
</svg>