<svg xmlns="http://www.w3.org/2000/svg" width="16" height="16" fill="currentColor" class="qi-1609" viewBox="0 0 16 16">
  <path d="M7.9 10a4.99 4.99 0 0 0 3.827-1.783 3 3 0 1 0 .553-5.63A4.999 4.999 0 0 0 7.9 0a4.998 4.998 0 0 0-4.359 2.549 3 3 0 1 0 .586 5.732A4.988 4.988 0 0 0 7.9 10Zm-.791-6.398c-.057-.362.17-.8.496-.997.256-.153.551-.133.806.023l.07.042a.846.846 0 0 1 .409.853L8.532 5.8H7.454L7.11 3.602ZM8.599 6.9a.6.6 0 1 1-1.2 0 .6.6 0 0 1 1.2 0Zm-5.896 7.517c.097-.133.04-.303-.128-.38-.167-.077-.381-.03-.478.102l-1.05 1.444c-.097.133-.04.303.128.38.167.077.381.03.478-.102l1.05-1.444Zm2.45 0c.097-.133.04-.303-.128-.38-.167-.077-.381-.03-.478.102l-1.05 1.444c-.097.133-.04.303.128.38.167.077.381.03.478-.102l1.05-1.444Zm2.322-.38c.167.077.225.247.128.38l-1.05 1.444c-.097.133-.31.178-.478.102-.167-.077-.225-.247-.128-.38l1.05-1.444c.097-.133.31-.178.478-.102Zm5.028.38c.097-.133.04-.303-.128-.38-.167-.077-.382-.03-.478.102l-1.05 1.444c-.097.133-.04.303.128.38.167.077.382.03.478-.102l1.05-1.444Zm-2.578-.38c.167.077.225.247.128.38l-1.05 1.444c-.097.133-.31.178-.478.102-.167-.077-.225-.247-.128-.38l1.05-1.444c.097-.133.31-.178.478-.102Zm5.028.38c.097-.133.04-.303-.128-.38-.167-.077-.381-.03-.478.102l-1.05 1.444c-.097.133-.04.303.128.38.167.077.381.03.478-.102l1.05-1.444Zm-12.25-3c.097-.133.04-.303-.128-.38-.167-.077-.381-.03-.478.102l-1.05 1.444c-.097.133-.04.303.128.38.167.077.381.03.478-.102l1.05-1.444Zm2.45 0c.097-.133.04-.303-.128-.38-.167-.077-.381-.03-.478.102l-1.05 1.444c-.097.133-.04.303.128.38.167.077.381.03.478-.102l1.05-1.444Zm2.322-.38c.167.077.225.247.128.38l-1.05 1.444c-.097.133-.31.178-.478.102-.167-.077-.225-.247-.128-.38l1.05-1.444c.097-.133.31-.178.478-.102Zm5.028.38c.097-.133.04-.303-.128-.38-.167-.077-.382-.03-.478.102l-1.05 1.444c-.097.133-.04.303.128.38.167.077.382.03.478-.102l1.05-1.444Zm-2.578-.38c.167.077.225.247.128.38l-1.05 1.444c-.097.133-.31.178-.478.102-.167-.077-.225-.247-.128-.38l1.05-1.444c.097-.133.31-.178.478-.102Zm5.028.38c.097-.133.04-.303-.128-.38-.167-.077-.381-.03-.478.102l-1.05 1.444c-.097.133-.04.303.128.38.167.077.381.03.478-.102l1.05-1.444Z"/>
</svg>