<svg xmlns="http://www.w3.org/2000/svg" width="16" height="16" fill="currentColor" class="qi-1610" viewBox="0 0 16 16">
  <path d="M9.035 4.136a.25.25 0 0 1 .177.306l-.167.625.396-.229a.25.25 0 0 1 .25.433l-.83.479-.231.866a.257.257 0 0 1-.006.02c.335.152.594.42.74.74a.257.257 0 0 1 .02-.006l.866-.232.479-.829a.25.25 0 0 1 .433.25l-.229.396.625-.167a.25.25 0 1 1 .13.483l-.625.167.396.229a.25.25 0 0 1-.25.433l-.83-.479-.865.232a.252.252 0 0 1-.02.005 1.497 1.497 0 0 1-.271 1.012l.015.014.634.634h.957a.25.25 0 1 1 0 .5h-.458l.458.457a.25.25 0 1 1-.354.353l-.457-.457v.457a.25.25 0 0 1-.5 0v-.957l-.634-.634a.25.25 0 0 1-.014-.015 1.499 1.499 0 0 1-1.012.271.25.25 0 0 1-.005.02l-.232.867.479.828a.25.25 0 0 1-.433.25l-.229-.396-.167.625a.25.25 0 1 1-.483-.13l.167-.624-.395.229a.25.25 0 0 1-.25-.433l.828-.479.232-.866a.257.257 0 0 1 .007-.02 1.499 1.499 0 0 1-.741-.74.257.257 0 0 1-.02.006l-.866.232-.478.829a.25.25 0 0 1-.433-.25l.228-.396-.624.167a.25.25 0 1 1-.13-.483l.625-.167-.396-.229a.25.25 0 0 1 .25-.433l.829.479.866-.232a.25.25 0 0 1 .02-.005 1.497 1.497 0 0 1 .27-1.012.253.253 0 0 1-.014-.014l-.634-.634h-.957a.25.25 0 0 1 0-.5h.457l-.457-.457a.25.25 0 1 1 .353-.353l.457.457v-.457a.25.25 0 1 1 .5 0v.957l.634.634.014.015a1.499 1.499 0 0 1 1.012-.271.25.25 0 0 1 .005-.02l.232-.866-.479-.83a.25.25 0 0 1 .433-.25l.229.396.167-.624a.25.25 0 0 1 .306-.177Z"/>
  <path d="m10.384.455 5.14 5.154a.705.705 0 0 1 .182.68l-1.889 7.047a.704.704 0 0 1-.497.497l-7.028 1.893a.688.688 0 0 1-.677-.181l-5.14-5.154a.705.705 0 0 1-.18-.679l1.888-7.047a.705.705 0 0 1 .496-.498L9.707.274a.693.693 0 0 1 .677.181ZM6.322 14.263l6.245-1.683 1.678-6.263-4.567-4.58-6.245 1.684-1.678 6.262 4.567 4.58Z"/>
</svg>