<svg xmlns="http://www.w3.org/2000/svg" width="16" height="16" fill="currentColor" class="qi-1701" viewBox="0 0 16 16">
  <path d="M4.5 7a.5.5 0 0 0-.5.5v2.063a2 2 0 1 0 1 0V7.5a.5.5 0 0 0-.5-.5Z"/>
  <path d="m3.2 8.399-.532.356a3.3 3.3 0 1 0 3.665 0L5.8 8.399V2.5a1.3 1.3 0 0 0-2.6 0v5.899ZM2 2.5a2.5 2.5 0 0 1 5 0v5.258a4.5 4.5 0 1 1-5 0V2.5Zm8 1.124L10.666 3 12.5 5.476 14.334 3l.666.624L12.5 7 10 3.624Z"/>
  <path d="M10 6.624 10.666 6 12.5 8.476 14.334 6l.666.624L12.5 10 10 6.624Z"/>
  <path d="M10.666 9 10 9.624 12.5 13 15 9.624 14.334 9 12.5 11.476 10.666 9Z"/>
</svg>