<svg xmlns="http://www.w3.org/2000/svg" width="16" height="16" fill="currentColor" class="qi-1702" viewBox="0 0 16 16">
  <path d="M9.1.366c-1.1-.05-1.65.4-1.95.8-.4.6-.45 1.35-.3 1.8.1.2.3.3.5.25.2-.1.3-.3.25-.5-.1-.2-.1-.7.2-1.05.25-.35.7-.5 1.25-.45.6.05 1.05.25 1.35.65.3.45.4 1.1.2 1.65-.1.2-.2.35-.25.5-.35.45-.5.4-.75.45H.25c-.15.05-.25.15-.25.35 0 .2.2.4.4.4h9.2c.55 0 .85-.15 1.25-.6.2-.2.4-.5.55-.9 0-.1.05-.2.1-.3.15-.75 0-1.5-.35-2.1-.35-.4-.95-.9-2.05-.95Zm4.4 6c.2-.2.35-.5.3-1v-.05c-.1-.4-.5-.85-1-.9h-.15c-.25 0-.7.15-1.05.75a.326.326 0 1 0 .55.35c.1-.2.3-.4.5-.4s.4.25.45.4c0 .55-.35.6-.35.6H.35c-.2 0-.35.15-.35.35 0 .2.15.35.35.35 0 0 12.3.1 12.45 0 .15-.1.5-.25.7-.45Zm-3.8 1.15H.35c-.2 0-.35.15-.35.35 0 .2.15.35.35.35H9.7s.4.05.35.6c-.05.15-.25.35-.45.4-.2.05-.4-.2-.5-.4a.326.326 0 1 0-.55.35c.35.6.8.75 1.05.75h.15c.5-.05.9-.55 1-.9v-.05c.05-.5-.15-.85-.3-1-.25-.3-.55-.45-.75-.45Zm-1.95 5.45c.4-.6.5-1.35.35-2.1 0-.1-.05-.2-.1-.3-.1-.4-.3-.65-.5-.9-.4-.4-.7-.6-1.25-.6H1.2c-.2 0-.4.2-.4.4 0 .15.1.3.25.35H6.3c.25.05.4 0 .75.45.1.1.2.3.25.5.2.55.1 1.2-.2 1.65-.3.4-.75.65-1.35.65-.6 0-1.05-.1-1.25-.45-.25-.35-.25-.85-.2-1.05.05-.2-.05-.4-.25-.5-.2-.05-.4.05-.5.25-.15.45-.15 1.2.3 1.8.3.4.85.85 1.95.8 1.05 0 1.65-.55 1.95-.95Zm3.939-1.829c-.016-.14.128-.262.311-.262s.327.121.311.262l-.14 1.238h-.341l-.141-1.238Zm.563 1.738a.25.25 0 1 1-.5 0 .25.25 0 0 1 .5 0Z"/>
  <path d="M10 12a2 2 0 1 0 4 0 2 2 0 0 0-4 0Zm3.675 0a1.675 1.675 0 1 1-3.35 0 1.675 1.675 0 0 1 3.35 0Z"/>
</svg>