<svg xmlns="http://www.w3.org/2000/svg" width="16" height="16" fill="currentColor" class="qi-1703" viewBox="0 0 16 16">
  <path d="M8.85 12.017H8c-.1 0-.15.05-.15.1-.3.75-.7 1.8-.85 2.3-.15.35.15.65.5.6.2-.05.3-.15.35-.35.45-1.25.45-1.05.9-2.3.05-.1.1-.2.1-.35Zm-2.6 0H5.4c-.1 0-.15.05-.15.1-.3.75-1.05 2.9-1.2 3.4-.15.35.15.65.5.6.2-.05.3-.15.35-.35.45-1.25.8-2.15 1.25-3.4 0-.1.05-.2.1-.35Zm-2.4 0H3c-.05 0-.1.05-.1.05-.05.25-.15.45-.25.7-.25.65-.45 1.25-.7 1.9-.1.3.05.5.3.65.2.05.45-.05.5-.3.25-.65.5-1.3.7-1.9.15-.4.25-.75.4-1.1Zm-1.4-6.15c.4-.3.9-.45 1.4-.45.4 0 .85.1 1.2.3l.6.35.1-.7c.35-2.15 2.15-3.7 4.35-3.7 2.45 0 4.4 2 4.4 4.4 0 .8-.2 1.55-.65 2.25.3.05.6.2.85.35.4-.75.65-1.65.65-2.55 0-2.9-2.4-5.3-5.3-5.3-2.45 0-4.5 1.6-5.1 3.9-.4-.25-.8-.35-1.15-.35-.7 0-1.35.2-1.9.65-.95.65-1.55 1.7-1.55 2.85 0 1.4.85 2.7 2.2 3.2.3.15.7.3 1.05.3h6c.05-.3.05-.65.15-.95h-6.1c-.2 0-.4-.05-.65-.15l-.05-.05c-.95-.4-1.65-1.3-1.65-2.35 0-.75.45-1.55 1.15-2Zm4.9 10.2a.45.45 0 1 1-.9 0 .45.45 0 0 1 .9 0Zm5.26-5.646c-.02-.176.16-.327.39-.327s.41.151.39.327l-.177 1.548h-.426l-.176-1.548Zm.705 2.173a.313.313 0 1 1-.625 0 .313.313 0 0 1 .625 0Z"/>
  <path d="M10.5 11.5a2.5 2.5 0 1 0 5 0 2.5 2.5 0 0 0-5 0Zm4.594 0a2.094 2.094 0 1 1-4.188 0 2.094 2.094 0 0 1 4.188 0Z"/>
</svg>