<svg xmlns="http://www.w3.org/2000/svg" width="16" height="16" fill="currentColor" class="qi-1704" viewBox="0 0 16 16">
  <path d="M2.254 4.524c-2.386 3.365-.947 6.522 2 9.47-1.438.312-2.421.555-3.754.867 3.228 1.11 6.912.729 9.58-.798a3.36 3.36 0 0 1-.913-2.289 3.372 3.372 0 0 1 3.368-3.433 3.2 3.2 0 0 1 1.403.311c.316-2.324-.982-4.474-2.982-6.555C12.08 1.68 12.921 1.401 14.5.811 9.202.014 5.026.57 2.254 4.524ZM7.482 6.12c1.053 0 1.895.832 1.895 1.873 0 1.04-.842 1.874-1.895 1.874a1.878 1.878 0 0 1-1.895-1.874c0-1.04.843-1.873 1.895-1.873Zm5.271 6.49a.344.344 0 1 1 0 .687.344.344 0 0 1 0-.688Z"/>
  <path d="M12.75 10.203c.252 0 .45.167.428.36l-.194 1.702h-.468l-.194-1.702c-.022-.193.176-.36.428-.36Z"/>
  <path d="M12.75 9a2.75 2.75 0 1 1 0 5.5 2.75 2.75 0 0 1 0-5.5Zm0 .447a2.303 2.303 0 1 0 0 4.605 2.303 2.303 0 0 0 0-4.605Z"/>
</svg>