<svg xmlns="http://www.w3.org/2000/svg" width="16" height="16" fill="currentColor" class="qi-1705" viewBox="0 0 16 16">
  <path d="M11.8 9.267H1.15c-.35 0-.6.2-.6.5 0 .25.25.5.6.5h9.4c.35-.45.8-.8 1.25-1ZM.55 11.617c0 .3.25.5.6.5H9.8c.05-.35.1-.65.25-1h-8.9c-.35 0-.6.2-.6.5Zm.6 1.25c-.35 0-.6.2-.6.5 0 .25.25.5.6.5h8.9c-.15-.3-.2-.6-.25-1H1.15Zm.7-4.15h3c2-.05 2.7-1.45 2.7-1.5.25-.4.35-.9.35-1.4.05-1.6-1.25-2.9-2.85-2.9-1.2 0-2.3.75-2.7 1.9-.5-.1-1.05 0-1.5.3-.55.4-.85 1-.85 1.65 0 .8.5 1.5 1.2 1.8.2.1.4.15.65.15Zm-.45-2.8c.15-.1.35-.15.55-.15.15 0 .35.05.45.15l.6.3.1-.7c.15-.95.95-1.65 1.95-1.65 1.1 0 1.95.9 1.95 1.95 0 .4-.1.7-.25 1-.65.8-1.6 1-1.75 1H1.85c-.05 0-.15 0-.2-.05l-.05-.05c-.4-.15-.65-.55-.65-.95 0-.35.15-.65.45-.85Zm7.8-4.7c1.35 0 2.5.75 3.1 1.9.15.3.25.6.35.9.15-.05.25-.05.4-.05.2 0 .4.05.6.1.8.25 1.35.95 1.35 1.8a1.9 1.9 0 0 1-1.9 1.9H7.95c-.15.25-.45.55-.85.85.1.05.2.1.35.1h5.7c1.6 0 2.85-1.3 2.85-2.85 0-1.5-1.15-2.7-2.6-2.85-.7-1.6-2.25-2.75-4.15-2.75-1.6 0-3 .85-3.8 2.1.35.05.65.15.95.25.65-.85 1.65-1.4 2.8-1.4Zm3.91 10.204c-.02-.176.16-.327.39-.327s.41.151.39.327l-.177 1.548h-.426l-.176-1.548Zm.705 2.173a.313.313 0 1 1-.625 0 .313.313 0 0 1 .625 0Z"/>
  <path d="M11 12.5a2.5 2.5 0 1 0 5 0 2.5 2.5 0 0 0-5 0Zm4.594 0a2.094 2.094 0 1 1-4.188 0 2.094 2.094 0 0 1 4.188 0Z"/>
</svg>