<svg xmlns="http://www.w3.org/2000/svg" width="16" height="16" fill="currentColor" class="qi-1706" viewBox="0 0 16 16">
  <path d="M7.861 12.764c-.035-.104-.139-.104-.244-.104h-.973c.278-.383.556-.8.835-1.217H6.087c-.07 0-.104.034-.139.104l-.835 1.774c-.105.209-.035.313.208.348h.731c-.035.07-.07.104-.07.139-.313.521-.591 1.008-.904 1.53-.07.14-.07.244.035.314.104.069.208.035.313-.07.8-.835 1.6-1.705 2.365-2.539.07-.104.105-.174.07-.278Zm-2.54-1.425h-.834c-.105 0-.14.034-.175.104-.278.765-.556 1.495-.835 2.261-.139.521-.347 1.043-.521 1.565a.425.425 0 0 0 .487.591c.208-.034.313-.173.348-.348.452-1.252.939-2.539 1.392-3.791.069-.139.104-.244.139-.383Zm-1.495 0h-.87c-.069 0-.104.034-.104.069-.07.244-.174.452-.244.696-.243.626-.452 1.252-.695 1.878-.105.279.035.522.278.626.209.07.453-.07.522-.313.244-.626.487-1.287.696-1.913.174-.383.313-.695.417-1.043Zm5.079.138c-.07 0-.105.035-.105.07-.07.243-.174.452-.244.695-.243.626-.451 1.252-.695 1.879-.104.278.035.521.279.626.208.07.451-.07.521-.313.244-.626.487-1.287.696-1.913.139-.348.243-.661.382-1.009-.279-.035-.556-.035-.835-.035Zm-6.47-6.33a2.295 2.295 0 0 1 1.391-.452c.418 0 .836.104 1.183.313l.591.348.105-.696C6.053 2.504 7.862.94 10.053.94a4.386 4.386 0 0 1 4.382 4.383c0 .8-.208 1.564-.626 2.226.314.069.592.208.87.348a5.341 5.341 0 0 0 .661-2.574C15.34 2.4 12.94 0 10.018 0a5.26 5.26 0 0 0-5.113 3.896 3.016 3.016 0 0 0-1.113-.209c-.695 0-1.356.209-1.912.626A3.453 3.453 0 0 0 .349 7.165c0 1.391.87 2.679 2.192 3.2.313.174.695.278 1.043.278h6.018c.034-.313.069-.626.173-.939H3.654c-.208 0-.417-.069-.626-.174l-.07-.034c-.974-.383-1.635-1.322-1.635-2.331 0-.765.418-1.565 1.114-2.018h-.002ZM12.61 9.421c-.02-.176.16-.327.39-.327s.41.151.39.327l-.177 1.548h-.426L12.61 9.42Zm.705 2.173a.313.313 0 1 1-.625 0 .313.313 0 0 1 .625 0Z"/>
  <path d="M10.5 10.5a2.5 2.5 0 1 0 5 0 2.5 2.5 0 0 0-5 0Zm4.594 0a2.094 2.094 0 1 1-4.188 0 2.094 2.094 0 0 1 4.188 0Z"/>
</svg>