<svg xmlns="http://www.w3.org/2000/svg" width="16" height="16" fill="currentColor" class="qi-1707" viewBox="0 0 16 16">
  <path d="M4.5 3a.5.5 0 0 0-.5.5v6.063a2 2 0 1 0 1 0V3.5a.5.5 0 0 0-.5-.5Z"/>
  <path d="m3.2 8.399-.532.356a3.3 3.3 0 1 0 3.665 0L5.8 8.399V2.5a1.3 1.3 0 0 0-2.6 0v5.899ZM2 2.5a2.5 2.5 0 0 1 5 0v5.258a4.5 4.5 0 1 1-5 0V2.5Zm8 9.876.666.624 1.834-2.476L14.334 13l.666-.624L12.5 9 10 12.376Z"/>
  <path d="m10 9.376.666.624L12.5 7.524 14.334 10 15 9.376 12.5 6 10 9.376Z"/>
  <path d="M10.666 7 10 6.376 12.5 3 15 6.376 14.334 7 12.5 4.524 10.666 7Z"/>
</svg>