<svg xmlns="http://www.w3.org/2000/svg" width="16" height="16" fill="currentColor" class="qi-1708" viewBox="0 0 16 16">
  <path d="M10.833 13c1.809-.038 2.828.07 4.594.485a.47.47 0 0 0 .562-.377.497.497 0 0 0-.357-.593c-1.84-.432-2.934-.548-4.818-.508-1.174.025-2.072.274-2.922.51l-.012.003c-.852.236-1.657.458-2.713.48-1.809.038-2.828-.07-4.594-.485a.47.47 0 0 0-.562.377.497.497 0 0 0 .357.593c1.84.432 2.934.548 4.818.508 1.174-.025 2.072-.274 2.922-.51l.012-.003c.852-.236 1.657-.458 2.713-.48Zm0 2c1.809-.038 2.828.07 4.594.485a.47.47 0 0 0 .562-.377.497.497 0 0 0-.357-.593c-1.84-.432-2.934-.548-4.818-.508-1.174.025-2.072.274-2.922.51l-.012.003c-.852.236-1.657.458-2.713.48-1.809.038-2.828-.07-4.594-.485a.47.47 0 0 0-.562.377.497.497 0 0 0 .357.593c1.84.432 2.934.547 4.818.508 1.174-.025 2.072-.274 2.922-.51l.012-.003c.852-.236 1.657-.458 2.713-.48Z"/>
  <path d="M7.406 2.056 1.196 4.66c-.368.153-.337.693.046.794l1.192.313-1.778 6.77c1.716.398 2.73.502 4.511.464 1.056-.022 1.861-.244 2.713-.48l.012-.003c.432-.12.876-.243 1.362-.338l1.135-4.324 1.193.314c.382.1.675-.355.43-.67l-4.13-5.317a.404.404 0 0 0-.476-.126ZM4.704 8.93l2.386.627c.22.058.351.283.293.503l-.626 2.386a.411.411 0 0 1-.503.293l-2.386-.627a.411.411 0 0 1-.293-.502L4.2 9.223a.411.411 0 0 1 .503-.294Zm8.406-7.509c-.02-.176.16-.327.39-.327s.41.151.39.327l-.177 1.548h-.426L13.11 1.42Zm.705 2.173a.312.312 0 1 1-.625 0 .312.312 0 0 1 .625 0Z"/>
  <path d="M11 2.5a2.5 2.5 0 1 0 5 0 2.5 2.5 0 0 0-5 0Zm4.594 0a2.094 2.094 0 1 1-4.188 0 2.094 2.094 0 0 1 4.188 0Z"/>
</svg>