<svg xmlns="http://www.w3.org/2000/svg" width="16" height="16" fill="currentColor" class="qi-1709" viewBox="0 0 16 16">
  <path d="M11.833 14c1.809-.038 2.828.07 4.594.485a.47.47 0 0 0 .562-.377.497.497 0 0 0-.357-.593c-1.84-.432-2.934-.548-4.818-.508-1.174.025-2.072.274-2.922.51l-.012.003c-.852.236-1.657.458-2.713.48-1.809.038-2.828-.07-4.594-.485a.47.47 0 0 0-.562.377.497.497 0 0 0 .357.593c1.84.432 2.934.548 4.818.508 1.174-.025 2.072-.274 2.922-.51l.012-.003c.852-.236 1.657-.458 2.713-.48Zm0 2c1.809-.038 2.828.07 4.594.485a.47.47 0 0 0 .562-.377.497.497 0 0 0-.357-.593c-1.84-.432-2.934-.548-4.818-.508-1.174.025-2.072.274-2.922.51l-.012.003c-.852.236-1.657.458-2.713.48-1.809.038-2.828-.07-4.594-.485a.47.47 0 0 0-.562.377.497.497 0 0 0 .357.593c1.84.432 2.934.547 4.818.508 1.174-.025 2.072-.274 2.922-.51l.012-.003c.852-.236 1.657-.458 2.713-.48Zm-.084-6.458L14.599 4 17 11h-4.865l.264 1H.892l3.214-5.67 1.842 2.9L9.48.967l2.269 8.575Zm.85.401h3.063L14.437 6.37 12.6 9.943Z"/>
</svg>