<svg xmlns="http://www.w3.org/2000/svg" width="16" height="16" fill="currentColor" class="qi-1710" viewBox="0 0 16 16">
  <path d="m12.521 1.77-3.63 3.631 1.833 3.664 4.895-.98-.13 1.558-2.647.882-.113.037-.082.085L10 14l2.5-1.793L13 16H0V6.5L1 4l2.584-.827 1.83 3.773-1.271 1.697-2.18 1.634L3 14l.036-3.278 1.47-1.103 2.955 2.111L7.5 15l1.038-3.73-3.331-2.38L6.4 7.3l.185-.247-.138-.277L4.65 2.832 10.5.962l2.021.809Z"/>
  <path d="M14.96 16H13l.5-4.64 1.9-.633L14.96 16Zm1.07-12.827-.325 3.876-4.429.886-1.168-2.336 3.424-3.425 2.497.999Z"/>
</svg>