<svg xmlns="http://www.w3.org/2000/svg" width="16" height="16" fill="currentColor" class="qi-1805" viewBox="0 0 16 16">
  <path d="M9.558 0h5.403c.264 0 .422.311.279.548l-2.975 3.85a.173.173 0 0 0 .05.232.147.147 0 0 0 .08.024h3.13c.416 0 .63.53.345.855L6.62 16l2.203-8.082a.177.177 0 0 0-.025-.146.159.159 0 0 0-.055-.048.148.148 0 0 0-.07-.018H5.476a.451.451 0 0 1-.236-.067.49.49 0 0 1-.173-.183.532.532 0 0 1-.006-.503L9.06.311C9.16.119 9.35 0 9.557 0ZM3.266 9.376a.171.171 0 0 1-.195-.181L3.43 4 .02 10.607c-.064.125.042.268.185.248l1.673-.231a.171.171 0 0 1 .195.181L1.714 16l3.41-6.607c.064-.125-.043-.268-.185-.248l-1.673.231Z"/>
  <path d="M3.266 9.376a.171.171 0 0 1-.195-.181L3.43 4 .02 10.607c-.064.125.042.268.185.248l1.673-.231a.171.171 0 0 1 .195.181L1.714 16l3.41-6.607c.064-.125-.043-.268-.185-.248l-1.673.231Z"/>
</svg>