<svg xmlns="http://www.w3.org/2000/svg" width="16" height="16" fill="currentColor" class="qi-2001" viewBox="0 0 16 16">
  <path d="M2 7h6a1 1 0 1 0-.943-1.333.5.5 0 1 1-.943-.334A2 2 0 1 1 8 8H2a.5.5 0 0 1 0-1Z"/>
  <path d="M11.079 6.375A2.5 2.5 0 0 1 16 7c0 1.397-1.24 2.5-2.5 2.5H.5a.5.5 0 0 1 0-1h13c.74 0 1.5-.688 1.5-1.5a1.5 1.5 0 0 0-2.953-.375.5.5 0 1 1-.968-.25ZM2.5 10.5A.5.5 0 0 1 3 10h8a2 2 0 1 1-1.886 2.667.5.5 0 1 1 .943-.334A1 1 0 1 0 11 11H3a.5.5 0 0 1-.5-.5ZM2.642.394a.164.164 0 0 0-.284 0L.022 4.444a.162.162 0 0 0 .142.244h4.672a.162.162 0 0 0 .142-.243L2.642.395Zm-.531 1.34c-.02-.176.16-.328.389-.328.23 0 .41.152.39.328L2.712 3.28h-.426L2.11 1.734Zm.704 2.172a.312.312 0 1 1-.625 0 .312.312 0 0 1 .625 0Z"/>
</svg>