<svg xmlns="http://www.w3.org/2000/svg" width="16" height="16" fill="currentColor" class="qi-2001" viewBox="0 0 16 16">
  <path d="M8.348 10.759c1.4 0 2.535 1.173 2.535 2.62S9.747 15.999 8.348 16c-1.4-.002-2.533-1.175-2.536-2.621 0-.21.165-.381.369-.381.203 0 .368.17.368.38 0 1.028.805 1.86 1.799 1.86.993 0 1.797-.832 1.797-1.86 0-1.026-.804-1.857-1.797-1.857h-6.98A.375.375 0 0 1 1 11.14c0-.21.165-.381.368-.381h6.98Zm3.262-8.827c1.835-.022 3.346 1.418 3.389 3.23.043 1.812-1.398 3.32-3.232 3.384a.591.591 0 0 1-.136.004H1.378A.376.376 0 0 1 1 8.177c0-.206.17-.373.378-.373h10.32c1.427-.027 2.564-1.186 2.546-2.595-.018-1.408-1.184-2.539-2.611-2.53-1.427.009-2.579 1.153-2.58 2.562a.375.375 0 0 1-.377.373.375.375 0 0 1-.377-.373c-.001-1.812 1.475-3.288 3.31-3.31Z"/>
  <path d="M4.056 0c1.496 0 2.709 1.172 2.709 2.617s-1.213 2.616-2.71 2.616l-.075.008H1.394A.387.387 0 0 1 1 4.861c0-.21.176-.38.394-.38h2.662c1.06 0 1.92-.83 1.922-1.854C5.978 1.603 5.12.77 4.06.769 3 .766 2.138 1.593 2.134 2.617c0 .21-.176.38-.394.38a.387.387 0 0 1-.393-.38C1.347 1.172 2.56 0 4.056 0Z"/>
</svg>