<svg xmlns="http://www.w3.org/2000/svg" width="16" height="16" fill="currentColor" class="qi-2002" viewBox="0 0 16 16">
  <path d="M8.138 0c.228 0 .414.22.414.491v3.985l1.927-1.856a.5.5 0 0 1 .47-.121c.168.043.3.17.345.332a.458.458 0 0 1-.126.453L8.552 5.82v1.905h1.9l2.263-2.342a.456.456 0 0 1 .659 0 .496.496 0 0 1 0 .682l-1.604 1.66h3.739c.271 0 .49.184.491.413 0 .228-.22.414-.491.414h-3.98l1.85 1.916a.498.498 0 0 1 .103.527.504.504 0 0 1-.412.316.46.46 0 0 1-.332-.141L10.21 8.552H8.552v1.643l2.618 2.527a.454.454 0 0 1 0 .656.491.491 0 0 1-.685 0L8.552 11.54v3.969c0 .271-.186.491-.414.491-.228 0-.413-.22-.413-.491v-3.725l-1.657 1.599a.492.492 0 0 1-.346.135.483.483 0 0 1-.445-.29.454.454 0 0 1 .107-.506l2.34-2.26v-1.91H6.1l-2.55 2.655a.452.452 0 0 1-.326.102.466.466 0 0 1-.43-.302.5.5 0 0 1 .103-.528l1.85-1.927H.49c-.27 0-.49-.186-.49-.414 0-.229.22-.413.491-.413h3.993l-1.59-1.659a.499.499 0 0 1 0-.683.452.452 0 0 1 .657 0l2.247 2.342h1.927V5.523l-2.34-2.235a.459.459 0 0 1-.144-.331.46.46 0 0 1 .144-.332.499.499 0 0 1 .684 0l1.656 1.594V.49c0-.271.185-.49.413-.491Z"/>
</svg>