<svg xmlns="http://www.w3.org/2000/svg" width="16" height="16" fill="currentColor" class="qi-2002" viewBox="0 0 16 16">
  <path d="M8.5.5a.5.5 0 1 0-1 0v1.293l-.646-.647a.5.5 0 1 0-.707.708L7.5 3.207v1.05L5.676 6.082a.507.507 0 0 0-.024-.015l-1.553-.896-.495-1.85a.5.5 0 1 0-.966.26l.237.882-1.12-.646a.5.5 0 0 0-.5.866l1.12.646-.883.237a.5.5 0 0 0 .258.966l1.85-.495 1.344.776L3.757 8l1.187 1.187-1.345.776-1.849-.495a.5.5 0 0 0-.258.966l.883.237-1.12.646a.5.5 0 1 0 .5.866l1.12-.646-.237.883a.5.5 0 1 0 .966.258l.495-1.849 1.553-.896a.514.514 0 0 0 .024-.015L7.5 11.743v1.05l-1.353 1.353a.5.5 0 0 0 .707.708l.646-.647V15.5a.5.5 0 0 0 1 0v-1.293l.647.647a.5.5 0 0 0 .707-.708L8.5 12.793v-1.05l1.824-1.825.024.015 1.553.896.495 1.85a.5.5 0 1 0 .966-.26l-.236-.882 1.12.646a.5.5 0 0 0 .5-.866l-1.12-.646.883-.237a.5.5 0 0 0-.26-.966l-1.848.495-1.345-.776L12.243 8l-1.187-1.187 1.345-.776 1.849.495a.5.5 0 0 0 .259-.966l-.883-.237 1.12-.646a.5.5 0 1 0-.5-.866l-1.12.646.236-.883a.5.5 0 0 0-.966-.258l-.495 1.849-1.553.896a.555.555 0 0 0-.024.015L8.5 4.257v-1.05l1.354-1.353a.5.5 0 0 0-.707-.708l-.647.647V.5ZM7.11 6.602c-.057-.362.17-.8.496-.997.256-.153.551-.133.806.023l.07.042a.846.846 0 0 1 .409.853L8.532 8.8H7.454L7.11 6.602ZM8.599 9.9a.6.6 0 1 1-1.199 0 .6.6 0 0 1 1.2 0Z"/>
</svg>