<svg xmlns="http://www.w3.org/2000/svg" width="16" height="16" fill="currentColor" class="qi-2003" viewBox="0 0 16 16">
  <path d="M12.227 8.63a.263.263 0 0 0-.454 0l-3.738 6.482a.26.26 0 0 0 .227.388h7.476a.26.26 0 0 0 .227-.388L12.227 8.63Zm-.85 2.144c-.032-.281.256-.524.623-.524s.655.242.623.524l-.282 2.476h-.682l-.282-2.476Zm1.127 3.476a.5.5 0 1 1-1 0 .5.5 0 0 1 1 0ZM.5 1.5a.5.5 0 0 0 0 1h15a.5.5 0 0 0 0-1H.5ZM.5 4a.5.5 0 0 0 0 1h8a.5.5 0 0 0 0-1h-8ZM7 7a.5.5 0 0 1 .5-.5h8a.5.5 0 0 1 0 1h-8A.5.5 0 0 1 7 7Zm3.5-3a.5.5 0 0 0 0 1h5a.5.5 0 0 0 0-1h-5ZM0 7a.5.5 0 0 1 .5-.5h5a.5.5 0 0 1 0 1h-5A.5.5 0 0 1 0 7Zm.5 2a.5.5 0 0 0 0 1h8a.5.5 0 0 0 0-1h-8Z"/>
</svg>