<svg xmlns="http://www.w3.org/2000/svg" width="16" height="16" fill="currentColor" class="qi-2004" viewBox="0 0 16 16">
  <path d="M11.59 13.18c1.21 0 1.778.725 2.27 1.297.453.532.642.761 1.133.761.227 0 .454.153.454.381a.38.38 0 0 1-.378.381c-.87 0-1.286-.495-1.702-1.028-.454-.534-.832-1.03-1.702-1.03s-1.247.496-1.701 1.03C9.51 15.505 9.094 16 8.262 16h-.076c-.87 0-1.286-.495-1.702-1.028-.453-.534-.832-1.03-1.702-1.03s-1.248.496-1.702 1.03C2.626 15.505 2.21 16 1.378 16 1.15 16 1 15.848 1 15.62a.38.38 0 0 1 .378-.382c.491 0 .719-.266 1.135-.761.491-.572 1.059-1.296 2.27-1.296 1.21 0 1.776.724 2.268 1.296.416.495.643.723 1.06.761h.113c.453 0 .68-.266 1.096-.761.492-.572 1.06-1.296 2.27-1.296ZM6.673 0c1.021 0 1.891.838 1.891 1.904V4.23c0 .914-.643 1.676-1.513 1.867v.914h2.837c.075 0 1.323-.038 2.08.685.302.305.492.762.492 1.257v1.144c.718.228 1.134.723 1.513 1.18.453.534.643.762 1.134.762a.38.38 0 0 1 0 .762c-.87 0-1.286-.495-1.702-1.029-.454-.533-.832-1.028-1.702-1.028s-1.248.495-1.702 1.028c-.454.534-.87 1.029-1.702 1.029h-.075c-.87 0-1.287-.495-1.703-1.029-.453-.533-.832-1.028-1.702-1.028s-1.247.495-1.7 1.028c-.455.534-.871 1.029-1.703 1.029a.38.38 0 0 1 0-.762c.492 0 .719-.266 1.135-.762.491-.571 1.058-1.294 2.268-1.295 1.21 0 1.778.724 2.27 1.295.378.496.606.762 1.06.762h.113c.454 0 .68-.267 1.096-.762.492-.571 1.06-1.295 2.27-1.295l.037-1.029a.978.978 0 0 0-.303-.723c-.524-.491-1.531-.496-1.55-.496H1.379a.38.38 0 0 1 0-.761h4.917v-.914c-.87-.153-1.513-.953-1.513-1.868V1.904C4.782.876 5.652 0 6.672 0Zm0 .762c-.643 0-1.135.495-1.135 1.142V4.19c0 .534.303.953.757 1.143V3.886a.38.38 0 0 1 .378-.381.38.38 0 0 1 .378.38v1.448c.454-.152.795-.61.795-1.104V1.942c0-.647-.53-1.18-1.173-1.18Z"/>
</svg>