<svg xmlns="http://www.w3.org/2000/svg" width="16" height="16" fill="currentColor" class="qi-2005" viewBox="0 0 16 16">
  <path d="M10.476 16a.785.785 0 0 1-.667-.372.749.749 0 0 1-.029-.741c.58-1.146 1.028-2.673.473-3.344-1.782.238-2.987-.086-3.588-.957a2.272 2.272 0 0 1-.385-1.261c-1.243 1.752-1.006 4.007-.518 5.697a.752.752 0 0 1-.124.667.802.802 0 0 1-1.06.18c-.125-.082-3.078-2.046-3.078-5.14 0-2.505 1.5-3.892 2.825-5.12C5.742 4.291 6.968 3.154 6.968.768a.766.766 0 0 1 .445-.696.783.783 0 0 1 .827.106c3.056 2.53 6.25 6.876 6.051 10.428-.116 2.091-1.242 3.864-3.384 5.263a.773.773 0 0 1-.43.131ZM7.792.858c-.037 2.672-1.495 4.023-2.9 5.32-1.325 1.248-2.568 2.415-2.568 4.55 0 2.366 2.071 4.003 2.597 4.384-.596-2.153-.799-5.095 1.48-7.15l.231-.188a.418.418 0 0 1 .493-.049.406.406 0 0 1 .17.458l-.083.299a1.956 1.956 0 0 0 .116 1.662c.414.614 1.417.818 2.945.585h.046c.12-.017.24.02.331.098l.034.024c1.217 1.065.413 3.217-.1 4.257 1.802-1.228 2.767-2.755 2.866-4.502.195-3.286-2.783-7.334-5.658-9.748Z"/>
</svg>