<svg xmlns="http://www.w3.org/2000/svg" width="16" height="16" fill="currentColor" class="qi-2006" viewBox="0 0 16 16">
  <path d="M4.9 11.8a.6.6 0 1 1 0 1.2.6.6 0 0 1 .001-1.2Zm-.395-3.695c.256-.153.552-.132.807.023l.07.042a.847.847 0 0 1 .408.853L5.432 11.3H4.354L4.01 9.102c-.057-.362.17-.8.496-.997Z"/>
  <path d="M5.614 1.854C7.702 4.82 10 8.726 10 11a5 5 0 0 1-10 0c0-2.274 2.298-6.181 4.386-9.146.207-.294.413-.58.614-.854.201.274.407.56.614.854ZM5 2.721C4.14 3.959 3.263 5.337 2.547 6.67c-.472.878-.865 1.72-1.138 2.477C1.132 9.917 1 10.541 1 11a4 4 0 0 0 8 0c0-.46-.132-1.083-.41-1.853-.272-.757-.665-1.6-1.137-2.477C6.737 5.337 5.86 3.959 5 2.72ZM13.512.638C14.724 2.193 16 4.166 16 5.333c0 .707-.316 1.386-.879 1.886S13.796 8 13 8s-1.559-.281-2.121-.781C10.316 6.719 10 6.04 10 5.333c0-1.167 1.276-3.14 2.488-4.695.173-.222.345-.436.512-.638.167.202.339.416.512.638ZM13 1.283c-.466.607-.93 1.266-1.315 1.903-.279.46-.507.894-.662 1.279-.16.395-.223.684-.223.868 0 .463.206.929.61 1.288.408.362.978.58 1.59.58.612 0 1.182-.218 1.59-.58.404-.36.61-.825.61-1.288 0-.184-.062-.473-.223-.868a9.347 9.347 0 0 0-.662-1.28A21.309 21.309 0 0 0 13 1.284Z"/>
</svg>