<svg xmlns="http://www.w3.org/2000/svg" width="16" height="16" fill="currentColor" class="qi-2006" viewBox="0 0 16 16">
  <path d="M0 11a5 5 0 1 0 10 0c0-2.5-2.777-6.975-5-10-2.223 3.025-5 7.5-5 10Zm4.009-2.898c-.057-.362.17-.8.496-.997.256-.153.551-.133.806.023l.07.042a.846.846 0 0 1 .409.853L5.432 10.3H4.354L4.01 8.102ZM5.5 11.4a.6.6 0 1 1-1.2 0 .6.6 0 0 1 1.2 0Zm5.3-6.067c0-.184.062-.472.223-.868.155-.384.383-.819.662-1.28.384-.636.85-1.295 1.315-1.901.466.606.93 1.265 1.316 1.901.278.461.505.896.661 1.28.16.396.223.684.223.868 0 .463-.206.929-.61 1.288A2.401 2.401 0 0 1 13 7.2a2.401 2.401 0 0 1-1.59-.579c-.404-.36-.61-.825-.61-1.288ZM12.488.637C11.276 2.193 10 4.167 10 5.333c0 .708.316 1.386.879 1.886.562.5 1.325.781 2.121.781s1.559-.28 2.121-.781c.563-.5.879-1.178.879-1.886 0-1.166-1.276-3.14-2.488-4.696A28.476 28.476 0 0 0 13 0c-.167.202-.338.415-.512.637Z"/>
</svg>