<svg xmlns="http://www.w3.org/2000/svg" width="16" height="16" fill="currentColor" class="qi-2007" viewBox="0 0 16 16">
  <path d="M10.586 5.414A2 2 0 0 1 10 4c0-1 1.11-2.79 2-4 .89 1.21 2 3 2 4a2 2 0 0 1-3.414 1.414ZM10.833 13c1.809-.038 2.828.07 4.594.485a.47.47 0 0 0 .562-.377.497.497 0 0 0-.357-.593c-1.84-.432-2.934-.548-4.818-.508-1.174.025-2.072.274-2.922.51l-.012.003c-.852.236-1.657.458-2.713.48-1.809.038-2.828-.07-4.594-.485a.47.47 0 0 0-.562.377.497.497 0 0 0 .357.593c1.84.432 2.934.548 4.818.508 1.174-.025 2.072-.274 2.922-.51l.012-.003c.852-.236 1.657-.458 2.713-.48Zm0 2c1.809-.038 2.828.07 4.594.485a.47.47 0 0 0 .562-.377.497.497 0 0 0-.357-.593c-1.84-.432-2.934-.548-4.818-.508-1.174.025-2.072.274-2.922.51l-.012.003c-.852.236-1.657.458-2.713.48-1.809.038-2.828-.07-4.594-.485a.47.47 0 0 0-.562.377.497.497 0 0 0 .357.593c1.84.432 2.934.547 4.818.508 1.174-.025 2.072-.274 2.922-.51l.012-.003c.852-.236 1.657-.458 2.713-.48ZM2.667 7.667a2.667 2.667 0 0 0 5.333 0c0-.307-.088-.722-.273-1.235a12.67 12.67 0 0 0-.759-1.652 27.97 27.97 0 0 0-1.635-2.633A27.974 27.974 0 0 0 3.698 4.78a12.669 12.669 0 0 0-.758 1.652c-.185.513-.273.928-.273 1.235Zm2.257-6.098c.138-.196.275-.387.41-.569a35 35 0 0 1 .409.57c1.392 1.976 2.924 4.58 2.924 6.097a3.333 3.333 0 0 1-6.667 0C2 6.15 3.532 3.546 4.924 1.569Z"/>
</svg>