<svg xmlns="http://www.w3.org/2000/svg" width="16" height="16" fill="currentColor" class="qi-2007" viewBox="0 0 16 16">
  <path d="M11.586 12.981c1.314 0 1.965.777 2.485 1.4.46.546.704.81 1.22.81.225 0 .407.181.407.405a.402.402 0 0 1-.386.404c-.923 0-1.37-.534-1.846-1.1-.476-.567-.932-1.11-1.864-1.11-.93 0-1.386.54-1.841 1.106-.456.566-.928 1.1-1.847 1.1h-.07c-.922 0-1.37-.534-1.846-1.1-.476-.567-.931-1.11-1.862-1.11s-1.403.543-1.883 1.11C1.773 15.462 1.329 16 .406 16a.406.406 0 1 1 0-.81c.517 0 .761-.263 1.22-.81.525-.622 1.176-1.398 2.49-1.399 1.313 0 1.964.777 2.488 1.4.44.522.68.81 1.152.81h.158c.48 0 .724-.268 1.184-.81.524-.623 1.175-1.4 2.488-1.4Zm.227-3.623c1.338 0 2 .776 2.53 1.403.469.545.717.808 1.243.808a.41.41 0 0 1 .414.405.408.408 0 0 1-.41.403c-.822 0-1.274-.408-1.698-.889l-.364-.42c-.426-.483-.885-.901-1.715-.901-.83 0-1.288.402-1.7.896l-.35.431c-.416.49-.887.883-1.705.883h-.07c-.823 0-1.275-.408-1.699-.889l-.363-.42c-.427-.483-.885-.901-1.715-.901-.948 0-1.429.525-1.917 1.111-.489.586-.94 1.099-1.88 1.099A.409.409 0 0 1 0 11.974a.41.41 0 0 1 .414-.405c.526 0 .774-.263 1.242-.808.534-.627 1.197-1.403 2.534-1.403 1.338 0 2 .776 2.535 1.403.45.53.7.808 1.192.808h.157c.489 0 .737-.267 1.205-.808.535-.627 1.197-1.402 2.534-1.403ZM6.023 1c.467 0 .756.325 1.107.786.248.324.524.732.78 1.148.748 1.218 1.128 2.186 1.128 2.872a3.033 3.033 0 0 1-3.015 3.043A3.034 3.034 0 0 1 3 5.809c0-.685.38-1.662 1.128-2.872.239-.397.5-.782.78-1.15C5.26 1.34 5.557 1 6.023 1Zm0 .831c-.066 0-.211.146-.455.462a10.1 10.1 0 0 0-.73 1.077C4.19 4.425 3.826 5.294 3.826 5.81a2.212 2.212 0 0 0 1.068 1.992 2.181 2.181 0 0 0 2.247 0A2.213 2.213 0 0 0 8.208 5.81c0-.516-.36-1.385-1.004-2.44a12.274 12.274 0 0 0-.735-1.077c-.231-.316-.375-.461-.446-.462ZM11.003 0c-.31 0-.507.218-.74.501-.185.235-.358.48-.516.733C9.252 2.005 9 2.628 9 3.064 9.002 4.134 9.898 5 11.003 5 12.107 4.997 13 4.13 13 3.062c0-.437-.252-1.055-.747-1.83A9.075 9.075 0 0 0 11.736.5c-.232-.294-.424-.5-.733-.501Zm0 .53c.046 0 .142.092.295.293.175.22.338.45.487.687.427.672.665 1.226.665 1.554a1.397 1.397 0 0 1-.707 1.269 1.496 1.496 0 0 1-1.49 0 1.396 1.396 0 0 1-.706-1.269c0-.328.241-.882.67-1.554.151-.25.324-.486.485-.687.161-.2.257-.294.3-.294Z"/>
</svg>