<svg xmlns="http://www.w3.org/2000/svg" width="16" height="16" fill="currentColor" class="qi-2007" viewBox="0 0 16 16">
  <path d="M5.144 4.508A.858.858 0 0 0 6 3.65a5.667 5.667 0 0 0-.858-1.717 5.664 5.664 0 0 0-.857 1.717.858.858 0 0 0 .859.858zm9.438 8.585a9.4 9.4 0 0 0-7.382-.234 13.748 13.748 0 0 1-5.314.113.7.7 0 0 0-.24 1.379 19.223 19.223 0 0 0 2.967.241 9.848 9.848 0 0 0 3.034-.406 8.055 8.055 0 0 1 6.239.122.7.7 0 1 0 .7-1.215zm.347-5.8a.357.357 0 0 0 .33-.588l-3.474-3.918a1.009 1.009 0 0 0-1.224-.225l-4.7 2.462a.357.357 0 0 0 .1.668l1.059.188-.836 4.549a16.385 16.385 0 0 1-4.3-.117.7.7 0 0 0-.239 1.379 19.051 19.051 0 0 0 2.964.241 9.807 9.807 0 0 0 3.037-.407 8.071 8.071 0 0 1 6.24.122.7.7 0 1 0 .694-1.214 5.982 5.982 0 0 0-1.207-.478l.5-2.85zm-6.505 2.57.289-1.524a.5.5 0 0 1 .576-.405l1.756.314a.5.5 0 0 1 .4.573l-.137.787h.01a10.618 10.618 0 0 0-2.894.255zm-5.839-3.35a.858.858 0 0 0 .858-.859 5.679 5.679 0 0 0-.858-1.717 5.677 5.677 0 0 0-.859 1.717.858.858 0 0 0 .859.859z"/>
  <path d="M3.86 9.646a.858.858 0 0 0 .859-.858 5.664 5.664 0 0 0-.859-1.717A5.667 5.667 0 0 0 3 8.788a.858.858 0 0 0 .86.858z"/>
</svg>