<svg xmlns="http://www.w3.org/2000/svg" width="16" height="16" fill="currentColor" class="qi-2007" viewBox="0 0 16 16">
  <path d="M5.091 4.58c.47 0 .86-.38.86-.86 0-.47-.86-1.72-.86-1.72s-.86 1.24-.86 1.72c0 .47.38.86.86.86zm9.43 8.58c-.12-.07-3.05-1.7-7.38-.23-2 .67-5.28.12-5.31.11a.708.708 0 0 0-.81.57.7.7 0 0 0 .57.81c.09.02 1.42.24 2.97.24 1.01 0 2.11-.1 3.03-.41 3.71-1.25 6.14.07 6.24.12.33.19.76.08.96-.26.19-.33.07-.76-.27-.95zm.35-5.8c.33.06.55-.34.33-.59l-3.47-3.92a.994.994 0 0 0-1.22-.22l-4.7 2.46c-.3.16-.23.61.1.67l1.05.19-.84 4.55c-1.93.28-4.27-.11-4.3-.12a.7.7 0 0 0-.24 1.38c.09.02 1.41.24 2.96.24 1.01 0 2.12-.09 3.04-.41 3.71-1.25 6.14.07 6.24.12a.704.704 0 0 0 .7-1.22c-.04-.03-.47-.26-1.21-.48l.5-2.85 1.06.2zm-6.5 2.57.29-1.52c.05-.27.3-.45.58-.4l1.76.31c.27.05.45.3.4.57l-.14.79h.01c-.84-.05-1.82.01-2.9.25zm-5.84-3.35c.47 0 .86-.38.86-.86S2.531 4 2.531 4s-.86 1.24-.86 1.72.38.86.86.86z"/>
  <path d="M3.801 9.72c.47 0 .86-.38.86-.86s-.86-1.72-.86-1.72-.86 1.24-.86 1.72.39.86.86.86z"/>
</svg>