<svg xmlns="http://www.w3.org/2000/svg" width="16" height="16" fill="currentColor" class="qi-2009" viewBox="0 0 16 16">
  <path d="M1.84 12.553h12.59c.39 0 .7-.31.7-.7v-7.84c0-.39-.31-.7-.7-.7-.39 0-.7.31-.7.7v7.13H2.54v-7.13c0-.39-.32-.7-.7-.7-.38 0-.7.32-.7.7v7.83c0 .4.32.71.7.71z"/>
  <path d="M4.28 6.743h2.65l-1.32 2.29c-.19.33-.08.76.26.96a.717.717 0 0 0 .96-.26l1.32-2.29 1.32 2.29a.717.717 0 0 0 .96.26.71.71 0 0 0 .26-.96l-1.32-2.29h2.65c.39 0 .7-.31.7-.7 0-.39-.31-.7-.7-.7H9.37l1.32-2.29c.19-.33.08-.76-.26-.96a.707.707 0 0 0-.96.26l-1.32 2.29-1.32-2.29a.71.71 0 0 0-.96-.26.71.71 0 0 0-.26.96l1.32 2.29H4.28c-.39 0-.7.31-.7.7 0 .39.31.7.7.7zm10.3 7.02H1.7c-.39 0-.7.31-.7.7 0 .39.31.7.7.7h12.88c.39 0 .7-.31.7-.7 0-.39-.31-.7-.7-.7z"/>
</svg>