<svg xmlns="http://www.w3.org/2000/svg" width="16" height="16" fill="currentColor" class="qi-2010" viewBox="0 0 16 16">
  <g clip-path="url(#a)">
    <path d="M5.96 3.5a1 1 0 1 0 0-2 1 1 0 0 0 0 2zm8.09 3.69a1 1 0 1 0 0-2 1 1 0 0 0 0 2zM3.86 14.04a1.31 1.31 0 1 0 0-2.62 1.31 1.31 0 0 0 0 2.62zM9.54 3.9c0-.41-.34-.75-.75-.75s-.75.34-.75.75.34.75.75.75c.42 0 .75-.34.75-.75zm-1.49 7.35a.87.87 0 1 0 .001 1.741.87.87 0 0 0-.001-1.741z"/>
    <path d="M12.83 4.11C12.83 2.4 11.53 1 9.92 1H8.71c-.39 0-.7.31-.7.7 0 .39.31.7.7.7h1.21c.83 0 1.51.77 1.51 1.71s-.68 1.71-1.51 1.71H1.7c-.39 0-.7.32-.7.7 0 .38.31.7.7.7h8.22c1.61 0 2.91-1.39 2.91-3.11zm-1.35 4.52H2.65c-.39 0-.7.31-.7.7 0 .39.31.7.7.7h8.83c.92 0 1.67.81 1.67 1.8s-.75 1.8-1.67 1.8h-1.3c-.39 0-.7.31-.7.7 0 .39.31.7.7.7h1.3c1.69 0 3.07-1.44 3.07-3.21 0-1.75-1.38-3.19-3.07-3.19z"/>
  </g>
  <defs>
    <clipPath id="a">
      <path d="M0 0h14.05v14.04H0z" transform="translate(1 1)"/>
    </clipPath>
  </defs>
</svg>