<svg xmlns="http://www.w3.org/2000/svg" width="16" height="16" fill="currentColor" class="qi-2010" viewBox="0 0 16 16">
  <circle cx="5.943" cy="2.499" r="1"/>
  <circle cx="14.036" cy="6.182" r="1"/>
  <circle cx="3.846" cy="12.721" r="1.308"/>
  <path d="M9.528 3.891a.75.75 0 1 0-.75.75.75.75 0 0 0 .75-.75zm-1.49 7.358a.871.871 0 1 0 .871.871.871.871 0 0 0-.871-.871z"/>
  <path d="M12.817 4.107A3.02 3.02 0 0 0 9.909 1H8.7a.7.7 0 0 0 0 1.4h1.209a1.621 1.621 0 0 1 1.508 1.711 1.621 1.621 0 0 1-1.508 1.708H1.686a.7.7 0 1 0 0 1.4h8.223a3.02 3.02 0 0 0 2.908-3.112zm-1.351 4.516H2.635a.7.7 0 0 0 0 1.4h8.831a1.743 1.743 0 0 1 1.671 1.8 1.744 1.744 0 0 1-1.671 1.8h-1.3a.7.7 0 1 0 0 1.4h1.3a3.143 3.143 0 0 0 3.071-3.2 3.143 3.143 0 0 0-3.071-3.2z"/>
</svg>