<svg xmlns="http://www.w3.org/2000/svg" width="16" height="16" fill="currentColor" class="qi-2011" viewBox="0 0 16 16">
  <path d="M14.58 13.494H1.7c-.39 0-.7.31-.7.7 0 .39.31.7.7.7h12.88c.39 0 .7-.31.7-.7 0-.39-.31-.7-.7-.7zM1.7 12.464h12.88c.39 0 .7-.31.7-.7 0-.39-.31-.7-.7-.7h-3.99l.38-1.29 3.72-1.83c.18-.09.16-.36-.04-.42l-3.44-.99c-.01 0-.01-.01-.02-.01a.7.7 0 0 0-.87.47l-1.12 3.82c-.02.08-.03.17-.02.25H3.42l.69-2.36 9.25-4.55a.5.5 0 0 0-.08-.93l-7.64-2.2s-.01 0-.01-.01h-.01l-.04-.01v.01a.707.707 0 0 0-.82.48l-2.81 9.57H1.7c-.39 0-.7.31-.7.7 0 .39.31.7.7.7z"/>
</svg>