<svg xmlns="http://www.w3.org/2000/svg" width="16" height="16" fill="currentColor" class="qi-2011" viewBox="0 0 16 16">
  <path d="M14.44 13.288H1.56a.7.7 0 1 0 0 1.4h12.88a.7.7 0 1 0 0-1.4zM1.56 12.252h12.88a.7.7 0 1 0 0-1.4h-3.992l.38-1.291 3.724-1.834a.224.224 0 0 0-.038-.417l-3.44-.986c-.008 0-.013-.009-.021-.012a.7.7 0 0 0-.868.475L9.062 10.6a.723.723 0 0 0-.022.248H3.276l.694-2.36 9.247-4.553a.5.5 0 0 0-.083-.929L5.5.818 5.491.812h-.014L5.435.8v.008a.7.7 0 0 0-.811.48l-2.8 9.566H1.56a.7.7 0 1 0 0 1.4z"/>
</svg>