<svg xmlns="http://www.w3.org/2000/svg" width="16" height="16" fill="currentColor" class="qi-2013" viewBox="0 0 16 16">
  <path d="M13.745 8.027V3.749a2.954 2.954 0 0 0-2.95-2.95 2.954 2.954 0 0 0-2.95 2.95v4.278a4.178 4.178 0 0 0-1.25 2.968c0 2.316 1.885 4.2 4.2 4.2 2.315 0 4.2-1.884 4.2-4.2a4.177 4.177 0 0 0-1.25-2.968Zm-2.95 5.768a2.803 2.803 0 0 1-2.8-2.8 2.79 2.79 0 0 1 1.002-2.126.7.7 0 0 0 .248-.534V3.749c0-.854.695-1.55 1.55-1.55.855 0 1.55.695 1.55 1.55v4.586a.7.7 0 0 0 .248.534 2.787 2.787 0 0 1 1.002 2.126c0 1.544-1.256 2.8-2.8 2.8Z"/>
  <path d="M11.245 9.403V5.275a.5.5 0 0 0-1 0v4.141a1.754 1.754 0 0 0 .522 3.431 1.76 1.76 0 0 0 1.759-1.759c0-.805-.543-1.476-1.281-1.685ZM6.399 3.147c-.925.272-1.185 1.055-1.126 1.545-.66-.801-.707-1.725-.633-3.051-2.116.824-1.624 3.201-1.687 3.923-.533-.45-.633-1.525-.633-1.525-.562.298-.844 1.096-.844 1.743 0 1.565 1.26 2.705 2.775 2.705s2.71-1.141 2.71-2.705c0-.93-.64-1.237-.562-2.635Z"/>
</svg>