<svg xmlns="http://www.w3.org/2000/svg" width="16" height="16" fill="currentColor" class="qi-2015" viewBox="0 0 16 16">
  <path d="M14.975 4.9a2.933 2.933 0 0 0-1.75-1.13c-.178-1.577-1.452-2.741-2.859-2.762-1.123-.018-2.192.696-2.695 1.804a2.89 2.89 0 0 0-1.362.553 2.887 2.887 0 0 0-.878 1.082c-1.165-.156-1.991.454-2.353 1.181a1.707 1.707 0 0 0-1.207.131c-.49.259-.873.79-.873 1.414-.001.709.491 1.289 1.08 1.51.73.274 1.378-.09 1.468-.143.17.144.792.638 1.717.639a2.667 2.667 0 0 0 1.473-.45c.177.086.507.221.932.31l-1.183 1.839a.232.232 0 0 0 .203.344h1.56c.05 0 .087.048.073.097L7.246 15.01l4.511-4.793a.23.23 0 0 0-.169-.39h-1.526a.075.075 0 0 1-.063-.117l.88-1.067c.372.21.995.474 1.788.453a3.42 3.42 0 0 0 1.597-.449c.122.057.826.374 1.582.056.768-.323 1.194-1.135 1.156-1.874-.05-.968-.898-1.831-2.027-1.929Z"/>
  <path d="M5.949 11.437H4.915a.05.05 0 0 1-.045-.027.051.051 0 0 1 .002-.052l.983-1.191a.11.11 0 0 0-.092-.169H3.978a.189.189 0 0 0-.164.096l-1.322 2.055a.157.157 0 0 0 .137.233h1.057c.034 0 .059.033.049.066l-.728 2.501 3.056-3.247a.157.157 0 0 0-.114-.265Zm9.261 0h-1.034a.05.05 0 0 1-.051-.053c0-.01.003-.018.008-.026l.983-1.191a.109.109 0 0 0 .004-.112.11.11 0 0 0-.096-.057h-1.785a.189.189 0 0 0-.164.096l-1.322 2.055a.158.158 0 0 0 .06.212c.023.014.05.02.077.021h1.057c.034 0 .059.033.049.066l-.728 2.501 3.056-3.247a.157.157 0 0 0-.114-.265Z"/>
</svg>