<svg xmlns="http://www.w3.org/2000/svg" width="16" height="16" fill="currentColor" class="qi-2015" viewBox="0 0 16 16">
  <g clip-path="url(#a)">
    <path d="M13.97 4.89c-.4-.56-1.03-.97-1.75-1.13-.18-1.58-1.45-2.74-2.86-2.76-1.12-.02-2.19.7-2.69 1.8-.26.03-.81.14-1.36.55-.51.39-.77.85-.88 1.08-1.16-.16-1.99.45-2.35 1.18-.14-.04-.67-.16-1.21.13C.38 6 0 6.53 0 7.15c0 .71.49 1.29 1.08 1.51.73.27 1.38-.09 1.47-.14.17.14.79.64 1.72.64.74 0 1.27-.31 1.47-.45.18.09.51.22.93.31l-1.18 1.84c-.09.15.03.34.2.34h1.56c.05 0 .09.05.07.1l-1.07 3.69 4.51-4.79c.14-.15.03-.39-.17-.39H9.06c-.06 0-.1-.07-.06-.12l.88-1.07c.37.21.99.47 1.79.45.75-.02 1.31-.29 1.6-.45.12.06.83.37 1.58.06.77-.32 1.19-1.14 1.16-1.87-.07-.95-.92-1.82-2.04-1.92z"/>
    <path d="M4.94 11.43H3.91c-.04 0-.07-.04-.04-.08l.98-1.19c.05-.07-.01-.17-.09-.17H2.98c-.07 0-.13.04-.16.1L1.5 12.15c-.06.1.02.23.14.23H2.7c.03 0 .06.03.05.07l-.73 2.5 3.06-3.25c.07-.1 0-.27-.14-.27zm9.26 0h-1.03c-.04 0-.07-.04-.04-.08l.98-1.19c.05-.07-.01-.17-.09-.17h-1.78c-.07 0-.13.04-.16.1l-1.32 2.06c-.06.1.02.23.14.23h1.06c.03 0 .06.03.05.07l-.73 2.5 3.06-3.25c.07-.1 0-.27-.14-.27z"/>
  </g>
  <defs>
    <clipPath id="a">
      <path d="M0 0h16v16H0z"/>
    </clipPath>
  </defs>
</svg>