<svg xmlns="http://www.w3.org/2000/svg" width="16" height="16" fill="currentColor" class="qi-2016" viewBox="0 0 16 16">
  <path d="m5.264 11.451 1.137 2.393 1.182-2.393-1.182-1.273-1.137 1.273zm2.862-2.256 1.385 2.916 1.441-2.916-1.441-1.551-1.385 1.551zm3.368 2.256 1.137 2.393 1.183-2.393-1.183-1.273-1.137 1.273z"/>
  <path d="M14.57 3.689s-6.976-2.06-9.322-2.671a.694.694 0 0 0-.837.5L1.028 14.12a.71.71 0 0 0 .476.848.71.71 0 0 0 .876-.485l1.462-5.451 10.829-4.213a.608.608 0 0 0-.101-1.13z"/>
</svg>