<svg xmlns="http://www.w3.org/2000/svg" width="16" height="16" fill="currentColor" class="qi-2017" viewBox="0 0 16 16">
  <path d="M0 11.75s5.84-.19 6.69-3.16c.83-2.92-2.46-4.06-4.14-3.39-1.31.52-1.41 1.55-1.31 1.85 0 0 2.98-1.2 3.36 1.05.41 2.35-4.6 3.65-4.6 3.65z"/>
  <path d="M12.14 3.96C10.77.64 5.86 3.2 5.86 3.2s4.48-.84 4.29 2.6C9.96 9.24 4.05 12.1.62 13c0 0 5.54-.45 8.38-2.46 2.83-2.01 4.02-4.46 3.14-6.58z"/>
  <path d="M15.97 5.81C15.64 2.15 11.89 2 11.89 2s4.33 3.61.57 7.58C8.28 14 1.19 13.55 1.45 13.63c1.93.57 7 .48 9.88-.94 2.73-1.35 4.92-3.75 4.64-6.88z"/>
</svg>