<svg xmlns="http://www.w3.org/2000/svg" width="16" height="16" fill="currentColor" class="qi-2017" viewBox="0 0 16 16">
  <path d="M0 11.77s5.837-.185 6.688-3.165c.834-2.919-2.461-4.063-4.144-3.39-1.309.524-1.408 1.551-1.3 1.851 0 0 2.976-1.2 3.364 1.047C5.01 10.463 0 11.77 0 11.77z"/>
  <path d="M12.14 3.972c-1.375-3.316-6.282-.756-6.282-.756s4.48-.842 4.293 2.6-6.095 6.3-9.526 7.2c0 0 5.545-.449 8.377-2.458S13.02 6.1 12.14 3.972z"/>
  <path d="M15.975 5.825c-.33-3.664-4.08-3.806-4.08-3.806s4.332 3.607.571 7.584c-4.179 4.42-11.267 3.971-11 4.049a17.53 17.53 0 0 0 9.877-.941c2.718-1.352 4.915-3.754 4.632-6.886z"/>
</svg>