<svg xmlns="http://www.w3.org/2000/svg" width="16" height="16" fill="currentColor" class="qi-2018" viewBox="0 0 16 16">
  <path d="M4.993 12.906c-1.73-.54-3.33.07-4.61 1.15 0 0 2.53 2.85 6.22.4l1.08.91v-2.48l-1.02.86c-.51-.29-1.26-.71-1.67-.84zm7.06.191c-1.24-.39-2.39.05-3.3.82 0 0 1.81 2.04 4.46.29l.77.65v-1.78l-.73.62c-.37-.2-.91-.5-1.2-.6zm3.16-7.011a.503.503 0 0 0-.66-.26c-.03.01-.31.13-.73.33-.3-.18-.64-.39-1.02-.63.31-.15.51-.24.51-.24.25-.11.37-.41.25-.66a.497.497 0 0 0-.66-.25c-.04.02-.44.2-1.06.51-.29-.2-.57-.41-.83-.63-.05-.04-.09-.08-.14-.11.25-.13.41-.21.41-.21a.5.5 0 0 0 .22-.67.493.493 0 0 0-.67-.22c-.04.02-.34.17-.78.41-.47-.41-.9-.8-1.26-1.14.28-.27.46-.45.48-.47.19-.2.18-.52-.02-.71a.504.504 0 0 0-.71.02c-.01.01-.19.19-.48.47-.13-.12-.21-.21-.22-.21a.504.504 0 0 0-.71.01c-.19.2-.19.51.01.71l.17.17c-.38.34-.85.72-1.37 1.12-.39-.24-.64-.37-.67-.38a.501.501 0 0 0-.68.21c-.13.24-.04.55.21.68 0 0 .1.05.25.14-.11.07-.2.15-.31.22-.26.18-.54.35-.83.52-.33-.21-.56-.35-.59-.37a.504.504 0 0 0-.69.17c-.14.24-.07.54.17.69l.13.08c-.51.28-.99.53-1.41.74-.15-.09-.25-.15-.27-.16a.494.494 0 0 0-.7.63c-.16.08-.26.12-.26.12-.25.11-.36.41-.25.66.08.18.27.29.46.29.07 0 .14-.01.21-.04.04-.02.33-.15.77-.37.38.23.88.54 1.4.89-.39.33-.63.55-.66.57-.2.19-.22.5-.03.71.1.11.23.16.37.16.12 0 .24-.04.34-.13.01-.01.32-.29.84-.72.2.14.39.29.58.43.26.2.5.4.73.59-.35.39-.58.66-.6.69-.17.22-.14.53.08.7.09.07.2.11.31.11.15 0 .29-.06.39-.19.01-.01.23-.28.59-.67.32.28.6.54.84.76-.36.35-.6.59-.63.62-.19.2-.19.51.01.71a.508.508 0 0 0 .71-.01c.01-.01.25-.26.63-.62l.18.18c.1.1.23.16.36.16.12 0 .25-.04.34-.14.2-.19.21-.51.02-.71l-.18-.18c.29-.26.6-.54.93-.82.27.29.42.47.43.47.1.12.24.17.38.17.12 0 .23-.04.33-.12.21-.18.23-.5.05-.71-.02-.02-.17-.19-.41-.46a13.145 13.145 0 0 1 1.24-.89c.33.35.53.57.53.58.1.11.24.17.38.17.12 0 .23-.04.33-.12.21-.18.23-.5.05-.71-.02-.02-.17-.2-.41-.45.66-.38 1.32-.71 1.85-.97.23.13.37.21.39.22.08.04.16.06.24.06a.49.49 0 0 0 .41-.77c.08-.04.12-.05.13-.06.25-.12.37-.41.26-.67zm-4.82-1.07c.15.13.31.25.47.37-.37.2-.78.43-1.22.68-.19-.16-.38-.33-.59-.49-.12-.1-.24-.19-.36-.28.42-.23.84-.46 1.22-.66.17.13.32.26.48.38zm-3.39 1.96c-.14-.12-.3-.25-.45-.37.15-.1.29-.2.44-.29.22-.15.49-.31.78-.48.22.16.44.34.67.52.11.09.21.17.31.26-.09.06-.18.11-.28.17-.32.2-.63.43-.93.66-.19-.16-.36-.31-.54-.47zm1.06-4.01c.3.28.66.61 1.06.96-.41.22-.86.46-1.28.71-.35-.25-.67-.48-.97-.67.45-.36.85-.7 1.19-1zm-2.75 2.12c.24-.16.47-.32.69-.48.26.17.56.37.88.59-.16.1-.31.19-.44.28-.26.17-.5.33-.74.5-.29-.21-.57-.4-.84-.58.15-.11.3-.21.45-.31zm-2.76 1.6c.42-.22.89-.47 1.36-.74.29.19.6.4.93.63-.42.31-.79.6-1.13.87-.41-.28-.81-.54-1.16-.76zm2 1.37c.34-.27.72-.55 1.13-.85.23.18.46.36.66.53.14.12.26.23.39.35-.36.31-.7.63-.99.92-.25-.21-.52-.43-.81-.65-.11-.11-.25-.21-.38-.3zm2.85 2.39c-.25-.23-.54-.5-.88-.79.29-.29.61-.59.96-.89.32.31.61.59.86.84-.33.29-.65.57-.94.84zm1.72-1.49c-.25-.25-.53-.53-.85-.83.23-.17.47-.34.72-.5l.54-.33c.29.27.56.52.8.76-.16.11-.33.22-.48.33-.24.19-.49.38-.73.57zm2.09-1.43c-.23-.23-.49-.48-.78-.75.49-.28.95-.53 1.34-.73.34.23.67.45.98.64-.48.24-1.01.52-1.54.84z"/>
</svg>