<svg xmlns="http://www.w3.org/2000/svg" width="16" height="16" fill="currentColor" class="qi-2018" viewBox="0 0 16 16">
  <path d="M5.356 12.179c-1.732-.541-3.334.067-4.606 1.149 0 0 2.528 2.851 6.224.402l1.077.908v-2.482l-1.025.864c-.506-.294-1.26-.713-1.67-.841Zm7.06.191c-1.24-.387-2.387.048-3.298.822 0 0 1.81 2.041 4.456.288l.771.65v-1.777l-.734.619c-.362-.211-.902-.51-1.195-.602Zm3.161-7.013a.501.501 0 0 0-.656-.264c-.035.015-.313.134-.734.331-.295-.176-.645-.39-1.021-.633.312-.15.509-.24.515-.242a.5.5 0 0 0-.406-.914 29.34 29.34 0 0 0-1.058.508c-.284-.2-.561-.41-.831-.629l-.137-.114.415-.214a.5.5 0 0 0-.453-.891c-.038.019-.341.174-.784.405a53.602 53.602 0 0 1-1.264-1.137c.283-.27.46-.452.48-.474A.5.5 0 0 0 8.919.4c-.005.006-.186.192-.485.475a34.864 34.864 0 0 1-.215-.208.5.5 0 1 0-.701.713l.174.169c-.444.387-.902.759-1.371 1.115-.219-.133-.44-.26-.665-.383a.5.5 0 0 0-.47.883c.004.002.101.055.251.141-.105.073-.204.146-.312.218-.264.176-.544.35-.828.521-.329-.21-.562-.352-.59-.37a.501.501 0 0 0-.519.856l.126.078c-.505.278-.992.53-1.408.739l-.27-.158a.497.497 0 0 0-.742.406.487.487 0 0 0 .044.223l-.262.122a.5.5 0 1 0 .413.91c.035-.016.329-.15.773-.366.381.231.878.544 1.4.892-.391.332-.632.552-.658.575a.5.5 0 0 0 .676.736c.007-.007.322-.292.835-.72.198.143.392.289.578.434.257.201.5.398.732.59-.352.389-.578.665-.603.695a.5.5 0 1 0 .779.626c.006-.007.228-.279.587-.671.317.278.604.537.841.759-.36.347-.602.591-.628.618a.5.5 0 0 0 .714.7c.007-.007.254-.257.634-.622l.181.184a.496.496 0 0 0 .82-.14.5.5 0 0 0-.093-.548l-.177-.181c.285-.261.596-.539.926-.821.267.288.423.467.427.472a.5.5 0 0 0 .76-.65c-.017-.019-.168-.193-.414-.46.394-.32.807-.618 1.235-.891.333.351.527.573.533.579a.502.502 0 0 0 .875-.293.5.5 0 0 0-.121-.363c-.018-.02-.172-.195-.414-.455.66-.379 1.317-.715 1.852-.974.227.13.373.209.395.221a.498.498 0 0 0 .735-.458.495.495 0 0 0-.083-.25l.128-.056a.497.497 0 0 0 .263-.655Zm-4.824-1.069c.153.125.314.247.474.369-.37.199-.783.43-1.215.682-.19-.164-.384-.329-.586-.494-.121-.099-.238-.187-.357-.28.42-.233.843-.461 1.222-.662.154.129.307.259.462.385ZM7.364 6.242c-.149-.127-.3-.251-.454-.372.146-.098.287-.197.437-.294.225-.146.494-.308.782-.477.218.165.441.338.666.521.107.087.206.174.31.261-.094.058-.184.11-.279.17-.324.204-.634.427-.935.658a29.91 29.91 0 0 0-.527-.467Zm1.06-4.002c.305.284.663.612 1.057.961-.412.221-.856.464-1.284.706-.35-.252-.675-.476-.972-.672.457-.358.858-.695 1.199-.995ZM5.679 4.355c.24-.16.467-.321.691-.482.262.168.559.366.877.587-.158.096-.309.189-.444.276-.255.166-.5.333-.74.499-.278-.2-.558-.394-.842-.585.156-.097.309-.195.458-.295ZM2.912 5.957c.424-.22.888-.469 1.357-.738.287.189.601.4.929.63-.421.31-.793.599-1.128.866-.381-.26-.767-.513-1.158-.758ZM4.919 7.32c.371-.29.748-.574 1.131-.85.234.179.461.357.661.53.138.119.264.234.395.35-.362.314-.696.626-.987.918-.266-.222-.536-.44-.808-.653-.127-.099-.261-.197-.392-.295Zm2.842 2.394c-.245-.23-.543-.5-.876-.792.289-.286.61-.589.964-.893.324.305.61.586.863.841-.34.291-.661.577-.951.844Zm1.724-1.486a37.15 37.15 0 0 0-.848-.833c.234-.174.475-.342.72-.496.183-.115.359-.219.537-.327.294.268.562.524.805.764-.42.277-.825.575-1.214.892Zm2.086-1.437a29.99 29.99 0 0 0-.776-.749c.443-.253.89-.497 1.343-.733.342.232.675.447.98.637-.482.245-1.016.532-1.547.845Z"/>
</svg>