<svg xmlns="http://www.w3.org/2000/svg" width="16" height="16" fill="currentColor" class="qi-2018" viewBox="0 0 16 16">
  <path d="M5.356 12.179A4.775 4.775 0 0 0 .75 13.328a4.659 4.659 0 0 0 6.224.4l1.077.908v-2.48l-1.025.864a11.064 11.064 0 0 0-1.67-.841zm7.06.191a3.419 3.419 0 0 0-3.3.822 3.335 3.335 0 0 0 4.456.288l.771.651v-1.778l-.734.619a7.914 7.914 0 0 0-1.193-.602zm3.161-7.013a.5.5 0 0 0-.656-.263c-.035.015-.313.134-.734.33a30.009 30.009 0 0 1-1.021-.633c.312-.15.509-.24.514-.242a.5.5 0 1 0-.4-.914c-.036.016-.438.2-1.058.508-.286-.2-.568-.413-.832-.628l-.141-.115.414-.214a.5.5 0 1 0-.453-.89c-.038.019-.341.174-.784.405-.468-.409-.9-.8-1.263-1.138.283-.27.46-.452.481-.473A.5.5 0 0 0 8.919.4c-.005.006-.186.192-.485.475L8.219.667a.5.5 0 0 0-.7.713l.174.168c-.384.336-.846.717-1.371 1.116a17.361 17.361 0 0 0-.665-.383.5.5 0 0 0-.47.883s.1.055.251.141c-.105.073-.2.146-.312.218a19.66 19.66 0 0 1-.829.521 47.207 47.207 0 0 0-.589-.369.5.5 0 0 0-.519.855l.126.078c-.5.278-.992.53-1.408.738l-.27-.157a.5.5 0 0 0-.681.188.487.487 0 0 0-.017.441l-.262.122a.5.5 0 0 0 .206.96.488.488 0 0 0 .206-.045c.035-.015.329-.149.773-.365.381.231.878.543 1.4.892-.391.331-.632.551-.658.574a.5.5 0 0 0 .677.736c.007-.006.322-.292.835-.719.2.143.392.288.578.434q.385.3.732.59a13.87 13.87 0 0 0-.6.694.5.5 0 1 0 .78.627c.006-.007.228-.278.587-.671.317.278.6.537.841.759-.36.347-.6.591-.628.618a.5.5 0 1 0 .713.7c.007-.007.254-.257.634-.622l.181.184a.5.5 0 0 0 .727-.687l-.177-.181c.286-.262.6-.539.926-.821.267.287.423.467.427.472a.5.5 0 0 0 .76-.65c-.017-.019-.168-.193-.414-.46a13.362 13.362 0 0 1 1.235-.892c.333.351.527.574.532.579a.5.5 0 0 0 .378.172.5.5 0 0 0 .328-.123.5.5 0 0 0 .049-.7c-.017-.02-.172-.2-.414-.454.66-.38 1.318-.715 1.852-.975.227.13.373.21.4.221a.5.5 0 0 0 .652-.708l.128-.055a.5.5 0 0 0 .254-.667zm-4.824-1.069c.153.125.313.247.474.369-.37.2-.782.43-1.215.681-.19-.164-.384-.329-.586-.493-.121-.1-.238-.187-.357-.28.421-.233.843-.46 1.223-.662.153.129.308.259.461.385zM7.364 6.242C7.223 6.12 7.067 6 6.91 5.87c.146-.1.287-.2.437-.294.225-.146.494-.308.782-.477.218.165.441.338.666.521.107.087.206.174.31.261-.094.058-.184.111-.279.171-.324.2-.634.426-.935.657-.171-.154-.342-.309-.527-.467zm1.06-4c.3.284.663.612 1.057.961-.412.221-.856.464-1.284.706-.35-.252-.675-.476-.972-.672.457-.36.858-.697 1.199-.997zM5.679 4.355c.241-.16.468-.321.691-.482.262.168.559.366.877.587-.158.1-.309.189-.444.276-.255.166-.5.333-.74.5-.287-.206-.571-.4-.842-.585l.458-.296zm-2.767 1.6c.424-.22.888-.469 1.357-.738.287.189.6.4.929.63-.421.31-.793.6-1.127.866a39.783 39.783 0 0 0-1.159-.756zM4.919 7.32a35.66 35.66 0 0 1 1.131-.85c.234.179.461.357.661.53.138.119.264.233.395.35a17.3 17.3 0 0 0-.987.918 35.42 35.42 0 0 0-.808-.653c-.127-.099-.261-.197-.392-.295zm2.842 2.394c-.246-.23-.543-.5-.877-.792.289-.287.611-.589.965-.894.324.306.61.587.863.842-.34.291-.661.577-.951.844zm1.724-1.486a37.132 37.132 0 0 0-.848-.833c.234-.174.474-.342.72-.5.183-.115.359-.219.537-.327q.439.4.8.764c-.165.109-.327.219-.482.332-.239.181-.484.37-.727.564zm2.086-1.437c-.232-.232-.49-.483-.776-.749a41.18 41.18 0 0 1 1.343-.733c.342.232.675.447.98.637-.482.245-1.018.532-1.547.845z"/>
</svg>