<svg xmlns="http://www.w3.org/2000/svg" width="16" height="16" fill="currentColor" class="qi-2019" viewBox="0 0 16 16">
  <path fill-rule="evenodd" d="M9.58 9.16c-.29 0-.53.11-.7.32-.18.21-.26.49-.26.81 0 .33.09.6.26.81.17.21.41.32.7.32.3 0 .53-.11.7-.32.17-.21.26-.48.26-.82 0-.34-.08-.61-.25-.82a.934.934 0 0 0-.71-.3zm0 1.86c-.31 0-.47-.24-.47-.72s.16-.72.47-.72c.31 0 .47.24.47.72s-.16.72-.47.72zM7.51 7.97c.17-.21.26-.48.26-.82 0-.34-.08-.61-.25-.82-.18-.21-.41-.31-.72-.31-.29 0-.53.11-.7.32-.17.21-.26.48-.26.81 0 .33.09.6.26.81.17.21.41.32.7.32.3 0 .54-.1.71-.31zm-1.18-.82c0-.48.16-.72.47-.72.31 0 .47.24.47.72s-.16.72-.47.72c-.31 0-.47-.24-.47-.72zm3.49-1.09a.294.294 0 0 0-.4.1l-2.95 4.83c-.08.14-.04.31.1.4a.297.297 0 0 0 .4-.1l2.95-4.83c.08-.14.04-.32-.1-.4z"/>
  <path fill-rule="evenodd" d="M8.19 0S3 7.51 3 10.38c0 2.87 2.32 5.19 5.19 5.19 2.87 0 5.19-2.32 5.19-5.19C13.38 7.51 8.19 0 8.19 0zm2.96 11.82c-.4.01-.62.08-1.46.35l-.12.04c-.58.23-1.05.36-1.35.36-.49 0-1.3-.34-1.31-.34l-.16-.05c-.88-.28-1.09-.35-1.45-.35-.32 0-.64.05-.98.16-.23-.53-.34-1.08-.34-1.62 0-1.58 2.24-5.59 4.22-8.66 1.99 3.07 4.22 7.08 4.22 8.66 0 .54-.12 1.09-.34 1.62-.34-.12-.65-.17-.93-.17z"/>
</svg>