<svg xmlns="http://www.w3.org/2000/svg" width="16" height="16" fill="currentColor" class="qi-2020" viewBox="0 0 16 16">
  <path fill-rule="evenodd" d="M6.781 14.568c0 .7.57 1.27 1.27 1.27.7 0 1.27-.57 1.27-1.27 0-.7-1.27-2.55-1.27-2.55s-1.27 1.85-1.27 2.55zm-4.18-1.461c0 .7.57 1.27 1.27 1.27.7 0 1.27-.57 1.27-1.27 0-.7-1.27-2.55-1.27-2.55s-1.27 1.84-1.27 2.55zm9.64-2.55s-1.27 1.84-1.27 2.55c0 .7.57 1.27 1.27 1.27.7 0 1.27-.57 1.27-1.27 0-.71-1.27-2.55-1.27-2.55z"/>
  <path d="M2.611 9.688h10.89c.5 0 .79-.57.49-.97l-5.45-7.47a.609.609 0 0 0-.98 0l-5.45 7.47c-.28.41 0 .97.5.97zm5.45-1.79c-.25 0-.45-.2-.45-.45s.2-.45.45-.45.45.2.45.45c-.01.25-.21.45-.45.45zm0-3.69c.34 0 .6.3.55.63l-.25 1.77h-.6l-.25-1.77c-.05-.33.21-.63.55-.63z"/>
</svg>