<svg xmlns="http://www.w3.org/2000/svg" width="16" height="16" fill="currentColor" class="qi-2020" viewBox="0 0 16 16">
  <path fill-rule="evenodd" d="M6.727 14.144a1.273 1.273 0 1 0 2.546 0C9.273 13.44 8 11.598 8 11.598s-1.273 1.842-1.273 2.546ZM2.545 12.68a1.273 1.273 0 1 0 2.546 0c0-.704-1.273-2.546-1.273-2.546s-1.273 1.843-1.273 2.546Zm9.637-2.546s-1.273 1.842-1.273 2.546a1.273 1.273 0 1 0 2.546 0c0-.703-1.273-2.546-1.273-2.546Z"/>
  <path d="M2.554 9.267h10.891a.61.61 0 0 0 .492-.968L8.492.833a.61.61 0 0 0-.984 0L2.062 8.299a.61.61 0 0 0 .492.968ZM8 7.477a.447.447 0 1 1 0-.893.447.447 0 0 1 0 .893Zm0-3.691c.336 0 .595.297.548.63L8.302 6.18h-.604l-.247-1.763A.555.555 0 0 1 8 3.786Z"/>
</svg>