<svg xmlns="http://www.w3.org/2000/svg" width="16" height="16" fill="currentColor" class="qi-2021" viewBox="0 0 16 16">
  <g clip-path="url(#a)">
    <path d="M15.76 5.591 12.426.125a.274.274 0 0 0-.46 0L8.632 5.591a.27.27 0 0 0 .23.408h6.678c.199 0 .335-.23.22-.408zm-3.564-.825a.303.303 0 1 1 0-.607.303.303 0 0 1 0 .607zm.209-.889h-.418l-.167-1.212a.377.377 0 0 1 .376-.429c.23 0 .408.21.376.429l-.167 1.212zM4.556 6.082a.82.82 0 0 0 .826-.825.82.82 0 0 0-.825-.826.82.82 0 0 0-.826.826c0 .45.366.825.825.825z"/>
    <path d="M16 16.136c-.617-3.01-.115-4.285-.982-5.947-.69-1.316-3.355-.92-3.658.126 1.285-.303 1.348 1.891-.826 3.5-.209-.093-.533-.25-.94-.438 1.013-.878 1.463-1.892 1.16-2.676-.22-.574-.753-.825-1.275-1.076-1.045-.502-2.864-.648-3.428-.658a3.394 3.394 0 0 1-.47-1.024 4.13 4.13 0 0 0 1.243.198c.784 0 1.6-.22 2.341-.648a.516.516 0 0 0 .188-.71.516.516 0 0 0-.71-.189c-1.108.648-2.383.67-3.365.084a.728.728 0 0 0-.533-.24.719.719 0 0 0-.429.156c-.02 0-.052-.01-.073 0A3.063 3.063 0 0 1 1.17 5.267a.51.51 0 0 0-.72-.136.535.535 0 0 0-.147.732A4.122 4.122 0 0 0 3.71 7.692c.115 0 .23-.021.334-.032a4.63 4.63 0 0 0 1.338 2.812.738.738 0 0 0 .523.219.76.76 0 0 0 .303-.073c.052-.021.742-.293 1.285.083.052.042.523.366.491.763-.031.345-.45.742-1.076.784-.01 0-.021.01-.031.01-.481-.177-.962-.355-1.443-.501C2.947 10.973.752 10.513 0 10.44c.397 1.547 1.672 2.435 2.978 3.188 1.004.585 3.01 1.421 3.888 1.776-1.369.366-2.592.544-3.104.732H16zm-6.97-4.588a1.662 1.662 0 0 0-.325-1.087c.115.042.22.084.314.125.366.168.68.325.752.513.136.334-.271 1.086-1.17 1.745-.031.02-.052.063-.084.094-.083-.031-.167-.073-.25-.105.438-.334.731-.783.762-1.285z"/>
  </g>
  <defs>
    <clipPath id="a">
      <path d="M0 0h16v16H0z"/>
    </clipPath>
  </defs>
</svg>