<svg xmlns="http://www.w3.org/2000/svg" width="16" height="16" fill="currentColor" class="qi-2022" viewBox="0 0 16 16">
  <g clip-path="url(#a)">
    <path d="M15.588 10.129c-.103-.057-2.525-1.44-6.102-.217-1.532.525-4.091.091-4.114.08a.81.81 0 0 0-.926.651.801.801 0 0 0 .652.926c.068.011 1.142.205 2.41.205.835 0 1.75-.08 2.503-.342 2.846-.983 4.697.034 4.766.08a.814.814 0 0 0 1.097-.286.814.814 0 0 0-.286-1.097zm0 3.039c-.103-.057-2.525-1.45-6.102-.217-1.532.526-4.091.092-4.114.08a.8.8 0 0 0-.274 1.577c.068.012 1.142.195 2.41.195.835 0 1.75-.08 2.515-.343 2.845-.983 4.697.034 4.765.08a.814.814 0 0 0 1.097-.286.818.818 0 0 0-.297-1.085z"/>
    <path d="M15.497 3.078S7.52.724 4.847.027a.79.79 0 0 0-.96.56L.023 14.997a.81.81 0 0 0 .548.971.818.818 0 0 0 1.006-.548l1.668-6.228L15.622 4.38c.56-.297.48-1.132-.125-1.303z"/>
  </g>
  <defs>
    <clipPath id="a">
      <path d="M0 0h16v16H0z"/>
    </clipPath>
  </defs>
</svg>