<svg xmlns="http://www.w3.org/2000/svg" width="16" height="16" fill="currentColor" class="qi-2024" viewBox="0 0 16 16">
  <path d="M13.96 4.888c-.4-.56-1.03-.97-1.749-1.13C12.031 2.18 10.762 1.02 9.353 1c-1.119-.02-2.188.7-2.688 1.8-.26.03-.81.139-1.359.549-.51.39-.77.85-.88 1.079-1.158-.16-1.988.45-2.347 1.18-.14-.04-.67-.16-1.21.129-.49.26-.869.79-.869 1.409 0 .71.49 1.29 1.08 1.509.729.27 1.378-.09 1.468-.14.17.14.79.64 1.719.64.74 0 1.269-.31 1.469-.45.18.09.51.22.93.31l-1.18 1.838c-.09.15.03.34.2.34h1.559c.05 0 .09.05.07.1l-1.07 3.687 4.507-4.786c.14-.15.03-.39-.17-.39H9.053c-.06 0-.1-.07-.06-.12l.88-1.07c.37.21.99.47 1.789.45a3.47 3.47 0 0 0 1.598-.45c.12.06.83.37 1.58.06.769-.319 1.189-1.138 1.159-1.868-.06-.96-.91-1.818-2.039-1.918z"/>
  <path d="M1.07 11.243a.748.748 0 1 0 1.498 0c0-.41-.75-1.499-.75-1.499s-.749 1.08-.749 1.499zm12.34 0a.748.748 0 1 0 1.5 0c0-.41-.75-1.499-.75-1.499s-.75 1.08-.75 1.499zm-9.653 1.129a.748.748 0 1 0 1.5 0c0-.42-.75-1.499-.75-1.499s-.75 1.08-.75 1.5zm6.965 0a.748.748 0 1 0 1.5 0c0-.42-.75-1.499-.75-1.499s-.75 1.08-.75 1.5z"/>
</svg>