<svg xmlns="http://www.w3.org/2000/svg" width="16" height="16" fill="currentColor" class="qi-2025" viewBox="0 0 16 16">
  <path d="M10.88 10.855H9.536c-.055 0-.088-.055-.055-.099l1.277-1.982c.067-.099-.01-.22-.12-.22H8.335c-.1 0-.198.055-.242.143L6.387 11.78c-.077.133.022.309.176.309h1.376c.044 0 .078.044.067.088l-.947 3.26 3.975-4.23c.12-.142.022-.352-.154-.352zm.737 1.795c0 1.014.826 1.84 1.84 1.84a1.842 1.842 0 0 0 1.838-1.84c0-1.013-1.839-3.667-1.839-3.667s-1.839 2.654-1.839 3.667zm3.282-9.448H1.1a1.104 1.104 0 0 1-1.1-1.1C0 1.495.496 1 1.101 1H14.9c.605 0 1.1.496 1.1 1.101 0 .606-.485 1.101-1.101 1.101zm0 4.361H1.1A1.104 1.104 0 0 1 0 6.462C0 5.856.496 5.36 1.101 5.36H14.9c.606 0 1.101.495 1.101 1.1 0 .606-.485 1.102-1.101 1.102zM4.735 11.979H1.112a1.104 1.104 0 0 1-1.101-1.101c0-.606.496-1.102 1.101-1.102h3.623c.606 0 1.101.496 1.101 1.101 0 .606-.495 1.102-1.101 1.102z"/>
</svg>