<svg xmlns="http://www.w3.org/2000/svg" width="16" height="16" fill="currentColor" class="qi-2025" viewBox="0 0 16 16">
  <path d="M10.611 11.4H9.39a.06.06 0 0 1-.053-.031.06.06 0 0 1 .002-.062L10.5 9.511a.13.13 0 0 0-.109-.2h-2.09a.254.254 0 0 0-.223.131l-1.553 2.799a.186.186 0 0 0 .162.276h1.25a.06.06 0 0 1 .059.05.06.06 0 0 1-.002.027l-.86 2.956 3.612-3.838a.185.185 0 0 0-.135-.312Zm.673 1.634c0 .921.746 1.666 1.67 1.666.922 0 1.668-.745 1.668-1.666 0-.921-1.669-3.333-1.669-3.333s-1.669 2.411-1.669 3.333Zm2.981-8.585H1.735a1 1 0 1 1 0-2h12.529a1 1 0 1 1 .001 2Zm0 3.965H1.735a1 1 0 1 1 0-2h12.529a1 1 0 1 1 .001 2ZM5.03 12.426H1.735a1 1 0 0 1 0-2H5.03a1 1 0 0 1 0 2Z"/>
</svg>