<svg xmlns="http://www.w3.org/2000/svg" width="16" height="16" fill="currentColor" class="qi-2026" viewBox="0 0 16 16">
  <path d="M15.486 3.072S7.516.72 4.843.023a.802.802 0 0 0-.96.571l-3.86 14.4a.81.81 0 0 0 .549.971.818.818 0 0 0 1.005-.548l1.667-6.224 12.368-4.808c.56-.308.49-1.142-.126-1.313z"/>
  <path d="m12.848 14.458.811-2.501 1.153.377c.195.068.366-.149.263-.332l-2.57-4.236a.234.234 0 0 0-.285-.092l-4.556 1.93c-.195.08-.183.354.022.423l1.154.377-1.313 4.054H4.786v1.324H16v-1.324h-3.152zm-3.426-1.793a.36.36 0 0 1 .446-.229l1.758.571a.36.36 0 0 1 .229.446l-.32 1.005H8.85l.571-1.793z"/>
</svg>