<svg xmlns="http://www.w3.org/2000/svg" width="16" height="16" fill="currentColor" class="qi-2027" viewBox="0 0 16 16">
  <g clip-path="url(#a)">
    <path d="M13.397 10.904c-.935 0-1.521-.124-2.265-.53-.732 1.229-1.374 2.75-1.566 4.147-.034-1.994-.338-4.045-.913-6.13C7.876 5.62 5.95 2.928 2.287 1 4 3.49 4.642 6.104 5.003 8.854c.293 2.264.259 4.8-.248 6.602a8.835 8.835 0 0 0-.913-3.594C3.076 10.318 1.848 8.887 0 7.76c.834 1.881 1.363 3.526 1.577 4.923.192 1.251.09 2.4-.315 3.426h13.544c-1.082-2.05-.023-5.273.01-5.42-.461.124-.923.214-1.419.214z"/>
    <path d="M15.707 4.268c-.98.18-1.34.946-1.33 1.464-.586-.901-.53-1.859-.304-3.21-2.276.608-2.028 3.109-2.174 3.841-.496-.518-.485-1.645-.485-1.645-.608.248-.992 1.037-1.07 1.702-.18 1.611.991 2.93 2.546 3.098 1.555.17 2.918-.867 3.099-2.479.101-.957-.519-1.352-.282-2.771z"/>
  </g>
  <defs>
    <clipPath id="a">
      <path d="M0 0h16v16H0z"/>
    </clipPath>
  </defs>
</svg>