<svg xmlns="http://www.w3.org/2000/svg" width="16" height="16" fill="currentColor" class="qi-2028" viewBox="0 0 16 16">
  <path d="M7.24 6.96a.885.885 0 0 1 1.242.927l-.394 2.817h-.965L6.73 7.887a.885.885 0 0 1 .51-.927Zm1.078 5.103a.712.712 0 1 1-1.424 0 .712.712 0 0 1 1.424 0Z"/>
  <path d="m13.797 9.03-.738.738a1.896 1.896 0 0 1 1.185 1.755 1.898 1.898 0 0 1-1.896 1.896H4.042a2.903 2.903 0 0 1-2.9-2.9 2.902 2.902 0 0 1 2.9-2.899l.497.038.145-.308a3.497 3.497 0 0 1 3.154-2.013c1.325 0 2.465.752 3.054 1.844l.73-.73c-.794-1.263-2.185-2.113-3.784-2.113a4.504 4.504 0 0 0-3.903 2.283 3.905 3.905 0 0 0-3.792 3.898c0 2.15 1.749 3.9 3.899 3.9h8.307a2.9 2.9 0 0 0 2.896-2.896 2.888 2.888 0 0 0-1.448-2.493Zm1.822-2.825L14.244 4.83a.456.456 0 0 0-.647 0l-.34.339 2.024 2.023.339-.339a.459.459 0 0 0-.001-.648Z"/>
  <path d="m9.452 10.997 2.763-.74-2.023-2.023-.74 2.763Zm5.673-3.65-2.023-2.023-2.734 2.734 2.023 2.023 2.734-2.734ZM11.52 8.583l2.106-2.106.347.346-2.107 2.107-.346-.347Z"/>
</svg>