<svg xmlns="http://www.w3.org/2000/svg" width="16" height="16" fill="currentColor" class="qi-2028" viewBox="0 0 16 16">
  <path d="M7.65 11.633a.727.727 0 1 0 0-1.454.727.727 0 0 0 0 1.454zm0-6.032a.908.908 0 0 0-.901 1.034l.4 2.888h.982l.4-2.888a.883.883 0 0 0-.881-1.034z"/>
  <path d="m13.989 7.803-.758.758a1.948 1.948 0 0 1 1.219 1.792c0 1.075-.87 1.946-1.946 1.946h-8.51a2.972 2.972 0 0 1-2.97-2.97 2.972 2.972 0 0 1 2.97-2.97l.512.04.143-.317a3.58 3.58 0 0 1 3.226-2.058c1.352 0 2.53.768 3.124 1.884l.747-.747A4.578 4.578 0 0 0 7.876 3 4.614 4.614 0 0 0 3.88 5.335 3.997 3.997 0 0 0 0 9.329a3.999 3.999 0 0 0 3.994 3.994h8.51a2.972 2.972 0 0 0 2.97-2.97 2.928 2.928 0 0 0-1.485-2.55zm1.874-2.898L14.45 3.492a.47.47 0 0 0-.666 0l-.348.348 2.069 2.068.348-.348a.449.449 0 0 0 .01-.655z"/>
  <path d="m9.544 9.81 2.827-.758-2.069-2.068-.758 2.826zm5.807-3.738-2.069-2.068-2.795 2.795 2.068 2.069 2.796-2.796zm-3.687 1.27 2.161-2.16.359.358-2.161 2.16-.359-.358z"/>
</svg>