<svg xmlns="http://www.w3.org/2000/svg" width="16" height="16" fill="currentColor" class="qi-2030" viewBox="0 0 16 16">
  <path d="M6.25 3a.5.5 0 0 0-.5.5v6.063a2 2 0 1 0 1 0V3.5a.5.5 0 0 0-.5-.5Z"/>
  <path d="m4.418 8.755.532-.356V2.5a1.3 1.3 0 0 1 2.6 0v.9a.6.6 0 0 0 1.2 0v-.9a2.5 2.5 0 0 0-5 0v5.258a4.5 4.5 0 1 0 5 0V6.6a.6.6 0 0 0-1.2 0v1.799l.532.356a3.3 3.3 0 1 1-3.665 0Z"/>
  <path d="M11.25 2a.6.6 0 0 0-.6.6v1.8h-1.8a.6.6 0 0 0 0 1.2h1.8v1.8a.6.6 0 1 0 1.2 0V5.6h1.8a.6.6 0 1 0 0-1.2h-1.8V2.6a.6.6 0 0 0-.6-.6Z"/>
</svg>