<svg xmlns="http://www.w3.org/2000/svg" width="16" height="16" fill="currentColor" class="qi-2030" viewBox="0 0 16 16">
  <path d="M6.382 0C7.59.028 8.554 1 8.556 2.19a.407.407 0 0 1-.41.404.407.407 0 0 1-.41-.405A1.417 1.417 0 0 0 6.369.808h-.04A1.402 1.402 0 0 0 4.92 2.194v8.452l-.217.186a2.451 2.451 0 0 0-.29 3.487 2.55 2.55 0 0 0 2.42.808 2.463 2.463 0 0 0 1.591-1.054 2.444 2.444 0 0 0-.468-3.233l-.221-.186V7.56c0-.223.183-.405.41-.405.226 0 .41.181.41.405v2.72a3.245 3.245 0 0 1 .994 3.303 3.307 3.307 0 0 1-2.557 2.352A3.356 3.356 0 0 1 3.79 14.84a3.249 3.249 0 0 1 .313-4.56V2.2C4.104.988 5.096.006 6.325 0h.057Z"/>
  <path d="M6.333 11.586c.614 0 1.112.494 1.112 1.104 0 .609-.498 1.103-1.112 1.103a1.108 1.108 0 0 1-1.111-1.103c0-.61.498-1.104 1.111-1.104ZM10.5 2c.276 0 .5.206.5.46V5h2.54c.254 0 .46.224.46.5s-.206.5-.46.5H11v2.54c0 .254-.224.46-.5.46s-.5-.206-.5-.46V6H7.46C7.206 6 7 5.776 7 5.5s.206-.5.46-.5H10V2.46c0-.254.224-.46.5-.46Z"/>
</svg>