<svg xmlns="http://www.w3.org/2000/svg" width="16" height="16" fill="currentColor" class="qi-2031" viewBox="0 0 16 16">
  <path d="M6.36 0c1.2.028 2.157 1 2.16 2.19a.406.406 0 0 1-.408.404.406.406 0 0 1-.407-.405A1.412 1.412 0 0 0 6.348.808h-.04A1.396 1.396 0 0 0 4.91 2.194v8.452l-.216.186a2.464 2.464 0 0 0-.289 3.487c.595.68 1.514.99 2.403.808a2.456 2.456 0 0 0 1.115-4.287l-.22-.186V7.56a.407.407 0 0 1 .815 0v2.72a3.261 3.261 0 0 1 .986 3.303 3.293 3.293 0 0 1-2.538 2.352 3.207 3.207 0 0 1-.652.065 3.306 3.306 0 0 1-3.094-2.102 3.263 3.263 0 0 1 .876-3.619V2.2A2.21 2.21 0 0 1 6.304 0h.056Z"/>
  <path d="M6.31 11.862a1.104 1.104 0 1 1 0 2.208 1.104 1.104 0 0 1 0-2.208ZM12.5 4.5a.5.5 0 0 1 0 1h-5a.5.5 0 1 1 0-1h5Z"/>
</svg>