<svg xmlns="http://www.w3.org/2000/svg" width="16" height="16" fill="currentColor" class="qi-2033" viewBox="0 0 16 16">
  <path d="M11.586 12.981c1.314 0 1.965.777 2.485 1.4.46.546.704.81 1.22.81.225 0 .407.181.407.405a.402.402 0 0 1-.386.404c-.923 0-1.37-.534-1.846-1.1-.476-.567-.932-1.11-1.864-1.11-.93 0-1.386.54-1.841 1.106-.456.566-.928 1.1-1.847 1.1h-.07c-.922 0-1.37-.534-1.846-1.1-.476-.567-.931-1.11-1.862-1.11s-1.403.543-1.883 1.11C1.773 15.462 1.329 16 .406 16a.406.406 0 1 1 0-.81c.517 0 .761-.263 1.22-.81.525-.622 1.176-1.398 2.49-1.399 1.313 0 1.964.777 2.488 1.4.44.522.68.81 1.152.81h.158c.48 0 .724-.268 1.184-.81.524-.623 1.175-1.4 2.488-1.4Zm.227-3.623c1.338 0 2 .776 2.53 1.403.469.545.717.808 1.243.808a.41.41 0 0 1 .414.405.408.408 0 0 1-.41.403c-.822 0-1.274-.408-1.698-.889l-.364-.42c-.426-.483-.885-.901-1.715-.901-.83 0-1.288.402-1.7.896l-.35.431c-.416.49-.887.883-1.705.883h-.07c-.823 0-1.275-.408-1.699-.889l-.363-.42c-.427-.483-.885-.901-1.715-.901-.948 0-1.429.525-1.917 1.111-.489.586-.94 1.099-1.88 1.099A.409.409 0 0 1 0 11.974a.41.41 0 0 1 .414-.405c.526 0 .774-.263 1.242-.808.534-.627 1.197-1.403 2.534-1.403 1.338 0 2 .776 2.535 1.403.45.53.7.808 1.192.808h.157c.489 0 .737-.267 1.205-.808.535-.627 1.197-1.402 2.534-1.403ZM7.854 0c.466 0 .755.325 1.106.786.248.324.524.732.78 1.148.748 1.218 1.128 2.186 1.128 2.872a3.033 3.033 0 0 1-3.014 3.043 3.034 3.034 0 0 1-3.024-3.04c0-.685.38-1.662 1.128-2.872.24-.397.5-.782.78-1.15C7.09.34 7.387 0 7.854 0Zm0 .831c-.067 0-.211.146-.455.462-.243.316-.504.686-.731 1.077-.648 1.055-1.012 1.924-1.012 2.44a2.212 2.212 0 0 0 1.068 1.992 2.181 2.181 0 0 0 2.247 0 2.213 2.213 0 0 0 1.067-1.992c0-.516-.36-1.385-1.004-2.44A12.274 12.274 0 0 0 8.3 1.293C8.068.977 7.924.831 7.854.831Z"/>
</svg>