<svg xmlns="http://www.w3.org/2000/svg" width="16" height="16" fill="currentColor" class="qi-2033" viewBox="0 0 16 16">
  <path d="M10.833 13c1.809-.038 2.828.07 4.594.485a.47.47 0 0 0 .562-.377.497.497 0 0 0-.357-.593c-1.84-.432-2.934-.548-4.818-.508-1.174.025-2.072.274-2.922.51l-.012.003c-.852.236-1.657.458-2.713.48-1.809.038-2.828-.07-4.594-.485a.47.47 0 0 0-.562.377.497.497 0 0 0 .357.593c1.84.432 2.934.548 4.818.508 1.174-.025 2.072-.274 2.922-.51l.012-.003c.852-.236 1.657-.458 2.713-.48Zm0 2c1.809-.038 2.828.07 4.594.485a.47.47 0 0 0 .562-.377.497.497 0 0 0-.357-.593c-1.84-.432-2.934-.548-4.818-.508-1.174.025-2.072.274-2.922.51l-.012.003c-.852.236-1.657.458-2.713.48-1.809.038-2.828-.07-4.594-.485a.47.47 0 0 0-.562.377.497.497 0 0 0 .357.593c1.84.432 2.934.547 4.818.508 1.174-.025 2.072-.274 2.922-.51l.012-.003c.852-.236 1.657-.458 2.713-.48ZM5.317 6.667a2.667 2.667 0 0 0 5.333 0c0-.307-.088-.722-.273-1.235a12.677 12.677 0 0 0-.759-1.652 27.974 27.974 0 0 0-1.635-2.633A27.97 27.97 0 0 0 6.348 3.78a12.67 12.67 0 0 0-.758 1.652c-.185.513-.273.928-.273 1.235ZM7.574.569c.138-.196.275-.387.41-.569.133.182.27.373.409.57 1.392 1.976 2.924 4.58 2.924 6.097a3.333 3.333 0 1 1-6.667 0c0-1.516 1.532-4.121 2.924-6.098Z"/>
</svg>