<svg xmlns="http://www.w3.org/2000/svg" width="16" height="16" fill="currentColor" class="qi-2051" viewBox="0 0 16 16">
  <path d="M2 9h6a1 1 0 1 0-.943-1.333.5.5 0 1 1-.943-.334A2 2 0 1 1 8 10H2a.5.5 0 0 1 0-1Z"/>
  <path d="M11.079 8.375A2.5 2.5 0 0 1 16 9c0 1.397-1.24 2.5-2.5 2.5H.5a.5.5 0 0 1 0-1h13c.74 0 1.5-.688 1.5-1.5a1.5 1.5 0 0 0-2.953-.375.5.5 0 1 1-.968-.25ZM2.5 12.5A.5.5 0 0 1 3 12h8a2 2 0 1 1-1.886 2.667.5.5 0 1 1 .943-.334A1 1 0 1 0 11 13H3a.5.5 0 0 1-.5-.5ZM3.17.473a.197.197 0 0 0-.34 0L.026 5.333c-.075.13.02.292.17.292h5.607a.194.194 0 0 0 .17-.291L3.17.473Zm-.637 1.608c-.024-.212.192-.393.467-.393s.491.181.467.393l-.211 1.857h-.512l-.21-1.857Zm.845 2.607a.375.375 0 1 1-.75 0 .375.375 0 0 1 .75 0Z"/>
</svg>