<svg xmlns="http://www.w3.org/2000/svg" width="16" height="16" fill="currentColor" class="qi-2072" viewBox="0 0 16 16">
  <path d="M3.002 1.313a1.687 1.687 0 1 0 0 3.374 1.687 1.687 0 0 0 0-3.375Zm.001-.374A.188.188 0 0 1 2.816.75V.19a.187.187 0 0 1 .375 0v.56a.187.187 0 0 1-.188.188Zm-1.59.657a.187.187 0 0 1-.133-.056l-.398-.397a.187.187 0 0 1 .265-.265l.399.397a.188.188 0 0 1-.133.32ZM.75 3.185H.19a.188.188 0 1 1 0-.375h.56a.188.188 0 0 1 0 .375Zm.26 1.988a.188.188 0 0 1-.133-.32l.398-.397a.188.188 0 0 1 .265.265l-.398.397a.187.187 0 0 1-.132.055ZM2.998 6a.188.188 0 0 1-.187-.188V5.25a.187.187 0 1 1 .375 0v.562A.187.187 0 0 1 2.998 6Zm1.99-.822a.187.187 0 0 1-.133-.055l-.398-.397a.187.187 0 1 1 .265-.265l.398.397a.187.187 0 0 1-.133.32Zm.826-1.987H5.25a.188.188 0 1 1 0-.375h.563a.188.188 0 0 1 0 .375ZM4.594 1.6a.188.188 0 0 1-.133-.32l.397-.398a.188.188 0 0 1 .266.265l-.398.397a.187.187 0 0 1-.132.055ZM10 3a.5.5 0 0 0-.5.5v6.063a2 2 0 1 0 1 0V3.5A.5.5 0 0 0 10 3Z"/>
  <path d="m8.168 8.755.532-.356V2.5a1.3 1.3 0 0 1 2.6 0v.9a.6.6 0 1 0 1.2 0v-.9a2.5 2.5 0 0 0-5 0v5.258a4.5 4.5 0 1 0 5 0V6.6a.6.6 0 1 0-1.2 0v1.799l.532.356a3.3 3.3 0 1 1-3.665 0Z"/>
  <path d="M14 3a.4.4 0 0 0-.4.4v1.2h-1.2a.4.4 0 0 0 0 .8h1.2v1.2a.4.4 0 0 0 .8 0V5.4h1.2a.4.4 0 0 0 0-.8h-1.2V3.4A.4.4 0 0 0 14 3Z"/>
</svg>