<svg xmlns="http://www.w3.org/2000/svg" width="16" height="16" fill="currentColor" class="qi-2075" viewBox="0 0 16 16">
  <path d="m11.624 9-.792 3.21 1.168.013L9.376 16l.792-3.21L9 12.776 11.624 9Zm-5.229 3.533c-.024.043.011.093.065.093h1.468c.06 0 .094.065.055.107l-2.978 3.243c-.052.055-.151.006-.124-.063l.739-1.943c.015-.043-.019-.087-.069-.087h-1.42c-.096 0-.16-.09-.118-.17l1.397-2.636a.158.158 0 0 1 .058-.057.147.147 0 0 1 .076-.02h1.578c.054 0 .089.051.065.095l-.792 1.438Z"/>
  <path d="M7.9 10a4.99 4.99 0 0 0 3.827-1.783 3 3 0 1 0 .553-5.63A4.999 4.999 0 0 0 7.9 0a4.998 4.998 0 0 0-4.359 2.549 3 3 0 1 0 .586 5.732A4.988 4.988 0 0 0 7.9 10Zm-.791-6.398c-.057-.362.17-.8.496-.997.256-.153.551-.133.806.023l.07.042a.846.846 0 0 1 .409.853L8.532 5.8H7.454L7.11 3.602ZM8.599 6.9a.6.6 0 1 1-1.2 0 .6.6 0 0 1 1.2 0Z"/>
</svg>