<svg xmlns="http://www.w3.org/2000/svg" width="16" height="16" fill="currentColor" class="qi-2079" viewBox="0 0 16 16">
  <path d="M7.9 10a4.99 4.99 0 0 0 3.827-1.783 3 3 0 1 0 .553-5.63A4.999 4.999 0 0 0 7.9 0a4.998 4.998 0 0 0-4.359 2.549 3 3 0 1 0 .586 5.732A4.988 4.988 0 0 0 7.9 10Zm-.791-6.398c-.057-.362.17-.8.496-.997.256-.153.551-.133.806.023l.07.042a.846.846 0 0 1 .409.853L8.532 5.8H7.454L7.11 3.602ZM8.599 6.9a.6.6 0 1 1-1.2 0 .6.6 0 0 1 1.2 0Zm-6.064 3.567a.467.467 0 1 1 .933 0v.725l.628-.363a.467.467 0 1 1 .467.808L3.935 12l.628.363a.467.467 0 0 1-.467.808l-.628-.363v.725a.467.467 0 1 1-.933 0v-.725l-.628.363a.467.467 0 1 1-.467-.808L2.068 12l-.628-.363a.467.467 0 0 1 .467-.808l.628.363v-.725Zm5 2a.467.467 0 1 1 .933 0v.725l.628-.363a.467.467 0 1 1 .467.808L8.935 14l.628.363a.467.467 0 0 1-.467.808l-.628-.363v.725a.467.467 0 1 1-.933 0v-.725l-.628.363a.467.467 0 1 1-.467-.808L7.068 14l-.628-.363a.467.467 0 0 1 .467-.808l.628.363v-.725ZM13.001 10a.467.467 0 0 0-.466.467v.725l-.628-.363a.467.467 0 1 0-.467.808l.628.363-.628.363a.467.467 0 0 0 .467.808l.628-.363v.725a.467.467 0 0 0 .933 0v-.725l.628.363a.467.467 0 1 0 .467-.808L13.935 12l.628-.363a.467.467 0 0 0-.467-.808l-.628.363v-.725a.467.467 0 0 0-.467-.467Z"/>
</svg>