<svg xmlns="http://www.w3.org/2000/svg" width="16" height="16" fill="currentColor" class="qi-2080" viewBox="0 0 16 16">
  <path d="M4.603 1.616c0 1.12 1.684 1.622 3.354 1.622 1.67 0 3.354-.496 3.354-1.615C11.311.503 9.628 0 7.957 0c-1.67 0-3.354.496-3.354 1.616Zm3.354.496c-1.223 0-1.992-.305-2.242-.49.25-.19 1.02-.488 2.242-.488 1.223 0 1.993.304 2.243.489-.25.191-1.02.489-2.243.489Zm-.519 10.232c-1.48 0-2.874-.185-3.933-.51-1.295-.404-1.946-.986-1.946-1.722a1.2 1.2 0 0 1 .256-.73.493.493 0 0 1 .737-.085.594.594 0 0 1 .059.822c.164.333 1.749 1.098 4.827 1.098 3.077 0 4.662-.765 4.827-1.098a.045.045 0 0 1-.007-.01.593.593 0 0 1 .065-.813.498.498 0 0 1 .737.086 1.2 1.2 0 0 1 .257.73c0 .744-.658 1.325-1.947 1.722-1.058.332-2.453.51-3.932.51Zm-.02 2.664c-1.887 0-3.788-.539-3.788-1.736 0-.206.06-.404.178-.588a.503.503 0 0 1 .73-.142.596.596 0 0 1 .17.723c.218.212 1.138.616 2.71.616s2.492-.396 2.71-.616a.595.595 0 0 1 .17-.716.498.498 0 0 1 .73.142c.119.184.178.382.178.588 0 .411-.23.978-1.315 1.368-.665.226-1.546.361-2.473.361Z"/>
  <path d="M7.78 9.389c-1.986 0-3.867-.262-5.288-.744C.434 7.957 0 7.036 0 6.385c0-.808.658-1.368 1.203-1.694a.514.514 0 0 1 .717.22.595.595 0 0 1-.204.772c-.493.29-.664.553-.664.701 0 .638 2.374 1.871 6.728 1.871 4.353 0 6.727-1.24 6.727-1.87 0-.15-.17-.412-.664-.702-.257-.149-.348-.496-.204-.772a.502.502 0 0 1 .717-.22c.552.326 1.203.886 1.203 1.693 0 .652-.434 1.573-2.492 2.268-1.42.475-3.301.737-5.287.737Z"/>
  <path d="M4.32 5.747c.934.354 2.177.545 3.486.545 1.309 0 2.545-.191 3.485-.545 1.427-.539 1.73-1.262 1.73-1.779 0-.383-.178-.95-1-1.438a.51.51 0 0 0-.716.226c-.139.277-.046.624.21.773.368.22.454.404.454.446 0 .277-1.296 1.19-4.163 1.19s-4.163-.913-4.163-1.19c0-.05.08-.227.454-.446a.595.595 0 0 0 .21-.773c-.144-.276-.46-.375-.716-.226-.829.489-1 1.055-1 1.438 0 .517.303 1.247 1.73 1.779ZM4.058 16c.308 0 .559-.27.559-.602 0-.333-.25-.603-.56-.603-.308 0-.558.27-.558.603 0 .332.25.602.559.602Zm8.207-.68c0 .332-.25.602-.56.602-.308 0-.558-.27-.558-.602 0-.333.25-.603.559-.603.308 0 .559.27.559.603ZM.822 12.372c.36 0 .651-.314.651-.701 0-.388-.291-.702-.651-.702-.36 0-.651.314-.651.702 0 .387.291.701.651.701ZM16 10.012c0 .388-.291.702-.651.702-.36 0-.651-.314-.651-.702 0-.387.291-.701.651-.701.36 0 .651.314.651.701Z"/>
</svg>