<svg xmlns="http://www.w3.org/2000/svg" width="16" height="16" fill="currentColor" class="qi-2106" viewBox="0 0 16 16">
  <path d="M5 .5a.5.5 0 1 1-1 0 .5.5 0 0 1 1 0ZM2.5 3a.5.5 0 1 0 0-1 .5.5 0 0 0 0 1Zm-2 2a.5.5 0 1 0 0-1 .5.5 0 0 0 0 1Zm5-2a.5.5 0 1 0 0-1 .5.5 0 0 0 0 1Zm5.5-.5a.5.5 0 1 1-1 0 .5.5 0 0 1 1 0ZM8 2a.5.5 0 1 0 0-1 .5.5 0 0 0 0 1Zm4-1.5a.5.5 0 1 1-1 0 .5.5 0 0 1 1 0ZM13.5 3a.5.5 0 1 0 0-1 .5.5 0 0 0 0 1ZM16 4.5a.5.5 0 1 1-1 0 .5.5 0 0 1 1 0ZM.5 11a.5.5 0 1 1 0 1 .5.5 0 0 1 0-1ZM3 13.5a.5.5 0 1 0-1 0 .5.5 0 0 0 1 0ZM4.5 15a.5.5 0 1 1 0 1 .5.5 0 0 1 0-1ZM6 13.5a.5.5 0 1 0-1 0 .5.5 0 0 0 1 0Zm4.5-.5a.5.5 0 1 1 0 1 .5.5 0 0 1 0-1Zm-2 1.5a.5.5 0 1 0-1 0 .5.5 0 0 0 1 0Zm3 .5a.5.5 0 1 1 0 1 .5.5 0 0 1 0-1Zm2.5-1.5a.5.5 0 1 0-1 0 .5.5 0 0 0 1 0Zm1.5-2.5a.5.5 0 1 1 0 1 .5.5 0 0 1 0-1Z"/>
  <path d="M7.9 13a4.99 4.99 0 0 0 3.827-1.783 3 3 0 1 0 .553-5.63A4.999 4.999 0 0 0 7.9 3a4.998 4.998 0 0 0-4.359 2.549 3 3 0 1 0 .586 5.732A4.988 4.988 0 0 0 7.9 13Zm.495-5.467c-.024.043.011.093.065.093h1.468c.06 0 .094.065.055.107l-2.978 3.243c-.052.055-.151.006-.124-.063L7.62 8.97c.015-.043-.019-.087-.069-.087h-1.42c-.096 0-.16-.09-.118-.17L7.41 6.078a.159.159 0 0 1 .058-.057.147.147 0 0 1 .076-.02h1.578c.054 0 .089.051.065.094l-.792 1.439Z"/>
</svg>