<svg xmlns="http://www.w3.org/2000/svg" width="16" height="16" fill="currentColor" class="qi-2107" viewBox="0 0 16 16">
  <path d="M10.8 3.5a.9.9 0 1 1-1.8 0 .9.9 0 0 1 1.8 0Zm-3.5.9a.7.7 0 1 0 0-1.4.7.7 0 0 0 0 1.4Zm-1.7-.6a.6.6 0 1 1-1.2 0 .6.6 0 0 1 1.2 0Zm-2.2.1a.5.5 0 1 1-1 0 .5.5 0 0 1 1 0Zm9.3.5a.9.9 0 1 0 0-1.8.9.9 0 0 0 0 1.8Zm2.3 6.2a1 1 0 1 0 0-2 1 1 0 0 0 0 2Zm-5.7 0a.9.9 0 1 0 0-1.8.9.9 0 0 0 0 1.8Zm-1.9-.7a.7.7 0 1 1-1.4 0 .7.7 0 0 1 1.4 0Zm-3 .7a.6.6 0 1 0 0-1.2.6.6 0 0 0 0 1.2Zm-2.1 0a.5.5 0 1 0 0-1 .5.5 0 0 0 0 1ZM13 9.7a.9.9 0 1 1-1.8 0 .9.9 0 0 1 1.8 0ZM2.4 12.5a.9.9 0 1 0 1.8 0 .9.9 0 0 0-1.8 0Zm3.7.9a.9.9 0 1 1 0-1.8.9.9 0 0 1 0 1.8Zm1.9-.7a.7.7 0 1 0 1.4 0 .7.7 0 0 0-1.4 0Zm3 .7a.6.6 0 1 1 0-1.2.6.6 0 0 1 0 1.2Zm2.1 0a.5.5 0 1 1 0-1 .5.5 0 0 1 0 1ZM1 7.6a1 1 0 1 1 0-2 1 1 0 0 1 0 2Zm2-.9a.9.9 0 1 0 1.8 0 .9.9 0 0 0-1.8 0Zm3.7.9a.9.9 0 1 1 0-1.8.9.9 0 0 1 0 1.8Zm1.9-.7a.7.7 0 1 0 1.4 0 .7.7 0 0 0-1.4 0Zm3 .7a.6.6 0 1 1 0-1.2.6.6 0 0 1 0 1.2Zm2.1 0a.5.5 0 1 1 0-1 .5.5 0 0 1 0 1Z"/>
</svg>