<svg xmlns="http://www.w3.org/2000/svg" width="16" height="16" fill="currentColor" class="qi-2111" viewBox="0 0 16 16">
  <path d="M8 9.8a1.8 1.8 0 1 1 0-3.6 1.8 1.8 0 0 1 0 3.6Z"/>
  <path d="M14 8c0 1.167-3.59 3.5-6 3.5S2 9.167 2 8c0-1.167 3.59-3.5 6-3.5s6 2.333 6 3.5Zm-1.25-.211.001-.003-.004.008a.11.11 0 0 0 .003-.005Zm-.259.1c-.278-.286-.71-.623-1.245-.949C10.14 6.267 8.875 5.812 8 5.812s-2.14.455-3.246 1.128c-.536.326-.967.663-1.245.948-.04.04-.074.078-.104.112.03.034.064.071.104.112.278.285.71.622 1.245.948C5.86 9.733 7.125 10.187 8 10.187s2.14-.454 3.246-1.127c.536-.326.967-.663 1.245-.948.04-.04.075-.078.104-.112a2.783 2.783 0 0 0-.104-.112Z"/>
  <path d="M16 8A8 8 0 1 1 0 8a8 8 0 0 1 16 0Zm-1.3 0a6.67 6.67 0 0 0-1.352-4.037l-9.385 9.385A6.7 6.7 0 0 0 14.7 8Zm-2.385-5.126a6.7 6.7 0 0 0-9.44 9.44l9.44-9.44Z"/>
</svg>