<svg xmlns="http://www.w3.org/2000/svg" width="16" height="16" fill="currentColor" class="qi-2121" viewBox="0 0 16 16">
  <path d="M1.293 3.707A1 1 0 0 1 1 3c0-.5.555-1.395 1-2 .445.605 1 1.5 1 2a1 1 0 0 1-1.707.707Zm4 0A1 1 0 0 1 5 3c0-.5.555-1.395 1-2 .445.605 1 1.5 1 2a1 1 0 0 1-1.707.707ZM9 3a1 1 0 0 0 2 0c0-.5-.555-1.395-1-2-.445.605-1 1.5-1 2Zm4.293.707A1 1 0 0 1 13 3c0-.5.555-1.395 1-2 .445.605 1 1.5 1 2a1 1 0 0 1-1.707.707ZM3 7a1 1 0 0 0 2 0c0-.5-.555-1.395-1-2-.445.605-1 1.5-1 2Zm2.293 4.707A1 1 0 0 1 5 11c0-.5.555-1.395 1-2 .445.605 1 1.5 1 2a1 1 0 0 1-1.707.707ZM9 11a1 1 0 1 0 2 0c0-.5-.555-1.395-1-2-.445.605-1 1.5-1 2ZM7.293 7.707A1 1 0 0 1 7 7c0-.5.555-1.395 1-2 .445.605 1 1.5 1 2a1 1 0 0 1-1.707.707ZM11 7a1 1 0 0 0 2 0c0-.5-.555-1.395-1-2-.445.605-1 1.5-1 2Z"/>
  <path d="M0 10.75a.75.75 0 0 1 1.5 0v3.75h13v-3.75a.75.75 0 0 1 1.5 0v4.5a.75.75 0 0 1-.75.75H.75a.75.75 0 0 1-.75-.75v-4.5Z"/>
</svg>