<svg xmlns="http://www.w3.org/2000/svg" width="16" height="16" fill="currentColor" class="qi-2122" viewBox="0 0 16 16">
  <path d="M3.837 4.167a1.167 1.167 0 0 1 2.333 0v1.812l1.57-.906a1.167 1.167 0 1 1 1.166 2.02L7.336 8l1.57.906a1.167 1.167 0 1 1-1.166 2.021l-1.57-.906v1.812a1.167 1.167 0 1 1-2.333 0v-1.812l-1.57.906A1.167 1.167 0 1 1 1.1 8.907L2.67 8 1.1 7.094a1.167 1.167 0 0 1 1.167-2.021l1.57.906V4.167ZM14.26.5 16 1.661l-.555.832-1.258-.839-1.964.982-2-1-2 1-2-1-2 1-2-1-1.777.888L0 1.63 2.224.518l2 1 2-1 2 1 2-1 2 1L14.259.5Zm1.517 4.811L14.036 4.15 12 5.168l-1.776-.888-.448.894L12 6.286l1.964-.982 1.259.839.554-.832ZM14.26 6.727 16 7.887l-.555.833-1.258-.84-1.964.983L10 7.751l.447-.894 1.777.888 2.035-1.018Zm0 3 1.74 1.16-.555.833-1.258-.84-1.964.983L10 10.751l.447-.894 1.777.888 2.035-1.018Zm1.741 4.794-1.742-1.161-2.035 1.018-2-1-2 1-2-1-2 1-2-1L0 14.49l.447.894 1.777-.888 2 1 2-1 2 1 2-1 2 1 1.964-.982 1.258.839.555-.832Z"/>
</svg>