<svg xmlns="http://www.w3.org/2000/svg" width="16" height="16" fill="currentColor" class="qi-2123" viewBox="0 0 16 16">
  <path d="M3.5 1.25a.5.5 0 0 1 .5-.5h10a.5.5 0 0 1 0 1H4a.5.5 0 0 1-.5-.5Zm-1 1.5a.5.5 0 0 1 .5-.5h10a.5.5 0 0 1 0 1H3a.5.5 0 0 1-.5-.5Zm-1 1.5a.5.5 0 0 1 .5-.5h10a.5.5 0 0 1 0 1H2a.5.5 0 0 1-.5-.5Zm1 1.5a.5.5 0 0 1 .5-.5h10a.5.5 0 0 1 0 1H3a.5.5 0 0 1-.5-.5Zm1 1.5a.5.5 0 0 1 .5-.5h10a.5.5 0 0 1 0 1H4a.5.5 0 0 1-.5-.5ZM5 8.75a.5.5 0 0 1 .5-.5H13a.5.5 0 0 1 0 1H5.5a.5.5 0 0 1-.5-.5Zm2 1.5a.5.5 0 0 1 .5-.5H12a.5.5 0 0 1 0 1H7.5a.5.5 0 0 1-.5-.5Zm1 1.5a.5.5 0 0 1 .5-.5H11a.5.5 0 0 1 0 1H8.5a.5.5 0 0 1-.5-.5Zm-1 1.5a.5.5 0 0 1 .5-.5h2a.5.5 0 0 1 0 1h-2a.5.5 0 0 1-.5-.5Zm0 1.5a.5.5 0 0 1 .5-.5h1a.5.5 0 0 1 0 1h-1a.5.5 0 0 1-.5-.5Z"/>
</svg>