<svg xmlns="http://www.w3.org/2000/svg" width="16" height="16" fill="currentColor" class="qi-2127" viewBox="0 0 16 16">
  <path d="m6.989 9.431 4.777-.91a.39.39 0 0 1 .363.132l3.074 3.768c.182.223-.048.472-.338.366l-1.107-.403L12.806 15H16v1H0v-1h6.42l1.7-4.668-1.107-.403c-.29-.105-.307-.444-.024-.498Zm4.077 3.038-.94-.342a.5.5 0 0 0-.64.299l-.342.94a.5.5 0 0 0 .299.64l.94.342a.5.5 0 0 0 .64-.299l.342-.94a.5.5 0 0 0-.299-.64ZM1.6 2.4h4.8a.8.8 0 1 0-.755-1.067.4.4 0 0 1-.754-.266A1.6 1.6 0 1 1 6.4 3.2H1.6a.4.4 0 0 1 0-.8Z"/>
  <path d="M8.863 1.9a2 2 0 0 1 3.937.5c0 1.118-.993 2-2 2H.4a.4.4 0 0 1 0-.8h10.4c.593 0 1.2-.55 1.2-1.2a1.2 1.2 0 0 0-2.362-.3.4.4 0 1 1-.775-.2ZM2 5.2c0-.22.18-.4.4-.4h6.4a1.6 1.6 0 1 1-1.509 2.133.4.4 0 1 1 .754-.266A.8.8 0 1 0 8.8 5.6H2.4a.4.4 0 0 1-.4-.4Z"/>
</svg>