<svg xmlns="http://www.w3.org/2000/svg" width="16" height="16" fill="currentColor" class="qi-2128" viewBox="0 0 16 16">
  <path d="M2.4 11.3a.5.5 0 0 0-.8-.6 3.192 3.192 0 0 0-.6 1.8c0 .288.141.521.256.675.116.154.262.3.379.417l.011.012c.132.131.23.23.298.321.038.052.052.08.056.09a2.2 2.2 0 0 1-.4 1.185.5.5 0 0 0 .8.6c.365-.487.6-1.192.6-1.8 0-.288-.141-.521-.256-.675a4.068 4.068 0 0 0-.379-.417l-.011-.011a3.335 3.335 0 0 1-.298-.322.444.444 0 0 1-.056-.09c.004-.39.168-.875.4-1.185Zm4 0a.5.5 0 0 0-.8-.6 3.192 3.192 0 0 0-.6 1.8c0 .288.141.521.256.675.116.154.262.3.379.417l.011.012c.132.131.23.23.298.321.038.052.052.08.056.09a2.2 2.2 0 0 1-.4 1.185.5.5 0 0 0 .8.6c.365-.487.6-1.192.6-1.8 0-.288-.141-.521-.256-.675a4.068 4.068 0 0 0-.379-.417l-.011-.011a3.335 3.335 0 0 1-.298-.322.444.444 0 0 1-.056-.09c.004-.39.168-.875.4-1.185Zm3.9-.7a.5.5 0 0 1 .1.7c-.232.31-.396.795-.4 1.185.004.01.018.038.056.09.069.091.166.19.298.322l.011.011c.117.117.263.263.379.417.115.154.256.387.256.675 0 .608-.235 1.313-.6 1.8a.5.5 0 0 1-.8-.6c.232-.31.396-.795.4-1.185a.446.446 0 0 0-.056-.09 3.324 3.324 0 0 0-.298-.321l-.011-.012a4.13 4.13 0 0 1-.379-.417C9.141 13.021 9 12.788 9 12.5c0-.608.235-1.313.6-1.8a.5.5 0 0 1 .7-.1Zm4.1.7a.5.5 0 0 0-.8-.6 3.192 3.192 0 0 0-.6 1.8c0 .288.141.521.256.675.116.154.262.3.379.417l.011.012c.132.131.23.23.298.321.038.052.052.08.056.09a2.2 2.2 0 0 1-.4 1.185.5.5 0 0 0 .8.6c.365-.487.6-1.192.6-1.8 0-.288-.141-.521-.256-.675a4.058 4.058 0 0 0-.379-.417l-.011-.011a3.334 3.334 0 0 1-.298-.322.441.441 0 0 1-.056-.09c.004-.39.168-.875.4-1.185ZM8.003 2.188a2.813 2.813 0 1 0 0 5.625 2.813 2.813 0 0 0 0-5.625Zm.003-.624a.313.313 0 0 1-.313-.312V.314a.312.312 0 1 1 .625 0v.938a.312.312 0 0 1-.312.312ZM5.354 2.66a.311.311 0 0 1-.22-.091l-.665-.663a.312.312 0 0 1 .442-.442l.665.662a.312.312 0 0 1-.221.534h-.001ZM4.252 5.31h-.937a.313.313 0 1 1 0-.626h.937a.313.313 0 1 1 0 .625Zm.432 3.314a.313.313 0 0 1-.22-.534l.663-.663a.313.313 0 0 1 .442.442l-.664.663a.311.311 0 0 1-.22.091Zm3.314 1.375a.313.313 0 0 1-.313-.312v-.938a.312.312 0 1 1 .625 0v.938a.312.312 0 0 1-.312.312Zm3.314-1.37a.311.311 0 0 1-.22-.091l-.663-.663a.312.312 0 1 1 .441-.441l.663.662a.312.312 0 0 1-.22.534Zm1.377-3.311h-.938a.313.313 0 1 1 0-.625h.938a.313.313 0 1 1 0 .625Zm-2.033-2.651a.313.313 0 0 1-.221-.534l.662-.663a.313.313 0 0 1 .443.442l-.663.663a.31.31 0 0 1-.221.092Z"/>
</svg>