<svg xmlns="http://www.w3.org/2000/svg" width="16" height="16" fill="currentColor" class="qi-2130" viewBox="0 0 16 16">
  <path d="M8.375.375a.375.375 0 1 0-.75 0v.97L7.14.86a.375.375 0 1 0-.53.53l1.015 1.015V3.75l.001.03a2.248 2.248 0 0 0-1.36.787.378.378 0 0 0-.027-.017l-1.165-.672-.371-1.387a.375.375 0 1 0-.725.194l.178.663-.84-.485a.375.375 0 1 0-.375.65l.84.484-.662.178a.375.375 0 0 0 .194.724l1.386-.372 1.165.673a.38.38 0 0 0 .027.014 2.245 2.245 0 0 0 0 1.572.377.377 0 0 0-.027.014l-1.165.673L3.313 7.1a.375.375 0 1 0-.194.724l.662.178-.84.485a.375.375 0 1 0 .375.65l.84-.486-.178.663a.375.375 0 0 0 .725.194l.371-1.387L6.24 7.45a.382.382 0 0 0 .026-.017c.338.408.816.695 1.361.786a.38.38 0 0 0 0 .031v1.345L6.61 10.61a.375.375 0 0 0 .53.53l.485-.485v.97a.375.375 0 0 0 .75 0v-.97l.485.485a.375.375 0 0 0 .53-.53L8.375 9.595V8.25l-.001-.03a2.248 2.248 0 0 0 1.36-.787.383.383 0 0 0 .027.017l1.165.672.371 1.387a.375.375 0 0 0 .725-.194l-.178-.663.84.485a.375.375 0 1 0 .375-.65l-.84-.484.663-.178a.375.375 0 0 0-.195-.724l-1.386.372-1.165-.673a.364.364 0 0 0-.027-.014 2.246 2.246 0 0 0 0-1.572.364.364 0 0 0 .027-.014l1.165-.673 1.386.372a.375.375 0 0 0 .195-.724l-.663-.178.84-.485a.375.375 0 0 0-.375-.65l-.84.486.178-.663a.375.375 0 1 0-.725-.194l-.371 1.387-1.165.672a.378.378 0 0 0-.026.017 2.248 2.248 0 0 0-1.361-.786l.001-.031V2.405L9.39 1.39a.375.375 0 0 0-.53-.53l-.485.485v-.97ZM2.5 13a.5.5 0 0 0 0 1h11a.5.5 0 0 0 0-1h-11Zm-2 2a.5.5 0 0 0 0 1h15a.5.5 0 0 0 0-1H.5Z"/>
</svg>