<svg xmlns="http://www.w3.org/2000/svg" width="16" height="16" fill="currentColor" class="qi-2133" viewBox="0 0 16 16">
  <path d="M8.501 0a.35.35 0 0 0-.35.35v.544l-.47-.272a.35.35 0 1 0-.35.606l.47.272-.47.272a.35.35 0 1 0 .35.606l.47-.272v.544a.35.35 0 1 0 .7 0v-.544l.47.272a.35.35 0 0 0 .351-.606L9.201 1.5l.47-.272a.35.35 0 1 0-.35-.606l-.47.272V.35a.35.35 0 0 0-.35-.35Zm4.417 2.583a.583.583 0 0 1 1.167 0v.907l.785-.454a.583.583 0 1 1 .583 1.01l-.785.454.785.453a.583.583 0 0 1-.583 1.01l-.785-.453v.907a.583.583 0 0 1-1.167 0V5.51l-.784.454a.583.583 0 0 1-.584-1.01l.785-.454-.785-.453a.583.583 0 1 1 .583-1.01l.785.453v-.907Zm-11 2a.583.583 0 0 1 1.167 0v.907l.785-.454a.583.583 0 1 1 .583 1.01l-.785.454.785.453a.583.583 0 0 1-.583 1.01l-.785-.453v.907a.583.583 0 0 1-1.167 0V7.51l-.785.454a.583.583 0 0 1-.583-1.01l.785-.454-.785-.453a.583.583 0 0 1 .583-1.01l.785.453v-.907ZM9.25 8.25a.25.25 0 1 0-.5 0v.646l-.323-.323a.25.25 0 1 0-.354.354l.677.677v.916a1.502 1.502 0 0 0-.906.525.26.26 0 0 0-.018-.011l-.776-.449-.248-.924a.25.25 0 1 0-.483.13l.118.44-.56-.323a.25.25 0 0 0-.25.434l.56.323-.441.118a.25.25 0 0 0 .13.483l.924-.248.776.448a.269.269 0 0 0 .018.01 1.497 1.497 0 0 0 0 1.048.271.271 0 0 0-.018.01l-.776.448-.925-.248a.25.25 0 0 0-.13.483l.442.118-.56.323a.25.25 0 1 0 .25.434l.56-.324-.118.442a.25.25 0 1 0 .483.13l.248-.925.776-.448.01-.006.008-.006c.225.272.544.464.907.524v.917l-.678.677a.25.25 0 0 0 .354.354l.323-.323v.646a.25.25 0 1 0 .5 0v-.646l.323.323a.25.25 0 0 0 .354-.354l-.677-.677v-.916a1.5 1.5 0 0 0 .906-.525.262.262 0 0 0 .018.011l.776.449.248.924a.25.25 0 1 0 .483-.13l-.118-.44.56.322a.25.25 0 0 0 .25-.432l-.56-.324.441-.118a.25.25 0 0 0-.13-.483l-.924.248-.776-.448a.241.241 0 0 0-.018-.01 1.497 1.497 0 0 0 0-1.048.241.241 0 0 0 .018-.01l.777-.448.924.248a.25.25 0 0 0 .13-.483l-.442-.118.56-.323a.25.25 0 1 0-.25-.434l-.56.324.118-.442a.25.25 0 1 0-.483-.13l-.248.925-.776.448a.228.228 0 0 0-.018.012 1.499 1.499 0 0 0-.907-.524l.001-.021v-.896l.677-.677a.25.25 0 1 0-.354-.354l-.323.323V8.25ZM7.501 4a.35.35 0 0 0-.35.35v.544l-.47-.272a.35.35 0 0 0-.35.606l.47.272-.47.272a.35.35 0 1 0 .35.606l.47-.272v.544a.35.35 0 1 0 .7 0v-.544l.47.272a.35.35 0 0 0 .351-.606L8.201 5.5l.47-.272a.35.35 0 1 0-.35-.606l-.47.272V4.35a.35.35 0 0 0-.35-.35Z"/>
</svg>