<svg xmlns="http://www.w3.org/2000/svg" width="16" height="16" fill="currentColor" class="qi-2134" viewBox="0 0 16 16">
  <path d="M4.5 7a.5.5 0 0 1 .5.5v2.063a2 2 0 1 1-1 0V7.5a.5.5 0 0 1 .5-.5Z"/>
  <path d="m5.8 8.399.532.356a3.3 3.3 0 1 1-3.665 0l.533-.356V2.5a1.3 1.3 0 0 1 2.6 0v5.899ZM7 2.5a2.5 2.5 0 0 0-5 0v5.258a4.5 4.5 0 1 0 5 0V2.5Zm8 2.124L14.334 4 12.5 6.476 10.666 4 10 4.624 12.5 8 15 4.624Z"/>
  <path d="M15 7.624 14.334 7 12.5 9.476 10.666 7 10 7.624 12.5 11 15 7.624Z"/>
  <path d="m14.334 10 .666.624L12.5 14 10 10.624l.666-.624 1.834 2.476L14.334 10Z"/>
</svg>