<svg xmlns="http://www.w3.org/2000/svg" width="16" height="16" fill="currentColor" class="qi-2150" viewBox="0 0 16 16">
  <path d="M2 0a1 1 0 0 1 .5 1.864v.44l3.647.405a.499.499 0 0 1 .586-.014l5.769 4.014.009-.004.003-.002.012.023 2.76 1.92.069.056a.5.5 0 0 1 .128.225l.001.002v.002l.002.006.003.013.009.04a2.364 2.364 0 0 1 .031.546 2.99 2.99 0 0 1-.412 1.32 2.999 2.999 0 0 1-.936 1.016 2.362 2.362 0 0 1-.489.246l-.039.013-.013.004-.01.003a.501.501 0 0 1-.331-.026L3.746 7.894a.5.5 0 0 1-.173-.788L2.5 4.424V15H4v1H0v-1h1.5V1.864A.998.998 0 0 1 2 0Zm11.339 8.531a2.363 2.363 0 0 0-.82.824c-.168.29-.25.603-.287.856a2.57 2.57 0 0 0-.026.292v.031l1.3.575a1.49 1.49 0 0 0 .123-.072 2 2 0 0 0 .622-.682c.207-.357.267-.668.28-.878a1.52 1.52 0 0 0 .002-.138l-1.177-.818a2.276 2.276 0 0 1-.017.01ZM10.5 6.534a4.925 4.925 0 0 0-.311.255c-.258.228-.53.517-.703.816-.173.3-.286.68-.355 1.016a4.993 4.993 0 0 0-.066.398l-.01.107c0 .007-.003.012-.003.017l1.242.548c.076-.386.219-.862.492-1.336a4.28 4.28 0 0 1 .845-1.035L10.5 6.534ZM7.365 4.716c-.32.323-.673.732-.908 1.14-.235.407-.413.917-.533 1.356a8.69 8.69 0 0 0-.12.496l1.351.597c.006-.028.01-.057.017-.086.09-.439.26-1.051.584-1.614.305-.527.717-.959 1.043-1.255l-1.217-.847c-.066.062-.14.135-.217.213ZM2.5 3.076l1.475 3.687.02-.077c.14-.512.371-1.21.73-1.83.358-.622.847-1.17 1.22-1.547.01-.012.022-.023.034-.035a.468.468 0 0 1-.02-.084L2.5 2.806v.27Z"/>
</svg>