<svg xmlns="http://www.w3.org/2000/svg" width="16" height="16" fill="currentColor" class="qi-2157" viewBox="0 0 16 16">
  <path d="M1 10.153a.5.5 0 0 1 .3.1v.001l.004.002.014.01.06.045c.055.038.135.094.235.16.202.135.486.315.814.494.677.37 1.457.688 2.073.688.546 0 .829-.246 1.305-.636.485-.398 1.098-.864 2.195-.864.534 0 .949.11 1.296.291.336.175.588.406.79.588.212.192.375.337.58.444.194.1.448.177.834.177.877 0 1.662-.33 2.243-.678a5.755 5.755 0 0 0 .852-.626l.042-.04.008-.008.003-.002a.5.5 0 0 1 .352-.146h1v1h-.809c-.04.035-.086.077-.14.121a6.739 6.739 0 0 1-.794.558c-.67.402-1.634.821-2.757.821-.534 0-.949-.11-1.296-.29-.336-.175-.588-.406-.79-.588-.212-.193-.375-.337-.58-.444-.194-.1-.448-.178-.834-.178-.745 0-1.133.285-1.562.637-.438.36-.985.863-1.938.863-.884 0-1.854-.43-2.552-.811a11.923 11.923 0 0 1-1.108-.689H0v-1h1Z"/>
  <path d="M10.5 3.153c2.536-.97 3.494 2.976 3.5 3-.012-.014-1.745-2.201-2.5-1-.7 1.115-.324 3.462-.112 4.495.036.001.073.005.112.005.877 0 1.662-.33 2.243-.678a5.755 5.755 0 0 0 .852-.626l.042-.04.008-.008.003-.002A.5.5 0 0 1 15 8.153h1v1h-.809c-.04.036-.086.077-.14.122a6.742 6.742 0 0 1-.794.557c-.67.402-1.634.821-2.757.821-.534 0-.949-.11-1.296-.29-.336-.175-.588-.406-.79-.588-.212-.193-.375-.337-.58-.444-.194-.1-.448-.178-.834-.178-.745 0-1.133.285-1.562.637-.438.36-.985.863-1.938.863-.884 0-1.854-.43-2.552-.811A11.924 11.924 0 0 1 .84 9.153H0v-1h1c.016 0 .032.003.048.004.115-.974.49-2.913 1.667-3.383C4.295 4.144 5.978 6.194 6 6.22c-.02-.008-2.029-.783-2.5 0-.468.777-.166 2.59-.043 3.216.367.132.727.216 1.043.216.546 0 .829-.246 1.305-.636.418-.343.93-.736 1.764-.838.198-1.188.894-4.246 2.931-5.026Z"/>
</svg>