<svg xmlns="http://www.w3.org/2000/svg" width="16" height="16" fill="currentColor" class="qi-2157" viewBox="0 0 16 16">
  <path d="M3.365 7.477 0 7v9h16v-1.059s-7.605-.09-10-1.641c-1.944-1.259-1.907-4.44-2.176-5.412a.563.563 0 0 0-.46-.41Z"/>
  <path d="m4.909 7.456.867.433a.5.5 0 0 0 .448 0l1.105-.553a1.5 1.5 0 0 1 1.342 0l1.105.553a.5.5 0 0 0 .448 0l1.105-.553a1.5 1.5 0 0 1 1.342 0l1.034.517a.5.5 0 0 0 .5-.03l1.018-.679a.5.5 0 0 1 .554.832l-1.017.678a1.5 1.5 0 0 1-1.503.094l-1.033-.517a.5.5 0 0 0-.448 0l-1.105.553a1.5 1.5 0 0 1-1.342 0L8.224 8.23a.5.5 0 0 0-.448 0l-1.105.553a1.5 1.5 0 0 1-1.342 0l-.263-.132a43.765 43.765 0 0 1-.089-.676c-.024-.19-.046-.364-.068-.52Zm.419 2.609.448.224a.5.5 0 0 0 .448 0l1.105-.553a1.5 1.5 0 0 1 1.342 0l1.105.553a.5.5 0 0 0 .448 0l1.105-.553a1.5 1.5 0 0 1 1.342 0l1.034.517a.5.5 0 0 0 .5-.03l1.018-.679a.5.5 0 1 1 .554.832l-1.017.678a1.5 1.5 0 0 1-1.503.094l-1.033-.517a.5.5 0 0 0-.448 0l-1.105.553a1.5 1.5 0 0 1-1.342 0l-1.105-.553a.5.5 0 0 0-.448 0l-1.105.553a1.5 1.5 0 0 1-.935.135 7.892 7.892 0 0 1-.408-1.254ZM6.5 12.55l.83-.414a1.5 1.5 0 0 1 1.34 0l1.106.553a.5.5 0 0 0 .448 0l1.105-.553a1.5 1.5 0 0 1 1.342 0l1.034.517a.5.5 0 0 0 .5-.03l1.018-.679a.5.5 0 1 1 .554.832l-1.017.678a1.5 1.5 0 0 1-1.503.094l-1.033-.517a.5.5 0 0 0-.448 0l-1.105.553a1.5 1.5 0 0 1-1.342 0l-1.105-.553a.5.5 0 0 0-.448 0l-.404.202a3.16 3.16 0 0 1-.872-.682ZM7.801.552a.23.23 0 0 1 .398 0l3.27 5.67a.227.227 0 0 1-.198.34H4.729a.227.227 0 0 1-.198-.34L7.8.553Zm.744 1.876c.028-.247-.224-.46-.545-.46-.32 0-.573.213-.545.46l.247 2.166h.596l.247-2.166Zm-.986 3.04a.438.438 0 1 0 .875 0 .438.438 0 0 0-.875 0Z"/>
</svg>