<svg xmlns="http://www.w3.org/2000/svg" width="16" height="16" fill="currentColor" class="qi-2162" viewBox="0 0 16 16">
  <path d="M10.833 13c1.809-.038 2.828.07 4.594.485a.47.47 0 0 0 .562-.377.497.497 0 0 0-.357-.593c-1.84-.432-2.934-.548-4.818-.508-1.174.025-2.072.274-2.922.51l-.012.003c-.852.236-1.657.458-2.713.48-1.809.038-2.828-.07-4.594-.485a.47.47 0 0 0-.562.377.497.497 0 0 0 .357.593c1.84.432 2.934.548 4.818.508 1.174-.025 2.072-.274 2.922-.51l.012-.003c.852-.236 1.657-.458 2.713-.48Zm0 2c1.809-.038 2.828.07 4.594.485a.47.47 0 0 0 .562-.377.497.497 0 0 0-.357-.593c-1.84-.432-2.934-.548-4.818-.508-1.174.025-2.072.274-2.922.51l-.012.003c-.852.236-1.657.458-2.713.48-1.809.038-2.828-.07-4.594-.485a.47.47 0 0 0-.562.377.497.497 0 0 0 .357.593c1.84.432 2.934.547 4.818.508 1.174-.025 2.072-.274 2.922-.51l.012-.003c.852-.236 1.657-.458 2.713-.48ZM2.062 3.644a1.83 1.83 0 0 1 .183-1.39C2.703 1.463 4.402.553 5.66 0c.151 1.366.213 3.292-.245 4.085a1.83 1.83 0 0 1-3.353-.441Z"/>
  <path d="M2.087 10.101a2.562 2.562 0 0 1 .256-1.944c.64-1.11 3.02-2.384 4.781-3.157.212 1.912.298 4.61-.343 5.719a2.562 2.562 0 0 1-4.694-.618Zm9.158-5.846a1.83 1.83 0 1 0 3.17 1.83c.458-.793.396-2.72.245-4.085-1.258.552-2.957 1.462-3.415 2.255Z"/>
</svg>