<svg xmlns="http://www.w3.org/2000/svg" width="16" height="16" fill="currentColor" class="qi-2167" viewBox="0 0 16 16">
  <path d="M11 16H6v-1h2v-2H6v-1h2v-1h3v5Zm0-8H8V7H6V6h2V4H6V3h2V1H6V0h5v8ZM.084 8.783a.5.5 0 0 1 .693-.139l1.018.678a.5.5 0 0 0 .5.031l1.034-.517a1.5 1.5 0 0 1 1.342 0l1.105.553a.5.5 0 0 0 .448 0l1.105-.553a1.5 1.5 0 0 1 1.342 0l1.105.553a.5.5 0 0 0 .448 0l1.105-.553a1.5 1.5 0 0 1 1.342 0l1.034.517a.5.5 0 0 0 .5-.03l1.018-.679a.5.5 0 0 1 .554.832l-1.017.678a1.5 1.5 0 0 1-1.503.094l-1.033-.517a.5.5 0 0 0-.448 0l-1.105.553a1.5 1.5 0 0 1-1.342 0L8.224 9.73a.5.5 0 0 0-.448 0l-1.105.553a1.5 1.5 0 0 1-1.342 0L4.224 9.73a.5.5 0 0 0-.448 0l-1.033.517a1.5 1.5 0 0 1-1.503-.094L.223 9.476a.5.5 0 0 1-.139-.693Z"/>
</svg>