<svg xmlns="http://www.w3.org/2000/svg" width="16" height="16" fill="currentColor" class="qi-2190" viewBox="0 0 16 16">
  <path d="M7.408 0h3.378c.164 0 .264.195.174.342L9.1 2.75a.108.108 0 0 0 .032.145c.015.01.032.014.05.014h1.956c.26 0 .394.332.216.535L5.572 10 6.95 4.949a.11.11 0 0 0-.016-.091.1.1 0 0 0-.034-.03.092.092 0 0 0-.043-.012h-2a.282.282 0 0 1-.147-.041.307.307 0 0 1-.109-.115.333.333 0 0 1-.004-.314L7.098.195A.352.352 0 0 1 7.408 0ZM.134 12.432a1 1 0 0 1-.1-.759c.13-.483.898-1.204 1.484-1.673.272.7.577 1.708.448 2.19a1 1 0 0 1-1.832.242Zm3 0a1 1 0 0 1-.1-.759c.13-.483.898-1.204 1.484-1.673.272.7.577 1.708.448 2.19a1 1 0 0 1-1.832.242ZM7 13a1 1 0 1 0 2 0c0-.5-.555-1.395-1-2-.445.605-1 1.5-1 2Zm7.497-.202a1 1 0 0 1-.466-.607c-.13-.483.175-1.492.448-2.191.586.47 1.354 1.19 1.484 1.673a1 1 0 0 1-1.466 1.125Zm-3.467-.608a1 1 0 1 0 1.933-.517c-.13-.483-.898-1.204-1.484-1.673-.273.7-.578 1.708-.448 2.19Zm-6.737 3.517A1 1 0 0 1 4 15c0-.5.555-1.395 1-2 .445.605 1 1.5 1 2a1 1 0 0 1-1.707.707ZM1 15a1 1 0 1 0 2 0c0-.5-.555-1.395-1-2-.445.605-1 1.5-1 2Zm9.293.707A1 1 0 0 1 10 15c0-.5.555-1.395 1-2 .445.605 1 1.5 1 2a1 1 0 0 1-1.707.707ZM13 15a1 1 0 0 0 2 0c0-.5-.555-1.395-1-2-.445.605-1 1.5-1 2Z"/>
</svg>