<svg xmlns="http://www.w3.org/2000/svg" width="16" height="16" fill="currentColor" class="qi-2192" viewBox="0 0 16 16">
  <path d="M15.454 5.05c-.818.27-1.09.99-1 1.44-.636-.72-.636-1.53-.545-2.79-1.909.72-1.455 2.88-1.545 3.6-.455-.45-.546-1.35-.546-1.35-.545.27-.818.99-.818 1.62C11 9.01 12.182 10 13.546 10A2.432 2.432 0 0 0 16 7.57c0-.99-.546-1.26-.546-2.52Z"/>
  <path d="M14.7 10.8v-.2c-.4.2-.8.2-1.3.2-.9 0-1.7-.3-2.3-.8-.3.4-.6.9-.8 1.4-.4 1.1-.7 2-.8 2.8-.1-1.6-.3-4.2-1.1-6.6C7 3.1 2.2 0 2.2 0s2.6 6.5 2.9 9.8c.3 2.2-.1 4.3-.3 5.4-.1-.8-.3-2-.9-3.3C2.8 9.3 0 7.6 0 7.6s1.4 3.2 1.7 5.1c.2 1.8-.4 3.3-.4 3.3h13.5c.1 0-1-1.5-.1-5.2Z"/>
</svg>