<svg xmlns="http://www.w3.org/2000/svg" width="16" height="16" fill="currentColor" class="qi-2200" viewBox="0 0 16 16">
  <path d="M1.293 2.707A1 1 0 0 1 1 2c0-.5.555-1.395 1-2 .445.605 1 1.5 1 2a1 1 0 0 1-1.707.707ZM7.268 4h4.053c.197 0 .316.233.209.411L9.299 7.298a.13.13 0 0 0 .037.175.11.11 0 0 0 .06.017h2.347c.312 0 .473.398.26.641L5.064 16l1.652-6.062a.133.133 0 0 0-.019-.109.119.119 0 0 0-.04-.036.11.11 0 0 0-.053-.014H4.206a.339.339 0 0 1-.176-.05.368.368 0 0 1-.13-.137.4.4 0 0 1-.005-.377l3-4.982A.422.422 0 0 1 7.269 4ZM9 2a1 1 0 0 0 2 0c0-.5-.555-1.395-1-2-.445.605-1 1.5-1 2Zm4.293.707A1 1 0 0 1 13 2c0-.5.555-1.395 1-2 .445.605 1 1.5 1 2a1 1 0 0 1-1.707.707ZM5 2a1 1 0 0 0 2 0c0-.5-.555-1.395-1-2-.445.605-1 1.5-1 2Z"/>
</svg>