<svg xmlns="http://www.w3.org/2000/svg" width="16" height="16" fill="currentColor" class="qi-2201" viewBox="0 0 16 16">
  <path d="M2 6h6a1 1 0 1 0-.943-1.333.5.5 0 1 1-.943-.334A2 2 0 1 1 8 7H2a.5.5 0 0 1 0-1Z"/>
  <path d="M11.079 5.375A2.5 2.5 0 0 1 16 6c0 1.397-1.24 2.5-2.5 2.5H.5a.5.5 0 0 1 0-1h13c.74 0 1.5-.688 1.5-1.5a1.5 1.5 0 0 0-2.953-.375.5.5 0 1 1-.968-.25ZM2.5 9.5A.5.5 0 0 1 3 9h8a2 2 0 1 1-1.886 2.667.5.5 0 1 1 .943-.334A1 1 0 1 0 11 10H3a.5.5 0 0 1-.5-.5Zm0-8.5a.5.5 0 0 0 0 1h4a.5.5 0 0 0 0-1h-4Zm9 0a.5.5 0 0 0 0 1h4a.5.5 0 0 0 0-1h-4ZM8 1.5a.5.5 0 0 1 .5-.5h1a.5.5 0 0 1 0 1h-1a.5.5 0 0 1-.5-.5ZM.5 14a.5.5 0 0 0 0 1h4a.5.5 0 0 0 0-1h-4Zm5.5.5a.5.5 0 0 1 .5-.5h1a.5.5 0 0 1 0 1h-1a.5.5 0 0 1-.5-.5Zm3.5-.5a.5.5 0 0 0 0 1h4a.5.5 0 0 0 0-1h-4Z"/>
</svg>