<svg xmlns="http://www.w3.org/2000/svg" width="16" height="16" fill="currentColor" class="qi-2202" viewBox="0 0 16 16">
  <path d="M5.118 2.523c.99.75 1.528 1.506 1.749 2.244-.842.577-1.48 1.186-1.945 1.815-.65-.919-1.282-2.028-1.96-3.394-.046-.094.05.183.126.403l.074.215a12.057 12.057 0 0 0 1.53 3.11 5.18 5.18 0 0 0-.646 1.451c-.706-.076-1.495-.504-2.013-1.826-.775-1.978-.525-4.786-.378-6.129.026-.236.152-.057.284.152.274.433.924.746 1.631 1.087.53.255 1.09.525 1.548.872Zm6.9 3.832c-3.232 4.682-5.812 7.397-8.965 9.11-1.01.547-3.059-.4-1.468-.493.94-.055 1.797-.586 2.378-.946l.069-.042c.087-.053.787-.842.821-.94a.442.442 0 0 0-.003-.298C3.828 9.984 4.19 6.98 8.46 4.628c.883-.486 1.923-.811 2.904-1.118 1.312-.41 2.52-.788 3.106-1.474.281-.33.546-.61.53-.19-.094 2.385-.388 7.356-2.24 10.61-2.094 3.674-4.864 2.684-6.034 2.059a.402.402 0 0 1-.094-.65c1.293-1.232 3.311-3.278 4.882-6.483l.182-.356c.19-.365.427-.823.322-.671Z"/>
</svg>