<svg xmlns="http://www.w3.org/2000/svg" width="16" height="16" fill="currentColor" class="qi-2203" viewBox="0 0 16 16">
  <path d="M11.34 3.333a1.667 1.667 0 1 0 3.333 0c0-.833-.925-2.325-1.666-3.333-.741 1.008-1.667 2.5-1.667 3.333ZM2.219 9.121A3 3 0 0 1 1.34 7c0-1.5 1.666-4.185 3-6 .7.953 1.493 2.147 2.087 3.283-1.226 1.887-2.37 3.96-2.85 5.618a3 3 0 0 1-1.358-.78Zm5.88-.519c-.057-.362.17-.8.496-.997.256-.153.551-.133.806.023l.07.042a.846.846 0 0 1 .41.853l-.36 2.277H8.444L8.1 8.602ZM9.59 11.9a.6.6 0 1 1-1.2 0 .6.6 0 0 1 1.2 0Z"/>
  <path d="M8.244 3.067C6.348 5.797 4.34 9.28 4.34 11.333a4.667 4.667 0 1 0 9.333 0c0-2.054-2.008-5.536-3.904-8.266A49.186 49.186 0 0 0 9.007 2a49.22 49.22 0 0 0-.763 1.067Zm-2.66 8.266c0-.377.11-.92.364-1.623.248-.689.608-1.46 1.044-2.27a37.761 37.761 0 0 1 2.015-3.285 37.754 37.754 0 0 1 2.015 3.284c.435.811.795 1.582 1.043 2.27.254.704.364 1.247.364 1.624a3.422 3.422 0 1 1-6.845 0Z"/>
</svg>