<svg xmlns="http://www.w3.org/2000/svg" width="16" height="16" fill="currentColor" class="qi-2204" viewBox="0 0 16 16">
  <path d="M0 3.5A.5.5 0 0 1 .5 3h15a.5.5 0 0 1 0 1H.5a.5.5 0 0 1-.5-.5Zm0 3c0-.276.249-.5.556-.5h8.888c.307 0 .556.224.556.5s-.249.5-.556.5H.556C.249 7 0 6.776 0 6.5ZM6.556 9C6.249 9 6 9.224 6 9.5s.249.5.556.5h8.888c.307 0 .556-.224.556-.5s-.249-.5-.556-.5H6.556ZM11 6.5c0-.276.187-.5.417-.5h4.166c.23 0 .417.224.417.5s-.187.5-.417.5h-4.166c-.23 0-.417-.224-.417-.5ZM.417 9C.187 9 0 9.224 0 9.5s.187.5.417.5h4.166c.23 0 .417-.224.417-.5S4.813 9 4.583 9H.417ZM0 12.5c0-.276.249-.5.556-.5h8.888c.307 0 .556.224.556.5s-.249.5-.556.5H.556C.249 13 0 12.776 0 12.5Zm13.5.5a.5.5 0 1 0 0-1 .5.5 0 0 0 0 1Zm-1.5-.5a.5.5 0 1 1-1 0 .5.5 0 0 1 1 0Zm3.5.5a.5.5 0 1 0 0-1 .5.5 0 0 0 0 1Z"/>
</svg>