<svg xmlns="http://www.w3.org/2000/svg" width="16" height="16" fill="currentColor" class="qi-2205" viewBox="0 0 16 16">
  <path d="M11.5 3a.5.5 0 0 0-.5.5v6.063a2 2 0 1 0 1 0V3.5a.5.5 0 0 0-.5-.5Z"/>
  <path d="m10.2 8.399-.532.356a3.3 3.3 0 1 0 3.665 0l-.533-.356V2.5a1.3 1.3 0 1 0-2.6 0v5.899ZM9 2.5a2.5 2.5 0 0 1 5 0v5.258a4.5 4.5 0 1 1-5 0V2.5Zm-2.503.577a.658.658 0 0 1-.92-.516L5.44 1.484A.658.658 0 0 1 6.008.75a.669.669 0 0 1 .734.569l.136 1.077a.658.658 0 0 1-.38.681ZM3.122 4.784a.653.653 0 0 1-.229-.115l-.857-.665a.66.66 0 0 1-.117-.922.658.658 0 0 1 .92-.117l.857.664a.658.658 0 0 1-.574 1.155ZM2.72 6.877a.664.664 0 0 1 .25.433.658.658 0 0 1-.568.734l-1.075.138a.657.657 0 0 1-.166-1.304l1.077-.137c.172-.02.345.03.482.136Zm-.044 4.132.664-.859a.657.657 0 1 1 1.037.804l-.664.859a.65.65 0 0 1-.92.118.66.66 0 0 1-.117-.922Z"/>
  <path d="M6.748 4.068a2.986 2.986 0 0 1 1.743.415l-.388.94a2 2 0 1 0-1.488 3.61l-.387.94a3.001 3.001 0 0 1 .52-5.905Z"/>
</svg>