<svg xmlns="http://www.w3.org/2000/svg" width="16" height="16" fill="currentColor" class="qi-2212" viewBox="0 0 16 16">
  <path d="M7.704 5.954c-.245.147-.415.476-.372.747L7.59 8.35h.808l.269-1.708a.635.635 0 0 0-.307-.64l-.053-.031a.57.57 0 0 0-.604-.017ZM8 9.625a.45.45 0 1 0 0-.9.45.45 0 0 0 0 .9Z"/>
  <path d="M7.925 11.5a3.74 3.74 0 0 0 2.756-1.207.252.252 0 0 1 .274-.063 2.25 2.25 0 1 0 .424-4.325.251.251 0 0 1-.256-.114A3.748 3.748 0 0 0 7.925 4a3.748 3.748 0 0 0-3.188 1.774.25.25 0 0 1-.24.114 2.25 2.25 0 1 0 .447 4.377.25.25 0 0 1 .26.065 3.74 3.74 0 0 0 2.721 1.17Zm2.929-2.172c-.13-.096-.329-.073-.417.062a2.998 2.998 0 0 1-2.512 1.36 2.997 2.997 0 0 1-2.472-1.3c-.085-.123-.261-.148-.386-.067a1.5 1.5 0 1 1-.272-2.656c.14.054.307-.006.365-.143a3 3 0 0 1 5.548.044c.06.15.252.212.397.142a1.5 1.5 0 1 1-.251 2.558Z"/>
  <path d="M0 8a8 8 0 1 0 16 0A8 8 0 0 0 0 8Zm14.7 0A6.7 6.7 0 1 1 1.3 8a6.7 6.7 0 0 1 13.4 0Z"/>
</svg>