<svg xmlns="http://www.w3.org/2000/svg" width="16" height="16" fill="currentColor" class="qi-2213" viewBox="0 0 16 16">
  <path d="M3.188.188a.187.187 0 1 0-.376 0v.484L2.57.43a.188.188 0 0 0-.265.265l.507.508v.672l.001.015a1.124 1.124 0 0 0-.68.393.192.192 0 0 0-.014-.008l-.582-.336-.186-.693a.188.188 0 0 0-.362.097l.089.33-.42-.242a.187.187 0 1 0-.187.325L.89 2l-.332.088a.187.187 0 1 0 .097.362l.694-.185.582.336a.193.193 0 0 0 .014.007 1.123 1.123 0 0 0 0 .786.195.195 0 0 0-.014.007l-.582.336-.694-.186a.188.188 0 0 0-.097.363L.89 4l-.42.243a.188.188 0 0 0 .188.325l.42-.243-.089.331a.188.188 0 0 0 .362.097l.186-.693.582-.336a.186.186 0 0 0 .014-.008c.168.204.408.347.68.393v.687l-.508.508a.187.187 0 1 0 .265.265l.243-.242v.484a.188.188 0 0 0 .374 0v-.484l.243.242a.187.187 0 1 0 .265-.265l-.507-.508v-.672l-.001-.015c.272-.046.512-.19.68-.393a.187.187 0 0 0 .014.008l.582.336.186.693a.188.188 0 0 0 .362-.097l-.089-.33.42.242a.187.187 0 1 0 .187-.325L5.11 4l.332-.088a.187.187 0 1 0-.097-.362l-.694.185-.582-.336a.196.196 0 0 0-.014-.007 1.123 1.123 0 0 0 0-.786.194.194 0 0 0 .014-.007l.582-.336.694.186a.188.188 0 0 0 .097-.363L5.11 2l.42-.243a.188.188 0 0 0-.188-.325l-.42.243.089-.331a.188.188 0 0 0-.362-.097l-.186.693-.582.336a.187.187 0 0 0-.014.008 1.124 1.124 0 0 0-.68-.393v-.687l.508-.508A.188.188 0 0 0 3.43.43l-.243.242V.187Zm2.937 11.937a.125.125 0 0 0-.25 0v.323l-.162-.161a.125.125 0 0 0-.176.176l.338.339v.448a.13.13 0 0 0 0 .01.75.75 0 0 0-.453.262.183.183 0 0 0-.009-.005l-.388-.224-.124-.463a.125.125 0 1 0-.241.065l.059.22-.28-.16a.125.125 0 0 0-.125.216l.28.161-.221.06a.125.125 0 0 0 .065.241l.462-.124.388.224a.161.161 0 0 0 .01.005.748.748 0 0 0 0 .524.161.161 0 0 0-.01.005l-.388.224-.462-.124a.125.125 0 1 0-.065.241l.22.06-.28.161a.125.125 0 0 0 .126.217l.28-.162-.06.22a.125.125 0 0 0 .242.066l.124-.463.388-.224a.13.13 0 0 0 .009-.005.75.75 0 0 0 .453.262.13.13 0 0 0 0 .01v.448l-.338.339a.125.125 0 0 0 .176.176l.162-.161v.323a.125.125 0 0 0 .25 0v-.323l.162.161a.125.125 0 0 0 .176-.176l-.338-.339v-.448a.13.13 0 0 0 0-.01.75.75 0 0 0 .453-.262.184.184 0 0 0 .01.005l.387.224.124.463a.125.125 0 1 0 .242-.065l-.06-.22.28.16a.125.125 0 0 0 .125-.216l-.28-.161.221-.06a.125.125 0 0 0-.065-.241l-.462.124-.388-.224a.115.115 0 0 0-.009-.005.748.748 0 0 0 0-.524.117.117 0 0 0 .01-.005l.387-.224.462.124a.125.125 0 1 0 .065-.241l-.22-.06.28-.161a.125.125 0 0 0-.126-.217l-.28.162.06-.22a.125.125 0 0 0-.242-.066l-.124.463-.388.224a.184.184 0 0 0-.009.005.75.75 0 0 0-.453-.262.13.13 0 0 0 0-.01v-.448l.338-.339a.125.125 0 0 0-.176-.176l-.162.161v-.323Zm5-11a.125.125 0 1 0-.25 0v.323l-.162-.161a.125.125 0 1 0-.176.176l.338.339v.458a.75.75 0 0 0-.453.262.123.123 0 0 0-.009-.005l-.388-.224L9.9 1.83a.125.125 0 1 0-.241.065l.059.22-.28-.16a.125.125 0 1 0-.125.216l.28.161-.221.06a.125.125 0 1 0 .065.241l.462-.124.388.224a.123.123 0 0 0 .01.005.746.746 0 0 0 0 .524.12.12 0 0 0-.01.005L9.9 3.49l-.462-.124a.125.125 0 1 0-.065.241l.22.06-.28.161a.125.125 0 1 0 .126.217l.28-.162-.06.22a.125.125 0 0 0 .242.066l.124-.463.388-.224a.11.11 0 0 0 .009-.005.75.75 0 0 0 .454.262l-.001.01v.448l-.338.339a.125.125 0 1 0 .176.176l.162-.161v.323a.125.125 0 0 0 .25 0v-.323l.162.161a.125.125 0 1 0 .176-.176l-.338-.339V3.74a.75.75 0 0 0 .453-.262.107.107 0 0 0 .01.005l.387.224.124.463a.125.125 0 0 0 .242-.065l-.06-.22.28.16a.125.125 0 0 0 .125-.216l-.28-.161.221-.06a.125.125 0 0 0-.065-.241l-.462.124-.388-.224a.12.12 0 0 0-.009-.005.749.749 0 0 0 0-.524.12.12 0 0 0 .01-.005l.387-.224.463.124a.125.125 0 0 0 .064-.241l-.22-.06.28-.161a.125.125 0 1 0-.126-.217l-.28.162.06-.22a.125.125 0 0 0-.242-.066l-.124.463-.388.224a.105.105 0 0 0-.009.005.75.75 0 0 0-.453-.262v-.458l.338-.339a.125.125 0 0 0-.176-.176l-.162.161v-.323ZM2 7h6a1 1 0 1 0-.943-1.333.5.5 0 1 1-.943-.334A2 2 0 1 1 8 8H2a.5.5 0 0 1 0-1Z"/>
  <path d="M11.079 6.375A2.5 2.5 0 0 1 16 7c0 1.397-1.24 2.5-2.5 2.5H.5a.5.5 0 0 1 0-1h13c.74 0 1.5-.688 1.5-1.5a1.5 1.5 0 0 0-2.953-.375.5.5 0 1 1-.968-.25ZM2.5 10.5A.5.5 0 0 1 3 10h8a2 2 0 1 1-1.886 2.667.5.5 0 1 1 .943-.334A1 1 0 1 0 11 11H3a.5.5 0 0 1-.5-.5Z"/>
</svg>