<svg xmlns="http://www.w3.org/2000/svg" width="16" height="16" fill="currentColor" class="qi-2218" viewBox="0 0 16 16">
  <path d="M9.985 9.75a.187.187 0 1 0 .265-.265L8.187 7.422v.53L9.986 9.75ZM5.75 9.485a.187.187 0 1 0 .265.265l1.797-1.797v-.53L5.75 9.484Zm4.5-6.97a.188.188 0 0 0-.265-.265L8.188 4.047v.53l2.062-2.062ZM6.015 2.25a.187.187 0 1 0-.265.265l2.062 2.063v-.53L6.015 2.25Zm-1.5 1.5a.187.187 0 1 0-.265.265l1.797 1.797h.53L4.516 3.75ZM4.25 7.985a.187.187 0 1 0 .265.265l2.063-2.063h-.53L4.25 7.986Zm7.5-3.97a.188.188 0 0 0-.265-.265L9.422 5.812h.53l1.798-1.797Zm-.265 4.235a.187.187 0 1 0 .265-.265L9.953 6.187h-.53l2.062 2.063Z"/>
  <path d="M13.813 5.813h-2.36L12.5 4.764a.188.188 0 0 0-.265-.265L11 5.735a.185.185 0 0 0-.047.078h-2.5l3.297-3.298a.188.188 0 0 0-.265-.265L8.188 5.547v-2.5A.187.187 0 0 0 8.264 3L9.5 1.765a.187.187 0 1 0-.265-.265L8.188 2.547V.187a.187.187 0 1 0-.375 0v2.36L6.764 1.5a.187.187 0 1 0-.265.265L7.735 3c.022.022.05.038.078.047v2.5L4.515 2.25a.187.187 0 1 0-.265.265l3.297 3.297h-2.47L3.766 4.5a.187.187 0 1 0-.265.265l1.047 1.048h-2.36a.187.187 0 1 0 0 .375h2.36L3.5 7.234a.187.187 0 1 0 .265.265l1.313-1.312h2.47L4.25 9.485a.187.187 0 1 0 .265.265l3.298-3.297v2.5A.187.187 0 0 0 7.734 9L6.5 10.235a.187.187 0 1 0 .265.265l1.048-1.047v2.36a.187.187 0 0 0 .375 0v-2.36L9.235 10.5a.188.188 0 0 0 .265-.265L8.265 9a.187.187 0 0 0-.078-.047v-2.5l3.298 3.297a.187.187 0 1 0 .265-.265L8.453 6.188h2.5a.185.185 0 0 0 .047.077L12.235 7.5a.187.187 0 1 0 .265-.265l-1.047-1.048h2.36a.187.187 0 1 0 0-.375ZM2.5 13a.5.5 0 0 0 0 1h11a.5.5 0 0 0 0-1h-11Zm-2 2a.5.5 0 0 0 0 1h15a.5.5 0 0 0 0-1H.5Z"/>
</svg>