<svg xmlns="http://www.w3.org/2000/svg" width="16" height="16" fill="currentColor" class="qi-2301" viewBox="0 0 16 16">
  <path d="m.146 11.146 3-3 .708.708-3 3-.708-.708Zm0 4 4.5-4.5.708.707-4.5 4.5-.708-.707Zm4 0 3-3 .708.707-3 3-.708-.707ZM6.288 1.757a.375.375 0 0 0-.53.53l.685.686h-.686a.375.375 0 0 0 0 .75h1.436l.95.951a.381.381 0 0 0 .024.021c-.321.45-.457.991-.407 1.518a.381.381 0 0 0-.03.007l-1.3.348-1.243-.718a.375.375 0 1 0-.375.65l.594.343-.936.25a.375.375 0 0 0 .194.725l.936-.25-.342.593a.375.375 0 0 0 .65.375l.717-1.243 1.299-.348a.38.38 0 0 0 .029-.01 2.245 2.245 0 0 0 1.112 1.112.377.377 0 0 0-.01.03l-.348 1.298-1.243.718a.375.375 0 0 0 .375.65l.594-.343-.251.936a.375.375 0 1 0 .724.194l.251-.936.343.594a.375.375 0 1 0 .65-.376L9.432 9.57l.348-1.3a.38.38 0 0 0 .007-.03 2.248 2.248 0 0 0 1.518-.407.363.363 0 0 0 .02.023l.952.95v1.437a.375.375 0 0 0 .75 0v-.686l.685.686a.375.375 0 0 0 .53-.53l-.685-.686h.686a.375.375 0 0 0 0-.75h-1.436l-.95-.951a.392.392 0 0 0-.024-.021c.321-.45.457-.991.407-1.518a.37.37 0 0 0 .03-.007l1.3-.348 1.243.718a.375.375 0 1 0 .375-.65l-.594-.343.936-.25a.375.375 0 1 0-.194-.725l-.936.25.342-.593a.375.375 0 1 0-.649-.375l-.718 1.243-1.299.348a.363.363 0 0 0-.029.01 2.245 2.245 0 0 0-1.112-1.112.399.399 0 0 0 .01-.03l.348-1.298 1.243-.718a.375.375 0 0 0-.375-.65l-.594.343.251-.936a.375.375 0 1 0-.724-.194l-.251.936L10.5.812a.375.375 0 0 0-.65.375l.718 1.244-.348 1.299a.371.371 0 0 0-.007.03 2.248 2.248 0 0 0-1.518.407.382.382 0 0 0-.02-.023l-.952-.951V1.757a.375.375 0 0 0-.75 0v.686l-.685-.686ZM1.151 4.35a.35.35 0 1 1 .7 0v.544l.47-.272a.35.35 0 1 1 .35.606l-.47.272.47.272a.35.35 0 0 1-.35.606l-.47-.272v.544a.35.35 0 1 1-.7 0v-.544l-.47.272a.35.35 0 1 1-.35-.606L.8 5.5l-.47-.272a.35.35 0 0 1 .35-.606l.47.272V4.35Zm9.35 8.65a.35.35 0 0 0-.35.35v.544l-.47-.272a.35.35 0 1 0-.35.606l.47.272-.47.272a.35.35 0 1 0 .35.606l.47-.272v.544a.35.35 0 1 0 .7 0v-.544l.47.272a.35.35 0 0 0 .35-.606l-.47-.272.47-.272a.35.35 0 1 0-.35-.606l-.47.272v-.544a.35.35 0 0 0-.35-.35Z"/>
</svg>