<svg xmlns="http://www.w3.org/2000/svg" width="16" height="16" fill="currentColor" class="qi-2303" viewBox="0 0 16 16">
  <path d="M8.003 4a.933.933 0 0 0-.934.933v1.45l-1.256-.725a.933.933 0 1 0-.933 1.617L6.136 8l-1.256.725a.933.933 0 1 0 .933 1.617l1.256-.725v1.45a.933.933 0 0 0 1.867 0v-1.45l1.256.725a.933.933 0 1 0 .933-1.617L9.87 8l1.256-.725a.933.933 0 1 0-.933-1.617l-1.256.725v-1.45A.933.933 0 0 0 8.003 4Z"/>
  <path d="m10.384.455 5.14 5.154a.705.705 0 0 1 .182.68l-1.889 7.047a.704.704 0 0 1-.497.497l-7.028 1.893a.688.688 0 0 1-.677-.181l-5.14-5.154a.705.705 0 0 1-.18-.679l1.888-7.047a.705.705 0 0 1 .496-.498L9.707.274a.693.693 0 0 1 .677.181ZM6.322 14.263l6.245-1.683 1.678-6.263-4.567-4.58-6.245 1.684-1.678 6.262 4.567 4.58Z"/>
</svg>