<svg xmlns="http://www.w3.org/2000/svg" width="16" height="16" fill="currentColor" class="qi-2311" viewBox="0 0 16 16">
  <path d="M1 13a1 1 0 1 1 0-2 1 1 0 0 1 0 2Zm5.7 0a.9.9 0 1 1 0-1.8.9.9 0 0 1 0 1.8Zm1.9-.7a.7.7 0 1 0 1.4 0 .7.7 0 0 0-1.4 0Zm3 .7a.6.6 0 1 1 0-1.2.6.6 0 0 1 0 1.2Zm1.6-.5a.5.5 0 1 0 1 0 .5.5 0 0 0-1 0Zm2 3.5a1 1 0 1 0 0-2 1 1 0 0 0 0 2Zm-5.7 0a.9.9 0 1 0 0-1.8.9.9 0 0 0 0 1.8Zm-1.9-.7a.7.7 0 1 1-1.4 0 .7.7 0 0 1 1.4 0Zm-3 .7a.6.6 0 1 0 0-1.2.6.6 0 0 0 0 1.2Zm-2.1 0a.5.5 0 1 0 0-1 .5.5 0 0 0 0 1Zm10.7-.9a.9.9 0 1 1-1.8 0 .9.9 0 0 1 1.8 0ZM3 12.1a.9.9 0 1 0 1.8 0 .9.9 0 0 0-1.8 0Zm11.466-7.345a4.243 4.243 0 0 0-.836-3.122A4.106 4.106 0 0 0 10.866.028c-1.888-.243-3.62 1.12-3.86 3.039a2.945 2.945 0 0 0 .58 2.164A2.852 2.852 0 0 0 9.5 6.342a.617.617 0 0 0 .69-.54.624.624 0 0 0-.534-.7 1.639 1.639 0 0 1-1.098-.638 1.695 1.695 0 0 1-.333-1.241c.156-1.234 1.27-2.111 2.484-1.955.775.1 1.467.502 1.945 1.13.48.627.69 1.409.589 2.197a4.544 4.544 0 0 1-2.22 3.282c-1.998 1.159-4.994.916-8.662-.702a.613.613 0 0 0-.81.326.629.629 0 0 0 .319.823c1.051.463 2.014.804 2.895 1.044 3.393.922 5.567.353 6.868-.4 1.83-1.059 2.665-2.872 2.832-4.213Z"/>
  <path d="M3.17.473a.197.197 0 0 0-.34 0L.026 5.333c-.075.13.02.292.17.292h5.607a.194.194 0 0 0 .17-.291L3.17.473Zm-.637 1.608c-.024-.212.192-.393.467-.393s.491.181.467.393l-.211 1.857h-.512l-.21-1.857Zm.845 2.607a.375.375 0 1 1-.75 0 .375.375 0 0 1 .75 0Z"/>
</svg>