<svg xmlns="http://www.w3.org/2000/svg" width="16" height="16" fill="currentColor" class="qi-2317" viewBox="0 0 16 16">
  <path d="M15.427 15.485c-1.766-.416-2.785-.523-4.594-.485-1.056.022-1.861.244-2.713.48l-.012.003c-.85.236-1.748.485-2.922.51-1.884.04-2.978-.076-4.818-.508a.497.497 0 0 1-.357-.593.47.47 0 0 1 .562-.377c1.766.416 2.785.523 4.594.485 1.056-.022 1.861-.244 2.713-.48l.012-.003c.85-.236 1.748-.485 2.922-.51 1.884-.04 2.978.076 4.818.508.253.06.413.325.357.593a.47.47 0 0 1-.562.377Zm0-2c-1.766-.416-2.785-.523-4.594-.485-1.056.022-1.861.244-2.713.48l-.012.003c-.85.236-1.748.485-2.922.51-1.884.04-2.978-.076-4.818-.508a.497.497 0 0 1-.357-.593.47.47 0 0 1 .562-.377c1.766.416 2.785.523 4.594.485 1.056-.022 1.861-.244 2.713-.48l.012-.003c.85-.236 1.748-.485 2.922-.51 1.884-.04 2.978.076 4.818.508.253.06.413.325.357.593a.47.47 0 0 1-.562.377Z"/>
  <path d="M10.453 1.443a.329.329 0 0 0-.549-.147l-6.61 6.616a.324.324 0 0 0 .15.542l3.788 1.015-.917 3.424c.549-.092 1.048-.23 1.565-.373l.012-.003.082-.023.707-2.637 3.789 1.016a.324.324 0 0 0 .4-.396l-2.417-9.034Zm-1.72 2.313c.053-.35.48-.55.922-.432.443.119.712.505.582.835l-1.14 2.898-.824-.22.46-3.081Zm.236 4.561a.625.625 0 1 1-1.207-.324.625.625 0 0 1 1.207.324Z"/>
</svg>