<svg xmlns="http://www.w3.org/2000/svg" width="16" height="16" fill="currentColor" class="qi-2318" viewBox="0 0 16 16">
  <path d="M6.956 3.479 4.25 0 1.544 3.479h.974L1.09 5.381h1.311L.5 7.52h2.765v1.892c-.868-.091-1.53-.308-2.133-.506l-.16-.047a4.09 4.09 0 0 0-.302-.082L0 8.567v1.943C0 13.522 2.607 16 5.814 16h4.373C13.393 16 16 13.522 16 10.51V9.036l-.514-.13-.05-.012c-1.138-.295-2.46-.638-3.614-.8l.015-1.082H13.5L12.358 5.73h.787l-.856-1.142h.584L11.25 2.5 9.626 4.587h.585L9.354 5.73h.786L9 7.012h1.659V8h-.01c-1.084 0-2.152.364-3.186.716l-.037.013-.04.013c-.712.239-1.44.483-2.183.615l.025-1.836h2.771L6.097 5.38h1.311L5.982 3.479h.974Zm-5.927 7.015v-.6c.789.26 1.75.535 3.104.535 1.307 0 2.48-.397 3.618-.782l.035-.011c.994-.34 1.955-.664 2.864-.664 1.149 0 2.932.453 4.321.81v.712c0 .071-.002.142-.005.213-1.463-.293-2.506-.372-4.152-.34-1.174.024-2.072.26-2.922.482l-.012.003c-.852.223-1.657.432-2.713.453-1.639.033-2.63-.047-4.114-.354a4.313 4.313 0 0 1-.024-.457Zm.255 1.458c1.336.253 2.352.322 3.902.29 1.174-.023 2.072-.258 2.922-.48l.012-.004c.852-.222 1.657-.432 2.713-.453 1.59-.032 2.57.043 3.985.328a4.372 4.372 0 0 1-.602 1.297c-1.105-.18-2.05-.228-3.402-.201-1.174.023-2.072.258-2.922.48l-.012.004c-.852.223-1.657.432-2.713.453-1.155.023-1.988-.01-2.899-.139a4.471 4.471 0 0 1-.984-1.575Zm2.53 2.647c.42.014.868.014 1.372.004 1.174-.023 2.072-.258 2.922-.48l.012-.004c.852-.223 1.657-.432 2.713-.453 1.047-.021 1.83.004 2.646.105a4.921 4.921 0 0 1-3.292 1.241H5.814a5 5 0 0 1-2-.413Z"/>
</svg>