<svg xmlns="http://www.w3.org/2000/svg" width="16" height="16" fill="currentColor" class="qi-2319" viewBox="0 0 16 16">
  <path d="M10.653 1.243a.329.329 0 0 0-.549-.147l-6.61 6.616a.324.324 0 0 0 .15.542l3.788 1.015-.933 3.483.83-.416a1.5 1.5 0 0 1 .873-.144l.679-2.535 3.788 1.016a.324.324 0 0 0 .4-.396l-2.416-9.034Zm-1.72 2.313c.053-.35.48-.55.922-.432.443.12.712.505.582.835l-1.14 2.898-.824-.22.46-3.08Zm.236 4.561a.625.625 0 1 1-1.207-.323.625.625 0 0 1 1.207.323ZM.084 14.283a.5.5 0 0 1 .693-.139l1.018.678a.5.5 0 0 0 .5.031l1.034-.517a1.5 1.5 0 0 1 1.342 0l1.105.553a.5.5 0 0 0 .448 0l1.105-.553a1.5 1.5 0 0 1 1.342 0l1.105.553a.5.5 0 0 0 .448 0l1.105-.553a1.5 1.5 0 0 1 1.342 0l1.034.517a.5.5 0 0 0 .5-.03l1.018-.679a.5.5 0 1 1 .554.832l-1.017.678a1.5 1.5 0 0 1-1.503.094l-1.033-.517a.5.5 0 0 0-.448 0l-1.105.553a1.5 1.5 0 0 1-1.342 0l-1.105-.553a.5.5 0 0 0-.448 0l-1.105.553a1.5 1.5 0 0 1-1.342 0l-1.105-.553a.5.5 0 0 0-.448 0l-1.033.517a1.5 1.5 0 0 1-1.503-.094l-1.017-.678a.5.5 0 0 1-.139-.693Z"/>
  <path d="M.084 12.283a.5.5 0 0 1 .693-.139l1.018.678a.5.5 0 0 0 .5.031l1.034-.517a1.5 1.5 0 0 1 1.342 0l1.105.553a.5.5 0 0 0 .448 0l1.105-.553a1.5 1.5 0 0 1 1.342 0l1.105.553a.5.5 0 0 0 .448 0l1.105-.553a1.5 1.5 0 0 1 1.342 0l1.034.517a.5.5 0 0 0 .5-.03l1.018-.679a.5.5 0 1 1 .554.832l-1.017.678a1.5 1.5 0 0 1-1.503.094l-1.033-.517a.5.5 0 0 0-.448 0l-1.105.553a1.5 1.5 0 0 1-1.342 0l-1.105-.553a.5.5 0 0 0-.448 0l-1.105.553a1.5 1.5 0 0 1-1.342 0l-1.105-.553a.5.5 0 0 0-.448 0l-1.033.517a1.5 1.5 0 0 1-1.503-.094l-1.017-.678a.5.5 0 0 1-.139-.693Z"/>
</svg>