<svg xmlns="http://www.w3.org/2000/svg" width="16" height="16" fill="currentColor" class="qi-2324" viewBox="0 0 16 16">
  <path d="M3.188 10.188a.187.187 0 1 0-.375 0v.484l-.243-.242a.188.188 0 0 0-.265.265l.508.508v.687c-.272.046-.512.19-.68.393a.163.163 0 0 0-.014-.008l-.582-.336-.186-.693a.188.188 0 0 0-.362.097l.089.33-.42-.242a.187.187 0 1 0-.187.325l.42.242-.332.09a.187.187 0 1 0 .097.362l.694-.186.582.336a.193.193 0 0 0 .014.007 1.123 1.123 0 0 0 0 .786.195.195 0 0 0-.014.007l-.582.336-.694-.186a.188.188 0 0 0-.097.363L.89 14l-.42.243a.187.187 0 1 0 .188.325l.42-.243-.089.331a.187.187 0 1 0 .362.097l.186-.693.583-.336a.161.161 0 0 0 .013-.008c.168.204.408.347.68.393v.687l-.508.508a.188.188 0 0 0 .265.265l.243-.242v.485a.187.187 0 1 0 .375 0v-.485l.242.242a.188.188 0 0 0 .265-.265l-.507-.508v-.672l-.001-.015c.272-.046.512-.19.68-.393a.195.195 0 0 0 .014.008l.582.336.186.693a.188.188 0 0 0 .362-.097l-.089-.33.42.242a.187.187 0 1 0 .187-.325l-.42-.242.332-.09a.187.187 0 1 0-.097-.362l-.694.186-.582-.336a.194.194 0 0 0-.014-.007 1.123 1.123 0 0 0 0-.786.194.194 0 0 0 .014-.007l.582-.336.694.186a.188.188 0 0 0 .097-.363L5.11 12l.42-.243a.187.187 0 1 0-.188-.325l-.42.243.089-.331a.187.187 0 1 0-.362-.097l-.186.693-.582.336a.195.195 0 0 0-.014.008 1.124 1.124 0 0 0-.68-.393v-.687l.508-.508a.188.188 0 0 0-.265-.265l-.242.242v-.485Zm4.347 1.279a.467.467 0 1 1 .933 0v.725l.628-.363a.467.467 0 1 1 .467.808L8.935 13l.628.363a.467.467 0 0 1-.467.808l-.628-.363v.725a.467.467 0 1 1-.933 0v-.725l-.628.363a.467.467 0 1 1-.467-.808L7.068 13l-.628-.363a.467.467 0 0 1 .467-.808l.628.363v-.725ZM13 10c.104 0 .188.084.188.188v.484l.242-.242a.187.187 0 1 1 .265.265l-.508.508v.687c.272.046.512.19.68.393a.174.174 0 0 1 .014-.008l.582-.336.186-.693a.188.188 0 0 1 .362.097l-.089.33.42-.242a.187.187 0 1 1 .188.325l-.42.242.33.09a.187.187 0 0 1-.096.362l-.694-.186-.582.336a.221.221 0 0 1-.013.007 1.123 1.123 0 0 1 0 .786l.013.007.582.336.694-.186a.188.188 0 0 1 .097.363L15.11 14l.42.243a.187.187 0 1 1-.188.325l-.42-.243.089.331a.187.187 0 1 1-.362.097l-.186-.693-.582-.336a.174.174 0 0 1-.014-.008 1.124 1.124 0 0 1-.68.393v.687l.508.508a.188.188 0 0 1-.265.265l-.242-.242v.485a.187.187 0 1 1-.376 0v-.485l-.242.242a.187.187 0 1 1-.265-.265l.508-.508v-.687a1.124 1.124 0 0 1-.68-.393.164.164 0 0 1-.013.008l-.583.336-.186.693a.188.188 0 0 1-.362-.097l.089-.33-.42.242a.187.187 0 1 1-.187-.325l.42-.242-.332-.09a.188.188 0 1 1 .097-.362l.694.186.582-.336a.196.196 0 0 1 .014-.007 1.12 1.12 0 0 1 0-.786.196.196 0 0 1-.014-.007l-.582-.336-.694.186a.188.188 0 0 1-.097-.363l.332-.088-.42-.243a.187.187 0 1 1 .187-.325l.42.243-.089-.331a.188.188 0 0 1 .362-.097l.186.693.582.336a.184.184 0 0 1 .014.008c.168-.204.408-.347.68-.393v-.687l-.508-.508a.187.187 0 1 1 .265-.265l.242.242v-.485c0-.103.085-.187.188-.187ZM8.284.788a.329.329 0 0 0-.568 0L3.044 8.89a.324.324 0 0 0 .284.485h9.344a.324.324 0 0 0 .284-.485L8.284.788Zm-1.062 2.68c-.04-.352.32-.655.778-.655s.818.303.778.655l-.352 3.095h-.852l-.352-3.095ZM8.63 7.813a.625.625 0 1 1-1.25 0 .625.625 0 0 1 1.25 0Z"/>
</svg>