<svg xmlns="http://www.w3.org/2000/svg" width="16" height="16" fill="currentColor" class="qi-2325" viewBox="0 0 16 16">
  <path d="M2.651 11.85a.35.35 0 1 1 .7 0v.544l.47-.272a.35.35 0 1 1 .35.606l-.47.272.47.272a.35.35 0 1 1-.35.606l-.47-.272v.544a.35.35 0 1 1-.7 0v-.544l-.47.272a.35.35 0 1 1-.35-.606L2.3 13l-.47-.272a.35.35 0 1 1 .35-.606l.47.272v-.544Z"/>
  <path d="m3.131 10.036 2.362 1.368a.264.264 0 0 1 .132.228v2.736a.263.263 0 0 1-.132.228l-2.362 1.368a.258.258 0 0 1-.263 0L.507 14.596a.264.264 0 0 1-.132-.228v-2.736a.264.264 0 0 1 .132-.228l2.361-1.368a.26.26 0 0 1 .263 0ZM3 15.432l2.099-1.216v-2.432L3 10.57.901 11.785v2.43L3 15.433Zm9.651-3.582a.35.35 0 1 1 .7 0v.544l.47-.272a.35.35 0 1 1 .35.606l-.47.272.47.272a.35.35 0 1 1-.35.606l-.47-.272v.544a.35.35 0 1 1-.7 0v-.544l-.47.272a.35.35 0 1 1-.35-.606L12.3 13l-.47-.272a.35.35 0 1 1 .35-.606l.47.272v-.544Z"/>
  <path d="m13.131 10.036 2.362 1.368a.264.264 0 0 1 .132.228v2.736a.263.263 0 0 1-.132.228l-2.362 1.368a.258.258 0 0 1-.263 0l-2.361-1.368a.264.264 0 0 1-.132-.228v-2.736a.264.264 0 0 1 .132-.228l2.361-1.368a.26.26 0 0 1 .263 0ZM13 15.432l2.099-1.216v-2.432L13 10.57l-2.099 1.216v2.43L13 15.433ZM8 12a.233.233 0 0 0-.233.233v.363l-.314-.181a.233.233 0 0 0-.233.404l.314.181-.314.181a.233.233 0 1 0 .233.404l.314-.18v.362a.233.233 0 0 0 .467 0v-.363l.314.181a.233.233 0 0 0 .233-.404L8.467 13l.314-.181a.233.233 0 1 0-.233-.404l-.314.18v-.362A.233.233 0 0 0 8.001 12Z"/>
  <path d="m8.088 11.024 1.574.912a.176.176 0 0 1 .088.152v1.824a.176.176 0 0 1-.088.152l-1.575.912a.172.172 0 0 1-.175 0l-1.574-.912a.176.176 0 0 1-.088-.152v-1.824a.176.176 0 0 1 .088-.152l1.574-.912a.173.173 0 0 1 .176 0ZM8 14.62l1.4-.81v-1.62L8 11.379l-1.4.81v1.621l1.4.811ZM8.284.788a.329.329 0 0 0-.568 0L3.044 8.89a.324.324 0 0 0 .284.485h9.344a.324.324 0 0 0 .284-.485L8.284.788Zm-1.062 2.68c-.04-.352.32-.655.778-.655s.818.303.778.655l-.352 3.095h-.852l-.352-3.095ZM8.63 7.813a.625.625 0 1 1-1.25 0 .625.625 0 0 1 1.25 0Z"/>
</svg>