<svg xmlns="http://www.w3.org/2000/svg" width="16" height="16" fill="currentColor" class="qi-2327" viewBox="0 0 16 16">
  <path d="M3 10c.104 0 .188.084.188.188v.484l.242-.242a.188.188 0 0 1 .265.265l-.507.508v.672l-.001.015c.272.046.512.19.68.393a.195.195 0 0 1 .014-.008l.582-.336.186-.693a.188.188 0 0 1 .362.097l-.089.33.42-.242a.187.187 0 1 1 .187.325l-.42.242.332.09a.187.187 0 1 1-.097.362l-.694-.186-.582.336a.194.194 0 0 1-.014.007 1.123 1.123 0 0 1 0 .786l.014.007.582.336.694-.186a.188.188 0 0 1 .097.363L5.11 14l.42.243a.187.187 0 1 1-.188.325l-.42-.243.089.331a.187.187 0 1 1-.362.097l-.186-.693-.582-.336a.195.195 0 0 1-.014-.008 1.124 1.124 0 0 1-.68.393v.687l.508.508a.188.188 0 0 1-.265.265l-.243-.242v.485a.187.187 0 1 1-.374 0v-.485l-.243.242a.188.188 0 0 1-.265-.265l.507-.508v-.672l.001-.015a1.124 1.124 0 0 1-.68-.393.161.161 0 0 1-.014.008l-.582.336-.186.693a.188.188 0 0 1-.362-.097l.089-.33-.42.242a.187.187 0 1 1-.187-.325l.42-.242-.332-.09a.187.187 0 1 1 .097-.362l.694.186.582-.336a.195.195 0 0 1 .014-.007 1.123 1.123 0 0 1 0-.786.193.193 0 0 1-.014-.007l-.582-.336-.694.186a.188.188 0 0 1-.097-.363L.89 12l-.42-.243a.187.187 0 1 1 .188-.325l.42.243-.089-.331a.187.187 0 1 1 .362-.097l.186.693.582.336a.163.163 0 0 1 .014.008c.168-.204.408-.347.68-.393v-.687l-.508-.508a.188.188 0 0 1 .265-.265l.243.242v-.485c0-.103.083-.187.187-.187Zm6.151.35a.35.35 0 1 1 .7 0v.544l.47-.272a.35.35 0 1 1 .35.606l-.47.272.47.272a.35.35 0 0 1-.35.606l-.47-.272v.544a.35.35 0 1 1-.7 0v-.544l-.471.272a.35.35 0 1 1-.35-.606l.471-.272-.471-.272a.35.35 0 1 1 .35-.606l.471.272v-.544Zm4 0a.35.35 0 1 1 .7 0v.544l.47-.272a.35.35 0 1 1 .35.606l-.47.272.47.272a.35.35 0 0 1-.35.606l-.47-.272v.544a.35.35 0 1 1-.7 0v-.544l-.471.272a.35.35 0 1 1-.35-.606l.471-.272-.471-.272a.35.35 0 0 1 .35-.606l.471.272v-.544ZM8.501 13a.35.35 0 0 0-.35.35v.544l-.471-.272a.35.35 0 1 0-.35.606l.471.272-.471.272a.35.35 0 1 0 .35.606l.471-.272v.544a.35.35 0 1 0 .7 0v-.544l.47.272a.35.35 0 1 0 .35-.606l-.47-.272.47-.272a.35.35 0 1 0-.35-.606l-.47.272v-.544a.35.35 0 0 0-.35-.35Zm3.65.35a.35.35 0 1 1 .7 0v.544l.47-.272a.35.35 0 1 1 .35.606l-.47.272.47.272a.35.35 0 0 1-.35.606l-.47-.272v.544a.35.35 0 1 1-.7 0v-.544l-.471.272a.35.35 0 1 1-.35-.606l.471-.272-.471-.272a.35.35 0 0 1 .35-.606l.471.272v-.544ZM7.9 10a4.99 4.99 0 0 0 3.827-1.783 3 3 0 1 0 .553-5.63A4.999 4.999 0 0 0 7.9 0a4.998 4.998 0 0 0-4.359 2.549 3 3 0 1 0 .586 5.732A4.988 4.988 0 0 0 7.9 10Zm-.791-6.398c-.057-.362.17-.8.496-.997.256-.153.551-.133.806.023l.07.042a.846.846 0 0 1 .409.853L8.532 5.8H7.454L7.11 3.602ZM8.599 6.9a.6.6 0 1 1-1.2 0 .6.6 0 0 1 1.2 0Z"/>
</svg>