<svg xmlns="http://www.w3.org/2000/svg" width="16" height="16" fill="currentColor" class="qi-2330" viewBox="0 0 16 16">
  <path d="M3.408 3.5C5.28 1.667 8.174.5 12.086 0l-2.009 1.967a6.495 6.495 0 0 1 2.52 1.533 6.274 6.274 0 0 1 0 9c-1.871 1.833-4.765 3-8.678 3.5l2.01-1.967A6.493 6.493 0 0 1 3.408 12.5a6.261 6.261 0 0 1 0-9ZM8.17 5.098a.197.197 0 0 0-.34 0l-2.804 4.86c-.075.13.02.292.17.292h5.607a.194.194 0 0 0 .17-.291L8.17 5.098Z"/>
  <path d="M8 6.2c-.293 0-.524.194-.498.42l.225 1.98h.546l.225-1.98c.026-.226-.205-.42-.498-.42Zm.003 3.6a.4.4 0 1 0 0-.8.4.4 0 0 0 0 .8Z"/>
</svg>