<svg xmlns="http://www.w3.org/2000/svg" width="16" height="16" fill="currentColor" class="qi-2331" viewBox="0 0 16 16">
  <path d="M1 0H0v16h1v-2.936c.6.627 1.6.851 3.762.323C6.782 12.894 9 14 9 14V8.608c-2.305-.87-3.427-.607-5.143-.203l-.243.056C1.756 8.895 1 8 1 8V6.064c.6.627 1.6.851 3.762.323C6.782 5.894 9 7 9 7V1.608c-2.305-.87-3.427-.607-5.143-.203l-.243.056C1.756 1.894 1 1 1 1V0Zm5.6 2.125v3L3.4 5.5v-3l3.2-.375Zm0 7v3l-3.2.375v-3l3.2-.375ZM13.17.473a.197.197 0 0 0-.34 0l-2.804 4.86c-.075.13.02.292.17.292h5.607a.194.194 0 0 0 .17-.291L13.17.473Zm-.637 1.608c-.024-.212.192-.393.467-.393s.491.181.467.393l-.211 1.857h-.512l-.21-1.857Zm.845 2.607a.375.375 0 1 1-.75 0 .375.375 0 0 1 .75 0Z"/>
</svg>