<svg xmlns="http://www.w3.org/2000/svg" width="16" height="16" fill="currentColor" class="qi-2332" viewBox="0 0 16 16">
  <path d="M4.336 3.78A6.184 6.184 0 0 1 6.7 1.75a6.335 6.335 0 0 1 6.077.278 6.148 6.148 0 0 1 2.162 2.235.564.564 0 0 0 .338.265.574.574 0 0 0 .43-.047.556.556 0 0 0 .27-.33.544.544 0 0 0-.047-.422A7.327 7.327 0 0 0 11.537.285a7.494 7.494 0 0 0-5.595.606 7.23 7.23 0 0 0-3.517 4.302 7.065 7.065 0 0 0 .619 5.476 5.57 5.57 0 0 0 1.647 1.823 5.72 5.72 0 0 0 2.287.956 5.775 5.775 0 0 0 2.484-.097 5.698 5.698 0 0 0 2.202-1.13A6.184 6.184 0 0 1 9.3 14.249a6.335 6.335 0 0 1-6.077-.277 6.148 6.148 0 0 1-2.162-2.235.576.576 0 0 0-.768-.218.556.556 0 0 0-.27.33.543.543 0 0 0 .047.422 7.326 7.326 0 0 0 4.393 3.444 7.494 7.494 0 0 0 5.594-.607 7.23 7.23 0 0 0 3.518-4.3 7.064 7.064 0 0 0-.619-5.477 5.577 5.577 0 0 0-1.647-1.823 5.721 5.721 0 0 0-2.287-.956 5.774 5.774 0 0 0-2.484.097 5.699 5.699 0 0 0-2.202 1.13ZM8.17 5.397l2.804 4.86a.195.195 0 0 1-.17.292H5.196a.195.195 0 0 1-.17-.291l2.804-4.86a.197.197 0 0 1 .34 0Z"/>
  <path d="M8 6.4c-.293 0-.524.194-.498.42l.225 1.98h.546l.225-1.98c.026-.226-.205-.42-.498-.42Zm.003 3.6a.4.4 0 1 0 0-.8.4.4 0 0 0 0 .8Z"/>
</svg>