<svg xmlns="http://www.w3.org/2000/svg" width="16" height="16" fill="currentColor" class="qi-2343" viewBox="0 0 16 16">
  <path d="M8 2.875 14.3 13.8H1.7L8 2.875Zm.455-1.614a.526.526 0 0 0-.91 0L.07 14.224c-.2.346.052.776.454.776h14.952c.402 0 .654-.43.454-.776L8.455 1.26Z"/>
  <path d="M8.382 8.102c-.074 0-.122-.08-.089-.15l1.089-2.3c.033-.07-.015-.152-.089-.152h-2.17a.18.18 0 0 0-.105.031.239.239 0 0 0-.079.092l-1.921 4.22c-.057.125.03.27.162.27h1.953c.069 0 .116.07.094.139l-1.015 3.11c-.038.11.099.188.17.1l4.095-5.189c.053-.068.008-.171-.076-.171H8.382Z"/>
</svg>