<svg xmlns="http://www.w3.org/2000/svg" width="16" height="16" fill="currentColor" class="qi-2346" viewBox="0 0 16 16">
  <path d="M.287 8.634c0 .491.257.907.766 1.257.934.659 2.347.984 4.24.984.85 0 1.638-.072 2.37-.219.765-.162 1.396-.425 1.878-.781.48-.353.73-.766.73-1.247 0-.15-.027-.29-.084-.44.985-.241 1.76-.57 2.32-.979.559-.409.843-.887.843-1.418a1.61 1.61 0 0 0-.063-.425C14.91 4.79 15.72 4.019 15.72 3.04c0-.625-.353-1.175-1.056-1.66C13.274.463 11.246 0 8.575 0 7.312 0 6.172.113 5.15.334 4.037.562 3.144.916 2.462 1.397c-.68.481-1.018 1.034-1.018 1.653 0 .369.112.703.34 1.006C.947 4.531.528 5.112.528 5.8c0 .531.263 1 .781 1.403C.63 7.6.287 8.075.287 8.634Zm.425 3.191c0 .519.32.928.957 1.219.637.29 1.447.44 2.418.44.985 0 1.794-.15 2.438-.44.644-.29.962-.703.962-1.219a.714.714 0 0 0-.184-.49.606.606 0 0 0-.475-.2.651.651 0 0 0-.425.162.712.712 0 0 0-.24.403c-.141.113-.397.213-.782.303-.384.094-.815.14-1.297.14-.78 0-1.418-.112-1.9-.334a.664.664 0 0 0 .185-.425.689.689 0 0 0-.107-.44.717.717 0 0 0-.43-.285.694.694 0 0 0-.498.091c-.415.303-.622.65-.622 1.075Zm.907-3.19a.86.86 0 0 1 .134-.129c.063-.062.2-.14.397-.24.197-.1.431-.178.681-.247l.085-.044c1.15.384 2.487.575 4.018.575.675 0 1.285-.034 1.828-.113l.185.163c-.063.113-.213.228-.447.353-.284.15-.722.29-1.319.403-.597.113-1.225.178-1.894.178a9.436 9.436 0 0 1-1.893-.178c-.597-.122-1.04-.256-1.332-.403-.237-.1-.384-.206-.443-.319Zm.078 5.968c0 .447.256.794.765 1.034.51.241 1.141.363 1.894.363.766 0 1.41-.122 1.928-.363.52-.24.782-.587.782-1.034a.643.643 0 0 0-.2-.475.648.648 0 0 0-.47-.206c-.334 0-.552.169-.652.51-.275.168-.738.262-1.39.262-.567 0-1.023-.085-1.363-.263-.104-.337-.316-.51-.647-.51a.582.582 0 0 0-.453.198.708.708 0 0 0-.194.484Zm.15-8.803c0-.056.034-.122.106-.197.169-.212.51-.425 1.006-.625 1.363.731 3.232 1.09 5.607 1.09 1.212 0 2.353-.112 3.415-.334v.063c0 .106-.062.212-.2.319-.29.256-.828.497-1.622.73-.856.257-1.934.385-3.23.385-1.304 0-2.382-.128-3.242-.384-.821-.228-1.368-.469-1.643-.722-.135-.106-.197-.213-.197-.325Zm.922-2.75c0-.128.084-.262.247-.419.318-.297.956-.581 1.9-.856 1.012-.297 2.225-.447 3.643-.447 1.425 0 2.65.15 3.679.447.956.278 1.587.569 1.9.866.156.156.24.296.24.418s-.078.247-.24.397c-.313.297-.944.588-1.9.872-1.029.297-2.247.447-3.679.447-1.418 0-2.637-.15-3.643-.447-.95-.284-1.588-.575-1.9-.878-.163-.153-.247-.281-.247-.4Zm10.401 7.423a.197.197 0 0 0-.34 0l-2.804 4.86c-.075.13.02.292.17.292h5.607a.194.194 0 0 0 .17-.291l-2.803-4.861Zm-.637 1.608c-.024-.212.192-.393.467-.393s.491.181.467.393l-.211 1.857h-.512l-.21-1.857Zm.845 2.607a.375.375 0 1 1-.75 0 .375.375 0 0 1 .75 0Z"/>
</svg>