<svg xmlns="http://www.w3.org/2000/svg" width="16" height="16" fill="currentColor" class="qi-2348" viewBox="0 0 16 16">
  <path d="M.065 13.314a.5.5 0 0 1 .713-.17l1.017.678a.5.5 0 0 0 .5.031l1.034-.517a1.5 1.5 0 0 1 1.342 0l1.105.553a.5.5 0 0 0 .448 0l1.105-.553c.114-.056.233-.098.354-.124C6.566 11.845 5.75 8.158 7 6.5c1.96-2.599 7-.5 7-.5s-3.553-4.997-8-5C1.358.997.3 10.194.065 13.314Zm.019.969a.5.5 0 0 1 .693-.139l1.018.678a.5.5 0 0 0 .5.031l1.034-.517a1.5 1.5 0 0 1 1.342 0l1.105.553a.5.5 0 0 0 .448 0l1.105-.553a1.5 1.5 0 0 1 1.342 0l1.105.553a.5.5 0 0 0 .448 0l1.105-.553a1.5 1.5 0 0 1 1.342 0l1.034.517a.5.5 0 0 0 .5-.03l1.018-.679a.5.5 0 1 1 .554.832l-1.017.678a1.5 1.5 0 0 1-1.503.094l-1.033-.517a.5.5 0 0 0-.448 0l-1.105.553a1.5 1.5 0 0 1-1.342 0l-1.105-.553a.5.5 0 0 0-.448 0l-1.105.553a1.5 1.5 0 0 1-1.342 0l-1.105-.553a.5.5 0 0 0-.448 0l-1.033.517a1.5 1.5 0 0 1-1.503-.094l-1.017-.678a.5.5 0 0 1-.139-.693Z"/>
  <path d="M12.17 8.473a.197.197 0 0 0-.34 0l-2.804 4.86c-.075.13.02.292.17.292h5.607a.194.194 0 0 0 .17-.291L12.17 8.473Zm-.637 1.608c-.024-.212.192-.393.467-.393s.491.181.467.393l-.211 1.857h-.512l-.21-1.857Zm.845 2.607a.375.375 0 1 1-.75 0 .375.375 0 0 1 .75 0Z"/>
</svg>