<svg xmlns="http://www.w3.org/2000/svg" width="16" height="16" fill="currentColor" class="qi-2349" viewBox="0 0 16 16">
  <path d="M8 2.875 14.3 13.8H1.7L8 2.875Zm.455-1.614a.526.526 0 0 0-.91 0L.07 14.224c-.2.346.052.776.454.776h14.952c.402 0 .654-.43.454-.776L8.455 1.26Z"/>
  <path d="M9.955 7.84c-.819.267-1.091.981-1 1.428-.637-.714-.637-1.518-.546-2.768-1.909.714-1.454 2.857-1.545 3.571-.455-.446-.546-1.339-.546-1.339C5.773 9 5.5 9.714 5.5 10.34c0 1.429 1.182 2.411 2.545 2.411 1.364 0 2.455-1.071 2.455-2.41 0-.983-.545-1.25-.545-2.5Z"/>
</svg>