<svg xmlns="http://www.w3.org/2000/svg" width="16" height="16" fill="currentColor" class="qi-2350" viewBox="0 0 16 16">
  <path d="M9.038 4.137a.933.933 0 0 0-1.143.66l-.376 1.4-1.025-1.025a.933.933 0 1 0-1.32 1.32L6.2 7.518l-1.4.375a.933.933 0 0 0 .483 1.803l1.4-.375-.375 1.4a.933.933 0 1 0 1.803.483l.376-1.4 1.025 1.025a.933.933 0 0 0 1.32-1.32L9.806 8.484l1.4-.376a.933.933 0 1 0-.483-1.803l-1.4.376.375-1.4a.933.933 0 0 0-.66-1.144Z"/>
  <path d="M12.746 1.52a.47.47 0 0 1 .284.219l2.907 5.035a.468.468 0 0 1 .047.355l-1.505 5.617a.467.467 0 0 1-.218.284l-5.035 2.907a.468.468 0 0 1-.355.047L3.254 14.48a.468.468 0 0 1-.284-.218L.063 9.226a.468.468 0 0 1-.047-.355L1.52 3.254a.468.468 0 0 1 .218-.284L6.774.063A.468.468 0 0 1 7.13.016l5.617 1.505Zm1.685 5.453-2.326-4.029a.468.468 0 0 0-.284-.218L7.328 1.522a.468.468 0 0 0-.355.047L2.944 3.895a.468.468 0 0 0-.218.284L1.522 8.672a.468.468 0 0 0 .047.355l2.326 4.029a.468.468 0 0 0 .284.218l4.493 1.204c.12.032.248.015.355-.047l4.029-2.326a.468.468 0 0 0 .218-.284l1.204-4.493a.468.468 0 0 0-.047-.355Z"/>
</svg>