<svg xmlns="http://www.w3.org/2000/svg" width="16" height="16" fill="currentColor" class="qi-2352" viewBox="0 0 16 16">
  <path d="M13.5 2.5a2.5 2.5 0 0 0-2.421 1.875.5.5 0 0 0 .968.25A1.5 1.5 0 0 1 15 5c0 .812-.76 1.5-1.5 1.5H.5a.5.5 0 1 0 0 1h13C14.76 7.5 16 6.397 16 5a2.5 2.5 0 0 0-2.5-2.5Zm-13 6a.5.5 0 1 0 0 1h11a1 1 0 1 1-.943 1.333.5.5 0 0 0-.943.334A2 2 0 1 0 11.5 8.5H.5Z"/>
  <path d="M6.26 3 8 4.16l-.555.833-1.258-.839-1.964.982L2 4.024l.447-.894 1.777.888L6.26 3Zm0 8L8 12.161l-.555.832-1.258-.839-1.964.982L2 12.024l.447-.894 1.777.888L6.26 11Z"/>
</svg>