<svg xmlns="http://www.w3.org/2000/svg" width="16" height="16" fill="currentColor" class="qi-2353" viewBox="0 0 16 16">
  <path d="M11.5 7a.5.5 0 0 0-.5.5v2.063a2 2 0 1 0 1 0V7.5a.5.5 0 0 0-.5-.5Z"/>
  <path d="m10.2 8.399-.532.356a3.3 3.3 0 1 0 3.665 0l-.533-.356V2.5a1.3 1.3 0 1 0-2.6 0v5.899ZM9 2.5a2.5 2.5 0 0 1 5 0v5.258a4.5 4.5 0 1 1-5 0V2.5ZM3.719 1.219a.219.219 0 0 0-.438 0v.565l-.283-.282a.219.219 0 1 0-.309.309l.592.592v.784a.22.22 0 0 0 .001.019 1.31 1.31 0 0 0-.794.458.215.215 0 0 0-.015-.01l-.68-.392-.216-.809a.219.219 0 1 0-.423.113l.104.387-.49-.283a.219.219 0 1 0-.219.379l.49.283-.386.103a.219.219 0 1 0 .113.423l.809-.217.679.392a.22.22 0 0 0 .016.008 1.31 1.31 0 0 0 0 .918.219.219 0 0 0-.016.008l-.68.392-.808-.217a.219.219 0 1 0-.113.423l.386.103-.49.283a.219.219 0 0 0 .219.38l.49-.284-.104.387a.219.219 0 1 0 .423.113l.216-.81.68-.391a.224.224 0 0 0 .015-.01c.197.238.476.405.794.458a.22.22 0 0 0 0 .019v.784l-.593.592A.219.219 0 1 0 3 7.5l.282-.283v.565a.219.219 0 1 0 .438 0v-.565l.283.282a.219.219 0 1 0 .309-.309l-.592-.592v-.785a.22.22 0 0 0-.001-.018 1.31 1.31 0 0 0 .794-.458.22.22 0 0 0 .015.01l.68.392.216.809a.219.219 0 1 0 .423-.113l-.104-.387.49.283a.219.219 0 0 0 .219-.379l-.49-.283.387-.103a.219.219 0 1 0-.114-.423l-.809.217-.679-.392a.219.219 0 0 0-.016-.009 1.31 1.31 0 0 0 0-.916.22.22 0 0 0 .016-.009l.68-.392.808.217a.219.219 0 1 0 .114-.423l-.387-.103.49-.283a.219.219 0 1 0-.219-.38l-.49.284.104-.387a.219.219 0 1 0-.423-.113l-.216.81-.68.391a.222.222 0 0 0-.015.01 1.311 1.311 0 0 0-.794-.458.22.22 0 0 0 0-.018v-.785l.593-.592a.219.219 0 0 0-.31-.31l-.282.283V1.22ZM3 15a3 3 0 1 0 0-6 3 3 0 0 0 0 6Zm-.467-4.294c-.024-.212.192-.393.467-.393s.491.181.467.393l-.211 1.857h-.512l-.21-1.857Zm.845 2.607a.375.375 0 1 1-.75 0 .375.375 0 0 1 .75 0Z"/>
</svg>