<svg xmlns="http://www.w3.org/2000/svg" width="16" height="16" fill="currentColor" class="qi-2354" viewBox="0 0 16 16">
  <path d="M4.9 2.5c-.9.3-1.2 1.1-1.1 1.6-.7-.8-.7-1.7-.6-3.1-2.1.8-1.6 3.2-1.7 4C1 4.5.9 3.5.9 3.5.3 3.8 0 4.6 0 5.3 0 6.9 1.3 8 2.8 8c1.5 0 2.7-1.2 2.7-2.7 0-1.1-.6-1.4-.6-2.8Zm6.6.5a.5.5 0 0 0-.5.5v6.063a2 2 0 1 0 1 0V3.5a.5.5 0 0 0-.5-.5Z"/>
  <path d="m10.2 8.399-.532.356a3.3 3.3 0 1 0 3.665 0l-.533-.356V2.5a1.3 1.3 0 1 0-2.6 0v5.899ZM9 2.5a2.5 2.5 0 0 1 5 0v5.258a4.5 4.5 0 1 1-5 0V2.5ZM3 15a3 3 0 1 0 0-6 3 3 0 0 0 0 6Zm-.467-4.294c-.024-.212.192-.393.467-.393s.491.181.467.393l-.211 1.857h-.512l-.21-1.857Zm.845 2.607a.375.375 0 1 1-.75 0 .375.375 0 0 1 .75 0Z"/>
</svg>