<svg xmlns="http://www.w3.org/2000/svg" width="16" height="16" fill="currentColor" class="qi-2357" viewBox="0 0 16 16">
  <path d="m6.644 3.5 3.257 3.529 1.823-2.061 3.879 5.54.029.008c.253.06.413.325.357.592a.47.47 0 0 1-.562.377c-1.766-.416-2.785-.523-4.594-.485-1.056.022-1.861.244-2.713.48l-.012.003c-.85.236-1.748.485-2.922.51-1.884.04-2.978-.076-4.818-.508a.497.497 0 0 1-.357-.593.496.496 0 0 1 .2-.306l3.41-6.252 1.144 1.602L6.645 3.5Zm-6.07 7.015c1.765.416 2.784.523 4.593.485a8.481 8.481 0 0 0 1.87-.256l-2.694-3.68-.608-.85-2.434 4.464c-.23-.048-.471-.102-.728-.163Zm7.499-.048c.797-.22 1.65-.437 2.741-.46l.47-.006-4.571-4.953-1.338 1.734 2.698 3.685Zm4.605-.43c.504.032.984.09 1.498.177l-2.543-3.633-1.05 1.186 2.095 2.27Zm2.749 3.448c-1.766-.416-2.785-.523-4.594-.485-1.056.022-1.861.244-2.713.48l-.012.003c-.85.236-1.748.485-2.922.51-1.884.04-2.978-.076-4.818-.508a.497.497 0 0 1-.357-.593.47.47 0 0 1 .562-.377c1.766.416 2.785.523 4.594.485 1.056-.022 1.861-.244 2.713-.48l.012-.003c.85-.236 1.748-.485 2.922-.51 1.884-.04 2.978.076 4.818.508.253.06.413.325.357.593a.47.47 0 0 1-.562.377Zm0 2c-1.766-.416-2.785-.523-4.594-.485-1.056.022-1.861.244-2.713.48l-.012.003c-.85.236-1.748.485-2.922.51-1.884.04-2.978-.076-4.818-.508a.497.497 0 0 1-.357-.593.47.47 0 0 1 .562-.377c1.766.416 2.785.523 4.594.485 1.056-.022 1.861-.244 2.713-.48l.012-.003c.85-.236 1.748-.485 2.922-.51 1.884-.04 2.978.076 4.818.508.253.06.413.325.357.593a.47.47 0 0 1-.562.377ZM13.5 5a2.5 2.5 0 1 0 0-5 2.5 2.5 0 0 0 0 5Zm-.39-3.579c-.02-.176.16-.327.39-.327s.41.151.39.327l-.177 1.548h-.426L13.11 1.42Zm.705 2.173a.312.312 0 1 1-.625 0 .312.312 0 0 1 .625 0Z"/>
</svg>