<svg xmlns="http://www.w3.org/2000/svg" width="16" height="16" fill="currentColor" class="qi-2360" viewBox="0 0 16 16">
  <path d="M.777 11.144a.5.5 0 1 0-.554.832l1.017.678a1.5 1.5 0 0 0 1.503.094l1.033-.517a.5.5 0 0 1 .448 0l1.105.553a1.5 1.5 0 0 0 1.342 0l1.105-.553a.5.5 0 0 1 .448 0l1.105.553a1.5 1.5 0 0 0 1.342 0l1.105-.553a.5.5 0 0 1 .448 0l1.033.517a1.5 1.5 0 0 0 1.503-.094l1.017-.678a.5.5 0 1 0-.554-.832l-1.017.678a.5.5 0 0 1-.501.031l-1.034-.517a1.5 1.5 0 0 0-1.342 0l-1.105.553a.5.5 0 0 1-.448 0l-1.105-.553a1.5 1.5 0 0 0-1.342 0l-1.105.553a.5.5 0 0 1-.448 0l-1.105-.553a1.5 1.5 0 0 0-1.342 0l-1.034.517a.5.5 0 0 1-.5-.03l-1.018-.679Zm0 2.5a.5.5 0 1 0-.554.832l1.017.678a1.5 1.5 0 0 0 1.503.094l1.033-.517a.5.5 0 0 1 .448 0l1.105.553a1.5 1.5 0 0 0 1.342 0l1.105-.553a.5.5 0 0 1 .448 0l1.105.553a1.5 1.5 0 0 0 1.342 0l1.105-.553a.5.5 0 0 1 .448 0l1.033.517a1.5 1.5 0 0 0 1.503-.094l1.017-.678a.5.5 0 1 0-.554-.832l-1.017.678a.5.5 0 0 1-.501.031l-1.034-.517a1.5 1.5 0 0 0-1.342 0l-1.105.553a.5.5 0 0 1-.448 0l-1.105-.553a1.5 1.5 0 0 0-1.342 0l-1.105.553a.5.5 0 0 1-.448 0l-1.105-.553a1.5 1.5 0 0 0-1.342 0l-1.034.517a.5.5 0 0 1-.5-.03l-1.018-.679ZM8 10A5 5 0 1 0 8 0a5 5 0 0 0 0 10Zm-.778-7.157c-.04-.352.32-.655.778-.655s.818.303.778.655l-.352 3.095h-.852l-.352-3.095ZM8.63 7.188a.625.625 0 1 1-1.25 0 .625.625 0 0 1 1.25 0Z"/>
</svg>