<svg xmlns="http://www.w3.org/2000/svg" width="16" height="16" fill="currentColor" class="qi-2363" viewBox="0 0 16 16">
  <path d="M6.849 4.35a.35.35 0 1 0-.7 0v.544l-.47-.272a.35.35 0 0 0-.35.606l.47.272-.47.272a.35.35 0 0 0 .35.606l.47-.272v.544a.35.35 0 1 0 .7 0v-.544l.47.272a.35.35 0 0 0 .35-.606L7.2 5.5l.47-.272a.35.35 0 1 0-.35-.606l-.47.272V4.35Zm0-4a.35.35 0 0 0-.7 0v.544l-.47-.272a.35.35 0 1 0-.35.606l.47.272-.47.272a.35.35 0 0 0 .35.606l.47-.272v.544a.35.35 0 1 0 .7 0v-.544l.47.272a.35.35 0 0 0 .35-.606L7.2 1.5l.47-.272a.35.35 0 1 0-.35-.606l-.47.272V.35Zm4 7a.35.35 0 1 0-.7 0v.544l-.47-.272a.35.35 0 0 0-.35.606l.47.272-.47.272a.35.35 0 0 0 .35.606l.47-.272v.544a.35.35 0 1 0 .7 0v-.544l.47.272a.35.35 0 1 0 .35-.606L11.2 8.5l.47-.272a.35.35 0 1 0-.35-.606l-.47.272V7.35Zm4 2a.35.35 0 1 0-.7 0v.544l-.47-.272a.35.35 0 1 0-.35.606l.47.272-.47.272a.35.35 0 1 0 .35.606l.47-.272v.544a.35.35 0 1 0 .7 0v-.544l.47.272a.35.35 0 1 0 .35-.606l-.47-.272.47-.272a.35.35 0 1 0-.35-.606l-.47.272V9.35Z"/>
  <path d="m1.411 4 1.472.835 1.235 2.139 2.44 1.017L7.664 9.77l3.588.905L15 15.998H0L1.411 4ZM11.5 6a2.5 2.5 0 1 0 0-5 2.5 2.5 0 0 0 0 5Zm-.39-3.579c-.02-.176.16-.327.39-.327s.41.151.39.327l-.177 1.548h-.426L11.11 2.42Zm.705 2.173a.312.312 0 1 1-.625 0 .312.312 0 0 1 .625 0Z"/>
</svg>