<svg xmlns="http://www.w3.org/2000/svg" width="16" height="16" fill="currentColor" class="qi-2366" viewBox="0 0 16 16">
  <path d="M7.502 6.62c-.026-.226.205-.42.498-.42.293 0 .524.194.498.42L8.273 8.6h-.546l-.225-1.98Zm.901 2.78a.4.4 0 1 1-.8 0 .4.4 0 0 1 .8 0Z"/>
  <path d="M12.086 0C8.174.5 5.28 1.667 3.408 3.5a6.261 6.261 0 0 0 0 9 6.493 6.493 0 0 0 2.52 1.533L3.92 16c3.913-.5 6.807-1.667 8.679-3.5a6.274 6.274 0 0 0 0-9 6.495 6.495 0 0 0-2.52-1.533L12.085 0ZM11 8a3 3 0 1 1-6 0 3 3 0 0 1 6 0Z"/>
</svg>