<svg xmlns="http://www.w3.org/2000/svg" width="16" height="16" fill="currentColor" class="qi-2367" viewBox="0 0 16 16">
  <path d="M7.502 6.62c-.026-.226.205-.42.498-.42.293 0 .524.194.498.42L8.273 8.6h-.546l-.225-1.98Zm.901 2.78a.4.4 0 1 1-.8 0 .4.4 0 0 1 .8 0Z"/>
  <path d="M6.7 1.75a6.184 6.184 0 0 0-2.364 2.03 5.699 5.699 0 0 1 2.202-1.131 5.774 5.774 0 0 1 2.484-.097 5.721 5.721 0 0 1 2.287.956 5.577 5.577 0 0 1 1.647 1.823 7.064 7.064 0 0 1 .62 5.476 7.23 7.23 0 0 1-3.519 4.301 7.494 7.494 0 0 1-5.594.607A7.326 7.326 0 0 1 .07 12.27a.543.543 0 0 1-.048-.422.556.556 0 0 1 .271-.33.576.576 0 0 1 .768.218 6.148 6.148 0 0 0 2.162 2.235 6.335 6.335 0 0 0 6.077.277 6.184 6.184 0 0 0 2.364-2.028 5.698 5.698 0 0 1-2.202 1.13 5.785 5.785 0 0 1-2.484.097 5.72 5.72 0 0 1-2.287-.956 5.578 5.578 0 0 1-1.647-1.823 7.065 7.065 0 0 1-.62-5.476A7.23 7.23 0 0 1 5.943.89a7.494 7.494 0 0 1 5.595-.606A7.327 7.327 0 0 1 15.93 3.73c.072.129.09.28.048.422a.556.556 0 0 1-.271.33.577.577 0 0 1-.43.047.564.564 0 0 1-.338-.265 6.148 6.148 0 0 0-2.162-2.235A6.335 6.335 0 0 0 6.7 1.751ZM11 8a3 3 0 1 0-6 0 3 3 0 0 0 6 0Z"/>
</svg>