<svg xmlns="http://www.w3.org/2000/svg" width="16" height="16" fill="currentColor" class="qi-2370" viewBox="0 0 16 16">
  <path d="M12.848 6.166a4.501 4.501 0 0 1-4.771 3.316l-.862 3.217c-.51.13-1.031.237-1.628.281l1.041-3.886a4.501 4.501 0 1 1 6.22-2.928Zm-4.52-3.221-.416 2.772.741.198L9.68 3.307c.117-.297-.125-.644-.524-.75-.398-.108-.782.072-.829.388Zm.211 4.105a.562.562 0 1 0-1.087-.292.562.562 0 0 0 1.087.292Z"/>
  <path d="M10.833 13c1.809-.038 2.828.07 4.594.485a.47.47 0 0 0 .562-.377.497.497 0 0 0-.357-.593c-1.84-.432-2.934-.548-4.818-.508-1.174.025-2.072.274-2.922.51l-.012.003c-.852.236-1.657.458-2.713.48-1.809.038-2.828-.07-4.594-.485a.47.47 0 0 0-.562.377.497.497 0 0 0 .357.593c1.84.432 2.934.548 4.818.508 1.174-.025 2.072-.274 2.922-.51l.012-.003c.852-.236 1.657-.458 2.713-.48Zm0 2c1.809-.038 2.828.07 4.594.485a.47.47 0 0 0 .562-.377.497.497 0 0 0-.357-.593c-1.84-.432-2.934-.548-4.818-.508-1.174.025-2.072.274-2.922.51l-.012.003c-.852.236-1.657.458-2.713.48-1.809.038-2.828-.07-4.594-.485a.47.47 0 0 0-.562.377.497.497 0 0 0 .357.593c1.84.432 2.934.547 4.818.508 1.174-.025 2.072-.274 2.922-.51l.012-.003c.852-.236 1.657-.458 2.713-.48ZM4.5 2H0V1h4.5v1Zm-1 2H0V3h3.5v1Zm0 2H0V5h3.5v1Z"/>
</svg>