<svg xmlns="http://www.w3.org/2000/svg" width="16" height="16" fill="currentColor" class="qi-2371" viewBox="0 0 16 16">
  <path d="M8 16A8 8 0 1 1 8 0a8 8 0 0 1 0 16Zm0-1.3A6.7 6.7 0 1 0 8 1.3a6.7 6.7 0 0 0 0 13.4Z"/>
  <path d="M7.408 3.5h3.378c.164 0 .264.195.174.342L9.1 6.25a.108.108 0 0 0 .032.145c.015.01.032.014.05.014h1.956c.26 0 .394.332.216.535L5.572 13.5 6.95 8.449a.11.11 0 0 0-.016-.091.1.1 0 0 0-.034-.03.092.092 0 0 0-.043-.012h-2a.282.282 0 0 1-.147-.041.307.307 0 0 1-.109-.115.333.333 0 0 1-.004-.314l2.501-4.151a.352.352 0 0 1 .31-.195Z"/>
</svg>