<svg xmlns="http://www.w3.org/2000/svg" width="16" height="16" fill="currentColor" class="qi-2374" viewBox="0 0 16 16">
  <path d="M7.5 0v3.066l-.723-.482-.554.832 1.5 1L8 4.601l.277-.185 1.5-1-.554-.832-.723.482V0h-1ZM4.416 7.723l-1-1.5-.832.554.482.723H0v1h3.066l-.482.723.832.554 1-1.5L4.601 8l-.185-.277Zm9 1.5-.482-.723H16v-1h-3.066l.482-.723-.832-.554-1 1.5-.185.277.185.277 1 1.5.832-.554ZM8 12l.277-.416h.001l.002.002.008.005.03.02.111.074.379.252.97.647-.555.832-.723-.482V16h-1v-3.066l-.723.482-.554-.832 1.5-1L8 11.399l.277.185L8 12ZM5.734 8.239l1.287-.816a.108.108 0 0 0-.025-.194L6.3 7.01c.083-.148.185-.285.303-.407.18-.18.392-.323.625-.423a1.982 1.982 0 0 1 1.532 0 1.972 1.972 0 0 1 1.047 1.05.263.263 0 0 0 .485-.205 2.487 2.487 0 0 0-1.327-1.33 2.507 2.507 0 0 0-1.942 0 2.482 2.482 0 0 0-.793.535 2.48 2.48 0 0 0-.439.62l-.652-.205a.107.107 0 0 0-.138.085.108.108 0 0 0 .006.06l.57 1.397a.109.109 0 0 0 .156.05Zm5.258.903-.57-1.398a.107.107 0 0 0-.112-.066.107.107 0 0 0-.044.016l-1.287.815a.108.108 0 0 0 .026.195l.716.225a1.97 1.97 0 0 1-.335.466 1.958 1.958 0 0 1-2.157.423 1.966 1.966 0 0 1-1.047-1.05.263.263 0 0 0-.484.205c.125.297.305.565.534.795a2.485 2.485 0 0 0 3.526 0 2.52 2.52 0 0 0 .472-.68l.63.198a.108.108 0 0 0 .132-.144Z"/>
</svg>