<svg xmlns="http://www.w3.org/2000/svg" width="16" height="16" fill="currentColor" class="qi-2375" viewBox="0 0 16 16">
  <path d="M0 1.5h1V15h14V1.5h1V16H0V1.5Z"/>
  <path d="M2.4 11.8c.227-.302.452-.494.693-.615.24-.12.53-.185.907-.185.222 0 .37.11.668.374l.028.025c.266.237.675.601 1.304.601s1.038-.364 1.304-.601l.028-.025C7.63 11.11 7.778 11 8 11c.222 0 .37.11.668.374l.028.025c.266.237.675.601 1.304.601s1.037-.364 1.304-.601l.028-.025c.298-.264.446-.374.668-.374.378 0 .666.065.907.185s.466.313.693.615l.8-.6c-.297-.396-.636-.704-1.045-.91-.41-.204-.86-.29-1.355-.29-.629 0-1.038.364-1.304.601l-.028.025c-.298.264-.446.374-.668.374-.222 0-.37-.11-.668-.374l-.028-.025C9.038 10.364 8.629 10 8 10s-1.038.364-1.304.601l-.028.025C6.37 10.89 6.222 11 6 11c-.222 0-.37-.11-.668-.374l-.028-.025C5.038 10.364 4.629 10 4 10c-.496 0-.945.086-1.355.29-.41.206-.748.514-1.045.91l.8.6Zm0 2c.227-.302.452-.494.693-.615.24-.12.53-.185.907-.185.222 0 .37.11.668.374l.028.025c.266.237.675.601 1.304.601s1.038-.364 1.304-.601l.028-.025C7.63 13.11 7.778 13 8 13c.222 0 .37.11.668.374l.028.025c.266.237.675.601 1.304.601s1.037-.364 1.304-.601l.028-.025c.298-.264.446-.374.668-.374.378 0 .666.065.907.185s.466.313.693.615l.8-.6c-.297-.396-.636-.704-1.045-.91-.41-.204-.86-.29-1.355-.29-.629 0-1.038.364-1.304.601l-.028.025c-.298.264-.446.374-.668.374-.222 0-.37-.11-.668-.374l-.028-.025C9.038 12.364 8.629 12 8 12s-1.038.364-1.304.601l-.028.025C6.37 12.89 6.222 13 6 13c-.222 0-.37-.11-.668-.374l-.028-.025C5.038 12.364 4.629 12 4 12c-.496 0-.945.086-1.355.29-.41.206-.748.514-1.045.91l.8.6ZM7.502 2.998C7.476 2.73 7.707 2.5 8 2.5c.293 0 .524.23.498.498L8.273 5.35h-.546l-.225-2.352Zm.873 3.127a.375.375 0 1 1-.75 0 .375.375 0 0 1 .75 0Z"/>
  <path d="M7.773.63a.263.263 0 0 1 .454 0l3.738 6.482a.26.26 0 0 1-.227.388H4.262a.26.26 0 0 1-.227-.388L7.773.63ZM11.15 6.9 8 1.438 4.85 6.9h6.3Z"/>
</svg>