<svg xmlns="http://www.w3.org/2000/svg" width="16" height="16" fill="currentColor" class="qi-2377" viewBox="0 0 16 16">
  <path d="M12.719 9.219a.219.219 0 0 0-.438 0v.565l-.283-.282a.219.219 0 1 0-.309.309l.592.592v.784l.001.019a1.31 1.31 0 0 0-.794.458.267.267 0 0 0-.015-.01l-.68-.392-.216-.809a.219.219 0 1 0-.423.113l.104.387-.49-.283a.219.219 0 0 0-.219.379l.49.283-.386.103a.219.219 0 1 0 .113.423l.809-.217.679.392.016.008a1.31 1.31 0 0 0 0 .918.217.217 0 0 0-.016.008l-.68.392-.808-.217a.219.219 0 0 0-.113.423l.386.103-.49.283a.219.219 0 1 0 .219.38l.49-.284-.104.387a.219.219 0 1 0 .423.113l.216-.81.68-.391a.236.236 0 0 0 .015-.01c.197.238.476.405.794.458v.803l-.593.592a.219.219 0 0 0 .31.31l.282-.283v.565a.219.219 0 1 0 .438 0v-.565l.283.282a.219.219 0 1 0 .309-.309l-.592-.592v-.784l-.001-.019a1.31 1.31 0 0 0 .794-.458l.015.01.68.392.216.809a.219.219 0 0 0 .423-.113l-.104-.387.49.283a.219.219 0 0 0 .219-.379l-.49-.283.386-.103a.219.219 0 1 0-.113-.423l-.809.217-.679-.392a.217.217 0 0 0-.016-.008 1.31 1.31 0 0 0 0-.918.242.242 0 0 0 .016-.008l.68-.392.808.217a.219.219 0 1 0 .114-.423l-.387-.103.49-.283a.219.219 0 1 0-.219-.38l-.49.284.104-.387a.219.219 0 0 0-.423-.113l-.216.81-.68.391a.201.201 0 0 0-.015.01 1.311 1.311 0 0 0-.794-.458v-.803l.593-.592A.219.219 0 1 0 13 9.5l-.282.283V9.22ZM.5 1.5a.5.5 0 0 0 0 1h15a.5.5 0 0 0 0-1H.5ZM.5 4a.5.5 0 0 0 0 1h8a.5.5 0 0 0 0-1h-8ZM7 7a.5.5 0 0 1 .5-.5h8a.5.5 0 0 1 0 1h-8A.5.5 0 0 1 7 7Zm3.5-3a.5.5 0 0 0 0 1h5a.5.5 0 0 0 0-1h-5ZM0 7a.5.5 0 0 1 .5-.5h5a.5.5 0 0 1 0 1h-5A.5.5 0 0 1 0 7Zm.5 2a.5.5 0 0 0 0 1h8a.5.5 0 0 0 0-1h-8Z"/>
</svg>