<svg xmlns="http://www.w3.org/2000/svg" width="16" height="16" fill="currentColor" class="qi-2378" viewBox="0 0 16 16">
  <path d="M10.65.631a2 2 0 0 0-3.275.533 1.5 1.5 0 0 0-2.098.84 1 1 0 0 0-1.028.665 1 1 0 1 0 .388 1.162.995.995 0 0 0 1.22-.084 1.493 1.493 0 0 0 1.387.148 1.5 1.5 0 0 0 2.362.793 2.5 2.5 0 0 0 4.149-.719A1.002 1.002 0 0 0 15 3a1 1 0 0 0-.674-.946 1 1 0 0 0-1.36-1.042 2.497 2.497 0 0 0-2.318-.381ZM2 5.75a.75.75 0 1 0 0-1.5.75.75 0 0 0 0 1.5ZM1.5 7a.5.5 0 1 0 0-1 .5.5 0 0 0 0 1Zm3-.25a.75.75 0 1 1-1.5 0 .75.75 0 0 1 1.5 0ZM2.29 8.454a.5.5 0 1 0 0-1 .5.5 0 0 0 0 1ZM4 9a.5.5 0 1 1-1 0 .5.5 0 0 1 1 0Zm-.5-7.5a.5.5 0 1 1-1 0 .5.5 0 0 1 1 0Z"/>
  <path d="M5 1.5a.5.5 0 1 0 0-1 .5.5 0 0 0 0 1ZM5 5a.5.5 0 1 1-1 0 .5.5 0 0 1 1 0Zm-.75 2.896-.353.354.353.354.354-.354-.354-.354ZM4 10.354 4.354 10l.353.354-.353.353L4 10.354ZM2.354 9 2 9.354l.354.353.353-.353L2.354 9Z"/>
  <path d="m3.637 11.156-.561-1.122L0 14.34V16h16v-1.5h-3.37l-4.654-2.585-1.45.966-2.563-2.051-.326.326Z"/>
</svg>