<svg xmlns="http://www.w3.org/2000/svg" width="16" height="16" fill="currentColor" class="qi-2379" viewBox="0 0 16 16">
  <path d="M9.985 10.75a.188.188 0 0 0 .265-.265L8.187 8.422v.53l1.798 1.798Zm-4.235-.265a.187.187 0 1 0 .265.265l1.797-1.797v-.53L5.75 10.484Zm4.5-6.97a.188.188 0 0 0-.265-.265L8.188 5.047v.53l2.062-2.062ZM6.015 3.25a.187.187 0 1 0-.265.265l2.062 2.063v-.53L6.015 3.25Zm-1.5 1.5a.187.187 0 1 0-.265.265l1.797 1.797h.53L4.516 4.75ZM4.25 8.985a.187.187 0 1 0 .265.265l2.063-2.063h-.53L4.25 8.986Zm7.5-3.97a.188.188 0 0 0-.265-.265L9.422 6.812h.53l1.798-1.797Zm-.265 4.235a.187.187 0 1 0 .265-.265L9.953 7.188h-.53l2.062 2.062Z"/>
  <path d="M13.813 6.813h-2.36L12.5 5.764a.188.188 0 0 0-.265-.265L11 6.735a.185.185 0 0 0-.047.078h-2.5l3.297-3.298a.188.188 0 0 0-.265-.265L8.188 6.547v-2.5A.187.187 0 0 0 8.264 4L9.5 2.765a.187.187 0 1 0-.265-.265L8.188 3.547v-2.36a.187.187 0 1 0-.375 0v2.36L6.764 2.5a.187.187 0 1 0-.265.265L7.735 4c.022.022.05.038.078.047v2.5L4.515 3.25a.187.187 0 1 0-.265.265l3.297 3.297h-2.47L3.766 5.5a.187.187 0 1 0-.265.265l1.047 1.048h-2.36a.187.187 0 1 0 0 .375h2.36L3.5 8.235a.187.187 0 1 0 .265.265l1.313-1.312h2.47L4.25 10.485a.187.187 0 1 0 .265.265l3.298-3.297v2.5a.187.187 0 0 0-.078.047L6.5 11.235a.187.187 0 1 0 .265.265l1.048-1.047v2.36a.187.187 0 0 0 .375 0v-2.36L9.235 11.5a.188.188 0 0 0 .265-.265L8.265 10a.187.187 0 0 0-.078-.047v-2.5l3.298 3.297a.187.187 0 0 0 .265-.265L8.453 7.188h2.5a.185.185 0 0 0 .047.077L12.235 8.5a.187.187 0 1 0 .265-.265l-1.047-1.047h2.36a.187.187 0 1 0 0-.375Z"/>
  <path d="M.5 9.5a.5.5 0 0 1 .5.5v5h14v-5a.5.5 0 0 1 1 0v6H0v-6a.5.5 0 0 1 .5-.5Z"/>
</svg>