<svg xmlns="http://www.w3.org/2000/svg" width="16" height="16" fill="currentColor" class="qi-2380" viewBox="0 0 16 16">
  <path d="M2.5 1.866a1 1 0 1 0-1 0V15H0v1h4v-1H2.5V4.292l2.13 1.277c.046-.129.105-.298.161-.486L2.986 4 4.79 2.917a9.43 9.43 0 0 0-.162-.486L2.5 3.708V1.866Z"/>
  <path d="M5.698 2.464c.346-.015.8-.032 1.302-.042V5.01c-.46.1-.882.198-1.227.281l.048-.171C5.914 4.775 6 4.364 6 4c0-.383-.096-.82-.195-1.18a9.243 9.243 0 0 0-.107-.356ZM8 2.414c.509.002 1.026.015 1.5.047v2.094c-.477.063-.992.151-1.5.25V2.413Zm2.5.15c.478.067.995.159 1.5.26v1.59a26.44 26.44 0 0 0-1.5.045V2.564Zm2.5.47c.62.137 1.16.27 1.5.354v1.084c-.368-.017-.9-.039-1.5-.05V3.034ZM5.11 1.493a.601.601 0 0 0-.527.814c.06.159.167.454.258.781.093.337.159.668.159.912 0 .23-.058.54-.145.86a9.06 9.06 0 0 1-.251.778c-.166.444.23.92.713.796.706-.18 3.118-.775 4.733-.936 1.693-.17 4.26-.037 4.817-.005a.6.6 0 0 0 .633-.6V3.077a.6.6 0 0 0-.449-.58c-.47-.122-3.184-.813-5.001-.995-1.75-.175-4.328-.044-4.94-.01Zm5.83 8.88c-.03-.301.23-.56.56-.56.33 0 .59.259.56.56l-.253 2.646h-.614l-.253-2.646Zm.982 3.517a.422.422 0 1 1-.844 0 .422.422 0 0 1 .844 0Z"/>
  <path d="M11.244 7.71a.296.296 0 0 1 .512 0L15.96 15a.292.292 0 0 1-.256.438h-8.41A.292.292 0 0 1 7.039 15l4.205-7.291Zm3.8 7.052L11.5 8.617l-3.544 6.145h7.088Z"/>
</svg>