<svg xmlns="http://www.w3.org/2000/svg" width="16" height="16" fill="currentColor" class="qi-2381" viewBox="0 0 16 16">
  <path d="M2.5 1.866a1 1 0 1 0-1 0V15H0v1h4v-1H2.5V4.292l2.13 1.277c.046-.129.105-.298.161-.486L2.986 4 4.79 2.917a9.43 9.43 0 0 0-.162-.486L2.5 3.708V1.866Z"/>
  <path d="M5.698 2.464c.346-.015.8-.032 1.302-.042V5.01c-.46.1-.882.198-1.227.281l.048-.171C5.914 4.775 6 4.364 6 4c0-.383-.096-.82-.195-1.18a9.243 9.243 0 0 0-.107-.356ZM8 2.414c.509.002 1.026.015 1.5.047v2.094c-.477.063-.992.151-1.5.25V2.413Zm2.5.15c.478.067.995.159 1.5.26v1.59a26.44 26.44 0 0 0-1.5.045V2.564Zm2.5.47c.62.137 1.16.27 1.5.354v1.084c-.368-.017-.9-.039-1.5-.05V3.034ZM5.11 1.493a.601.601 0 0 0-.527.814c.06.159.167.454.258.781.093.337.159.668.159.912 0 .23-.058.54-.145.86a9.06 9.06 0 0 1-.251.778c-.166.444.23.92.713.796.706-.18 3.118-.775 4.733-.936 1.693-.17 4.26-.037 4.817-.005a.6.6 0 0 0 .633-.6V3.077a.6.6 0 0 0-.449-.58c-.47-.122-3.184-.813-5.001-.995-1.75-.175-4.328-.044-4.94-.01Zm-.653 7.771C4.825 9.081 5.234 9 5.7 9c.532 0 .877.307 1.148.547l.018.016c.29.257.505.437.834.437.33 0 .544-.18.834-.437l.018-.016C8.822 9.307 9.168 9 9.7 9c.532 0 .877.307 1.148.547l.018.016c.29.257.505.437.834.437.33 0 .544-.18.834-.437l.018-.016c.27-.24.616-.547 1.148-.547.466 0 .875.08 1.243.264.367.184.677.463.957.836l-.4.3c-.244-.326-.498-.547-.78-.688-.284-.142-.613-.212-1.02-.212-.33 0-.544.18-.834.437l-.018.016c-.27.24-.616.547-1.148.547-.532 0-.877-.307-1.148-.547l-.018-.016c-.29-.257-.505-.437-.834-.437-.33 0-.544.18-.834.437l-.018.016c-.27.24-.616.547-1.148.547-.532 0-.877-.307-1.148-.547l-.018-.016C6.244 9.68 6.029 9.5 5.7 9.5c-.407 0-.736.07-1.02.212-.282.141-.536.362-.78.688l-.4-.3c.28-.373.59-.652.957-.836Zm0 4C4.825 13.081 5.234 13 5.7 13c.532 0 .877.307 1.148.547l.018.016c.29.257.505.437.834.437.33 0 .544-.18.834-.437l.018-.016c.27-.24.616-.547 1.148-.547.532 0 .877.307 1.148.547l.018.016c.29.257.505.437.834.437.33 0 .544-.18.834-.437l.018-.016c.27-.24.616-.547 1.148-.547.466 0 .875.08 1.243.264.367.184.677.463.957.836l-.4.3c-.244-.326-.498-.547-.78-.688-.284-.142-.613-.212-1.02-.212-.33 0-.544.18-.834.437l-.018.016c-.27.24-.616.547-1.148.547-.532 0-.877-.307-1.148-.547l-.018-.016c-.29-.257-.505-.437-.834-.437-.33 0-.544.18-.834.437l-.018.016c-.27.24-.616.547-1.148.547-.532 0-.877-.307-1.148-.547l-.018-.016c-.29-.257-.505-.437-.834-.437-.407 0-.736.07-1.02.212-.282.141-.536.362-.78.688l-.4-.3c.28-.373.59-.652.957-.836ZM5.2 11c-.466 0-.875.08-1.243.264-.367.184-.677.463-.957.836l.4.3c.244-.326.498-.547.78-.688.284-.142.613-.212 1.02-.212.33 0 .544.18.834.437l.018.016c.27.24.616.547 1.148.547.532 0 .877-.307 1.148-.547l.018-.016c.29-.257.505-.437.834-.437.33 0 .544.18.834.437l.018.016c.27.24.616.547 1.148.547.532 0 .877-.307 1.148-.547l.018-.016c.29-.257.505-.437.834-.437.407 0 .736.07 1.02.212.282.141.536.362.78.688l.4-.3c-.28-.373-.59-.652-.957-.836-.368-.183-.777-.264-1.243-.264-.532 0-.877.307-1.148.547l-.018.016c-.29.257-.505.437-.834.437-.33 0-.544-.18-.834-.437l-.018-.016c-.27-.24-.616-.547-1.148-.547-.532 0-.877.307-1.148.547l-.018.016c-.29.257-.505.437-.834.437-.33 0-.544-.18-.834-.437l-.018-.016C6.078 11.307 5.732 11 5.2 11Z"/>
</svg>