<svg xmlns="http://www.w3.org/2000/svg" width="16" height="16" fill="currentColor" class="qi-2382" viewBox="0 0 16 16">
  <path d="M1 13a1 1 0 1 1 0-2 1 1 0 0 1 0 2Zm5.7 0a.9.9 0 1 1 0-1.8.9.9 0 0 1 0 1.8Zm1.9-.7a.7.7 0 1 0 1.4 0 .7.7 0 0 0-1.4 0Zm3 .7a.6.6 0 1 1 0-1.2.6.6 0 0 1 0 1.2Zm1.6-.5a.5.5 0 1 0 1 0 .5.5 0 0 0-1 0Zm2 3.5a1 1 0 1 0 0-2 1 1 0 0 0 0 2Zm-5.7 0a.9.9 0 1 0 0-1.8.9.9 0 0 0 0 1.8Zm-1.9-.7a.7.7 0 1 1-1.4 0 .7.7 0 0 1 1.4 0Zm-3 .7a.6.6 0 1 0 0-1.2.6.6 0 0 0 0 1.2Zm-2.1 0a.5.5 0 1 0 0-1 .5.5 0 0 0 0 1Zm10.7-.9a.9.9 0 1 1-1.8 0 .9.9 0 0 1 1.8 0ZM3 12.1a.9.9 0 1 0 1.8 0 .9.9 0 0 0-1.8 0Zm11.466-7.345a4.243 4.243 0 0 0-.836-3.122A4.106 4.106 0 0 0 10.866.028c-1.888-.243-3.62 1.12-3.86 3.039a2.945 2.945 0 0 0 .58 2.164A2.852 2.852 0 0 0 9.5 6.342a.617.617 0 0 0 .69-.54.624.624 0 0 0-.534-.7 1.639 1.639 0 0 1-1.098-.638 1.695 1.695 0 0 1-.333-1.241c.156-1.234 1.27-2.111 2.484-1.955.775.1 1.467.502 1.945 1.13.48.627.69 1.409.589 2.197a4.544 4.544 0 0 1-2.22 3.282c-1.998 1.159-4.994.916-8.662-.702a.613.613 0 0 0-.81.326.629.629 0 0 0 .319.823c1.051.463 2.014.804 2.895 1.044 3.393.922 5.567.353 6.868-.4 1.83-1.059 2.665-2.872 2.832-4.213ZM2.626 2.249c-.019-.201.154-.374.374-.374s.393.173.374.374l-.17 1.764h-.409l-.169-1.764Zm.655 2.345a.281.281 0 1 1-.562 0 .281.281 0 0 1 .562 0Z"/>
  <path d="M2.83.473a.197.197 0 0 1 .34 0l2.804 4.86a.195.195 0 0 1-.17.292H.196a.195.195 0 0 1-.17-.291L2.83.473Zm2.533 4.702L3 1.078.637 5.175h4.726Z"/>
</svg>