<svg xmlns="http://www.w3.org/2000/svg" width="16" height="16" fill="currentColor" class="qi-2383" viewBox="0 0 16 16">
  <path d="M7.253 8.497c-.039-.401.307-.747.747-.747s.786.346.747.747l-.338 3.528h-.818l-.338-3.528Zm1.309 4.691a.562.562 0 1 1-1.124 0 .562.562 0 0 1 1.124 0Z"/>
  <path d="M7.659 4.946a.395.395 0 0 1 .682 0l5.607 9.722a.39.39 0 0 1-.341.582H2.393a.39.39 0 0 1-.34-.582l5.606-9.722Zm5.066 9.404L8 6.156 3.275 14.35h9.45ZM5.5 1.75a.75.75 0 1 1-1.5 0 .75.75 0 0 1 1.5 0Zm5 1.25a.5.5 0 1 0 0-1 .5.5 0 0 0 0 1ZM3 4.5a.5.5 0 1 1-1 0 .5.5 0 0 1 1 0Zm-1 3a.5.5 0 1 1-1 0 .5.5 0 0 1 1 0ZM2 11a1 1 0 1 0 0-2 1 1 0 0 0 0 2Zm1.5-3a.5.5 0 1 1-1 0 .5.5 0 0 1 1 0ZM11 7a.75.75 0 1 0 0-1.5.75.75 0 0 0 0 1.5Zm3.75-.25a.75.75 0 1 1-1.5 0 .75.75 0 0 1 1.5 0ZM11.5 9a.5.5 0 1 0 0-1 .5.5 0 0 0 0 1Zm2-1a.5.5 0 1 1-1 0 .5.5 0 0 1 1 0ZM6 4.5a.5.5 0 1 1-1 0 .5.5 0 0 1 1 0Zm8 7.5a1 1 0 1 0 0-2 1 1 0 0 0 0 2ZM8 3a1 1 0 1 1-2 0 1 1 0 0 1 2 0Zm4.5 2a.5.5 0 1 0 0-1 .5.5 0 0 0 0 1Zm-2-1a.5.5 0 1 1-1 0 .5.5 0 0 1 1 0ZM4.75 7.5a.75.75 0 1 0 0-1.5.75.75 0 0 0 0 1.5ZM3.5 10a.5.5 0 1 0 0-1 .5.5 0 0 0 0 1Z"/>
</svg>