<svg xmlns="http://www.w3.org/2000/svg" width="16" height="16" fill="currentColor" class="qi-2386" viewBox="0 0 16 16">
  <path d="M7.25 10.875H11a.625.625 0 1 0-.59-.833.312.312 0 1 1-.589-.209A1.25 1.25 0 1 1 11 11.5H7.25a.312.312 0 1 1 0-.625Z"/>
  <path d="M12.924 10.485a1.563 1.563 0 0 1 3.076.39c0 .873-.775 1.563-1.563 1.563H6.313a.312.312 0 1 1 0-.626h8.125c.462 0 .937-.43.937-.937a.937.937 0 0 0-1.845-.235.312.312 0 1 1-.606-.155Zm-5.361 2.578c0-.173.14-.313.312-.313h5a1.25 1.25 0 1 1-1.179 1.667.312.312 0 1 1 .59-.209.625.625 0 1 0 .589-.833h-5a.312.312 0 0 1-.313-.313Z"/>
  <path d="M2.5 0a.5.5 0 0 0-.5.5v15a.5.5 0 0 0 1 0V9l11-4L3 1V.5a.5.5 0 0 0-.5-.5Z"/>
</svg>