<svg xmlns="http://www.w3.org/2000/svg" width="16" height="16" fill="currentColor" class="qi-2387" viewBox="0 0 16 16">
  <path d="M2.5 0a.5.5 0 0 0-.5.5v15a.5.5 0 0 0 1 0V9l11-4L3 1V.5a.5.5 0 0 0-.5-.5Z"/>
  <path d="M5.8 10.1a.5.5 0 0 0-.6.8c.523.392 1.011.673 1.55.852.537.18 1.097.248 1.75.248.75 0 1.29-.306 1.722-.551l.024-.014c.447-.253.783-.435 1.254-.435.582 0 1.028.061 1.434.197.407.135.8.354 1.266.703a.5.5 0 0 0 .6-.8c-.523-.392-1.011-.673-1.55-.852-.537-.18-1.097-.248-1.75-.248-.75 0-1.29.306-1.722.551l-.024.014C9.307 10.818 8.97 11 8.5 11c-.582 0-1.028-.061-1.434-.196-.407-.136-.8-.355-1.266-.704Zm1 2.5a.5.5 0 1 0-.6.8c.523.392 1.011.673 1.55.852.537.18 1.097.248 1.75.248.75 0 1.29-.306 1.722-.551l.024-.014c.447-.253.783-.435 1.254-.435.582 0 1.028.061 1.434.197.407.135.8.354 1.266.703a.5.5 0 0 0 .6-.8c-.523-.392-1.011-.673-1.55-.852-.537-.18-1.097-.248-1.75-.248-.75 0-1.29.306-1.722.551l-.024.014c-.447.253-.783.435-1.254.435-.582 0-1.028-.061-1.434-.196-.407-.136-.8-.355-1.266-.704Z"/>
</svg>