<svg xmlns="http://www.w3.org/2000/svg" width="16" height="16" fill="currentColor" class="qi-2389" viewBox="0 0 16 16">
  <path d="M7.253 8.497c-.039-.401.307-.747.747-.747s.786.346.747.747l-.338 3.528h-.818l-.338-3.528Zm1.309 4.691a.562.562 0 1 1-1.124 0 .562.562 0 0 1 1.124 0Z"/>
  <path d="M7.659 4.946a.395.395 0 0 1 .682 0l5.607 9.722a.39.39 0 0 1-.341.582H2.393a.39.39 0 0 1-.34-.582l5.606-9.722Zm5.066 9.404L8 6.156 3.275 14.35h9.45Z"/>
  <path d="M15.317 9.016a2.75 2.75 0 0 1-2.206 2.684l-.435-.597a2.095 2.095 0 0 0 1.976-2.08c0-.693-.343-1.307-.865-1.686a2.076 2.076 0 0 0 1.148-1.856 2.094 2.094 0 0 0-2.103-2.084c-.246 0-.482.042-.702.118.04-.165.06-.34.06-.517A2.349 2.349 0 0 0 9.83.66a2.36 2.36 0 0 0-2.21 1.526 2.109 2.109 0 0 0-1.714-.877 2.094 2.094 0 0 0-2.102 2.084c0 .178.023.353.066.518a2.114 2.114 0 0 0-1.108-.313A2.094 2.094 0 0 0 .66 5.682c0 .877.549 1.629 1.324 1.936a2.064 2.064 0 0 0-.456 1.296c0 1.088.838 1.981 1.91 2.077l-.296.62A2.751 2.751 0 0 1 .868 8.914c0-.363.074-.723.213-1.056A2.727 2.727 0 0 1 0 5.682c0-1.51 1.241-2.74 2.768-2.74.136 0 .276.01.413.03A2.76 2.76 0 0 1 5.912.65c.562 0 1.105.171 1.56.481A3.042 3.042 0 0 1 9.834 0a3.015 3.015 0 0 1 3.008 2.737c1.52.003 2.758 1.23 2.758 2.74 0 .739-.296 1.432-.808 1.936.336.462.525 1.022.525 1.603Z"/>
  <path d="M3.548 4.276c-.518-.1-1.057.095-1.419.546v.002c-.34.43-.449.992-.336 1.502.069.315.22.615.462.852a.25.25 0 0 0 .35-.356 1.198 1.198 0 0 1-.324-.603 1.308 1.308 0 0 1 .239-1.085c.25-.312.605-.43.933-.368a.25.25 0 1 0 .095-.49Zm7.376-2.483c.577.4.875 1.054.84 1.709a.25.25 0 1 1-.499-.026 1.453 1.453 0 0 0-.625-1.272 1.477 1.477 0 0 0-2.044.367.25.25 0 0 1-.411-.284 1.977 1.977 0 0 1 2.738-.495h.001ZM11.5 5a.5.5 0 1 0 0-1 .5.5 0 0 0 0 1Z"/>
</svg>