<svg xmlns="http://www.w3.org/2000/svg" width="16" height="16" fill="currentColor" class="qi-2394" viewBox="0 0 16 16">
  <path d="M15.427 15.485c-1.766-.416-2.785-.523-4.594-.485-1.056.022-1.861.244-2.713.48l-.012.003c-.85.236-1.748.485-2.922.51-1.884.04-2.978-.076-4.818-.508a.497.497 0 0 1-.357-.593.47.47 0 0 1 .562-.377c1.766.416 2.785.523 4.594.485 1.056-.022 1.861-.244 2.713-.48l.012-.003c.85-.236 1.748-.485 2.922-.51 1.884-.04 2.978.076 4.818.508.253.06.413.325.357.593a.47.47 0 0 1-.562.377Zm0-2c-1.766-.416-2.785-.523-4.594-.485-1.056.022-1.861.244-2.713.48l-.012.003c-.85.236-1.748.485-2.922.51-1.884.04-2.978-.076-4.818-.508a.497.497 0 0 1-.357-.593.47.47 0 0 1 .562-.377c1.766.416 2.785.523 4.594.485 1.056-.022 1.861-.244 2.713-.48l.012-.003c.85-.236 1.748-.485 2.922-.51 1.884-.04 2.978.076 4.818.508.253.06.413.325.357.593a.47.47 0 0 1-.562.377Zm0-2c-1.766-.416-2.785-.523-4.594-.485-1.056.022-1.861.244-2.713.48l-.012.003c-.85.236-1.748.485-2.922.51-1.884.04-2.978-.076-4.818-.508a.497.497 0 0 1-.357-.593.47.47 0 0 1 .562-.377c1.766.416 2.785.523 4.594.485 1.056-.022 1.861-.244 2.713-.48l.012-.003c.85-.236 1.748-.485 2.922-.51 1.884-.04 2.978.076 4.818.508.253.06.413.325.357.593a.47.47 0 0 1-.562.377Zm-8.14-6.604c-.045-.29.136-.64.397-.797a.607.607 0 0 1 .645.018l.056.034a.677.677 0 0 1 .327.683L8.426 6.64h-.862l-.277-1.759ZM8.48 7.52a.48.48 0 1 1-.96 0 .48.48 0 0 1 .96 0Z"/>
  <path d="M5.879 8.621A3 3 0 0 1 5 6.5C5 5 6.666 2.315 8 .5c1.334 1.815 3 4.5 3 6a3 3 0 0 1-5.121 2.121Zm.53-.53A2.25 2.25 0 0 0 10.25 6.5C10.25 5.375 9 3.361 8 2 7 3.361 5.75 5.375 5.75 6.5c0 .597.237 1.17.659 1.591Z"/>
</svg>