<svg xmlns="http://www.w3.org/2000/svg" width="16" height="16" fill="currentColor" class="qi-2396" viewBox="0 0 16 16">
  <path d="M6.14 2.94a.658.658 0 0 0 .651-.74l-.136-1.077a.669.669 0 0 0-.734-.57.658.658 0 0 0-.568.735l.137 1.077a.658.658 0 0 0 .65.575ZM2.806 4.473a.653.653 0 0 0 .92-.118.658.658 0 0 0-.117-.922l-.857-.664a.658.658 0 0 0-.92.117.66.66 0 0 0 .117.922l.857.665Zm.077 2.64a.664.664 0 0 0-.732-.568l-1.077.137a.657.657 0 0 0 .166 1.304l1.075-.138a.658.658 0 0 0 .568-.734Zm.37 2.84-.664.86a.66.66 0 0 0 .602 1.056.651.651 0 0 0 .435-.252l.664-.86a.657.657 0 1 0-1.037-.803Zm3.507-.164A4.513 4.513 0 0 1 8.5 7.558V4.564a3 3 0 1 0-1.74 5.225ZM11.5 3a.5.5 0 0 0-.5.5v6.063a2 2 0 1 0 1 0V3.5a.5.5 0 0 0-.5-.5Z"/>
  <path d="m10.2 8.399-.532.356a3.3 3.3 0 1 0 3.665 0l-.533-.356V2.5a1.3 1.3 0 1 0-2.6 0v5.899ZM9 2.5a2.5 2.5 0 0 1 5 0v5.258a4.5 4.5 0 1 1-5 0V2.5Z"/>
</svg>