<svg xmlns="http://www.w3.org/2000/svg" width="16" height="16" fill="currentColor" class="qi-2397" viewBox="0 0 16 16">
  <path d="M6.76 1.23 8.5 2.391l-.555.832-1.258-.839-1.964.982L2.5 2.254l.447-.894 1.777.888L6.76 1.23Zm1.741 10.431L6.76 10.5l-2.036 1.018-1.777-.888-.447.894 2.224 1.112 1.964-.982 1.258.839.555-.832Zm0 2.136L6.76 12.636l-2.036 1.018-1.777-.888-.447.894 2.224 1.112 1.964-.982 1.258.839.555-.832Zm0-9.27L6.76 3.366 4.724 4.384l-1.777-.888-.447.894 2.224 1.112 1.964-.982 1.258.839.555-.832Z"/>
  <path d="M13.5 2.5a2.5 2.5 0 0 0-2.421 1.875.5.5 0 0 0 .968.25A1.5 1.5 0 0 1 15 5c0 .812-.76 1.5-1.5 1.5H.5a.5.5 0 1 0 0 1h13C14.76 7.5 16 6.397 16 5a2.5 2.5 0 0 0-2.5-2.5Zm-13 6a.5.5 0 1 0 0 1h11a1 1 0 1 1-.943 1.333.5.5 0 0 0-.943.334A2 2 0 1 0 11.5 8.5H.5Z"/>
</svg>