<svg xmlns="http://www.w3.org/2000/svg" width="16" height="16" fill="currentColor" class="qi-2398" viewBox="0 0 16 16">
  <path d="M8 2.875 14.3 13.8H1.7L8 2.875Zm.455-1.614a.526.526 0 0 0-.91 0L.07 14.224c-.2.346.052.776.454.776h14.952c.402 0 .654-.43.454-.776L8.455 1.26Z"/>
  <path d="M8.188 7.188a.187.187 0 1 0-.376 0v.484L7.57 7.43a.187.187 0 1 0-.265.265l.508.508v.687a1.124 1.124 0 0 0-.68.393.192.192 0 0 0-.014-.008l-.582-.336-.186-.693a.188.188 0 0 0-.362.097l.089.33-.42-.242a.187.187 0 1 0-.187.325L5.89 9l-.332.088a.188.188 0 0 0 .097.363l.694-.186.582.336a.193.193 0 0 0 .014.007 1.123 1.123 0 0 0 0 .786.195.195 0 0 0-.014.007l-.582.336-.694-.186a.188.188 0 0 0-.097.363L5.89 11l-.42.243a.187.187 0 1 0 .188.325l.42-.243-.089.331a.187.187 0 1 0 .362.097l.186-.693.582-.336a.161.161 0 0 0 .014-.008c.168.204.408.347.68.393v.687l-.508.508a.188.188 0 0 0 .265.265l.242-.242v.485a.187.187 0 1 0 .375 0v-.485l.243.242a.188.188 0 0 0 .265-.265l-.508-.508v-.687c.272-.046.512-.19.68-.393a.195.195 0 0 0 .014.008l.582.336.186.693a.188.188 0 0 0 .362-.097l-.089-.33.42.242a.188.188 0 1 0 .187-.325l-.42-.242.332-.09a.188.188 0 0 0-.097-.362l-.694.186-.582-.336a.196.196 0 0 0-.014-.007 1.123 1.123 0 0 0 0-.786.194.194 0 0 0 .014-.007l.582-.336.694.186a.187.187 0 1 0 .097-.363L10.11 9l.42-.243a.188.188 0 0 0-.188-.325l-.42.243.089-.331a.187.187 0 1 0-.362-.097l-.186.693-.582.336a.187.187 0 0 0-.014.008 1.124 1.124 0 0 0-.68-.393v-.687l.508-.508a.187.187 0 1 0-.265-.265l-.242.242v-.484Z"/>
</svg>