<svg xmlns="http://www.w3.org/2000/svg" width="16" height="16" fill="currentColor" class="qi-2399" viewBox="0 0 16 16">
  <path d="M6.849 4.35a.35.35 0 1 0-.7 0v.544l-.47-.272a.35.35 0 0 0-.35.606l.47.272-.47.272a.35.35 0 0 0 .35.606l.47-.272v.544a.35.35 0 1 0 .7 0v-.544l.47.272a.35.35 0 0 0 .35-.606L7.2 5.5l.47-.272a.35.35 0 1 0-.35-.606l-.47.272V4.35Zm0-4a.35.35 0 0 0-.7 0v.544l-.47-.272a.35.35 0 1 0-.35.606l.47.272-.47.272a.35.35 0 0 0 .35.606l.47-.272v.544a.35.35 0 1 0 .7 0v-.544l.47.272a.35.35 0 0 0 .35-.606L7.2 1.5l.47-.272a.35.35 0 1 0-.35-.606l-.47.272V.35Zm4 7a.35.35 0 1 0-.7 0v.544l-.47-.272a.35.35 0 0 0-.35.606l.47.272-.47.272a.35.35 0 0 0 .35.606l.47-.272v.544a.35.35 0 1 0 .7 0v-.544l.47.272a.35.35 0 1 0 .35-.606L11.2 8.5l.47-.272a.35.35 0 1 0-.35-.606l-.47.272V7.35Zm4 2a.35.35 0 1 0-.7 0v.544l-.47-.272a.35.35 0 1 0-.35.606l.47.272-.47.272a.35.35 0 1 0 .35.606l.47-.272v.544a.35.35 0 1 0 .7 0v-.544l.47.272a.35.35 0 1 0 .35-.606l-.47-.272.47-.272a.35.35 0 1 0-.35-.606l-.47.272V9.35Z"/>
  <path d="m1.411 4 1.472.835 1.235 2.139 2.44 1.017L7.664 9.77l3.588.905L15 15.998H0L1.411 4Zm9.778-1.126c-.016-.168.128-.312.311-.312s.327.144.311.312l-.14 1.47h-.341l-.141-1.47Zm.545 1.954a.234.234 0 1 1-.468 0 .234.234 0 0 1 .468 0Z"/>
  <path d="M11.358 1.394a.164.164 0 0 1 .284 0l2.336 4.05a.162.162 0 0 1-.142.244H9.164a.162.162 0 0 1-.142-.243l2.336-4.05Zm2.11 3.918L11.5 1.898 9.531 5.313h3.938Z"/>
</svg>