<svg xmlns="http://www.w3.org/2000/svg" width="16" height="16" fill="currentColor" class="qi-2400" viewBox="0 0 16 16">
  <path d="M.065 13.314a.5.5 0 0 1 .713-.17l1.017.678a.5.5 0 0 0 .5.031l1.034-.517a1.5 1.5 0 0 1 1.342 0l1.105.553a.5.5 0 0 0 .448 0l1.105-.553c.114-.056.233-.098.354-.124C6.566 11.845 5.75 8.158 7 6.5c1.96-2.599 7-.5 7-.5s-3.553-4.997-8-5C1.358.997.3 10.194.065 13.314Zm.019.969a.5.5 0 0 1 .693-.139l1.018.678a.5.5 0 0 0 .5.031l1.034-.517a1.5 1.5 0 0 1 1.342 0l1.105.553a.5.5 0 0 0 .448 0l1.105-.553a1.5 1.5 0 0 1 1.342 0l1.105.553a.5.5 0 0 0 .448 0l1.105-.553a1.5 1.5 0 0 1 1.342 0l1.034.517a.5.5 0 0 0 .5-.03l1.018-.679a.5.5 0 1 1 .554.832l-1.017.678a1.5 1.5 0 0 1-1.503.094l-1.033-.517a.5.5 0 0 0-.448 0l-1.105.553a1.5 1.5 0 0 1-1.342 0l-1.105-.553a.5.5 0 0 0-.448 0l-1.105.553a1.5 1.5 0 0 1-1.342 0l-1.105-.553a.5.5 0 0 0-.448 0l-1.033.517a1.5 1.5 0 0 1-1.503-.094l-1.017-.678a.5.5 0 0 1-.139-.693Zm11.543-5.034c-.02-.201.153-.374.373-.374s.393.173.373.374l-.168 1.763h-.41l-.168-1.763Zm.654 2.345a.281.281 0 1 1-.562 0 .281.281 0 0 1 .562 0Z"/>
  <path d="M11.83 7.473a.197.197 0 0 1 .34 0l2.804 4.86a.195.195 0 0 1-.17.292H9.196a.195.195 0 0 1-.17-.291l2.803-4.861Zm2.533 4.702L12 8.078l-2.363 4.097h4.726Z"/>
</svg>