<svg xmlns="http://www.w3.org/2000/svg" width="16" height="16" fill="currentColor" class="qi-2412" viewBox="0 0 16 16">
  <path d="M8 16A8 8 0 1 1 8 0a8 8 0 0 1 0 16Zm0-1.3A6.7 6.7 0 1 0 8 1.3a6.7 6.7 0 0 0 0 13.4Z"/>
  <path d="M7.925 11.75c1.152 0 2.183-.52 2.87-1.337a2.25 2.25 0 1 0 .415-4.223 3.749 3.749 0 0 0-6.554-.029 2.25 2.25 0 1 0 .44 4.3 3.74 3.74 0 0 0 2.829 1.289Zm.371-4.1c-.018.032.009.07.049.07h1.101c.046 0 .07.048.042.08l-2.234 2.432c-.039.042-.114.005-.093-.047l.554-1.458c.012-.031-.014-.065-.051-.065H6.598c-.072 0-.12-.068-.088-.127l1.048-1.977a.119.119 0 0 1 .043-.043.11.11 0 0 1 .057-.015h1.184c.04 0 .066.038.048.07l-.594 1.08Z"/>
</svg>