<svg xmlns="http://www.w3.org/2000/svg" width="16" height="16" fill="currentColor" class="qi-2413" viewBox="0 0 16 16">
  <path d="M3.053 14.7c3.153-1.698 5.733-4.387 8.965-9.025.149-.213-.39.786-.504 1.018-1.57 3.174-3.59 5.201-4.882 6.422a.396.396 0 0 0 .094.643c1.17.62 3.94 1.6 6.033-2.04C14.612 8.497 14.906 3.573 15 1.21c.017-.416-.248-.138-.53.188-1.024 1.187-3.946 1.442-6.009 2.568-4.27 2.33-4.632 5.305-3.61 8.04a.43.43 0 0 1 .003.296c-.034.096-.734.878-.821.93-.581.355-1.47.922-2.447.978-1.591.092.458 1.031 1.468.49Z"/>
</svg>