<svg xmlns="http://www.w3.org/2000/svg" width="16" height="16" fill="currentColor" class="qi-2414" viewBox="0 0 16 16">
  <path d="m6.945 13.89-.433.08-.493.015-.44-.074-.47-.176-.397-.264-.331-.337-.28-.389-.212-.433-.17-.455-.11-.454-.073-.448c-.125-1.071.345-1.65-.03-2.685.316.154.588.447.728.697.213-1.115.345-2.304.242-3.36.47.117.794.939.992 1.328.53-1.585.669-3.015.294-3.866.478.051.757.609 1.08 1.24.316-.419.265-1.284.265-2.18.051-.425.125-.902.39-1.129.257 2.003 1.241 1.834 1.792 4.064.199-.44.235-.917.184-1.518.647.374 1.212 1.775 1.514 3.778.286-.147.418-.712.529-1.35.624.887.845 1.995.529 3.316-.162.374-.265.755-.213 1.18.264-.16.352-.55.507-.872.11.477.22 1.041.125 1.452-.316 2.377-2.932 3.448-4.497 2.73 1.11-.705 2.256-.976 2.542-3.221a1.84 1.84 0 0 1-.61.345c.243-.763.316-1.446.03-1.827-.302.792-.72 1.262-1.044 1.35.382-.631.456-1.636-.654-3.272.213 1.951 0 2.854-.507 3.529a3.803 3.803 0 0 1-.815-1.658c-.316.792-.346 1.746.044 2.905-.397-.11-.713-.492-1.132-2.876-.345.91-.448 1.68-.39 1.966-.102-.051-.41-.293-.624-.345.316 1.9 1.124 2.898 2.138 3.213ZM0 15h16v1H0v-1Z"/>
</svg>