<svg xmlns="http://www.w3.org/2000/svg" width="16" height="16" fill="currentColor" class="qi-2416" viewBox="0 0 16 16">
  <path d="M8.406 16c1.44 0 2.728-.623 3.588-1.604a2.9 2.9 0 0 0 1.194.254c1.553 0 2.812-1.209 2.812-2.7s-1.26-2.7-2.813-2.7a2.93 2.93 0 0 0-.674.078C11.714 7.94 10.175 7 8.406 7c-1.754 0-3.282.925-4.086 2.294a2.943 2.943 0 0 0-.508-.044C2.26 9.25 1 10.46 1 11.95s1.26 2.7 2.813 2.7c.373 0 .73-.07 1.056-.197A4.76 4.76 0 0 0 8.406 16Zm-.742-5.758c-.053-.326.16-.72.466-.897a.737.737 0 0 1 .755.02l.066.038a.751.751 0 0 1 .383.768L9 12.22H7.99l-.325-1.98Zm1.398 2.968c0 .298-.251.54-.562.54a.552.552 0 0 1-.563-.54c0-.298.252-.54.563-.54.31 0 .562.242.562.54ZM4.745 1.777a.516.516 0 1 0 1.007-.224L5.496.403A.516.516 0 0 0 4.49.627l.255 1.15ZM1.023 3.535l.994.633a.516.516 0 0 0 .554-.87l-.994-.633a.516.516 0 0 0-.554.87ZM.628 8.043l1.15-.256a.516.516 0 1 0-.223-1.008l-1.15.256a.516.516 0 1 0 .223 1.008Zm10.238-2.28a.534.534 0 0 0 .112-.012l1.15-.256a.516.516 0 1 0-.224-1.008l-1.15.256a.516.516 0 0 0 .112 1.02ZM8.522 2.728a.516.516 0 0 0 .712-.158l.633-.994a.516.516 0 0 0-.87-.554l-.633.994a.516.516 0 0 0 .158.712ZM2.819 7.032c.071.303.182.596.331.87a3.13 3.13 0 0 0 .908-.486 2.453 2.453 0 0 1-.232-.608A2.504 2.504 0 0 1 8.714 5.72l.004.038a5.42 5.42 0 0 1 1.064.25 3.51 3.51 0 0 0-.061-.512 3.535 3.535 0 0 0-6.902 1.536Z"/>
</svg>