<svg xmlns="http://www.w3.org/2000/svg" width="16" height="16" fill="currentColor" class="qi-2418" viewBox="0 0 16 16">
  <path d="M8.327 3.055c.047-.316.43-.495.83-.389.398.107.64.454.523.751L8.653 6.026l-.74-.199.414-2.772ZM8.54 7.16a.563.563 0 1 1-1.087-.291.563.563 0 0 1 1.086.29Z"/>
  <path d="M4.155 3.947a4.501 4.501 0 0 0 2.473 5.257l-.971 3.625.12.06a.5.5 0 0 0 .447 0l1.105-.553.015-.007.733-2.737a4.501 4.501 0 1 0-3.922-5.645Zm7.987 2.14A3.769 3.769 0 1 1 4.86 4.136a3.769 3.769 0 0 1 7.28 1.95ZM.084 14.283a.5.5 0 0 1 .693-.139l1.018.678a.5.5 0 0 0 .5.031l1.034-.517a1.5 1.5 0 0 1 1.342 0l1.105.553a.5.5 0 0 0 .448 0l1.105-.553a1.5 1.5 0 0 1 1.342 0l1.105.553a.5.5 0 0 0 .448 0l1.105-.553a1.5 1.5 0 0 1 1.342 0l1.034.517a.5.5 0 0 0 .5-.03l1.018-.679a.5.5 0 1 1 .554.832l-1.017.678a1.5 1.5 0 0 1-1.503.094l-1.033-.517a.5.5 0 0 0-.448 0l-1.105.553a1.5 1.5 0 0 1-1.342 0l-1.105-.553a.5.5 0 0 0-.448 0l-1.105.553a1.5 1.5 0 0 1-1.342 0l-1.105-.553a.5.5 0 0 0-.448 0l-1.033.517a1.5 1.5 0 0 1-1.503-.094l-1.017-.678a.5.5 0 0 1-.139-.693Z"/>
  <path d="M.084 12.283a.5.5 0 0 1 .693-.139l1.018.678a.5.5 0 0 0 .5.031l1.034-.517a1.5 1.5 0 0 1 1.342 0l1.105.553a.5.5 0 0 0 .448 0l1.105-.553a1.5 1.5 0 0 1 1.342 0l1.105.553a.5.5 0 0 0 .448 0l1.105-.553a1.5 1.5 0 0 1 1.342 0l1.034.517a.5.5 0 0 0 .5-.03l1.018-.679a.5.5 0 1 1 .554.832l-1.017.678a1.5 1.5 0 0 1-1.503.094l-1.033-.517a.5.5 0 0 0-.448 0l-1.105.553a1.5 1.5 0 0 1-1.342 0l-1.105-.553a.5.5 0 0 0-.448 0l-1.105.553a1.5 1.5 0 0 1-1.342 0l-1.105-.553a.5.5 0 0 0-.448 0l-1.033.517a1.5 1.5 0 0 1-1.503-.094l-1.017-.678a.5.5 0 0 1-.139-.693Z"/>
</svg>