<svg xmlns="http://www.w3.org/2000/svg" width="16" height="16" fill="currentColor" class="qi-2420" viewBox="0 0 16 16">
  <path d="M.5 15a.5.5 0 0 1 .5-.5h2a.5.5 0 0 1 0 1H1a.5.5 0 0 1-.5-.5Zm4 0a.5.5 0 0 1 .5-.5h2a.5.5 0 0 1 0 1H5a.5.5 0 0 1-.5-.5Zm4 0a.5.5 0 0 1 .5-.5h2a.5.5 0 0 1 0 1H9a.5.5 0 0 1-.5-.5Zm4 0a.5.5 0 0 1 .5-.5h2a.5.5 0 0 1 0 1h-2a.5.5 0 0 1-.5-.5Zm-.163-5.302a.485.485 0 0 1 .685-.1l2.478 1.88-2.478 1.88a.486.486 0 0 1-.685-.1.498.498 0 0 1 .098-.692l.782-.593h-1.116c-.042.11-.095.238-.159.371-.092.19-.213.405-.367.595a1.54 1.54 0 0 1-.63.485c-.462.178-.885.016-1.19-.206-.3-.217-.552-.532-.746-.823a6.112 6.112 0 0 1-.219-.355 5.91 5.91 0 0 1-.152.223 3.88 3.88 0 0 1-.716.78c-.281.222-.643.414-1.063.414-.42 0-.782-.192-1.064-.415a3.88 3.88 0 0 1-.716-.78 5.989 5.989 0 0 1-.177-.26 5.998 5.998 0 0 1-.177.26 3.88 3.88 0 0 1-.716.78c-.281.223-.643.415-1.063.415C1.595 13.457.5 12.349.5 10.984c0-.273.219-.495.49-.495.27 0 .488.222.488.495 0 .82.657 1.483 1.468 1.483.12 0 .273-.055.46-.203a2.91 2.91 0 0 0 .527-.581 5.724 5.724 0 0 0 .516-.886l.006-.013v-.002l.447-1.009.446 1.008.002.003.006.013.026.055a5.724 5.724 0 0 0 .49.83c.162.228.342.435.527.582.187.148.34.203.46.203s.273-.055.46-.203a2.91 2.91 0 0 0 .527-.581 5.725 5.725 0 0 0 .516-.886l.006-.013v-.002l.47-1.06.43 1.076.002.004.007.016a5.083 5.083 0 0 0 .141.312c.099.204.238.465.402.711.169.253.343.456.505.573.156.113.23.102.273.086a.586.586 0 0 0 .22-.187c.09-.111.173-.253.245-.402a3.756 3.756 0 0 0 .213-.556l.002-.007.099-.364h1.84l-.782-.594a.498.498 0 0 1-.098-.692Zm-4.96-6.424c-.032-.282.256-.524.623-.524s.655.242.623.524L8.34 5.75h-.68l-.282-2.476ZM8.504 6.75a.5.5 0 1 1-1 0 .5.5 0 0 1 1 0Z"/>
  <path d="M4 5a4 4 0 1 0 8 0 4 4 0 0 0-8 0Zm7.35 0a3.35 3.35 0 1 1-6.7 0 3.35 3.35 0 0 1 6.7 0Z"/>
</svg>