<svg xmlns="http://www.w3.org/2000/svg" width="16" height="16" fill="currentColor" class="qi-2421" viewBox="0 0 16 16">
  <path d="M4.659 11.25h1.29V5.873h1.66V4.75H3v1.123h1.659v5.377Zm5.331-6.5H8.605v6.5H9.99c1.068 0 1.837-.254 2.306-.762.47-.51.705-1.342.705-2.495 0-1.149-.235-1.976-.705-2.481-.47-.508-1.238-.762-2.306-.762Zm.257 5.342h-.35V5.908h.35c.508 0 .87.158 1.086.475.216.316.323.853.323 1.61 0 .764-.107 1.305-.323 1.624-.216.317-.578.475-1.086.475Z"/>
  <path d="M0 8a8 8 0 1 0 16 0A8 8 0 0 0 0 8Zm14.7 0A6.7 6.7 0 1 1 1.3 8a6.7 6.7 0 0 1 13.4 0Z"/>
</svg>