<svg xmlns="http://www.w3.org/2000/svg" width="16" height="16" fill="currentColor" class="qi-2422" viewBox="0 0 16 16">
  <path d="M8.998 7.633c.234.26.68.509 1.34.747l.643.23c.225.082.397.194.515.336a.74.74 0 0 1 .178.491.701.701 0 0 1-.267.584c-.177.137-.427.205-.75.205-.319 0-.643-.057-.971-.172a4.521 4.521 0 0 1-1.012-.524v1.28a4.5 4.5 0 0 0 .954.327c.331.075.661.113.99.113.798 0 1.394-.155 1.787-.466.397-.313.595-.786.595-1.418 0-.464-.126-.85-.377-1.154-.252-.305-.643-.55-1.176-.734l-.563-.202c-.39-.137-.648-.261-.772-.373a.57.57 0 0 1-.182-.433c0-.223.084-.395.253-.516.168-.12.41-.18.727-.18.284 0 .571.049.861.147.29.098.575.24.856.428V5.14a4.782 4.782 0 0 0-.905-.29 4.3 4.3 0 0 0-.914-.1c-.671 0-1.199.162-1.584.487-.384.324-.576.77-.576 1.338 0 .442.117.795.35 1.058Zm-4.317 3.495h1.31V5.946h1.68V4.863H3v1.083h1.681v5.182Z"/>
  <path d="M0 8a8 8 0 1 0 16 0A8 8 0 0 0 0 8Zm14.7 0A6.7 6.7 0 1 1 1.3 8a6.7 6.7 0 0 1 13.4 0Z"/>
</svg>