<svg xmlns="http://www.w3.org/2000/svg" width="16" height="16" fill="currentColor" class="qi-2425" viewBox="0 0 16 16">
  <path d="M8.46 10.626c-.054 0-.089-.05-.065-.093l.792-1.439C9.21 9.051 9.176 9 9.122 9H7.544a.147.147 0 0 0-.076.02.159.159 0 0 0-.058.057l-1.397 2.637c-.042.079.022.17.118.17h1.42c.05 0 .084.043.069.086l-.739 1.943c-.027.07.072.118.124.063l2.978-3.243c.04-.042.006-.107-.055-.107H8.46Zm1.87-2.99A3.118 3.118 0 0 1 7.937 8.75 3.118 3.118 0 0 1 5.58 7.676a1.875 1.875 0 1 1-.366-3.583 3.124 3.124 0 0 1 5.462.024 1.875 1.875 0 1 1-.346 3.52ZM7.753 4.128c-.204.123-.346.397-.31.623l.216 1.374h.674l.223-1.423a.529.529 0 0 0-.255-.533l-.044-.027a.474.474 0 0 0-.504-.014ZM8 7.188a.375.375 0 1 0 0-.75.375.375 0 0 0 0 .75Z"/>
  <path d="M8 16A8 8 0 1 1 8 0a8 8 0 0 1 0 16Zm0-1.3A6.7 6.7 0 1 0 8 1.3a6.7 6.7 0 0 0 0 13.4Z"/>
</svg>