<svg xmlns="http://www.w3.org/2000/svg" width="16" height="16" fill="currentColor" class="qi-2501" viewBox="0 0 16 16">
  <path d="M7.9 10a4.99 4.99 0 0 0 3.827-1.783 3 3 0 1 0 .553-5.63A4.999 4.999 0 0 0 7.9 0a4.998 4.998 0 0 0-4.359 2.549 3 3 0 1 0 .586 5.732A4.988 4.988 0 0 0 7.9 10Zm.495-5.467c-.024.043.011.093.065.093h1.468c.06 0 .094.065.055.107L7.005 7.976c-.052.055-.151.006-.124-.063L7.62 5.97c.015-.043-.019-.087-.069-.087h-1.42c-.096 0-.16-.09-.118-.17L7.41 3.078a.159.159 0 0 1 .058-.057.147.147 0 0 1 .076-.02h1.578c.054 0 .089.051.065.094l-.792 1.439Zm-5.609 6.53c.205.13.275.416.157.64L.8 15.766c-.119.225-.38.302-.586.172a.494.494 0 0 1-.157-.64L2.2 11.234c.119-.225.38-.302.586-.172Zm12 0c.205.13.275.416.157.64L12.8 15.766c-.119.225-.38.302-.586.172a.494.494 0 0 1-.157-.64l2.143-4.062c.119-.225.38-.302.586-.172Zm-5.843.641a.494.494 0 0 0-.157-.641c-.205-.13-.467-.053-.586.172l-2.143 4.061a.494.494 0 0 0 .157.641c.205.13.467.053.586-.172l2.143-4.061Z"/>
</svg>