<svg xmlns="http://www.w3.org/2000/svg" width="16" height="16" fill="currentColor" class="qi-2521" viewBox="0 0 16 16">
  <path d="M10.927 11.991a.44.44 0 0 1 .312.13l.716.716a1.456 1.456 0 0 1-1.023 2.485h-.014a1.455 1.455 0 0 1-1.02-2.485l.718-.717a.44.44 0 0 1 .311-.129Zm-.41 1.472a.574.574 0 0 0 .404.978h.003a.558.558 0 0 0 .406-.167.576.576 0 0 0 0-.812l-.406-.405-.407.406Zm-4.868-1.517c.117 0 .229.047.312.13l.72.716a1.461 1.461 0 0 1-.471 2.376 1.45 1.45 0 0 1-.558.11H5.65a1.456 1.456 0 0 1-1.03-2.486l.716-.717a.441.441 0 0 1 .312-.129Zm.001 1.064-.405.404a.577.577 0 0 0 0 .813.575.575 0 0 0 .812-.813l-.407-.404Zm2.777-4.278a.443.443 0 0 1 .313.13l.717.719a1.457 1.457 0 0 1 0 2.055l-.006.005c-.27.263-.634.411-1.012.41v.002h-.023A1.456 1.456 0 0 1 7.39 9.587l.726-.726a.44.44 0 0 1 .31-.129Zm-.408 1.474a.575.575 0 0 0-.124.625.574.574 0 1 0 .937-.625L8.426 9.8l-.407.407Z"/>
  <path d="M7.927 1a4.182 4.182 0 0 1 4.144 3.651 3.607 3.607 0 0 1 1.286 7.068.442.442 0 0 1-.235-.85 2.725 2.725 0 0 0-1.357-5.276.442.442 0 0 1-.542-.427 3.3 3.3 0 0 0-3.295-3.285h-.011a3.295 3.295 0 0 0-3.274 3.038A3.606 3.606 0 0 1 6.731 6.57a.443.443 0 0 1-.032.489.446.446 0 0 1-.292.169.443.443 0 0 1-.44-.217 2.725 2.725 0 0 0-1.79-1.304l-.01.001a.44.44 0 0 1-.122-.025 2.725 2.725 0 1 0-.56 5.41.44.44 0 0 1-.019.88h-.02a3.608 3.608 0 0 1-1.589-6.756 3.607 3.607 0 0 1 1.792-.452c.04 0 .08.003.121.005A4.176 4.176 0 0 1 7.913 1h.014Z"/>
</svg>