<svg xmlns="http://www.w3.org/2000/svg" width="16" height="16" fill="currentColor" class="qi-2522" viewBox="0 0 16 16">
  <path d="M7.764 9.302c.118 0 .23.047.314.13l1.489 1.492a2.555 2.555 0 0 1 .002 3.606 2.546 2.546 0 0 1-3.23.331 2.552 2.552 0 0 1-.403-3.916l1.515-1.513a.443.443 0 0 1 .313-.13Zm0 1.072-1.196 1.194a1.666 1.666 0 0 0 2.366 2.342l.005-.005a1.668 1.668 0 0 0 0-2.353l-1.176-1.178Z"/>
  <path d="M7.925 1a4.186 4.186 0 0 1 4.147 3.663 3.608 3.608 0 0 1 3.925 3.43 3.608 3.608 0 0 1-3.601 3.77l-.165-.004a.444.444 0 1 1 .04-.886 2.72 2.72 0 1 0-.508-5.364.444.444 0 0 1-.546-.431 3.29 3.29 0 0 0-6.571-.247 3.61 3.61 0 0 1 2.087 1.651.444.444 0 0 1-.769.442A2.721 2.721 0 1 0 3.487 11.1a.444.444 0 0 1-.02.886l-.02.001a3.609 3.609 0 0 1 .202-7.21c.04 0 .079.003.118.004A4.172 4.172 0 0 1 7.925 1Z"/>
</svg>