<svg xmlns="http://www.w3.org/2000/svg" width="16" height="16" fill="currentColor" class="qi-2523" viewBox="0 0 16 16">
  <path d="M8.435 13.27a.433.433 0 0 1 .433.432v.978a.435.435 0 0 1-.74.306.434.434 0 0 1-.126-.306v-.978a.433.433 0 0 1 .433-.433Zm-5.216-.67a.433.433 0 0 1 .432.433v1.149a.432.432 0 0 1-.866 0v-1.149a.433.433 0 0 1 .434-.432Zm8.873.012a.433.433 0 0 1 .433.433v.985a.434.434 0 0 1-.433.434l-.084-.009a.433.433 0 0 1-.35-.425v-.985a.434.434 0 0 1 .434-.433Zm-6.704-1.216a.432.432 0 0 1 .433.433v1.387a.433.433 0 0 1-.866 0v-1.387a.434.434 0 0 1 .433-.433Zm4.729-.974a.434.434 0 0 1 .433.432v1.435a.433.433 0 0 1-.433.433l-.085-.01a.432.432 0 0 1-.348-.423v-1.435a.434.434 0 0 1 .433-.432Z"/>
  <path d="M7.767 1.005A4.173 4.173 0 0 1 12.07 4.67a3.603 3.603 0 0 1 3.587 5.127 3.603 3.603 0 0 1-1.764 1.737.435.435 0 0 1-.18.04l-.074-.006a.433.433 0 0 1-.106-.821 2.735 2.735 0 0 0-1.766-5.151.433.433 0 0 1-.533-.422 3.307 3.307 0 0 0-6.604-.24 3.604 3.604 0 0 1 2.117 1.693.433.433 0 1 1-.756.423 2.738 2.738 0 0 0-1.926-1.362 2.736 2.736 0 0 0-2.092 4.895.435.435 0 0 1-.003.7.434.434 0 0 1-.511-.004A3.603 3.603 0 0 1 2.62 4.92c.375-.105.763-.15 1.15-.131a4.174 4.174 0 0 1 3.996-3.784Z"/>
  <path d="M7.586 9.607a.433.433 0 0 1 .448.417l.038 1.057a.434.434 0 0 1-.417.448h-.016l-.083-.007a.435.435 0 0 1-.35-.41l-.037-1.056a.434.434 0 0 1 .417-.449Z"/>
</svg>