<svg xmlns="http://www.w3.org/2000/svg" width="16" height="16" fill="currentColor" class="qi-2524" viewBox="0 0 16 16">
  <path d="m5.558 11.495.373.05c.882.124 1.845.33 2.75.507 1.057.207 2.035.375 2.82.375a16.7 16.7 0 0 0 2.664-.243 19.804 19.804 0 0 0 1.132-.223l.063-.014.02-.005.1-.015a.5.5 0 0 1 .236.951l-.095.034h-.003l-.005.002c-.004.002-.01.002-.019.004l-.07.018-.264.059c-.226.048-.547.111-.93.175a17.69 17.69 0 0 1-2.83.257c-.895 0-1.964-.189-3.01-.393-.935-.183-1.856-.38-2.694-.498l-.353-.046-.1-.023a.5.5 0 0 1 .114-.973l.1.002Zm-2.608.016a.5.5 0 0 1 .101.995 20.057 20.057 0 0 0-2.246.364l-.139.032-.035.008a.496.496 0 0 0-.008.002H.621a.5.5 0 0 1-.242-.97h.002l.003-.001.01-.003.042-.01.15-.034a21.118 21.118 0 0 1 2.363-.383Zm12.53-2.478a.5.5 0 0 1 .236.95l-.095.035h-.002l-.003.001c-.004 0-.009.002-.014.004l-.05.012-.186.042a20.204 20.204 0 0 1-2.83.417.5.5 0 0 1-.072-.998 19.199 19.199 0 0 0 2.858-.435l.044-.01.011-.003h.002l.1-.015Zm-10.98-.5c.82 0 1.784.158 2.74.34.974.187 1.94.399 2.835.533a.5.5 0 1 1-.149.989c-.92-.138-1.937-.36-2.874-.54-.956-.182-1.836-.322-2.552-.322-.957 0-1.928.12-2.665.243a19.92 19.92 0 0 0-1.194.237l-.02.005a.5.5 0 0 1-.242-.97h.003l.005-.003.02-.005a9.387 9.387 0 0 1 .333-.075c.226-.048.547-.112.931-.176.766-.127 1.796-.256 2.83-.256Zm10.98-2.5a.5.5 0 0 1 .236.95l-.095.035h-.003l-.005.002-.019.005a10.6 10.6 0 0 1-.334.075c-.226.048-.547.112-.93.176-.766.127-1.796.257-2.83.257-.792 0-1.725-.149-2.663-.327l-.934-.183-.097-.03a.5.5 0 0 1 .191-.96l.1.01.936.183c.916.174 1.766.307 2.467.307.958 0 1.929-.121 2.665-.244a19.941 19.941 0 0 0 1.195-.237l.02-.005.1-.014Zm-10.98-.5c.336 0 .692.026 1.058.069a.5.5 0 1 1-.115.993 8.26 8.26 0 0 0-.943-.062c-.957 0-1.928.12-2.665.243a19.92 19.92 0 0 0-1.194.237l-.02.005a.5.5 0 0 1-.242-.97h.003l.005-.003.02-.005a9.387 9.387 0 0 1 .333-.075c.226-.048.547-.112.931-.176.766-.127 1.796-.256 2.83-.256Zm1.058-2.932.373.049c.882.125 1.845.33 2.75.508 1.057.206 2.035.375 2.82.375.957 0 1.928-.121 2.664-.244a19.941 19.941 0 0 0 1.195-.237l.02-.005.1-.014a.5.5 0 0 1 .236.95l-.095.035h-.003l-.005.002-.019.004-.07.017a21.087 21.087 0 0 1-1.194.234c-.766.128-1.796.258-2.83.258-.895 0-1.964-.19-3.01-.394-.935-.183-1.856-.38-2.694-.498l-.353-.046-.1-.022a.5.5 0 0 1 .114-.973l.1.001Zm-2.608.016a.5.5 0 0 1 .101.995 20.102 20.102 0 0 0-2.246.363l-.139.032-.035.008-.008.002-.002.001a.5.5 0 0 1-.242-.97h.002l.003-.002.01-.003.042-.01L.586 3a21.09 21.09 0 0 1 2.363-.383Z"/>
</svg>