<svg xmlns="http://www.w3.org/2000/svg" width="16" height="16" fill="currentColor" class="qi-2525" viewBox="0 0 16 16">
  <path d="M13.06 13.554a.804.804 0 0 1 .263.107.81.81 0 0 1 .112.091.818.818 0 0 1 .158.236.753.753 0 0 1-.067.684.753.753 0 0 1-.328.268.74.74 0 0 1-.28.056.785.785 0 0 1-.403-.123.73.73 0 0 1 .262-1.32.75.75 0 0 1 .283 0ZM.91 11c1.989-.346 4.305-.698 6.609-.503 1.283.109 2.183.477 2.673 1.094a2.013 2.013 0 0 1 .397 1.87 1.604 1.604 0 0 1-1.514 1.077v-.002c-.136 0-.271-.018-.403-.052a1.651 1.651 0 0 1-1.089-.95.474.474 0 0 1 .876-.365.684.684 0 0 0 .455.4.66.66 0 0 0 .782-.423 1.097 1.097 0 0 0-.245-.965c-.317-.399-1.013-.655-2.012-.74-2.191-.186-4.435.156-6.367.493a.477.477 0 0 1-.354-.08A.475.475 0 0 1 .909 11Zm3.14 2.59a.476.476 0 0 1 .474.473.475.475 0 0 1-.473.474H.899a.473.473 0 1 1 0-.947h3.152Zm11.476-3.098a.472.472 0 0 1 .438.655.475.475 0 0 1-.438.293h-3.151a.475.475 0 0 1 0-.948h3.151ZM.87 7.768a.808.808 0 0 1 .263.108.791.791 0 0 1 .201.201.73.73 0 0 1 .108.547.716.716 0 0 1-.108.262.754.754 0 0 1-.201.203.805.805 0 0 1-.263.107.781.781 0 0 1-.141.014l-.143-.015a.802.802 0 0 1-.262-.107.73.73 0 0 1 .262-1.32.75.75 0 0 1 .284 0Zm6.89.215a.475.475 0 0 1 0 .949H3.357a.474.474 0 0 1 0-.949H7.76Zm5.136-4.395a2.282 2.282 0 0 1 1.182.121l.012.005a2.254 2.254 0 0 1 1.475 1.896 2.594 2.594 0 0 1-1.175 2.464c-.976.642-2.136.744-3.24.744v.003c-.267 0-.531-.006-.788-.011-.256-.006-.493-.012-.728-.012a.474.474 0 0 1 0-.948c.246 0 .502.005.75.011 1.239.03 2.52.059 3.485-.577a1.65 1.65 0 0 0 .755-1.564 1.308 1.308 0 0 0-.855-1.113 1.354 1.354 0 0 0-1.338.193 1.274 1.274 0 0 0-.398 1.219.475.475 0 0 1-.208.493.476.476 0 0 1-.663-.157.476.476 0 0 1-.062-.177 2.23 2.23 0 0 1 .713-2.1 2.28 2.28 0 0 1 1.082-.49ZM5.458 1.611a2.315 2.315 0 0 1 2.313 2.315 2.409 2.409 0 0 1-2.056 2.318c-.198.034-.399.05-.6.049a8.25 8.25 0 0 1-1.903-.3l-.23-.056a24.944 24.944 0 0 1-1.17-.31c-.3-.085-.61-.173-1.024-.274a.475.475 0 1 1 .226-.921c.43.106.75.197 1.056.284.343.098.667.188 1.13.298l.234.056c.721.175 1.467.355 2.117.24a1.472 1.472 0 0 0 1.273-1.385 1.367 1.367 0 0 0-1.366-1.366 1.052 1.052 0 0 0-1.049 1.048v.023a.474.474 0 0 1-.948 0v-.023a2 2 0 0 1 1.997-1.996Zm4.394 1.703a.803.803 0 0 1 .262.107.88.88 0 0 1 .11.092.812.812 0 0 1 .158.237.754.754 0 0 1-.067.683.755.755 0 0 1-.328.268.732.732 0 0 1-.42.041.808.808 0 0 1-.263-.108.73.73 0 0 1 .263-1.32.751.751 0 0 1 .285 0Zm-8.58-1.315a.68.68 0 0 1 .137.042.699.699 0 0 1 .327.268.73.73 0 0 1 .107.263.753.753 0 0 1-.04.42.813.813 0 0 1-.157.237.756.756 0 0 1-.237.156.738.738 0 0 1-.42.042.803.803 0 0 1-.262-.107A.73.73 0 0 1 .989 2a.75.75 0 0 1 .283-.001ZM14.303 1a.477.477 0 0 1 .437.293.475.475 0 0 1-.437.655H11.15a.475.475 0 0 1 0-.948h3.152Z"/>
</svg>