<svg xmlns="http://www.w3.org/2000/svg" width="16" height="16" fill="currentColor" class="qi-2527" viewBox="0 0 16 16">
  <path d="M4.75 13.5a1.25 1.25 0 1 1 0 2.5 1.25 1.25 0 0 1 0-2.5Zm10-2a1.25 1.25 0 1 1 0 2.5 1.25 1.25 0 0 1 0-2.5Zm-3.872-2c.486 0 .903.18 1.247.524.344.345.513.769.513 1.254 0 .494-.165.911-.513 1.255a1.692 1.692 0 0 1-1.247.513c-.493 0-.91-.169-1.266-.524a.566.566 0 0 1-.168-.406c0-.149.05-.278.157-.386a.557.557 0 0 1 .405-.157c.138 0 .264.05.394.157a.609.609 0 0 0 .463.207.63.63 0 0 0 .455-.2.63.63 0 0 0 0-.918.64.64 0 0 0-.455-.187H.585a.608.608 0 0 1-.417-.168C.061 10.376 0 10.25 0 10.07c0-.156.06-.287.164-.402A.615.615 0 0 1 .581 9.5h10.297Zm-9.378 2a.5.5 0 1 1 0 1 .5.5 0 0 1 0-1Z"/>
  <path d="M7 11.5a.5.5 0 1 1 0 1 .5.5 0 0 1 0-1Zm7.5-3a.5.5 0 1 1 0 1 .5.5 0 0 1 0-1Zm-2-1a.5.5 0 0 1 0 1h-10a.5.5 0 0 1 0-1h10ZM1 5.5a.5.5 0 1 1 0 1 .5.5 0 0 1 0-1Zm13.238-2.546c.494 0 .9.169 1.247.513.348.344.513.761.513 1.255 0 .485-.169.91-.513 1.254a1.709 1.709 0 0 1-1.247.524H3.941a.615.615 0 0 1-.417-.168.585.585 0 0 1-.164-.402c0-.18.061-.306.168-.394a.607.607 0 0 1 .417-.168h10.278a.64.64 0 0 0 .455-.187.6.6 0 0 0 .199-.455c0-.18-.07-.337-.2-.463a.632.632 0 0 0-.454-.2c-.18 0-.337.07-.463.208a.603.603 0 0 1-.394.156.557.557 0 0 1-.405-.156.567.567 0 0 1 .012-.792 1.712 1.712 0 0 1 1.265-.525ZM8.5 3a.5.5 0 1 1 0 1 .5.5 0 0 1 0-1ZM3.75 1a1.25 1.25 0 1 1 0 2.5 1.25 1.25 0 0 1 0-2.5Zm7-1a1.25 1.25 0 1 1 0 2.5 1.25 1.25 0 0 1 0-2.5Z"/>
</svg>