<svg xmlns="http://www.w3.org/2000/svg" width="16" height="16" fill="currentColor" class="qi-2528" viewBox="0 0 16 16">
  <path d="M.493 10.866c2.044-.355 4.424-.718 6.792-.517 1.318.111 2.242.49 2.747 1.124a2.067 2.067 0 0 1 .408 1.92A1.65 1.65 0 0 1 8.884 14.5l.001.001c-.14 0-.28-.018-.415-.053a1.694 1.694 0 0 1-1.118-.978.489.489 0 0 1 .26-.643.49.49 0 0 1 .64.269.703.703 0 0 0 .466.41.679.679 0 0 0 .805-.434 1.128 1.128 0 0 0-.253-.993c-.326-.41-1.042-.672-2.067-.758-2.253-.191-4.558.16-6.543.505a.486.486 0 1 1-.167-.959Zm15.02-.52a.487.487 0 0 1 0 .973h-3.237a.488.488 0 1 1 0-.973h3.237Zm-7.98-2.578a.487.487 0 0 1 0 .974H3.009a.487.487 0 0 1 0-.974h4.524Zm5.278-4.515a2.341 2.341 0 0 1 1.214.124l.013.005a2.316 2.316 0 0 1 1.515 1.947 2.666 2.666 0 0 1-1.207 2.532c-1.002.66-2.194.766-3.329.766-.274 0-.546-.005-.81-.01a28.255 28.255 0 0 0-.748-.013.488.488 0 1 1 0-.973c.252 0 .515.006.77.012 1.273.029 2.589.058 3.581-.594a1.695 1.695 0 0 0 .776-1.608 1.342 1.342 0 0 0-.88-1.142 1.39 1.39 0 0 0-1.374.197 1.31 1.31 0 0 0-.409 1.253.485.485 0 0 1-.76.479.488.488 0 0 1-.2-.316 2.293 2.293 0 0 1 .736-2.156c.32-.263.704-.437 1.112-.503ZM5.169 1.5a2.378 2.378 0 0 1 2.378 2.378A2.477 2.477 0 0 1 5.433 6.26c-.203.035-.41.051-.617.05a8.474 8.474 0 0 1-1.956-.309l-.236-.056c-.496-.118-.857-.221-1.2-.318-.309-.087-.627-.178-1.052-.282a.487.487 0 1 1 .232-.948c.442.109.77.203 1.085.292.353.1.685.194 1.161.307l.24.058c.742.178 1.509.364 2.176.246a1.512 1.512 0 0 0 1.308-1.421 1.406 1.406 0 0 0-.867-1.298 1.406 1.406 0 0 0-.538-.106A1.078 1.078 0 0 0 4.09 3.553v.021a.488.488 0 1 1-.973 0v-.021A2.053 2.053 0 0 1 5.168 1.5Z"/>
</svg>