<svg xmlns="http://www.w3.org/2000/svg" width="16" height="16" fill="currentColor" class="qi-2529" viewBox="0 0 16 16">
  <path d="M4.1 15a.5.5 0 1 1 0 1 .5.5 0 0 1 0-1ZM12.807.76c.995 0 1.843.722 2.017 1.718.025.174.025.349 0 .523v5.553c0 .124 0 .248.025.373 0 .05.025.099.075.124 1.32 1.17 1.444 3.188.273 4.532a3.186 3.186 0 0 1-1.693.996l-.448.074-.548.026c-.2-.05-.398-.075-.572-.125a3.227 3.227 0 0 1-2.341-3.113c0-.896.373-1.743 1.046-2.34.1-.075.149-.2.149-.35V6.139c0-1.12-.024-2.24-.024-3.336 0-1.12.92-2.042 2.04-2.042Zm-1.245 8.39a.533.533 0 0 1-.199.424 2.313 2.313 0 0 0-.946 1.793 2.414 2.414 0 0 0 2.29 2.515c.174 0 .349 0 .498-.026a2.28 2.28 0 0 0 1.918-1.767 2.354 2.354 0 0 0-.872-2.49.42.42 0 0 1-.2-.423V7.98c-.248.075-.473.15-.697.2l-.149-.014v1.906c0 .075.05.15.125.174.299.125.573.374.697.697.3.673-.025 1.445-.697 1.744-.672.298-1.444-.025-1.743-.698-.299-.672.025-1.444.697-1.743.1-.025.149-.1.124-.174V8.094l-.426-.038a6.155 6.155 0 0 0-.42-.125v1.22Zm1.22 1.793a.544.544 0 0 0-.523.524c0 .274.25.522.523.522a.51.51 0 0 0 .523-.522.543.543 0 0 0-.523-.524Zm1.22-8.39a1.254 1.254 0 0 0-1.444-.947 1.224 1.224 0 0 0-.971 1.196V6.76c0 .05 0 .074.05.124.224.199.473.348.771.398V3.55c-.025-.075 0-.125 0-.2.025-.174.175-.299.349-.324a.404.404 0 0 1 .424.25c.025.074.024.174.024.248v3.785l.1.004a1.7 1.7 0 0 0 .623-.328c.074-.05.1-.124.1-.223V2.9c0-.124-.001-.224-.026-.348Zm-8.879 2.6a4.646 4.646 0 0 1 4.656.722.514.514 0 1 1-.647.797c-1.021-.822-2.39-1.046-3.61-.548a3.584 3.584 0 0 0-1.967 4.682 3.579 3.579 0 0 0 4.63 1.967c.274-.1.574.024.673.298.1.274-.025.573-.274.672-2.365.946-5.054-.199-6.025-2.564-.946-2.366.199-5.055 2.564-6.026ZM.5 11.35a.5.5 0 1 1 0 1 .5.5 0 0 1 0-1Zm.06-5.14a.5.5 0 1 1 0 1 .5.5 0 0 1 0-1Zm8.51-2.88a.5.5 0 1 1 0 1 .5.5 0 0 1 0-1Zm-4.84-.71a.5.5 0 1 1 0 1 .5.5 0 0 1 0-1Z"/>
</svg>