<svg xmlns="http://www.w3.org/2000/svg" width="16" height="16" fill="currentColor" class="qi-2530" viewBox="0 0 16 16">
  <path d="M11.176.027a2.35 2.35 0 0 1 2.5 1.964c.02.2.025.402.013.603v6.408c0 .14.01.278.027.417a.26.26 0 0 0 .083.137 3.692 3.692 0 0 1-1.607 6.368c-.167.037-.336.065-.504.096h-.657l.001-.002c-.223-.046-.45-.078-.67-.14a3.68 3.68 0 0 1-2.693-3.573 3.583 3.583 0 0 1 1.193-2.689.493.493 0 0 0 .17-.39c0-1.006.003-2.01 0-3.016-.006-1.285-.027-2.57-.023-3.856A2.35 2.35 0 0 1 11.176.027ZM9.949 9.638a.57.57 0 0 1-.24.495 2.707 2.707 0 0 0-1.096 2.054 2.76 2.76 0 0 0 3.206 2.85 2.624 2.624 0 0 0 2.199-2.047c.284-1.147-.086-2.114-1.01-2.857a.579.579 0 0 1-.24-.496c.006-.411.002-.822.002-1.234V8.25c-.28.084-.535.17-.796.234l-.145-.017v2.252a.188.188 0 0 0 .134.207 1.542 1.542 0 0 1 .368 2.61 1.54 1.54 0 1 1-1.573-2.612.187.187 0 0 0 .13-.208c-.004-.683-.002-1.365-.002-2.047 0-.046-.005-.093-.007-.126l.001-.188-.934-.11c0 .468-.004.931.003 1.393Zm1.305 2.109a.6.6 0 0 0-.446.808.598.598 0 0 0 .97.206.6.6 0 0 0 .084-.752.597.597 0 0 0-.608-.262ZM11.204.975a1.41 1.41 0 0 0-1.255 1.402c-.01 1.525-.004 3.051-.002 4.576a.21.21 0 0 0 .045.14c.246.238.557.399.893.462v-2.05a1.27 1.27 0 0 1 .014-.218.464.464 0 0 1 .403-.379.458.458 0 0 1 .493.3.86.86 0 0 1 .033.276c.002 1.395.001.461.001 1.857v.167l.223-.011a1.89 1.89 0 0 0 .603-.334.29.29 0 0 0 .116-.253c-.004-1.484-.002-2.968-.004-4.452.002-.13-.01-.26-.035-.387A1.41 1.41 0 0 0 11.203.975ZM3.645 7.727a.292.292 0 0 1 .29.3v1.299l1.122-.655a.29.29 0 0 1 .427.323.29.29 0 0 1-.134.176l-1.13.66 1.13.66a.29.29 0 0 1-.147.54v.001a.285.285 0 0 1-.145-.04l-1.123-.657v1.3a.29.29 0 0 1-.29.29.29.29 0 0 1-.29-.29v-1.3l-1.121.657a.287.287 0 0 1-.323-.02.29.29 0 0 1 .03-.48l1.13-.661-1.13-.66a.289.289 0 0 1 .073-.53.29.29 0 0 1 .22.03l1.122.655V8.026a.293.293 0 0 1 .08-.21.29.29 0 0 1 .209-.089Zm.812-2.375c.364.001.721.106 1.027.305a1.082 1.082 0 0 0 1.18.003.405.405 0 0 1 .442.678 1.886 1.886 0 0 1-1.03.305h.002c-.365 0-.723-.107-1.03-.306a1.083 1.083 0 0 0-1.189.003 1.888 1.888 0 0 1-2.054-.004 1.08 1.08 0 0 0-1.179 0 .407.407 0 0 1-.304.056.405.405 0 0 1-.137-.734 1.891 1.891 0 0 1 2.06 0 1.081 1.081 0 0 0 1.178 0l.008-.005a1.886 1.886 0 0 1 1.026-.3ZM4.456 2.84c.364 0 .72.106 1.025.303l.006.005a1.08 1.08 0 0 0 1.177 0 .406.406 0 0 1 .442.679 1.89 1.89 0 0 1-2.056.002l-.007-.005a1.08 1.08 0 0 0-1.178 0l-.008.006a1.867 1.867 0 0 1-1.02.302V4.13a1.89 1.89 0 0 1-1.033-.307 1.082 1.082 0 0 0-1.179 0 .404.404 0 0 1-.44-.677 1.89 1.89 0 0 1 2.06 0 1.081 1.081 0 0 0 1.178 0l.009-.006a1.886 1.886 0 0 1 1.024-.301Z"/>
</svg>