<svg xmlns="http://www.w3.org/2000/svg" width="16" height="16" fill="currentColor" class="qi-2531" viewBox="0 0 16 16">
  <path d="M8.08 13.065c.376 0 .744.109 1.058.314a1.078 1.078 0 0 0 1.174.002.433.433 0 0 1 .473.725 1.938 1.938 0 0 1-2.114 0 1.075 1.075 0 0 0-1.175-.002 1.94 1.94 0 0 1-2.118 0 1.072 1.072 0 0 0-1.17 0 .436.436 0 0 1-.6-.127.432.432 0 0 1 .126-.598 1.94 1.94 0 0 1 2.117 0 1.071 1.071 0 0 0 1.171 0 1.94 1.94 0 0 1 1.058-.314Zm3.348-2.241c.375 0 .74.108 1.055.31l.01.006a1.072 1.072 0 0 0 1.17 0 .433.433 0 0 1 .473.725 1.937 1.937 0 0 1-2.112.003l-.009-.005a1.073 1.073 0 0 0-1.171.001 1.94 1.94 0 0 1-2.117 0 1.075 1.075 0 0 0-1.17 0 .433.433 0 0 1-.473-.724 1.94 1.94 0 0 1 2.116 0 1.075 1.075 0 0 0 1.168.003c.002 0 .004-.003.006-.004a1.94 1.94 0 0 1 1.054-.315Z"/>
  <path d="M8.112 1.004a4.165 4.165 0 0 1 3.957 3.668 3.602 3.602 0 0 1 3.223 5.731.433.433 0 0 1-.695-.516 2.74 2.74 0 0 0-2.077-4.362 2.713 2.713 0 0 0-.754.07.432.432 0 0 1-.532-.422 3.309 3.309 0 0 0-6.606-.238 3.601 3.601 0 0 1 2.126 1.709.434.434 0 0 1-.758.418A2.738 2.738 0 0 0 2.3 5.98a2.737 2.737 0 0 0 1.178 5.141.435.435 0 0 1 .424.443.433.433 0 0 1-.442.422h-.02a3.604 3.604 0 0 1-1.55-6.768 3.603 3.603 0 0 1 1.802-.432c.026 0 .052.003.078.004A4.178 4.178 0 0 1 7.924 1c.062 0 .125 0 .188.004Z"/>
  <path d="M8.745 8.583c.376 0 .744.11 1.058.314a1.075 1.075 0 0 0 1.174.002.432.432 0 1 1 .472.726 1.938 1.938 0 0 1-1.058.313h.002c-.375 0-.743-.11-1.057-.314a1.077 1.077 0 0 0-1.175-.002 1.938 1.938 0 0 1-2.118 0 1.074 1.074 0 0 0-1.17 0 .434.434 0 0 1-.66-.451.435.435 0 0 1 .187-.274 1.938 1.938 0 0 1 2.116 0 1.073 1.073 0 0 0 1.171 0 1.938 1.938 0 0 1 1.058-.314Z"/>
</svg>