<svg xmlns="http://www.w3.org/2000/svg" width="16" height="16" fill="currentColor" class="qi-2550" viewBox="0 0 16 16">
  <path d="M6.776 15.74a.523.523 0 0 1-.453-.264.507.507 0 0 1 .013-.519l.863-1.442a.514.514 0 0 1 .53-.246c.068.01.133.035.192.072a.516.516 0 0 1 .24.32.506.506 0 0 1-.065.392l-.861 1.443a.552.552 0 0 1-.459.243ZM16 8.647V8.3c-.017-.145-.034-.29-.053-.434-.3-1.495-1.531-2.625-3.15-2.799-.16-.017-.318-.017-.476-.017-.458 0-.933.07-1.338.243-.017 0-.017 0-.035.017a4.933 4.933 0 0 0-.563-1.46l-.053-.103s0-.018-.017-.018a5.488 5.488 0 0 0-2.024-2A5.57 5.57 0 0 0 5.527 1a5.479 5.479 0 0 0-3.204 1.008 5.352 5.352 0 0 0-1.302 1.287 5 5 0 0 0-.634 1.164c-.017.035-.035.087-.053.122A5.545 5.545 0 0 0 0 6.457c0 .453.053.887.159 1.287.02.05.031.103.035.157 0 .034.017.052.017.086a5.457 5.457 0 0 0 1.973 2.826 5.564 5.564 0 0 0 3.29 1.102h7.093c1.848 0 3.361-1.442 3.432-3.25L16 8.648ZM9.716 16a.522.522 0 0 1-.453-.263.507.507 0 0 1 .013-.52l1.039-1.738a.516.516 0 0 1 .53-.245.52.52 0 0 1 .192.072.514.514 0 0 1 .247.522.508.508 0 0 1-.072.19l-1.038 1.739a.552.552 0 0 1-.458.243Zm-6.16 0a.522.522 0 0 1-.454-.263.507.507 0 0 1 .013-.52l1.04-1.738a.515.515 0 0 1 .528-.245.52.52 0 0 1 .193.072.515.515 0 0 1 .247.522.507.507 0 0 1-.072.19l-1.038 1.739a.55.55 0 0 1-.458.243Z"/>
</svg>