<svg xmlns="http://www.w3.org/2000/svg" width="16" height="16" fill="currentColor" class="qi-2552" viewBox="0 0 16 16">
  <path d="m14.715 8.759-3.054.595-1.491-.851v-.954l1.491-.852 3.054.613a.377.377 0 0 0 .137.017c.308 0 .583-.204.634-.51a.642.642 0 0 0-.277-.672.652.652 0 0 0-.237-.096l-1.595-.324 1.406-.8a.64.64 0 0 0 .24-.886.65.65 0 0 0-.892-.239l-1.406.801.532-1.516a.643.643 0 0 0-.887-.79.649.649 0 0 0-.33.363l-1.013 2.914-1.492.835-.858-.494V4.21l2.041-2.317a.648.648 0 0 0-.291-1.046.657.657 0 0 0-.704.194L8.66 2.25V.647A.646.646 0 0 0 8.008 0a.654.654 0 0 0-.652.648v1.601L6.293 1.04a.673.673 0 0 0-.926-.067.662.662 0 0 0-.069.92l2.04 2.317v1.704l-.84.477-1.491-.852-.996-2.93a.658.658 0 0 0-.823-.41.658.658 0 0 0-.411.818l.514 1.517-1.39-.801c-.308-.187-.702-.068-.892.239a.66.66 0 0 0 .241.886l1.39.8-1.596.307a.646.646 0 0 0-.515.767c.07.307.326.528.635.528.035 0 .086 0 .12-.017l3.053-.596 1.492.851v.954l-1.491.852-3.054-.613a.654.654 0 0 0-.772.511.647.647 0 0 0 .515.767l1.596.324-1.407.784a.641.641 0 0 0-.24.886c.12.204.343.323.566.323a.773.773 0 0 0 .326-.085l1.406-.784-.532 1.517c-.12.34.069.699.395.818a.87.87 0 0 0 .206.034c.274 0 .514-.17.617-.444l1.012-2.913 1.493-.835.857.494v1.704L5.28 14.11a.648.648 0 0 0 .292 1.046.66.66 0 0 0 .704-.194l1.063-1.21v1.601a.646.646 0 0 0 .652.648.654.654 0 0 0 .652-.648v-1.601l1.063 1.21a.642.642 0 0 0 .497.22.663.663 0 0 0 .43-.152.663.663 0 0 0 .068-.92L8.66 11.79v-1.704l.84-.477 1.492.853 1.012 2.93a.643.643 0 0 0 .824.409.655.655 0 0 0 .412-.818l-.515-1.516 1.39.8a.772.772 0 0 0 .325.085.662.662 0 0 0 .566-.323.66.66 0 0 0-.24-.886l-1.39-.8 1.596-.308a.646.646 0 0 0 .514-.767.658.658 0 0 0-.771-.51Zm-5.85-.256-.84.477-.84-.477V7.53l.84-.477.84.477v.972Z"/>
</svg>