<svg xmlns="http://www.w3.org/2000/svg" width="16" height="16" fill="currentColor" class="qi-2554" viewBox="0 0 16 16">
  <path d="M8.068 8.252c.562.016 1.018.12 1.22.692l.338.947.001-.001.151.462h.91l.137.013a.685.685 0 0 1 0 1.34l-.137.014h-.439l.127.36c.042.127.071.255.071.382v2.135a.197.197 0 0 1-.013.076.201.201 0 0 1-.044.066.142.142 0 0 1-.028.02v.924c0 .17-.156.314-.34.314h-.735c-.184 0-.34-.144-.34-.314v-.889H2.726v.889c0 .17-.156.314-.34.314h-.735c-.183 0-.34-.144-.34-.314v-.889h-.014a.197.197 0 0 1-.14-.055.198.198 0 0 1-.057-.142V12.49c.003-.13.026-.259.07-.381l.139-.39H1a.684.684 0 0 1 0-1.367h.791l.156-.448.34-.96c.212-.572.67-.676 1.227-.692h4.554ZM2.513 12.11a.651.651 0 1 0 0 1.302.651.651 0 0 0 0-1.302Zm6.66 0a.65.65 0 1 0 .002 1.301.65.65 0 0 0-.001-1.301ZM3.49 8.887a.324.324 0 0 0-.311.213l-.509 1.243a.34.34 0 0 0 .032.315.341.341 0 0 0 .278.15h5.714c.24 0 .41-.24.31-.465L8.496 9.1a.325.325 0 0 0-.31-.213H3.489ZM11.781.281a.281.281 0 1 0-.562 0v.727l-.364-.363a.281.281 0 0 0-.398.398l.762.761v1.032a1.686 1.686 0 0 0-1.02.59.3.3 0 0 0-.02-.013l-.873-.505-.279-1.04a.281.281 0 1 0-.543.146l.133.497-.63-.364a.281.281 0 0 0-.281.487l.63.364-.497.133a.281.281 0 0 0 .146.543l1.04-.278.873.504a.284.284 0 0 0 .02.01 1.684 1.684 0 0 0 0 1.18.288.288 0 0 0-.02.01l-.873.504-1.04-.278a.281.281 0 1 0-.146.543l.497.133-.63.364a.281.281 0 0 0 .281.487l.63-.364-.133.497a.281.281 0 1 0 .543.146l.279-1.04.873-.505a.301.301 0 0 0 .02-.012 1.69 1.69 0 0 0 1.02.59v1.031l-.762.761a.281.281 0 0 0 .398.398l.364-.364v.728a.281.281 0 1 0 .562 0v-.727l.364.363a.281.281 0 0 0 .398-.398l-.762-.761V6.164a1.686 1.686 0 0 0 1.02-.59.3.3 0 0 0 .02.013l.873.505.279 1.04a.281.281 0 1 0 .543-.146l-.133-.497.63.364a.281.281 0 1 0 .281-.487l-.63-.364.497-.133a.281.281 0 0 0-.146-.543l-1.04.278-.873-.504a.28.28 0 0 0-.02-.01 1.684 1.684 0 0 0 0-1.18.276.276 0 0 0 .02-.01l.873-.504 1.04.278a.281.281 0 1 0 .146-.543l-.497-.133.63-.364a.281.281 0 0 0-.281-.487l-.63.364.133-.497a.281.281 0 1 0-.543-.146l-.279 1.04-.873.505a.304.304 0 0 0-.02.012 1.686 1.686 0 0 0-1.02-.59v-1.03l.762-.761a.281.281 0 0 0-.398-.398l-.364.363V.281Z"/>
</svg>