<svg xmlns="http://www.w3.org/2000/svg" width="16" height="16" fill="currentColor" class="qi-302-fill" viewBox="0 0 16 16">
  <path d="M12.315 2.086a3.146 3.146 0 0 0-.396.04 4.675 4.675 0 0 0-7.838 0 3.146 3.146 0 0 0-.396-.04 3.184 3.184 0 1 0 1.243 6.116 4.61 4.61 0 0 0 6.144 0 3.185 3.185 0 1 0 1.243-6.116zM2.998 12.5a1 1 0 1 0 2 0 6.604 6.604 0 0 0-1-2 6.604 6.604 0 0 0-1 2zm8.028 0a1 1 0 0 0 2 0 6.604 6.604 0 0 0-1-2 6.604 6.604 0 0 0-1 2zm-2.352-.86c-.058 0-.096-.051-.07-.095l.858-1.462c.026-.044-.012-.096-.07-.096h-1.71a.167.167 0 0 0-.145.078l-1.514 2.681c-.045.08.024.172.128.172H7.69c.054 0 .091.045.074.088l-.8 1.976c-.03.07.078.12.134.064l3.227-3.297c.042-.043.006-.109-.06-.109z"/>
</svg>