<svg xmlns="http://www.w3.org/2000/svg" width="16" height="16" fill="currentColor" class="qi-306-fill" viewBox="0 0 16 16">
  <path d="M12.315 2.086a3.146 3.146 0 0 0-.396.04 4.675 4.675 0 0 0-7.838 0 3.146 3.146 0 0 0-.396-.04 3.184 3.184 0 1 0 1.243 6.116 4.61 4.61 0 0 0 6.144 0 3.185 3.185 0 1 0 1.243-6.116zM7 13.41a1 1 0 0 0 2 0 6.606 6.606 0 0 0-1-2 6.606 6.606 0 0 0-1 2zm-4.002-1.717a1 1 0 0 0 2 0 6.604 6.604 0 0 0-1-2 6.604 6.604 0 0 0-1 2zm8.003 0a1 1 0 0 0 2 0 6.604 6.604 0 0 0-1-2 6.604 6.604 0 0 0-1 2z" style="fill-rule:evenodd"/>
</svg>