<svg xmlns="http://www.w3.org/2000/svg" width="16" height="16" fill="currentColor" class="qi-307-fill" viewBox="0 0 16 16">
  <path d="M15.5 5.27a3.184 3.184 0 0 0-3.185-3.184 3.146 3.146 0 0 0-.396.04 4.675 4.675 0 0 0-7.838 0 3.146 3.146 0 0 0-.396-.04 3.184 3.184 0 1 0 1.243 6.116 4.61 4.61 0 0 0 6.144 0A3.185 3.185 0 0 0 15.5 5.27zm-8.45 8.179a1 1 0 0 0 2 0 6.606 6.606 0 0 0-1-2 6.606 6.606 0 0 0-1 2zm-3.052-1.5a1 1 0 0 0 2 0 6.606 6.606 0 0 0-1-2 6.606 6.606 0 0 0-1 2zm6.028 0a1 1 0 0 0 2 0 6.606 6.606 0 0 0-1-2 6.606 6.606 0 0 0-1 2zm-8.976-.825a.786.786 0 0 0 1.572 0 5.192 5.192 0 0 0-.786-1.573 5.192 5.192 0 0 0-.786 1.573zm12.43 0a.786.786 0 0 0 1.572 0 5.192 5.192 0 0 0-.787-1.573 5.192 5.192 0 0 0-.786 1.573z" style="fill-rule:evenodd"/>
</svg>