<svg xmlns="http://www.w3.org/2000/svg" width="16" height="16" fill="currentColor" class="qi-308-fill" viewBox="0 0 16 16">
  <path d="M6.99 13.449a1 1 0 0 0 2 0 6.606 6.606 0 0 0-1-2 6.606 6.606 0 0 0-1 2zm-3.052-1.5a1 1 0 1 0 2 0 6.606 6.606 0 0 0-1-2 6.606 6.606 0 0 0-1 2zm6.028 0a1 1 0 0 0 2 0 6.606 6.606 0 0 0-1-2 6.606 6.606 0 0 0-1 2zm3.802-1.947a.5.5 0 0 0-.5.5v2.953a.5.5 0 1 0 1 0v-2.953a.5.5 0 0 0-.5-.5zm-11.702 0a.5.5 0 0 0-.5.5v2.953a.5.5 0 1 0 1 0v-2.953a.5.5 0 0 0-.5-.5zm12.02-4.272a1.407 1.407 0 0 0-.172.02.536.536 0 0 1-.061.004.486.486 0 0 1-.407-.22 2.268 2.268 0 0 0-3.803 0 .551.551 0 0 1-.45.213.52.52 0 0 1-.073-.005.793.793 0 0 0-.117-.012 1.39 1.39 0 0 0 0 2.779 1.372 1.372 0 0 0 .542-.11.485.485 0 0 1 .51.082 2.229 2.229 0 0 0 2.978 0 .486.486 0 0 1 .51-.082 1.375 1.375 0 0 0 .543.11 1.39 1.39 0 0 0 0-2.78z"/>
  <path d="M7.343 8.553c.08 0 .154-.017.233-.022a1.9 1.9 0 0 1 1.48-3.373A2.834 2.834 0 0 1 11.43 3.87a3.295 3.295 0 0 1 .803.116 4.006 4.006 0 0 1 1.836 1.47 2.683 2.683 0 0 0 .115-.648 2.808 2.808 0 0 0-3.267-2.869 4.266 4.266 0 0 0-7.15 0 2.87 2.87 0 0 0-.363-.036 2.905 2.905 0 1 0 1.135 5.58 4.241 4.241 0 0 0 2.803 1.07z"/>
</svg>