<svg xmlns="http://www.w3.org/2000/svg" width="16" height="16" fill="currentColor" class="qi-313-fill" viewBox="0 0 16 16">
  <path d="M15.5 5.27a3.184 3.184 0 0 0-3.185-3.184 3.146 3.146 0 0 0-.396.04 4.675 4.675 0 0 0-7.838 0 3.146 3.146 0 0 0-.396-.04 3.184 3.184 0 1 0 1.243 6.116 4.61 4.61 0 0 0 6.144 0A3.185 3.185 0 0 0 15.5 5.27zM1.148 10.095l.978 1.397.977-1.397-.977-1.396-.978 1.396zm2.938 1.456.977 1.397.978-1.397-.978-1.396-.977 1.396zm2.936 1.789L8 14.736l.977-1.396L8 11.943l-.978 1.397zm2.937-1.789.978 1.397.977-1.397-.977-1.396-.978 1.396zm2.937-1.456.978 1.397.978-1.397-.978-1.396-.978 1.396z"/>
</svg>