<svg xmlns="http://www.w3.org/2000/svg" width="16" height="16" fill="currentColor" class="qi-404-fill" viewBox="0 0 16 16">
  <path d="M12.315 2.086a3.146 3.146 0 0 0-.396.04 4.675 4.675 0 0 0-7.838 0 3.146 3.146 0 0 0-.396-.04 3.184 3.184 0 1 0 1.243 6.116 4.61 4.61 0 0 0 6.144 0 3.185 3.185 0 1 0 1.243-6.116zm-7.79 10.623a1 1 0 1 0 2 0 6.603 6.603 0 0 0-1-2 6.603 6.603 0 0 0-1 2zm6.935-.113-.664-.383.658-.38a.35.35 0 0 0-.35-.606l-.658.38v-.768a.35.35 0 1 0-.7 0v.768l-.657-.38a.35.35 0 0 0-.35.606l.657.38-.664.383a.35.35 0 1 0 .35.607l.665-.384v.76a.35.35 0 1 0 .699 0v-.76l.665.384a.35.35 0 0 0 .35-.607z"/>
</svg>