<svg id="&#x56FE;&#x5C42;_1" xmlns="http://www.w3.org/2000/svg" width="16" height="16" fill="currentColor" class="qi-504-fill" viewBox="0 0 16 16">
  <defs>
    <style>
      .cls-1{fill-rule:evenodd}
    </style>
  </defs>
  <path d="M9.712 2.908c1.786.733 2.906 1.784 2.906 2.953 0 2.213-4.008 4.007-8.953 4.007a18.977 18.977 0 0 1-3.299-.282 16.37 16.37 0 0 0 6.048 1.052 16.768 16.768 0 0 0 5.719-.924 5.344 5.344 0 0 0 1.341-.62c1.164-.716 1.892-1.534 1.892-2.462 0-1.69-2.342-3.136-5.654-3.724z" class="cls-1"/>
  <path d="M5.285 7.363a.988.988 0 1 0-.987-.988.988.988 0 0 0 .987.988zm3.856-1.455a.988.988 0 1 0-.987-.988.988.988 0 0 0 .987.988zm1.156 5.462a.988.988 0 1 0 .988.987.987.987 0 0 0-.988-.988zm-2.54 1.24a.597.597 0 1 0 .597.597.597.597 0 0 0-.597-.597zm4.743-1.902a.597.597 0 1 0 .598.597.597.597 0 0 0-.597-.597zM3.533 8.46a.637.637 0 1 0-.636-.637.637.637 0 0 0 .636.637zm3.792-4.528a.541.541 0 1 0-.541-.542.541.541 0 0 0 .541.542zm-.04 3.073a.636.636 0 1 0 .637-.637.636.636 0 0 0-.637.637z" class="cls-1"/>
</svg>