<svg xmlns="http://www.w3.org/2000/svg" width="16" height="16" fill="currentColor" class="qi-507-fill" viewBox="0 0 16 16">
  <path d="M12.565 8.867a.028.028 0 0 0 .048.018l1.593-1.462a.074.074 0 0 0 0-.11L12.599 5.84a.027.027 0 0 0-.045.017l.003.654H5.863c-1.106-.706-1.54-1.5-1.52-2.126.034-.988 1.058-1.819 2.552-2.069a3.433 3.433 0 0 1 3.68 1.43.7.7 0 0 0 1.157-.788A4.818 4.818 0 0 0 6.664.936C4.494 1.299 3 2.667 2.945 4.339a3.231 3.231 0 0 0 .782 2.172H2.72a.888.888 0 1 0 0 1.775h3.506a13.08 13.08 0 0 0 2.313.766c2.255.532 3.115 1.555 3.168 2.336.05.742-.565 1.47-1.567 1.854a5.479 5.479 0 0 1-5.503-.75.7.7 0 1 0-.928 1.049 6.697 6.697 0 0 0 4.263 1.523 7.402 7.402 0 0 0 2.67-.515 3.413 3.413 0 0 0 2.462-3.255 3.798 3.798 0 0 0-2.497-3.008h1.957z"/>
</svg>