<svg xmlns="http://www.w3.org/2000/svg" width="16" height="16" fill="currentColor" class="qi-508-fill" viewBox="0 0 16 16">
  <path d="M12.495 7.754a.029.029 0 0 0 .048.018l1.593-1.461a.074.074 0 0 0 0-.11l-1.607-1.474a.027.027 0 0 0-.045.018l.003.654H4.499a1.795 1.795 0 0 1-.323-.996c.032-.987 1.057-1.818 2.55-2.068a3.45 3.45 0 0 1 3.68 1.43.7.7 0 0 0 1.158-.79A4.825 4.825 0 0 0 6.495.956c-2.169.362-3.663 1.73-3.718 3.402A3.006 3.006 0 0 0 2.949 5.4h-.3a.888.888 0 0 0 0 1.775h1.544A10.022 10.022 0 0 0 8.37 9.07c.187.044.35.096.517.146H2.649a.888.888 0 0 0 0 1.776h8.78a1.372 1.372 0 0 1 .108.413c.05.742-.565 1.47-1.567 1.856a5.48 5.48 0 0 1-5.502-.75.7.7 0 0 0-.928 1.049 6.696 6.696 0 0 0 4.262 1.523 7.396 7.396 0 0 0 2.67-.516 3.413 3.413 0 0 0 2.462-3.256c-.001-.024-.01-.045-.012-.068l1.214-1.114a.074.074 0 0 0 0-.11l-1.607-1.474a.027.027 0 0 0-.045.017l.003.654h-.659a7.045 7.045 0 0 0-3.137-1.509A11.943 11.943 0 0 1 7 7.174h5.493z"/>
</svg>