<svg xmlns="http://www.w3.org/2000/svg" width="16" height="16" fill="currentColor" class="qi-509-fill" viewBox="0 0 16 16">
  <path d="M12.315 2.086a3.146 3.146 0 0 0-.396.04 4.675 4.675 0 0 0-7.838 0 3.149 3.149 0 0 0-.396-.04 3.184 3.184 0 1 0 1.243 6.116 4.61 4.61 0 0 0 6.144 0 3.185 3.185 0 1 0 1.243-6.116zm1.186 8.214H4.525a.5.5 0 0 0 0 1h8.976a.5.5 0 0 0 0-1zm-2.517 2.313a.5.5 0 0 0-.5-.5H1.508a.5.5 0 1 0 0 1h8.976a.5.5 0 0 0 .5-.5zm1.11 1.344H3.118a.5.5 0 0 0 0 1h8.976a.5.5 0 0 0 0-1z"/>
</svg>