<svg xmlns="http://www.w3.org/2000/svg" width="16" height="16" fill="currentColor" class="qi-900-fill" viewBox="0 0 16 16">
  <path d="M11.5 0A2.5 2.5 0 0 0 9 2.5v4.99a.534.534 0 0 1-.217.423 4.5 4.5 0 1 0 5.435 0A.534.534 0 0 1 14 7.49V2.5A2.5 2.5 0 0 0 11.5 0Zm2 11.5A2 2 0 1 1 11 9.563V3.5a.5.5 0 0 1 1 0v6.063a2 2 0 0 1 1.5 1.937Zm-8.6-9c-.9.3-1.2 1.1-1.1 1.6-.7-.8-.7-1.7-.6-3.1-2.1.8-1.6 3.2-1.7 4C1 4.5.9 3.5.9 3.5.3 3.8 0 4.6 0 5.3 0 6.9 1.3 8 2.8 8c1.5 0 2.7-1.2 2.7-2.7 0-1.1-.6-1.4-.6-2.8Z"/>
</svg>