<svg xmlns="http://www.w3.org/2000/svg" width="16" height="16" fill="currentColor" class="qi-999-fill" viewBox="0 0 16 16">
  <path d="M11.314 8.707h1.254l-.612-2.091-.642 2.091z"/>
  <path d="M13.289 3H2.71A1.711 1.711 0 0 0 1 4.711v6.578A1.711 1.711 0 0 0 2.711 13H13.29A1.711 1.711 0 0 0 15 11.289V4.71A1.711 1.711 0 0 0 13.289 3zm-6.845 7.697h-.942L3.28 7.337v3.36H2.247V5.362h.936L5.41 8.738V5.362h1.034zm1.275.085a.422.422 0 0 1-.135-.022.443.443 0 0 1-.273-.557l1.53-4.73a.428.428 0 0 1 .542-.28.443.443 0 0 1 .273.558l-1.529 4.73a.43.43 0 0 1-.408.301zm5.445-.085-.317-1.1h-1.812l-.34 1.1H9.592l1.828-5.335h1.057l1.812 5.335z"/>
</svg>