<?xml version="1.0" standalone="no"?>
<!DOCTYPE svg PUBLIC "-//W3C//DTD SVG 20010904//EN"
 "http://www.w3.org/TR/2001/REC-SVG-20010904/DTD/svg10.dtd">
<svg version="1.0" xmlns="http://www.w3.org/2000/svg"
 width="800.000000pt" height="800.000000pt" viewBox="0 0 800.000000 800.000000"
 preserveAspectRatio="xMidYMid meet">
<metadata>
Created by potrace 1.11, written by Peter Selinger 2001-2013
</metadata>
<g transform="translate(0.000000,800.000000) scale(0.100000,-0.100000)"
fill="#000000" stroke="none">
<path d="M3318 7435 c-2 -2 -39 -6 -83 -9 -44 -3 -96 -8 -115 -11 -19 -2 -53
-7 -75 -10 -22 -3 -51 -7 -65 -10 -14 -3 -41 -8 -60 -11 -230 -37 -546 -135
-800 -249 -268 -120 -536 -287 -760 -473 -122 -101 -135 -113 -248 -225 -446
-441 -762 -998 -912 -1612 -29 -119 -33 -137 -47 -224 -4 -25 -8 -48 -8 -51
-2 -5 -13 -80 -21 -135 -25 -179 -25 -686 0 -811 2 -12 7 -45 11 -75 30 -256
144 -662 245 -877 17 -35 30 -66 30 -69 0 -9 99 -201 143 -278 41 -72 157
-256 167 -265 3 -3 28 -37 56 -76 28 -38 59 -81 70 -93 90 -110 166 -194 268
-296 381 -379 819 -649 1336 -825 87 -29 319 -92 387 -105 106 -19 193 -33
252 -40 30 -4 62 -8 73 -10 115 -23 651 -22 738 0 8 2 40 6 70 10 30 3 82 10
115 16 33 5 87 14 119 20 33 5 62 12 66 14 4 2 20 6 36 9 16 3 65 16 109 28
50 14 104 22 145 21 214 -5 494 -4 550 1 36 3 92 9 125 12 33 3 71 7 85 9 144
21 165 24 250 41 604 121 1190 402 1645 788 33 28 70 60 83 71 61 51 285 279
354 360 84 100 249 317 243 323 -1 2 -108 3 -236 3 -240 -1 -257 -3 -294 -46
-5 -6 -35 -31 -65 -56 -30 -24 -57 -46 -60 -50 -3 -3 -57 -42 -120 -86 -277
-193 -584 -351 -873 -448 -115 -38 -283 -85 -306 -85 -7 0 23 37 67 83 284
291 524 657 691 1050 37 87 132 361 146 420 3 12 16 69 30 127 13 58 27 121
30 140 3 19 7 42 10 50 2 8 7 38 10 65 4 28 9 66 11 85 26 193 35 461 21 670
-7 102 -9 123 -23 220 -3 25 -7 58 -10 75 -39 292 -157 668 -305 970 -225 462
-524 837 -940 1180 -415 343 -996 606 -1544 700 -16 2 -41 7 -55 10 -28 5 -73
12 -145 20 -27 3 -70 8 -95 11 -47 6 -517 14 -522 9z m407 -988 c11 -3 43 -8
70 -11 286 -37 567 -122 829 -251 151 -74 184 -93 321 -184 304 -202 590 -496
783 -805 66 -107 180 -327 212 -412 81 -213 113 -320 149 -499 19 -98 24 -129
41 -270 8 -74 6 -504 -4 -544 -3 -12 -8 -44 -11 -70 -3 -25 -9 -71 -15 -101
-5 -30 -11 -66 -14 -80 -16 -93 -77 -302 -127 -432 -35 -92 -133 -299 -175
-368 -15 -25 -32 -54 -38 -65 -112 -201 -389 -517 -601 -686 -97 -77 -194
-149 -201 -149 -3 0 -17 -9 -30 -19 -14 -11 -33 -18 -43 -16 -10 2 -56 6 -102
9 -46 4 -91 8 -99 11 -8 2 -37 6 -64 10 -401 50 -831 230 -1192 498 -157 116
-211 164 -359 312 -163 163 -202 207 -269 309 -113 171 -189 354 -233 558 -19
87 -25 366 -11 458 35 227 165 464 347 632 227 211 514 320 818 312 118 -3
143 -5 198 -18 17 -3 41 -8 54 -11 258 -49 500 -284 566 -550 18 -74 23 -208
11 -289 -16 -100 -70 -220 -140 -310 -89 -115 -222 -206 -366 -251 -86 -27
-266 -29 -360 -3 -123 33 -148 34 -176 7 -48 -45 -19 -116 98 -240 110 -116
276 -202 443 -228 177 -27 437 23 645 123 63 31 70 35 165 97 182 121 335 295
436 499 101 203 140 383 135 620 -2 85 -7 166 -10 180 -3 14 -13 59 -21 100
-30 140 -98 305 -171 417 -85 130 -241 309 -359 413 -240 212 -597 385 -901
439 -32 6 -72 13 -89 16 -113 19 -380 25 -535 11 -46 -4 -87 -9 -90 -11 -3 -1
-30 -6 -60 -9 -30 -4 -84 -14 -120 -22 -36 -9 -73 -17 -83 -19 -10 -2 -57 -16
-105 -31 -673 -205 -1192 -732 -1386 -1405 -101 -352 -110 -710 -26 -1067 21
-86 81 -275 98 -308 6 -11 26 -53 45 -95 19 -42 51 -102 71 -133 20 -31 36
-58 36 -60 0 -9 133 -202 205 -298 104 -138 193 -238 344 -388 136 -134 178
-171 335 -294 85 -67 332 -234 401 -272 11 -6 47 -26 80 -44 33 -19 85 -46
115 -62 50 -25 52 -27 25 -28 -16 0 -57 4 -90 9 -33 5 -78 12 -100 15 -82 12
-113 18 -233 47 -371 90 -731 269 -1042 516 -92 72 -324 300 -380 372 -19 24
-40 49 -46 55 -24 25 -142 197 -183 266 -24 41 -51 86 -60 100 -26 42 -87 169
-134 281 -78 183 -148 432 -173 608 -3 25 -8 57 -10 71 -19 113 -25 419 -11
590 48 597 315 1185 739 1625 382 397 864 667 1383 775 80 16 110 22 205 36
14 2 57 6 95 10 39 3 72 8 74 10 5 5 452 -4 476 -9z"/>
</g>
</svg>
