<?xml version="1.0" encoding="utf-8"?>
<svg version="1.1" id="图层_1" xmlns="http://www.w3.org/2000/svg" xmlns:xlink="http://www.w3.org/1999/xlink" x="0px" y="0px"
	 viewBox="0 0 32 32" style="enable-background:new 0 0 32 32;" xml:space="preserve">
<style type="text/css">
	.st0{fill:#1f262b;}
	.st1{opacity:0.43;fill:#3c505f;enable-background:new    ;}
	.st2{fill:#FFFFFF;}
</style>
<path class="st0" d="M31.3,2.7c-0.4-0.9-1.1-1.6-2-2C28.4,0.2,27.6,0,25.2,0H6.8C5.4-0.1,4,0.2,2.7,0.7c-0.9,0.4-1.6,1.1-2,2
	C0.2,3.6,0,4.4,0,6.8v18.5c0,2.3,0.2,3.2,0.7,4c0.4,0.9,1.1,1.6,2,2C3.6,31.8,4.4,32,6.8,32h18.4c2.4,0,3.2-0.2,4.1-0.7
	c0.9-0.4,1.6-1.1,2-2c0.5-0.9,0.7-1.7,0.7-4.1V6.8C32.1,5.4,31.8,4,31.3,2.7z"/>
<path class="st1" d="M26,12.7l-1,7.7c0,0-0.6,0.2-0.6-3.8c0-5.2-4.3-9.5-9.6-9.5s-9.6,4.3-9.6,9.5c0,4.8,3.6,8.7,8.2,9.4l-4.1-0.6
	l7.1,6.6h8.7c2.4,0,3.2-0.2,4.1-0.7c0.9-0.4,1.6-1.1,2-2c0.5-0.9,0.7-1.7,0.7-4.1v-5.8L26,12.7z"/>
<path class="st2" d="M27.9,21.7c-1.3,1.1-2.9,2-4.6,2.4c2.1-2.1,3.3-4.9,3.3-7.9c0-6.1-4.9-11.1-11-11.1c0,0,0,0-0.1,0
	c-6,0-11,4.8-11,10.9c0,0.1,0,0.2,0,0.2c0,6.1,4.9,11.1,11,11.1c0,0,0,0,0.1,0c1.1,0,2.1-0.2,3.2-0.4h1c3.9,0,7.5-2,9.7-5.2H27.9z
	 M19.9,24.2c-2.7-0.2-5.1-1.5-6.8-3.6c-1-1.5-1-3.4,0-4.9c0.7-0.9,1.8-1.4,2.9-1.3c1.4-0.1,2.7,1,2.8,2.5V17c-0.1,1.1-1,2-2.1,2.1
	c-0.4,0-0.8,0-1.1-0.2c-0.2-0.1-0.3,0-0.4,0.2c0,0.1,0,0.1,0,0.2c0.5,0.7,1.2,1.2,2.1,1.2c0.7,0,1.5-0.2,2.1-0.6
	c1.2-0.8,2-2.1,2-3.6c-0.1-1.8-1.1-3.5-2.7-4.4c-1-0.6-2.2-0.9-3.4-0.9c-1.8,0-3.6,0.8-4.9,2.1c-1.2,1.3-1.8,2.9-1.8,4.6
	c0,1.4,0.5,2.8,1.3,4c1.2,1.6,2.7,2.9,4.5,3.8c-4.5-0.3-7.9-4.1-7.9-8.6c0-4.8,3.9-8.7,8.7-8.7c4.7-0.1,8.6,3.7,8.7,8.5
	c0,0.1,0,0.2,0,0.2C23.9,19.8,22.4,22.6,19.9,24.2z"/>
</svg>
