<svg xmlns="http://www.w3.org/2000/svg" width="16" height="16" fill="currentColor" class="qi-1003" viewBox="0 0 16 16">
  <path d="M7.9 10a4.99 4.99 0 0 0 3.827-1.783 3 3 0 1 0 .553-5.63A4.999 4.999 0 0 0 7.9 0a4.998 4.998 0 0 0-4.359 2.549 3 3 0 1 0 .586 5.732A4.988 4.988 0 0 0 7.9 10Zm-.791-6.398c-.057-.362.17-.8.496-.997.256-.153.551-.133.806.023l.07.042a.846.846 0 0 1 .409.853L8.532 5.8H7.454L7.11 3.602ZM8.599 6.9a.6.6 0 1 1-1.2 0 .6.6 0 0 1 1.2 0Zm.344 4.804a.494.494 0 0 0-.157-.641c-.205-.13-.467-.053-.586.172l-2.143 4.061a.494.494 0 0 0 .157.641c.205.13.467.053.586-.172l2.143-4.061ZM2.8 11.556c.191.115.257.37.146.57l-1.2 2.165a.391.391 0 0 1-.546.153.427.427 0 0 1-.146-.57l1.2-2.165a.39.39 0 0 1 .546-.153Zm3 0c.191.115.257.37.146.57l-1.2 2.165a.391.391 0 0 1-.546.153.427.427 0 0 1-.146-.57l1.2-2.165a.39.39 0 0 1 .546-.153Zm9 0c.191.115.257.37.146.57l-1.2 2.165a.391.391 0 0 1-.546.153.427.427 0 0 1-.146-.57l1.2-2.165a.39.39 0 0 1 .546-.153Zm-2.854.569a.427.427 0 0 0-.146-.57.391.391 0 0 0-.546.154l-1.2 2.166a.428.428 0 0 0 .146.57.391.391 0 0 0 .546-.154l1.2-2.166Z"/>
</svg>