<svg xmlns="http://www.w3.org/2000/svg" width="16" height="16" fill="currentColor" class="qi-1008" viewBox="0 0 16 16">
  <path d="M14.292 9.3a.7.7 0 0 0-.7.7v3.155H2.4v-3.09a.7.7 0 0 0-1.4 0v3.787a.7.7 0 0 0 .7.7h12.592a.7.7 0 0 0 .7-.7V10a.7.7 0 0 0-.7-.7z"/>
  <path d="M3.807 7.043h2.98L5.3 9.625a.7.7 0 0 0 .257.956.687.687 0 0 0 .348.094.7.7 0 0 0 .608-.35L8 7.744l1.49 2.581a.7.7 0 0 0 .608.35.687.687 0 0 0 .348-.094.7.7 0 0 0 .257-.956l-1.49-2.582h2.98a.7.7 0 1 0 0-1.4h-2.98L10.7 3.062a.7.7 0 0 0-1.213-.7L8 4.943 6.51 2.361a.7.7 0 0 0-1.213.7l1.49 2.581h-2.98a.7.7 0 1 0 0 1.4z"/>
</svg>