<svg xmlns="http://www.w3.org/2000/svg" width="16" height="16" fill="currentColor" class="qi-101-fill" viewBox="0 0 16 16">
  <path d="M4.745 1.777a.516.516 0 0 0 .503.404.535.535 0 0 0 .112-.012.517.517 0 0 0 .392-.616L5.496.403A.516.516 0 0 0 4.49.627zM1.023 3.535l.994.633a.516.516 0 0 0 .554-.87l-.994-.633a.516.516 0 0 0-.554.87zM.628 8.043l1.15-.256a.516.516 0 1 0-.223-1.008l-1.15.256a.516.516 0 0 0 .111 1.02.535.535 0 0 0 .112-.012zm10.238-2.28a.535.535 0 0 0 .112-.012l1.15-.256a.516.516 0 1 0-.224-1.008l-1.15.256a.516.516 0 0 0 .112 1.02zM8.522 2.728a.516.516 0 0 0 .712-.158l.633-.994a.516.516 0 0 0-.87-.554l-.633.994a.516.516 0 0 0 .158.712zM2.819 7.032a3.506 3.506 0 0 0 .331.87 3.13 3.13 0 0 0 .908-.486 2.453 2.453 0 0 1-.232-.608 2.504 2.504 0 0 1 1.9-2.988 2.5 2.5 0 0 1 2.988 1.9l.004.038a5.42 5.42 0 0 1 1.064.25 3.509 3.509 0 0 0-.061-.512 3.535 3.535 0 1 0-6.902 1.536z"/>
  <path d="M12.464 8.48a3.236 3.236 0 0 0-.409.04 4.824 4.824 0 0 0-8.086 0 3.234 3.234 0 0 0-.41-.04 3.285 3.285 0 1 0 1.284 6.31 4.756 4.756 0 0 0 6.338 0 3.286 3.286 0 1 0 1.283-6.31z"/>
</svg>