<svg xmlns="http://www.w3.org/2000/svg" width="16" height="16" fill="currentColor" class="qi-1011" viewBox="0 0 16 16">
  <path d="M11.11 10.763c-.735-.891-.788-1.919-.7-3.394-2.362.917-1.81 3.561-1.884 4.364a2.991 2.991 0 0 1-.7-1.7 2.251 2.251 0 0 0-.94 1.94 3.013 3.013 0 0 0 3.09 3.01 2.954 2.954 0 0 0 3.019-3.01c0-1.035-.713-1.377-.626-2.932a1.632 1.632 0 0 0-1.259 1.722z"/>
  <path d="M14.57 3.689s-6.976-2.06-9.322-2.671a.694.694 0 0 0-.837.5L1.028 14.12a.71.71 0 0 0 .476.848.71.71 0 0 0 .876-.485l1.462-5.451 10.829-4.213a.608.608 0 0 0-.101-1.13z"/>
</svg>