<svg xmlns="http://www.w3.org/2000/svg" width="16" height="16" fill="currentColor" class="qi-1015" viewBox="0 0 16 16">
  <path d="m1.19 11.716 1.338 2.816 1.391-2.816-1.391-1.498-1.338 1.498zm3.666 0 1.338 2.816 1.391-2.816-1.391-1.498-1.338 1.498zm3.666 0 1.337 2.816 1.392-2.816-1.392-1.498-1.337 1.498zm3.666 0 1.337 2.816 1.392-2.816-1.392-1.498-1.337 1.498zm1.787-6.67a2.94 2.94 0 0 0-1.751-1.13 3.037 3.037 0 0 0-2.858-2.762 2.978 2.978 0 0 0-2.695 1.8 2.874 2.874 0 0 0-2.24 1.635 2.213 2.213 0 0 0-2.353 1.185 1.713 1.713 0 0 0-1.207.131A1.628 1.628 0 0 0 0 7.319a1.647 1.647 0 0 0 1.08 1.51 1.782 1.782 0 0 0 1.468-.143 2.7 2.7 0 0 0 1.717.639 2.66 2.66 0 0 0 1.473-.45 3.9 3.9 0 0 0 2.2.367 3.854 3.854 0 0 0 1.662-.63 3.481 3.481 0 0 0 2.071.63 3.433 3.433 0 0 0 1.6-.448 2.01 2.01 0 0 0 1.582.056A1.957 1.957 0 0 0 16 6.976a2.155 2.155 0 0 0-2.025-1.93z"/>
</svg>