<svg xmlns="http://www.w3.org/2000/svg" width="16" height="16" fill="currentColor" class="qi-1017" viewBox="0 0 16 16">
  <path d="M12.227 8.13a.263.263 0 0 0-.454 0l-3.738 6.482a.26.26 0 0 0 .227.388h7.476a.26.26 0 0 0 .227-.388L12.227 8.13Zm-.85 2.144c-.032-.282.256-.524.623-.524s.655.242.623.524l-.282 2.476h-.682l-.282-2.476Zm1.127 3.476a.5.5 0 1 1-1 0 .5.5 0 0 1 1 0ZM.75 2a.75.75 0 0 0 0 1.5h14.5a.75.75 0 0 0 0-1.5H.75Zm7 3.5a.75.75 0 0 0 0 1.5h7.5a.75.75 0 0 0 0-1.5h-7.5ZM0 9.75A.75.75 0 0 1 .75 9h7.5a.75.75 0 0 1 0 1.5H.75A.75.75 0 0 1 0 9.75ZM.75 5.5a.75.75 0 0 0 0 1.5h4.5a.75.75 0 1 0 0-1.5H.75Z"/>
</svg>