<svg xmlns="http://www.w3.org/2000/svg" width="16" height="16" fill="currentColor" class="qi-1018" viewBox="0 0 16 16">
  <circle cx="7.86" cy="9.64" r="2.807"/>
  <path d="M7.86 5.676a3.028 3.028 0 0 1 1.833.624c.013-.169.026-.382.027-.628C9.736 3.323 8.765.526 7.864.526c-.678 0-1.849 2.306-1.849 5.15 0 .211.016.412.027.617a3.018 3.018 0 0 1 1.818-.617zm-3.332 6.1a3.032 3.032 0 0 1-.373-1.9 9.043 9.043 0 0 0-.558.29c-2.045 1.164-3.982 3.4-3.531 4.183.339.587 2.921.448 5.384-.974.183-.105.349-.22.52-.331a3.026 3.026 0 0 1-1.442-1.268zm7.872-1.762a9.647 9.647 0 0 0-.547-.285 2.987 2.987 0 0 1-1.836 3.156c.175.114.344.231.531.338 2.463 1.422 5.046 1.559 5.387.968.45-.78-1.492-3.016-3.535-4.177z"/>
</svg>