<svg xmlns="http://www.w3.org/2000/svg" width="16" height="16" fill="currentColor" class="qi-102-fill" viewBox="0 0 16 16">
  <path d="m3.402 11.875-.002.002h-.002l-.661.662-.396.397H2.34l-.003.003a.5.5 0 1 0 .707.707l.4-.4.665-.664a.5.5 0 1 0-.707-.707zm10.48-.666a2.145 2.145 0 0 0-.265.026 3.144 3.144 0 0 0-5.225 0 2.145 2.145 0 0 0-.264-.026 2.09 2.09 0 1 0 0 4.18 2.145 2.145 0 0 0 .829-.166 3.109 3.109 0 0 0 4.096 0 2.146 2.146 0 0 0 .829.166 2.09 2.09 0 1 0 0-4.18zm0 3.18a1.144 1.144 0 0 1-.444-.088 1 1 0 0 0-1.038.165 2.109 2.109 0 0 1-2.791 0 1 1 0 0 0-1.038-.165 1.144 1.144 0 0 1-.443.088 1.09 1.09 0 1 1-.007-2.18c.025 0 .05.005.075.009l.074.01a1.023 1.023 0 0 0 .122.007 1 1 0 0 0 .832-.446 2.144 2.144 0 0 1 3.56 0 1 1 0 0 0 .833.446 1.024 1.024 0 0 0 .122-.008l.074-.01c.025-.003.05-.007.068-.008a1.09 1.09 0 1 1 0 2.18zM8.003 2.5a.5.5 0 0 0 .5-.5V.5a.5.5 0 0 0-1 0V2a.5.5 0 0 0 .5.5zM3.408 4.105a.5.5 0 0 0 .707-.707l-1.06-1.06a.5.5 0 0 0-.708.706zM2.5 7.99a.5.5 0 0 0-.5-.5H.5a.5.5 0 0 0 0 1H2a.5.5 0 0 0 .5-.5zm10.993.013a.5.5 0 0 0 .5.5h1.5a.5.5 0 0 0 0-1h-1.5a.5.5 0 0 0-.5.5zm-1.252-3.742a.498.498 0 0 0 .354-.146l1.06-1.061a.5.5 0 0 0-.706-.707l-1.061 1.06a.5.5 0 0 0 .353.854z"/>
  <path d="M8.014 10.41a3.846 3.846 0 0 1 4.28-1.132 4.452 4.452 0 0 0 .207-1.282 4.5 4.5 0 1 0-6.868 3.812 2.923 2.923 0 0 1 2.381-1.397z"/>
</svg>