<svg xmlns="http://www.w3.org/2000/svg" width="16" height="16" fill="currentColor" class="qi-1021" viewBox="0 0 16 16">
  <path d="m8.608 12.47 6.353-1.631-3.661-.783 1.62-2.578a.8.8 0 0 0 .121-.444L12.95 3.9a.8.8 0 0 0-.371-.65L8.506.691A.794.794 0 0 0 7.76.638L4.9 1.916a.8.8 0 0 0-.347.3l-1.9 3a.793.793 0 1 0 1.342.847l.119-.19L9.8 9.452l-.143.254-5.882-1.257 2.459 2.078L0 12.189l9.089 3.481L16 14.371zm-2.848-7a.779.779 0 1 1 .8-.757.778.778 0 0 1-.8.762zm3.576 1.947a.779.779 0 1 1 .756.8.779.779 0 0 1-.756-.8z"/>
</svg>