<svg xmlns="http://www.w3.org/2000/svg" width="16" height="16" fill="currentColor" class="qi-1023" viewBox="0 0 16 16">
  <path d="M14.649 9.861a6.663 6.663 0 0 0-5.339-.185 9.1 9.1 0 0 1-3.6.072.7.7 0 0 0-.245 1.378 13.113 13.113 0 0 0 2.108.176A6.952 6.952 0 0 0 9.767 11a5.293 5.293 0 0 1 4.174.069.7.7 0 0 0 .708-1.208zm0 2.663a6.658 6.658 0 0 0-5.339-.185 9.163 9.163 0 0 1-3.6.072.7.7 0 0 0-.245 1.379 13.356 13.356 0 0 0 2.107.174 6.933 6.933 0 0 0 2.2-.3 5.29 5.29 0 0 1 4.174.07.7.7 0 0 0 .708-1.208z"/>
  <path d="M14.57 3.689s-6.976-2.06-9.322-2.671a.694.694 0 0 0-.837.5L1.028 14.12a.71.71 0 0 0 .476.848.71.71 0 0 0 .876-.485l1.462-5.451 10.829-4.213a.608.608 0 0 0-.101-1.13z"/>
</svg>