<svg xmlns="http://www.w3.org/2000/svg" width="16" height="16" fill="currentColor" class="qi-1030" viewBox="0 0 16 16">
  <path d="M14.649 3.743 8.35.1a.691.691 0 0 0-.7 0l-6.3 3.648a.7.7 0 0 0-.35.604v7.3a.7.7 0 0 0 .351.609l6.3 3.648a.692.692 0 0 0 .7 0l6.3-3.648a.7.7 0 0 0 .349-.613v-7.3a.7.7 0 0 0-.351-.605zm-1.052 7.5L8 14.484l-5.6-3.242V4.759L8 1.516l5.6 3.243z"/>
  <path d="M7.772 5.29a.7.7 0 0 0-.956.256L6.208 6.6 5.6 5.546a.7.7 0 0 0-1.213.7L5 7.3H3.778a.7.7 0 1 0 0 1.4H5l-.613 1.054a.7.7 0 0 0 1.213.7L6.208 9.4l.608 1.054a.7.7 0 0 0 1.213-.7L7.421 8.7h1.216a.7.7 0 1 0 0-1.4H7.421l.608-1.054a.7.7 0 0 0-.257-.956zm2.615 2.221a.708.708 0 0 0 .171.021.7.7 0 0 0 .677-.532l.221-.881a.7.7 0 1 0-1.357-.34l-.221.881a.7.7 0 0 0 .509.851zm1.46 1.796a.7.7 0 0 0 .847-.51l.22-.88a.7.7 0 1 0-1.357-.339l-.22.88a.7.7 0 0 0 .51.849zM9.912 11.22a.715.715 0 0 0 .171.021.7.7 0 0 0 .678-.53l.22-.881a.7.7 0 1 0-1.357-.34l-.221.881a.7.7 0 0 0 .509.849z"/>
</svg>