<svg xmlns="http://www.w3.org/2000/svg" width="16" height="16" fill="currentColor" class="qi-1032" viewBox="0 0 16 16">
  <path d="M6.268 1.046a5.462 5.462 0 0 0-5.257 5.662 5.426 5.426 0 0 0 5.257 5.621 5.433 5.433 0 0 0 5.266-5.621 5.469 5.469 0 0 0-5.266-5.662zm0 9.847a3.991 3.991 0 0 1-3.821-4.185 4.028 4.028 0 0 1 3.821-4.226A4.035 4.035 0 0 1 10.1 6.708a4 4 0 0 1-3.832 4.185zm8.045 1.021a1.606 1.606 0 0 0-.105-2.593 1.678 1.678 0 0 0-1-.281 1.729 1.729 0 0 0-1.423.9 1.657 1.657 0 0 0-.186.645h.838a.933.933 0 0 1 .568-.644.826.826 0 0 1 .675.044.778.778 0 0 1 .4.759c-.037.432-.646.851-1.534.808v.748c.93-.088 1.591.44 1.614.928a.895.895 0 0 1-1.758.264h-.838a1.73 1.73 0 0 0 .6 1.116 1.707 1.707 0 0 0 1.06.385 1.77 1.77 0 0 0 1.268-.494A1.805 1.805 0 0 0 15 13.2a1.624 1.624 0 0 0-.687-1.286z"/>
</svg>