<svg xmlns="http://www.w3.org/2000/svg" width="16" height="16" fill="currentColor" class="qi-1039" viewBox="0 0 16 16">
  <path d="M14.505 9.164h-1.221a.491.491 0 0 0-.325.122l-4.966 4.349-4.967-4.349a.49.49 0 0 0-.325-.122H1.48a.102.102 0 0 0-.067.178l6.376 5.583a.31.31 0 0 0 .407 0l6.376-5.583a.101.101 0 0 0 .027-.112.101.101 0 0 0-.094-.066ZM5.652 4.022c.126 0 .23-.044.315-.133a.46.46 0 0 0 .127-.332.45.45 0 0 0-.126-.329.42.42 0 0 0-.315-.13.417.417 0 0 0-.316.133.46.46 0 0 0-.126.329c0 .131.042.24.126.329a.415.415 0 0 0 .315.133Z"/>
  <path d="M7.836 12.376a.237.237 0 0 0 .312 0l6.253-5.475a.304.304 0 0 0-.2-.532h-2.272V1.456a.475.475 0 0 0-.475-.475H4.403a.475.475 0 0 0-.475.475v4.913H1.784a.303.303 0 0 0-.2.532l6.252 5.475Zm-.001-8.541c.607-.28 1.17-.18 1.327-.15.145.028.572.125.994.465.244.197.461.464.555.611l-.484.521c-.11-.183-.487-.632-1.042-.774-.779-.199-1.932.258-1.943 1.548-.01 1.27 1.103 1.824 2.033 1.579.506-.133.823-.512.958-.706l.474.505a2.611 2.611 0 0 1-.867.758c-.473.259-.911.246-1.092.242-.194-.005-1.03-.024-1.65-.664-.626-.647-.653-1.455-.653-1.744 0-.648.24-1.205.668-1.67.097-.106.357-.353.722-.521Zm-2.81-.894a.868.868 0 0 1 .628-.253.88.88 0 0 1 .64.243.819.819 0 0 1 .249.616.836.836 0 0 1-.539.805.87.87 0 0 1-.339.058.893.893 0 0 1-.835-.525.81.81 0 0 1-.065-.332c0-.239.087-.442.261-.612Z"/>
</svg>