<svg xmlns="http://www.w3.org/2000/svg" width="16" height="16" fill="currentColor" class="qi-1040" viewBox="0 0 16 16">
  <path d="M6.635 11.467H5.379l.628-1.088a.7.7 0 0 0-1.213-.7l-.627 1.087-.628-1.087a.7.7 0 0 0-1.213.7l.628 1.088H1.7a.7.7 0 1 0 0 1.4h1.254l-.628 1.088a.7.7 0 0 0 .257.956.691.691 0 0 0 .349.094.7.7 0 0 0 .607-.35l.628-1.087.627 1.087a.7.7 0 0 0 .607.35.691.691 0 0 0 .349-.094.7.7 0 0 0 .257-.956l-.628-1.088h1.256a.7.7 0 1 0 0-1.4zm7.665 0h-1.253l.628-1.088a.7.7 0 0 0-1.213-.7l-.628 1.087-.627-1.087a.7.7 0 0 0-1.213.7l.628 1.088H9.366a.7.7 0 0 0 0 1.4h1.256l-.628 1.088a.7.7 0 0 0 .257.956.691.691 0 0 0 .349.094.7.7 0 0 0 .607-.35l.627-1.087.628 1.087a.7.7 0 0 0 .607.35.7.7 0 0 0 .606-1.05l-.628-1.088H14.3a.7.7 0 0 0 0-1.4zM9.738 8.586a.7.7 0 0 0 .606-1.05L9.156 5.479h2.376a.7.7 0 1 0 0-1.4H9.156l1.188-2.058a.7.7 0 0 0-1.213-.7L7.943 3.378 6.756 1.321a.7.7 0 0 0-1.213.7l1.188 2.058H4.355a.7.7 0 0 0 0 1.4h2.376L5.543 7.536a.7.7 0 0 0 1.213.7l1.187-2.057 1.188 2.057a.7.7 0 0 0 .607.35z"/>
</svg>