<svg xmlns="http://www.w3.org/2000/svg" width="16" height="16" fill="currentColor" class="qi-1047" viewBox="0 0 16 16">
  <path d="M2.446 4.676a.613.613 0 1 0-.612-.612.614.614 0 0 0 .612.612zM.975 8.831a.418.418 0 0 0 0 .835.42.42 0 0 0 .408-.417.415.415 0 0 0-.408-.418zm2.143-2.542a.868.868 0 1 0-.867.868.869.869 0 0 0 .867-.868zm-.408 5.562a.409.409 0 0 0 0 .817.415.415 0 0 0 .408-.408.41.41 0 0 0-.408-.409zm3.538-5.102a.579.579 0 0 0 0-1.157.573.573 0 0 0-.578.578.58.58 0 0 0 .578.579zM7.994 4.2a.589.589 0 1 0-.589-.589.591.591 0 0 0 .589.589z"/>
  <circle cx="13.655" cy="3.991" r=".496"/>
  <circle cx="4.394" cy="9.249" r="1.276"/>
  <path d="M4.183 3.544a.868.868 0 1 0-.868-.867.869.869 0 0 0 .868.867zm6.998 5.348a.4.4 0 0 0-.408.408.408.408 0 1 0 .408-.408zm1.684-1.735A.868.868 0 1 0 12 6.289a.87.87 0 0 0 .865.868zM13 11.328a.868.868 0 1 0 .868.868.87.87 0 0 0-.868-.868zm1.5-3.287a.875.875 0 1 0 .875.874.877.877 0 0 0-.875-.874zm-3.115-4.809a.868.868 0 1 0-.867-.868.87.87 0 0 0 .867.868zM9.5 5.014a1.276 1.276 0 1 0 1.276 1.275A1.279 1.279 0 0 0 9.5 5.014zm-3.788 7.591a1.181 1.181 0 1 0 1.18 1.181 1.184 1.184 0 0 0-1.18-1.181z"/>
  <circle cx="7.762" cy="9.249" r=".868"/>
  <circle cx="9.243" cy="12.195" r=".958"/>
</svg>