<svg xmlns="http://www.w3.org/2000/svg" width="16" height="16" fill="currentColor" class="qi-1048" viewBox="0 0 16 16">
  <path d="M5.652 3.7a.415.415 0 0 0-.315.133.493.493 0 0 0 0 .658.441.441 0 0 0 .631 0 .464.464 0 0 0 .126-.332.45.45 0 0 0-.126-.329.423.423 0 0 0-.316-.13z"/>
  <path d="M14.2 8.917h-2.272V1.456a.475.475 0 0 0-.474-.475H4.4a.475.475 0 0 0-.475.475v7.461H1.784a.3.3 0 0 0-.2.532l6.252 5.475a.235.235 0 0 0 .312 0L14.4 9.449a.3.3 0 0 0-.2-.532zM5.664 5.01a.887.887 0 0 1-.639-.249.807.807 0 0 1-.261-.608.824.824 0 0 1 .261-.612.866.866 0 0 1 .627-.253.88.88 0 0 1 .64.242.821.821 0 0 1 .249.616.837.837 0 0 1-.249.62.864.864 0 0 1-.628.244zm3.612 3.225a1.759 1.759 0 0 0 .958-.706l.474.505a2.624 2.624 0 0 1-.868.758 2.081 2.081 0 0 1-1.092.242A2.373 2.373 0 0 1 7.1 8.369a2.476 2.476 0 0 1-.653-1.743 2.422 2.422 0 0 1 1.39-2.191 2.179 2.179 0 0 1 1.327-.15 2.285 2.285 0 0 1 .994.464 2.9 2.9 0 0 1 .555.612l-.485.52a1.866 1.866 0 0 0-1.042-.774 1.553 1.553 0 0 0-1.944 1.549 1.577 1.577 0 0 0 2.034 1.579z"/>
</svg>