<svg xmlns="http://www.w3.org/2000/svg" width="16" height="16" fill="currentColor" class="qi-1052" viewBox="0 0 16 16">
  <path d="M1.586 12.321a19.379 19.379 0 0 0 2.99.241 10 10 0 0 0 3.063-.406 8.209 8.209 0 0 1 6.311.123.7.7 0 1 0 .69-1.218 8.63 8.63 0 0 0-4.561-.812l2.806-2.981a.2.2 0 0 0-.142-.328h-1.28a.063.063 0 0 1-.053-.1l1.216-1.475a.136.136 0 0 0-.114-.21H10.3a.232.232 0 0 0-.2.119L8.463 7.822a.194.194 0 0 0 .17.288h1.308a.064.064 0 0 1 .059.081l-.62 2.128a11.907 11.907 0 0 0-2.187.509 9.21 9.21 0 0 1-2.986.33L5.517 6.7l6.731-3.314a.377.377 0 0 0-.063-.7l-5.8-1.652a.693.693 0 0 0-.8.481l-2.8 9.552a16.187 16.187 0 0 1-.955-.123.71.71 0 0 0-.807.573.7.7 0 0 0 .563.804z"/>
  <path d="M14.64 13.5a9.584 9.584 0 0 0-7.44-.229 14.031 14.031 0 0 1-5.373.113.7.7 0 0 0-.236 1.38 19.593 19.593 0 0 0 2.99.24 10.03 10.03 0 0 0 3.063-.4 8.209 8.209 0 0 1 6.311.123.7.7 0 0 0 .69-1.219z"/>
</svg>