<svg id="&#x56FE;&#x5C42;_1" xmlns="http://www.w3.org/2000/svg" width="16" height="16" fill="currentColor" class="qi-1057" viewBox="0 0 16 16">
  <defs>
    <style>
      .cls-1{fill:#040000}
    </style>
  </defs>
  <path d="M10.923 13.394a15.388 15.388 0 0 1-6.648-3.258.164.164 0 0 0-.225.024l-.606.719a.166.166 0 0 0 .036.246 16.411 16.411 0 0 0 7.435 2.322zM5.6 12.845a.162.162 0 0 0-.205.072l-.315.562a.165.165 0 0 0 .1.239 29.38 29.38 0 0 0 8.167 1.247v-.069A24.626 24.626 0 0 1 5.6 12.845zm-1.495-9.2a1.218 1.218 0 1 0-1.218-1.218 1.218 1.218 0 0 0 1.218 1.218z" class="cls-1"/>
  <path d="m14.762 5.552-4.027.324a3.448 3.448 0 0 0-1.291.365l-1.567.8L6.8 4.073A6.118 6.118 0 0 0 9.62.946a.5.5 0 0 0-.955-.293c-.381 1.24-1.459 1.956-3.092 3.04-.559.372-1.172.779-1.824 1.254a4.472 4.472 0 0 0-1.938 4.874.5.5 0 0 0 .472.339.531.531 0 0 0 .157-.025.5.5 0 0 0 .319-.635 3.361 3.361 0 0 1 1.252-3.482l1.646 2.929a1.91 1.91 0 0 0 1.291.937l2.489.5a2.044 2.044 0 0 1 1.163.689l2.161 2.576a.468.468 0 0 0 .471.154l.029-.007a.468.468 0 0 0 .305-.672L11.58 9.3a1.373 1.373 0 0 0-.847-.688l-.82-.228.312-.259a3.4 3.4 0 0 1 1.235-.655l3.469-1a.469.469 0 0 0-.167-.919z" class="cls-1"/>
</svg>