<svg xmlns="http://www.w3.org/2000/svg" width="16" height="16" fill="currentColor" class="qi-1064" viewBox="0 0 16 16">
  <path d="M3.778 13.045a.953.953 0 0 0 1.9 0 6.273 6.273 0 0 0-.953-1.9 6.276 6.276 0 0 0-.947 1.9zm-2.601-1.032a.953.953 0 0 0 1.9 0 6.281 6.281 0 0 0-.953-1.9 6.283 6.283 0 0 0-.947 1.9zm11.27 0a.953.953 0 0 0 1.906 0 6.281 6.281 0 0 0-.953-1.9 6.281 6.281 0 0 0-.953 1.9zm-5.728.1a.953.953 0 0 0 1.905 0 6.288 6.288 0 0 0-.952-1.9 6.286 6.286 0 0 0-.953 1.9zm2.941.932a.953.953 0 0 0 1.906 0 6.273 6.273 0 0 0-.953-1.9 6.273 6.273 0 0 0-.953 1.9zm4.315-8.132a2.931 2.931 0 0 0-1.751-1.13A3.039 3.039 0 0 0 9.366 1.02a2.979 2.979 0 0 0-2.695 1.805 2.874 2.874 0 0 0-2.24 1.635 2.212 2.212 0 0 0-2.353 1.181 1.711 1.711 0 0 0-1.207.13A1.629 1.629 0 0 0 0 7.186 1.649 1.649 0 0 0 1.078 8.7a1.781 1.781 0 0 0 1.468-.144 2.694 2.694 0 0 0 1.717.64 2.659 2.659 0 0 0 1.473-.451A3.837 3.837 0 0 0 9.6 8.478a3.486 3.486 0 0 0 2.071.631 3.419 3.419 0 0 0 1.6-.449 2.005 2.005 0 0 0 1.582.056A1.955 1.955 0 0 0 16 6.843a2.154 2.154 0 0 0-2.025-1.93z"/>
</svg>