<svg xmlns="http://www.w3.org/2000/svg" width="16" height="16" fill="currentColor" class="qi-1064" viewBox="0 0 16 16">
  <path stroke="#000" d="M1.926 9.004 2 8.885l.074.119c.119.194.232.397.314.579.089.198.112.31.112.346 0 .348-.256.571-.5.571s-.5-.223-.5-.571c0-.036.023-.148.112-.346a5.39 5.39 0 0 1 .314-.58Zm12 0L14 8.885l.074.119c.119.194.232.397.314.579.089.198.112.31.112.346 0 .348-.256.571-.5.571s-.5-.223-.5-.571c0-.036.023-.148.112-.346.082-.182.195-.385.314-.58ZM8.5 13.929c0 .348-.256.571-.5.571s-.5-.223-.5-.571c0-.036.023-.148.112-.346A5.393 5.393 0 0 1 8 12.886l.074.118c.119.194.232.397.314.579.089.198.112.31.112.346Zm2.426-1.925.074-.118.074.118c.119.194.232.397.314.579.089.198.112.31.112.346 0 .348-.256.571-.5.571s-.5-.223-.5-.571c0-.036.023-.148.112-.346a5.39 5.39 0 0 1 .314-.58Zm-5.426.925c0 .348-.256.571-.5.571s-.5-.223-.5-.571c0-.036.023-.148.112-.346A5.393 5.393 0 0 1 5 11.886l.074.118c.119.194.232.397.314.579.089.198.112.31.112.346Z"/>
  <path d="M7.94 6.99a.5.5 0 0 1-.44-.496v-2a.5.5 0 0 1 1 0v1.577l1.57.266a.5.5 0 0 1-.168.986L7.94 6.99Z"/>
  <path d="M7.4 1.5a.4.4 0 1 1 0-.8h1.2a.4.4 0 0 1 0 .8h-.1V2c.802.089 1.54.388 2.159.841l.29-.29-.118-.117a.25.25 0 0 1 .353-.353l.566.565a.25.25 0 1 1-.354.354l-.094-.095-.255.256A4.5 4.5 0 1 1 7.5 2v-.501h-.1Zm4.3 4.973a3.7 3.7 0 1 0-7.4 0 3.7 3.7 0 0 0 7.4 0Z"/>
</svg>