<svg xmlns="http://www.w3.org/2000/svg" width="16" height="16" fill="currentColor" class="qi-1074" viewBox="0 0 16 16">
  <path d="M2.55 11.138h.164l.05.157c.035.115.082.216.12.327l1.497.535-.178-2.3-2.716-1.519a2.653 2.653 0 0 0-.074.584c0 1.227.511 2.216 1.137 2.216Zm1.75-1.97a1.045 1.045 0 0 1 .82-.468c.94-.07 2.33-.166 2.947-.165.588.001 1.906.094 2.813.163a1.05 1.05 0 0 1 .812.458l2.821-1.58c.058-.343.098-.69.098-1.05a6.61 6.61 0 0 0-13.221 0c0 .367.042.721.102 1.072L4.3 9.168Zm6.92 3.81a1.144 1.144 0 0 1-.527.197c-.927.09-2.093.213-2.706.213-.607 0-1.76-.122-2.68-.212a1.134 1.134 0 0 1-.486-.173l-1.628-.582C4.202 14.626 5.997 16 7.997 16c2.004 0 3.802-1.378 4.808-3.59l-1.586.567Zm.58-3.14-.179 2.308 1.492-.533c.037-.107.084-.207.117-.317l.05-.157h.164c.626 0 1.145-.996 1.145-2.208 0-.215-.037-.419-.081-.608L11.8 9.84Z"/>
</svg>