<svg xmlns="http://www.w3.org/2000/svg" width="16" height="16" fill="currentColor" class="qi-1075" viewBox="0 0 16 16">
  <path d="M4.561 12c-1.574 0-2.918-.256-3.01-.274a.703.703 0 0 1 .27-1.38c.032.008 3.33.633 5.332-.126 4.41-1.673 7.385.189 7.51.268a.704.704 0 0 1-.76 1.182c-.099-.062-2.535-1.545-6.252-.136-.939.356-2.063.466-3.09.466Zm.013 2.743c-1.574 0-2.918-.256-3.01-.274a.703.703 0 0 1 .27-1.38c.032.008 3.33.633 5.332-.126 4.41-1.673 7.385.19 7.51.268a.704.704 0 0 1-.76 1.182c-.099-.062-2.535-1.545-6.252-.136-.939.356-2.063.466-3.09.466Z"/>
  <path d="M11 1.5H9v8.197a9.496 9.496 0 0 1 2-.17V1.5Zm-.5 1v1h-1v-1h1ZM9.5 5h1v1h-1V5Zm1 2.5v2h-1v-2h1Zm3.5 2.648a7.942 7.942 0 0 0-2-.54V4h2v6.148ZM13.5 5h-1v1h1V5Zm-1 2v1h1V7h-1ZM5 10.589c-1.304.043-2.558-.14-3-.213V8h-.5l2-1 2 1H5v2.589ZM4 9H3v1h1V9Zm4 .94c-.272.08-.55.172-.834.28A5.507 5.507 0 0 1 6 10.505V5h2v4.94ZM7.5 6h-1v1h1V6Zm-1 2v1h1V8h-1Z"/>
</svg>