<svg xmlns="http://www.w3.org/2000/svg" width="16" height="16" fill="currentColor" class="qi-1078" viewBox="0 0 16 16">
  <path d="M12.87.884a.188.188 0 0 0 .32-.133V.19a.187.187 0 1 0-.374 0v.56c0 .05.02.098.055.133Zm-1.53.698a.187.187 0 0 0 .205-.306l-.398-.398a.188.188 0 0 0-.265.265l.398.398a.185.185 0 0 0 .06.04Zm-1.151 1.604h.562a.188.188 0 0 0 0-.375h-.562a.188.188 0 1 0 0 .375Zm.717 1.958a.188.188 0 0 0 .237-.024l.398-.397a.188.188 0 0 0-.265-.266l-.398.398a.188.188 0 0 0 .028.289Zm1.96.802a.188.188 0 0 0 .32-.132V5.25a.187.187 0 1 0-.375 0v.563c0 .05.02.097.055.132Zm2.05-.781a.187.187 0 0 0 .255-.21.188.188 0 0 0-.051-.096l-.398-.398a.187.187 0 0 0-.27-.005.188.188 0 0 0 .005.27l.398.398a.187.187 0 0 0 .06.04Zm.334-1.974h.563a.188.188 0 1 0 0-.375h-.562a.188.188 0 0 0 0 .375Zm-.76-1.623a.188.188 0 0 0 .236-.023l.398-.398a.19.19 0 0 0 .04-.204.188.188 0 0 0-.306-.061l-.397.398a.188.188 0 0 0 .028.288Zm-2.426.029a1.688 1.688 0 1 1 1.875 2.806 1.688 1.688 0 0 1-1.875-2.806Zm1.667.312a1.312 1.312 0 1 0-1.458 2.182A1.312 1.312 0 0 0 13.73 1.91ZM2.032 6.364a.75.75 0 0 1 1.054.117l2 2.5a.75.75 0 0 1-.056 1l-1.565 1.565L5.101 14H7.8l-1.423-2.134a.75.75 0 0 1 .094-.946l1.525-1.526-1.58-1.976a.75.75 0 0 1 1.17-.937l2 2.5a.75.75 0 0 1-.055 1l-1.565 1.565L9.601 14H12.3l-1.423-2.134a.75.75 0 0 1 .094-.946l1.525-1.526-1.58-1.976a.75.75 0 1 1 1.17-.937l2 2.5a.75.75 0 0 1-.054 1l-1.566 1.565L14.102 14H15a1 1 0 0 1 0 2H1a1 1 0 1 1 0-2h2.299l-1.423-2.134a.75.75 0 0 1 .094-.946l1.525-1.526-1.58-1.976a.75.75 0 0 1 .117-1.054Z"/>
</svg>