<svg xmlns="http://www.w3.org/2000/svg" width="16" height="16" fill="currentColor" class="qi-1079" viewBox="0 0 16 16">
  <path d="M5.063 9A2 2 0 0 0 7 10.5h.667l.277 2.5c-1.317.015-2.918.54-4.336 1.146L3.333 12.5H4a2 2 0 0 0 2-2H5a2 2 0 0 0-2 2 2 2 0 0 0-2-2H0a2 2 0 0 0 2 2h.667l.32 1.921A30.669 30.669 0 0 0 0 16h16s-.556-.345-1.415-.8c-.302-.16-.642-.335-1.009-.513l-.243-2.187H14a2 2 0 0 0 2-2h-1a2 2 0 0 0-2 2 2 2 0 0 0-2-2h-1a2 2 0 0 0 2 2h.667l.206 1.857c-1.34-.605-2.903-1.18-4.258-1.323L8.333 10.5H9a2 2 0 0 0 2-2h-1a2 2 0 0 0-2 2 2 2 0 0 0-2-2H5c0 .173.022.34.063.5ZM6 9a1.5 1.5 0 0 1 1.415 1H7a1.5 1.5 0 0 1-1.415-1H6Zm2.585 1A1.5 1.5 0 0 1 10 9h.415A1.5 1.5 0 0 1 9 10h-.415ZM1 11a1.5 1.5 0 0 1 1.415 1H2a1.5 1.5 0 0 1-1.415-1H1Zm2.585 1A1.5 1.5 0 0 1 5 11h.415A1.5 1.5 0 0 1 4 12h-.415Zm8.83 0H12a1.5 1.5 0 0 1-1.415-1H11a1.5 1.5 0 0 1 1.415 1ZM15 11h.415A1.5 1.5 0 0 1 14 12h-.415A1.5 1.5 0 0 1 15 11Zm-7 2.8c1.325 0 3.14.653 4.74 1.4H3.26c1.6-.747 3.415-1.4 4.74-1.4ZM8.227.63a.263.263 0 0 0-.454 0L4.035 7.113a.26.26 0 0 0 .227.388h7.476a.26.26 0 0 0 .227-.388L8.227.63Zm-.85 2.144c-.032-.282.256-.524.623-.524s.655.242.623.524L8.34 5.25h-.68l-.282-2.476ZM8.504 6.25a.5.5 0 1 1-1 0 .5.5 0 0 1 1 0Z"/>
</svg>