<svg xmlns="http://www.w3.org/2000/svg" width="16" height="16" fill="currentColor" class="qi-1082" viewBox="0 0 16 16">
  <path d="M9.961 1.51A7.174 7.174 0 0 0 7.281 1C3.815 1 1.003 3.393 1 6.347c0 1.56.785 2.964 2.034 3.942v4.705h6.974c-.008.006.438-.095.448-.293v-.011l.004-1.544 1.811.23c.728 0 1.32-.508 1.32-1.125v-1.976h.603c.694 0 1-.43.677-.956l-1.28-2.08v-.886c0-2.146-1.485-3.993-3.63-4.842ZM6.5 10.5a4 4 0 1 1 0-8 4 4 0 0 1 0 8Z"/>
  <path d="M6.589 4c-.494 0-.87.47-.789.986L6.117 7h.944l.317-2.014C7.459 4.47 7.083 4 6.588 4ZM6.5 8.5a.5.5 0 1 0 0-1 .5.5 0 0 0 0 1Z"/>
</svg>