<svg xmlns="http://www.w3.org/2000/svg" width="16" height="16" fill="currentColor" class="qi-1087" viewBox="0 0 16 16">
  <path d="M4.465 2.467a.467.467 0 0 0-.933 0v.725l-.628-.363a.467.467 0 1 0-.467.808L3.065 4l-.628.363a.467.467 0 0 0 .467.808l.628-.363v.725a.467.467 0 1 0 .933 0v-.725l.628.363a.467.467 0 0 0 .467-.808L4.932 4l.628-.363a.467.467 0 1 0-.467-.808l-.628.363v-.725Z"/>
  <path d="M.675 1.872 3.825.048a.347.347 0 0 1 .35 0l3.15 1.824a.353.353 0 0 1 .175.304v3.648a.352.352 0 0 1-.176.305L4.176 7.953a.344.344 0 0 1-.351 0L.676 6.129A.352.352 0 0 1 .5 5.824V2.176a.353.353 0 0 1 .175-.304Zm.526 3.75L4 7.241l2.798-1.62V2.38L4 .758 1.202 2.38v3.242Zm8.716 2.954.562-.308.514-5.876a1.3 1.3 0 0 1 2.59.226l-.514 5.876.5.402a3.3 3.3 0 1 1-5.21 3.577l-1.119.442a4.501 4.501 0 1 0 7.08-4.955l.458-5.237a2.5 2.5 0 0 0-4.98-.436l-.459 5.238a4.518 4.518 0 0 0-1.783 1.782l1.024.63a3.3 3.3 0 0 1 1.337-1.36Z"/>
  <path d="m9.572 11.993 1.433-.566-1.312-.807a2.005 2.005 0 0 1 1.481-1.123l.18-2.055a.5.5 0 0 1 .996.087l-.18 2.056a2 2 0 1 1-2.598 2.408Zm-2.551-.921v.006l-.001.007.001-.013Z"/>
  <path d="M.522 9.692.2 10.07l2.687 2.785 1.644-1.773.731 1.336 1.927-1.444 2.45.573-2.587-1.625-1.348.739-1.303-1.35-1.732 1.867L.522 9.692Z"/>
</svg>