<svg xmlns="http://www.w3.org/2000/svg" width="16" height="16" fill="currentColor" class="qi-1089" viewBox="0 0 16 16">
  <path d="m13 4.232-.866-.5A2 2 0 0 1 11.402 1l.866.5A2 2 0 0 1 13 4.232Zm-.982-2.299-.36-.207a1.5 1.5 0 0 0 .726 1.573l.359.207a1.5 1.5 0 0 0-.725-1.573Z"/>
  <path d="M10.063 4.5A2 2 0 0 0 12 6h2a2 2 0 0 0 2-2h-1a2 2 0 0 0-2 1.982A2 2 0 0 0 11 4h-1c0 .173.022.34.063.5Zm.937 0a1.5 1.5 0 0 1 1.415 1H12a1.5 1.5 0 0 1-1.415-1H11Zm4 0h.415A1.5 1.5 0 0 1 14 5.5h-.415A1.5 1.5 0 0 1 15 4.5Z"/>
  <path d="M14 8a2 2 0 0 0 2-2h-1a2 2 0 0 0-2 1.982A2 2 0 0 0 11 6h-1a2 2 0 0 0 2 2h2Zm-.415-.5A1.5 1.5 0 0 1 15 6.5h.415A1.5 1.5 0 0 1 14 7.5h-.415ZM11 6.5a1.5 1.5 0 0 1 1.415 1H12a1.5 1.5 0 0 1-1.415-1H11Zm2.09 7.956C14.669 14.333 16 14 16 14v2H0v-2s1-.5 3.5-.5c1.32 0 3.057.279 4.698.542 1.468.235 2.858.458 3.802.458h.083L12.5 12H12a2 2 0 0 1-2-2h1a2 2 0 0 1 2 2 2 2 0 0 1 2-2h1a2 2 0 0 1-2 2h-.5l-.41 2.456Zm-.675-2.956a1.5 1.5 0 0 0-1.415-1h-.415a1.5 1.5 0 0 0 1.415 1h.415Zm2.585-1a1.5 1.5 0 0 0-1.415 1H14a1.5 1.5 0 0 0 1.415-1H15Zm-3-.5a2 2 0 0 1-2-2h1a2 2 0 0 1 2 2h-1Zm.415-.5A1.5 1.5 0 0 0 11 8.5h-.415A1.5 1.5 0 0 0 12 9.5h.415ZM13 10a2 2 0 0 1 2-2h1a2 2 0 0 1-2 2h-1Zm2-1.5a1.5 1.5 0 0 0-1.415 1H14a1.5 1.5 0 0 0 1.415-1H15ZM6.232 6.024A1.407 1.407 0 0 1 9 6.375c0 .786-.698 1.406-1.406 1.406H.28a.281.281 0 0 1 0-.562h7.313c.416 0 .843-.387.843-.844a.844.844 0 0 0-1.66-.211.281.281 0 0 1-.545-.14ZM2.25 8.344a.28.28 0 0 1 .281-.281h4.5a1.125 1.125 0 1 1-1.06 1.5.281.281 0 1 1 .53-.188.563.563 0 1 0 .53-.75h-4.5a.281.281 0 0 1-.281-.281Z"/>
  <path d="M1.125 9.469H4.5a.562.562 0 1 1-.53.75.281.281 0 1 0-.53.187 1.125 1.125 0 1 0 1.06-1.5H1.125a.281.281 0 0 0 0 .563Zm3.672-3.095a.16.16 0 0 0-.051.117.16.16 0 0 0 .051.117.182.182 0 0 0 .125.048h.527a.182.182 0 0 0 .125-.048.16.16 0 0 0 .051-.117.16.16 0 0 0-.051-.117.182.182 0 0 0-.125-.049h-.527a.182.182 0 0 0-.125.049Zm-.654-1.349a.156.156 0 0 0 .016.155.186.186 0 0 0 .27.025l.374-.351a.16.16 0 0 0 .05-.116.16.16 0 0 0-.052-.116.182.182 0 0 0-.123-.048.182.182 0 0 0-.124.046l-.373.351a.165.165 0 0 0-.038.054ZM2.64 4.01v.495a.16.16 0 0 0 .05.117.182.182 0 0 0 .125.049.182.182 0 0 0 .124-.049.16.16 0 0 0 .052-.117V4.01a.16.16 0 0 0-.052-.117.182.182 0 0 0-.124-.048.182.182 0 0 0-.124.048.16.16 0 0 0-.052.117Zm-1.836.632a.158.158 0 0 0 .022.209l.373.35a.182.182 0 0 0 .247-.002.16.16 0 0 0 .05-.115.16.16 0 0 0-.049-.116l-.373-.351a.186.186 0 0 0-.192-.036.174.174 0 0 0-.078.06ZM.052 6.37A.16.16 0 0 0 0 6.487a.16.16 0 0 0 .052.117.182.182 0 0 0 .124.048h.527a.182.182 0 0 0 .125-.048.16.16 0 0 0 .051-.117.16.16 0 0 0-.051-.117.182.182 0 0 0-.125-.049H.176a.182.182 0 0 0-.124.049Zm1.188.283a1.4 1.4 0 0 1 .02-.454 1.47 1.47 0 0 1 .433-.762c.222-.208.504-.35.81-.407.308-.057.626-.028.915.085.29.113.536.303.71.548a1.425 1.425 0 0 1 .258.99H1.239Z"/>
</svg>