<svg xmlns="http://www.w3.org/2000/svg" width="16" height="16" fill="currentColor" class="qi-1101" viewBox="0 0 16 16">
  <path d="M1.646 11.691a19.051 19.051 0 0 0 2.964.241 9.807 9.807 0 0 0 3.037-.407 8.071 8.071 0 0 1 6.24.122.7.7 0 1 0 .694-1.214 7.31 7.31 0 0 0-2.32-.722l.427-2.411 1.5.267a.357.357 0 0 0 .33-.588l-4.49-5.056A1.009 1.009 0 0 0 8.8 1.7L2.74 4.877a.356.356 0 0 0 .1.667l1.507.27-.814 4.679c-.939-.062-1.636-.179-1.651-.181a.7.7 0 0 0-.239 1.379zM7.2 10.2a5.9 5.9 0 0 1-1.072.238L6.406 8.8a.6.6 0 0 1 .7-.492l2.136.381a.6.6 0 0 1 .488.7l-.047.265A11.549 11.549 0 0 0 7.2 10.2zm7.382 2.893a9.4 9.4 0 0 0-7.382-.234 13.77 13.77 0 0 1-5.314.113.7.7 0 0 0-.24 1.379 19.223 19.223 0 0 0 2.967.241 9.848 9.848 0 0 0 3.034-.406 8.057 8.057 0 0 1 6.239.122.7.7 0 1 0 .7-1.215z"/>
</svg>