<svg xmlns="http://www.w3.org/2000/svg" width="16" height="16" fill="currentColor" class="qi-1204" viewBox="0 0 16 16">
  <path d="M5.827 14.963a3.43 3.43 0 0 0 .516-.374c.055-.05.108-.098.157-.145.05.047.102.096.158.144.16.14.356.29.573.407.214.115.48.216.77.216.29 0 .555-.1.768-.216a3.23 3.23 0 0 0 .574-.406c.055-.05.108-.098.157-.145.05.047.102.096.158.144.16.14.356.29.573.407.213.115.48.216.77.216.29 0 .555-.1.768-.216a3.281 3.281 0 0 0 .731-.551c.05.047.102.096.158.144.16.14.356.29.573.407.213.115.48.216.77.216.436 0 .843-.11 1.189-.34.346-.23.604-.564.772-.967a.5.5 0 0 0-.923-.385 1.118 1.118 0 0 1-.404.52c-.16.107-.368.172-.635.172a.663.663 0 0 1-.294-.096c-.13-.07-.265-.17-.391-.28a3.87 3.87 0 0 1-.419-.43l-.005-.005-.39-.491-.392.49v.001l-.005.006-.011.014-.01.011a3.604 3.604 0 0 1-.397.403c-.127.11-.262.21-.392.281a.663.663 0 0 1-.294.096.663.663 0 0 1-.294-.096c-.13-.07-.265-.17-.391-.28a3.87 3.87 0 0 1-.419-.43l-.005-.005-.39-.491-.392.49v.001l-.005.006a1.942 1.942 0 0 1-.108.124 3.868 3.868 0 0 1-.31.304 2.24 2.24 0 0 1-.392.281.663.663 0 0 1-.294.096.663.663 0 0 1-.294-.096 2.24 2.24 0 0 1-.391-.28 3.87 3.87 0 0 1-.419-.43l-.005-.005-.39-.491-.392.49-.005.007a1.942 1.942 0 0 1-.108.124 3.868 3.868 0 0 1-.351.34l.182 1.093Zm-.515-3.092c.168-.04.323-.106.457-.179a3.23 3.23 0 0 0 .574-.406l.157-.144c.05.046.102.095.158.144.16.14.356.29.573.406.214.115.48.217.77.217.29 0 .555-.102.768-.217a3.23 3.23 0 0 0 .574-.406l.157-.144c.05.046.102.095.158.144.16.14.356.29.573.406.213.115.48.217.77.217.29 0 .555-.102.768-.217.217-.117.413-.267.574-.406.056-.05.108-.098.157-.144.05.046.102.095.158.144.16.14.356.29.573.406.213.115.48.217.77.217.436 0 .843-.11 1.189-.34a2.12 2.12 0 0 0 .772-.968.5.5 0 1 0-.923-.385 1.118 1.118 0 0 1-.404.52c-.16.107-.368.173-.635.173a.664.664 0 0 1-.294-.097c-.13-.07-.265-.17-.391-.28a3.87 3.87 0 0 1-.419-.43l-.005-.005-.39-.491-.392.49v.001l-.005.006a1.975 1.975 0 0 1-.108.125 3.87 3.87 0 0 1-.31.304 2.26 2.26 0 0 1-.392.28.664.664 0 0 1-.294.097.664.664 0 0 1-.294-.097c-.13-.07-.265-.17-.391-.28a3.87 3.87 0 0 1-.419-.43l-.005-.005-.39-.491-.392.49v.001l-.005.006a2.643 2.643 0 0 1-.108.125 3.867 3.867 0 0 1-.31.304 2.24 2.24 0 0 1-.392.28.664.664 0 0 1-.294.097.664.664 0 0 1-.294-.097 2.24 2.24 0 0 1-.391-.28 3.87 3.87 0 0 1-.419-.43l-.005-.005-.39-.491-.392.49-.005.007a2.643 2.643 0 0 1-.108.125 3.867 3.867 0 0 1-.31.304 2.24 2.24 0 0 1-.392.28 1.04 1.04 0 0 1-.147.067l.165.992Zm-.546-3.276a1.638 1.638 0 0 0 1.003-.205c.217-.118.413-.268.574-.407.055-.049.108-.097.157-.144.05.047.102.095.158.144.16.14.356.29.573.406.214.116.48.217.77.217.29 0 .555-.101.768-.217.217-.117.413-.267.574-.406.055-.049.108-.097.157-.144.05.047.102.095.158.144.16.14.356.29.573.406.213.116.48.217.77.217.29 0 .555-.101.768-.217.217-.117.413-.267.574-.406.056-.049.108-.097.157-.144.05.047.102.095.158.144.16.14.356.29.573.406.213.116.48.217.77.217.436 0 .843-.11 1.189-.34a2.12 2.12 0 0 0 .772-.968.5.5 0 1 0-.923-.385 1.118 1.118 0 0 1-.404.52c-.16.107-.368.173-.635.173a.664.664 0 0 1-.294-.096 2.24 2.24 0 0 1-.391-.281 3.878 3.878 0 0 1-.419-.429l-.005-.005v-.001l-.39-.491-.392.49v.002l-.005.005a3.684 3.684 0 0 1-.419.429 2.24 2.24 0 0 1-.391.28.664.664 0 0 1-.294.097.664.664 0 0 1-.294-.096 2.24 2.24 0 0 1-.391-.281 3.878 3.878 0 0 1-.419-.429l-.005-.005v-.001l-.39-.491-.392.49v.002l-.005.005a2.333 2.333 0 0 1-.108.125 3.876 3.876 0 0 1-.31.304 2.24 2.24 0 0 1-.392.28.664.664 0 0 1-.294.097.664.664 0 0 1-.294-.096 2.24 2.24 0 0 1-.391-.281 3.879 3.879 0 0 1-.419-.429l-.005-.005v-.001l-.39-.491-.392.491-.005.006a2.333 2.333 0 0 1-.108.125 3.876 3.876 0 0 1-.31.304 2.24 2.24 0 0 1-.392.28.664.664 0 0 1-.294.097 1.3 1.3 0 0 1-.41-.062l.176 1.05ZM4.193 5.16c.25.096.523.143.807.143.29 0 .556-.101.77-.216a3.368 3.368 0 0 0 .73-.551c.05.047.102.095.158.144.16.14.356.29.573.407.214.115.48.216.77.216.29 0 .555-.101.768-.216.217-.118.413-.268.574-.407.055-.049.108-.097.157-.144.05.047.102.095.158.144.16.14.356.29.573.407.213.115.48.216.77.216.29 0 .555-.101.768-.216.217-.118.413-.268.574-.407.056-.049.108-.097.157-.144.05.047.102.095.158.144.16.14.356.29.573.407.213.115.48.216.77.216.436 0 .843-.11 1.189-.34a2.12 2.12 0 0 0 .772-.968.5.5 0 1 0-.923-.384 1.118 1.118 0 0 1-.404.52c-.16.106-.368.172-.635.172a.664.664 0 0 1-.294-.096 2.24 2.24 0 0 1-.391-.281 3.878 3.878 0 0 1-.419-.429l-.005-.005V3.49L12.5 3l-.392.49v.002l-.005.005a3.67 3.67 0 0 1-.419.429 2.24 2.24 0 0 1-.391.28.664.664 0 0 1-.294.097.664.664 0 0 1-.294-.096 2.24 2.24 0 0 1-.391-.281 3.878 3.878 0 0 1-.419-.429l-.005-.005V3.49L9.5 3l-.392.49v.002l-.005.005a2.22 2.22 0 0 1-.108.125 3.876 3.876 0 0 1-.31.304 2.24 2.24 0 0 1-.392.28.664.664 0 0 1-.294.097.664.664 0 0 1-.294-.096 2.24 2.24 0 0 1-.391-.281 3.879 3.879 0 0 1-.419-.429l-.005-.005V3.49L6.5 3l-.392.491-.005.006a2.22 2.22 0 0 1-.108.125 3.876 3.876 0 0 1-.31.304 2.24 2.24 0 0 1-.392.28.664.664 0 0 1-.294.097c-.267 0-.475-.066-.635-.172-.16-.107-.3-.274-.403-.52a.504.504 0 0 0-.04-.076l.271 1.625Z"/>
  <path d="M2.653 2 4.82 15H1V2h1.653Zm.986-.164A1 1 0 0 0 2.653 1H0v15h6L3.64 1.836Z"/>
</svg>