<svg xmlns="http://www.w3.org/2000/svg" width="16" height="16" fill="currentColor" class="qi-1205" viewBox="0 0 16 16">
  <path d="M10.833 11c1.809-.038 2.828.07 4.594.485a.47.47 0 0 0 .562-.377.497.497 0 0 0-.357-.593c-1.84-.432-2.934-.548-4.818-.508-1.174.025-2.072.274-2.922.51l-.012.003c-.852.236-1.657.458-2.713.48-1.809.038-2.828-.07-4.594-.485a.47.47 0 0 0-.562.377.497.497 0 0 0 .357.593c1.84.432 2.934.548 4.818.508 1.174-.025 2.072-.274 2.922-.51l.012-.003c.852-.236 1.657-.458 2.713-.48Zm4.594 2.485c-1.766-.416-2.785-.523-4.594-.485-1.056.022-1.861.244-2.713.48l-.012.003c-.85.236-1.748.485-2.922.51-1.884.04-2.978-.076-4.818-.508a.497.497 0 0 1-.357-.593.47.47 0 0 1 .562-.377c1.766.416 2.785.523 4.594.485 1.056-.022 1.861-.244 2.713-.48l.012-.003c.85-.236 1.748-.485 2.922-.51 1.884-.04 2.978.076 4.818.508.253.06.413.325.357.593a.47.47 0 0 1-.562.377Zm0 2c-1.766-.416-2.785-.523-4.594-.485-1.056.022-1.861.244-2.713.48l-.012.003c-.85.236-1.748.485-2.922.51-1.884.04-2.978-.076-4.818-.508a.497.497 0 0 1-.357-.593.47.47 0 0 1 .562-.377c1.766.416 2.785.523 4.594.485 1.056-.022 1.861-.244 2.713-.48l.012-.003c.85-.236 1.748-.485 2.922-.51 1.884-.04 2.978.076 4.818.508.253.06.413.325.357.593a.47.47 0 0 1-.562.377ZM7.86 2.706a.35.35 0 0 1 .675.18l-.14.526.525-.14a.35.35 0 0 1 .181.675l-.525.141.384.385a.35.35 0 1 1-.495.495l-.384-.385-.141.525a.35.35 0 0 1-.676-.18l.14-.526-.525.14a.35.35 0 0 1-.18-.675l.524-.141-.384-.385a.35.35 0 0 1 .495-.495l.384.385.141-.525Z"/>
  <path d="M8.793 1.077 10.72 3.01a.264.264 0 0 1 .068.255l-.708 2.643a.264.264 0 0 1-.187.186l-2.635.71a.258.258 0 0 1-.254-.068L5.077 4.803a.264.264 0 0 1-.068-.254l.708-2.643a.264.264 0 0 1 .186-.187l2.636-.71a.26.26 0 0 1 .254.068ZM7.269 6.255l2.342-.63.63-2.35-1.713-1.717-2.342.632-.63 2.348L7.27 6.255Zm4.961.618a.35.35 0 0 1 .657-.239l.186.511.35-.417a.35.35 0 0 1 .536.45l-.35.417.536.094a.35.35 0 0 1-.122.69l-.535-.095.186.511a.35.35 0 0 1-.658.24l-.186-.511-.35.416a.35.35 0 0 1-.536-.45l.35-.416-.536-.095a.35.35 0 0 1 .122-.689l.535.094-.186-.51Z"/>
  <path d="m12.06 5.004 2.687.478a.264.264 0 0 1 .202.17l.936 2.57a.265.265 0 0 1-.046.26l-1.476 1.765c-1.133-.206-2.076-.266-3.416-.242l-.931-2.558a.264.264 0 0 1 .045-.26l1.752-2.093a.26.26 0 0 1 .247-.09Zm1.722 5.116 1.556-1.86-.831-2.286-2.388-.424-1.556 1.86.83 2.285 2.39.425ZM3.126 7a.35.35 0 0 0-.35.35v.544l-.47-.272a.35.35 0 0 0-.35.606l.47.272-.47.272a.35.35 0 0 0 .35.606l.47-.272v.544a.35.35 0 1 0 .7 0v-.544l.47.272a.35.35 0 0 0 .35-.606l-.47-.272.47-.272a.35.35 0 0 0-.35-.606l-.47.272V7.35a.35.35 0 0 0-.35-.35Z"/>
  <path d="m4.054 11.002 1.564-.906a.264.264 0 0 0 .132-.228V7.132a.264.264 0 0 0-.132-.228L3.256 5.536a.26.26 0 0 0-.263 0L.632 6.904a.264.264 0 0 0-.132.228v2.736c0 .094.05.181.132.228l1.173.68c.774.14 1.451.208 2.25.226Zm-.929-.07L1.026 9.716V7.285l2.099-1.216 2.099 1.215v2.432l-2.099 1.216Z"/>
</svg>