<svg xmlns="http://www.w3.org/2000/svg" width="16" height="16" fill="currentColor" class="qi-1212" viewBox="0 0 16 16">
  <path d="M2.96 1.302c-.213-.294-.672-.39-1.027-.213-.354.177-.469.559-.256.853l2.647 3.67a.18.18 0 0 1-.014.23l-2.254 2.5c-.365.405-.45.939-.224 1.41l1.55 3.22c-.895-.058-1.706-.197-2.809-.457a.47.47 0 0 0-.562.377.497.497 0 0 0 .357.593c1.84.432 2.934.548 4.818.508 1.174-.025 2.072-.274 2.922-.51l.012-.003c.852-.236 1.657-.458 2.713-.48 1.809-.038 2.828.07 4.594.485a.47.47 0 0 0 .562-.377.497.497 0 0 0-.357-.593c-.965-.226-1.724-.366-2.5-.442l-1.34-2.784a.18.18 0 0 1 .032-.201l2.254-2.499c.426-.472.466-1.112.1-1.618l-2.647-3.669c-.213-.294-.672-.39-1.026-.213-.355.177-.47.559-.257.853l2.647 3.67a.18.18 0 0 1-.014.23l-2.254 2.5c-.365.405-.45.939-.224 1.41L11.485 12c-.213 0-.436.002-.67.007a9.212 9.212 0 0 0-1.885.24L7.507 9.29a.18.18 0 0 1 .032-.201L9.792 6.59c.426-.472.466-1.112.1-1.618l-2.646-3.67c-.212-.294-.672-.39-1.026-.213-.354.177-.47.559-.257.853l2.648 3.67a.18.18 0 0 1-.015.23l-2.253 2.5c-.366.405-.45.939-.224 1.41L7.5 12.623c-.719.194-1.435.357-2.333.376l-.16.003L3.221 9.29a.18.18 0 0 1 .032-.201L5.507 6.59c.425-.472.465-1.112.1-1.618L2.96 1.302Zm12.467 14.183c-1.766-.416-2.785-.523-4.594-.485-1.056.022-1.861.244-2.713.48l-.012.003c-.85.236-1.748.485-2.922.51-1.884.04-2.978-.076-4.818-.508a.497.497 0 0 1-.357-.593.47.47 0 0 1 .562-.377c1.766.416 2.785.523 4.594.485 1.056-.022 1.861-.244 2.713-.48l.012-.003c.85-.236 1.748-.485 2.922-.51 1.884-.04 2.978.076 4.818.508.253.06.413.325.357.593a.47.47 0 0 1-.562.377Z"/>
</svg>