<svg xmlns="http://www.w3.org/2000/svg" width="16" height="16" fill="currentColor" class="qi-1215" viewBox="0 0 16 16">
  <path d="M12.031 1.421C11.591 1.87 11 2.633 11 3.5 11 4.88 12.5 6 12.5 6S14 4.88 14 3.5c0-.61-.292-1.168-.619-1.602C12.863.594 11.724 0 10.586 0h-.08C9.292 0 8.08.727 7.515 2.101c-.082-.162-.243-.323-.405-.485A2.822 2.822 0 0 0 5.17.808c-1.173 0-2.413.732-2.632 2.137-.192.306-.34.668-.34 1.055.001 1.105 1.201 2 1.201 2s1.2-.895 1.2-2c0-.745-.547-1.396-.902-1.74.364-.435.934-.644 1.474-.644.565 0 1.05.162 1.374.566.404.404.646.97.646 1.697V8H3.313l1.455 2.182 2.505.242 1.535 3.313-.727.324-1.374-2.91-2.02-.161-1.293 1.858.97 2.182-.728.324-.97-2.101L0 14.14V16h10.424l2.425-2.99-1.697-1.131-1.617.404-.161-.808 1.616-.404L11.879 8H8V3.879C8 1.778 9.293.809 10.505.809c.552 0 1.103.2 1.526.612Z"/>
  <path d="m4.04 10.505-1.293 1.94L0 13.332V8h2.343l1.697 2.505ZM12.687 8l-.97 3.232 1.94 1.374.97.808-.486.647-.646-.485L11.5 16H16V8.08C14.95 8 13.818 8 12.687 8Z"/>
</svg>