<svg xmlns="http://www.w3.org/2000/svg" width="16" height="16" fill="currentColor" class="qi-1218" viewBox="0 0 16 16">
  <path d="M7.004 5.996C6.953 5.461 7.414 5 8 5c.587 0 1.047.46.996.996l-.45 4.704H7.454l-.45-4.704ZM8.75 12.25a.75.75 0 1 1-1.5 0 .75.75 0 0 1 1.5 0Z"/>
  <path d="M7.545 1.261a.526.526 0 0 1 .91 0l7.475 12.963a.519.519 0 0 1-.454.776H.524a.519.519 0 0 1-.454-.776L7.545 1.26ZM14.301 13.8 8 2.875 1.7 13.8h12.6ZM11.493.81a.4.4 0 0 1 .48-.3c1.306.303 2.367 1.03 2.976 2.084.609 1.055.708 2.337.317 3.619a.4.4 0 1 1-.765-.233c.336-1.103.237-2.15-.245-2.986-.482-.835-1.34-1.444-2.463-1.704a.4.4 0 0 1-.3-.48Zm-.52 1.213a.4.4 0 0 1 .492-.278c.947.262 1.717.819 2.172 1.607.455.787.552 1.733.306 2.684a.4.4 0 0 1-.775-.2c.201-.777.112-1.502-.224-2.084-.336-.583-.92-1.022-1.693-1.237a.4.4 0 0 1-.279-.492Zm-.568 1.322a.4.4 0 0 1 .508-.25c.574.196 1.045.56 1.334 1.06.288.5.368 1.089.25 1.684a.4.4 0 0 1-.784-.155c.084-.428.022-.817-.16-1.13-.18-.313-.485-.561-.898-.702a.4.4 0 0 1-.25-.507Z"/>
</svg>