<svg xmlns="http://www.w3.org/2000/svg" width="16" height="16" fill="currentColor" class="qi-1219" viewBox="0 0 16 16">
  <path d="M10.833 13c1.809-.038 2.828.07 4.594.485a.47.47 0 0 0 .562-.377.497.497 0 0 0-.357-.593c-1.84-.432-2.934-.548-4.818-.508-1.174.025-2.072.274-2.922.51l-.012.003c-.852.236-1.657.458-2.713.48-1.809.038-2.828-.07-4.594-.485a.47.47 0 0 0-.562.377.497.497 0 0 0 .357.593c1.84.432 2.934.548 4.818.508 1.174-.025 2.072-.274 2.922-.51l.012-.003c.852-.236 1.657-.458 2.713-.48Zm0 2c1.809-.038 2.828.07 4.594.485a.47.47 0 0 0 .562-.377.497.497 0 0 0-.357-.593c-1.84-.432-2.934-.548-4.818-.508-1.174.025-2.072.274-2.922.51l-.012.003c-.852.236-1.657.458-2.713.48-1.809.038-2.828-.07-4.594-.485a.47.47 0 0 0-.562.377.497.497 0 0 0 .357.593c1.84.432 2.934.547 4.818.508 1.174-.025 2.072-.274 2.922-.51l.012-.003c.852-.236 1.657-.458 2.713-.48ZM10 1l1.01 6.211 2.245-2.872 2.245 4.79v2.102c-1.76-.407-2.847-.516-4.686-.477-1.174.024-2.072.273-2.922.509l-.012.003c-.852.236-1.657.458-2.713.48-1.809.039-2.828-.069-4.594-.484A.465.465 0 0 0 .5 11.25v-1.17l3.262-4.64 2.295 2.938L10 1Zm-7.89.421c-.02-.176.16-.327.39-.327s.41.151.39.327L2.712 2.97h-.426L2.11 1.42Zm.705 2.173a.312.312 0 1 1-.625 0 .312.312 0 0 1 .625 0Z"/>
  <path d="M0 2.5a2.5 2.5 0 1 0 5 0 2.5 2.5 0 0 0-5 0Zm4.594 0a2.094 2.094 0 1 1-4.188 0 2.094 2.094 0 0 1 4.188 0Z"/>
</svg>