<svg xmlns="http://www.w3.org/2000/svg" width="16" height="16" fill="currentColor" class="qi-1241" viewBox="0 0 16 16">
  <path d="m.421 16 8-16v3.2l1.263 2.133L8.421 6.4l-.842 3.2.842 1.067-.842 2.666 2.105 1.6.842 1.067H.421Z"/>
  <path d="M13.164 4.19a.197.197 0 0 1 .329.087l1.45 5.421a.195.195 0 0 1-.24.237l-5.416-1.45a.195.195 0 0 1-.09-.326l3.967-3.97Zm-.15 1.216c-.266-.07-.521.049-.553.26l-.277 1.848.495.132.684-1.739c.078-.198-.083-.43-.35-.5Zm-.87 3.261a.375.375 0 1 0 .193-.724.375.375 0 0 0-.194.724Zm-1.618-4.4-.42-2.134 1.683 2.134h-1.263Zm2.527 5.866-.842 1.6 1.684 1.067-.842-2.667Zm-3.369 3.734.842-1.6 2.948 2.133-2.106 1.067-1.684-1.6Zm5.053.533.842-1.067.421 2.134-1.263-1.067Z"/>
</svg>