<svg xmlns="http://www.w3.org/2000/svg" width="16" height="16" fill="currentColor" class="qi-1244" viewBox="0 0 16 16">
  <path d="M5.837.443A.21.21 0 0 0 5.5.353L3.19 2.381a.21.21 0 0 0 .085.36l.381.102-1.532 1.429a.21.21 0 0 0 .089.356l.343.092-1.492 1.442a.21.21 0 0 0 .092.354l1.595.427L2.334 8.5H0V16h16V8.5h-3.268l-1.27 1.907.5 2-.73 1.093H7.39l-.426-1.705-.912-1.369.642-1.926H4.505l.272-1.013 1.74.466a.21.21 0 0 0 .256-.26l-.57-1.995.343.092a.21.21 0 0 0 .255-.264l-.613-2.003.381.102a.21.21 0 0 0 .253-.27L5.837.443Z"/>
  <path d="M8.5 13a.5.5 0 1 0 0-1 .5.5 0 0 0 0 1Zm2.5-3a1 1 0 1 1-2 0 1 1 0 0 1 2 0Z"/>
</svg>