<svg xmlns="http://www.w3.org/2000/svg" width="16" height="16" fill="currentColor" class="qi-1246" viewBox="0 0 16 16">
  <path d="M6.45.052a.21.21 0 0 1 .337.09l.985 2.913a.21.21 0 0 1-.253.27l-.38-.102.612 2.003a.21.21 0 0 1-.255.264l-.344-.092.571 1.995a.21.21 0 0 1-.256.26l-1.74-.466-.287 1.071h2.015v.459l.918.917c.23.23.344.344.344.46 0 .114-.115.229-.344.458-.284.284-.217.392-.124.542.057.092.124.2.124.376 0 .229.23.344.459.458.229.115.458.23.458.46 0 .366-.306.764-.458.917v.917c0 .367.305.459.458.459H0V8.258h3.268l.433-1.614-1.596-.427a.21.21 0 0 1-.091-.354l1.492-1.442-.344-.092a.21.21 0 0 1-.088-.356l1.532-1.429-.381-.102a.21.21 0 0 1-.085-.36L6.45.052ZM16 9.5v6.423h-5.079c-.135 0-.407-.092-.407-.459v-.917c.136-.153.408-.55.408-.918 0-.23-.204-.344-.408-.459-.204-.114-.408-.23-.408-.459a.713.713 0 0 0-.11-.376c-.083-.15-.142-.258.11-.541.204-.23.306-.344.306-.459 0-.115-.102-.23-.306-.459L9.29 9.96V9.5H16Z"/>
</svg>