<svg xmlns="http://www.w3.org/2000/svg" width="16" height="16" fill="currentColor" class="qi-1247" viewBox="0 0 16 16">
  <path d="M6.37 8.637c-.483-.483-3.033-3.515-3.033-3.515l2.964 1.723-1.379-4.618L7.06 6.569 8.093 0l.344 6.5 1.585-5.376L9.816 6.5l1.93-2.757-1.517 4.136 1.93-1.034s-1.654 2.067-2.068 2.343c-.413.276-1.31.62-1.998.483-.62-.07-1.31-.552-1.723-1.034Z"/>
  <path d="M7.955 10.566C6.852 10.43 6.3 9.326 6.3 9.326S4.962 12.07 0 16h16c-4.962-3.446-6.115-5.985-6.115-5.985s-.827.69-1.93.551ZM5.75 1.5a.75.75 0 1 0 0-1.5.75.75 0 0 0 0 1.5ZM3.286 3.929a.5.5 0 1 1-1 0 .5.5 0 0 1 1 0Zm10.285 2.285a.5.5 0 1 1-1 0 .5.5 0 0 1 1 0ZM14 3a1 1 0 1 1-2 0 1 1 0 0 1 2 0Z"/>
</svg>