<svg xmlns="http://www.w3.org/2000/svg" width="16" height="16" fill="currentColor" class="qi-1271" viewBox="0 0 16 16">
  <path d="M9.085 1.504V1.5A1.5 1.5 0 0 0 6.4.583a1 1 0 0 0-1.395 1.004A1.5 1.5 0 0 0 3 3v.009a1 1 0 0 0-.653 1.608.75.75 0 0 0 .155 1.34.5.5 0 1 0 .872-.29.747.747 0 0 0 .065-.714 1.01 1.01 0 0 0 .6-.525 1.499 1.499 0 0 0 1.774-.702.997.997 0 0 0 1.243.105A1 1 0 0 0 9 3.5a1 1 0 0 0 .085-1.996ZM2 7h2v4.91l12-2V16H0v-3.424l2-.333V7Zm13 4.09L1 13.424V15h14v-3.91ZM10 14H9v-1h1v1Zm2 0h-1v-1h1v1Zm2 0h-1v-1h1v1Z"/>
  <path d="M12.17 4.473a.197.197 0 0 0-.34 0l-2.804 4.86c-.075.13.02.292.17.292h5.607a.194.194 0 0 0 .17-.291L12.17 4.473Zm-.637 1.608c-.024-.212.192-.394.467-.394s.491.182.467.394l-.211 1.856h-.512l-.21-1.856Zm.845 2.606a.375.375 0 1 1-.75 0 .375.375 0 0 1 .75 0Z"/>
</svg>