<svg xmlns="http://www.w3.org/2000/svg" width="16" height="16" fill="currentColor" class="qi-1272" viewBox="0 0 16 16">
  <path d="M9.085 1.5v.004a1 1 0 0 1 .912 1.08l.007.003a1 1 0 0 1 1.395-1.004 1.5 1.5 0 0 1 2.687.917v.004A1 1 0 0 1 14 4.5a1 1 0 0 1-1.944.331.996.996 0 0 1-1.243-.105 1.5 1.5 0 0 1-1.775.702c-.118.248-.334.44-.6.525a.747.747 0 0 1-.065.714.5.5 0 1 1-.872.29.75.75 0 0 1-.154-1.34.996.996 0 0 1 .064-1.308 1.003 1.003 0 0 1-.355-.478.995.995 0 0 1-1.243-.105 1.5 1.5 0 0 1-1.775.702c-.118.248-.334.44-.6.525a.747.747 0 0 1-.065.714.5.5 0 1 1-.872.29.75.75 0 0 1-.154-1.34A1 1 0 0 1 3 3.01V3a1.5 1.5 0 0 1 2.004-1.413A1 1 0 0 1 6.399.583a1.5 1.5 0 0 1 2.687.917ZM2 7h2v4.91l3-.5V8h2v3.076l7-1.166V16H0v-3.424l2-.333V7Zm13 4.09L1 13.424V15h14v-3.91ZM10 14H9v-1h1v1Zm2 0h-1v-1h1v1Zm2 0h-1v-1h1v1Z"/>
</svg>