<svg xmlns="http://www.w3.org/2000/svg" width="16" height="16" fill="currentColor" class="qi-1273" viewBox="0 0 16 16">
  <path d="M9.085 1.504V1.5A1.5 1.5 0 0 0 6.4.583a1 1 0 0 0-1.395 1.004A1.5 1.5 0 0 0 3 3v.009a1 1 0 0 0-.653 1.608.75.75 0 0 0 .155 1.34.5.5 0 1 0 .872-.29.747.747 0 0 0 .065-.714 1.01 1.01 0 0 0 .6-.525 1.499 1.499 0 0 0 1.774-.702.997.997 0 0 0 1.243.105A1 1 0 0 0 9 3.5a1 1 0 0 0 .085-1.996ZM11 4.5a.5.5 0 1 1-1 0 .5.5 0 0 1 1 0Zm0-3a.5.5 0 1 0 0-1 .5.5 0 0 0 0 1Zm-8 0a.5.5 0 1 1-1 0 .5.5 0 0 1 1 0Z"/>
  <path d="M6.5 6a.5.5 0 1 0 0-1 .5.5 0 0 0 0 1ZM2 7h2v4.91l12-2V16H0v-3.424l2-.333V7Zm13 4.09L1 13.424V15h14v-3.91ZM10 14H9v-1h1v1Zm2 0h-1v-1h1v1Zm2 0h-1v-1h1v1Z"/>
</svg>