<svg xmlns="http://www.w3.org/2000/svg" width="16" height="16" fill="currentColor" class="qi-1302" viewBox="0 0 16 16">
  <path d="M10.378 1.947 7.677 3.769l.059 4.446 1.128.179-3.916 6.617H16L10.378 1.947zm-1.629.229a.744.744 0 1 0-1.038.168.743.743 0 0 0 1.038-.168zm-2.794 8.063a.744.744 0 1 0-1.038.168.744.744 0 0 0 1.038-.168zm.901-6.323a1.037 1.037 0 1 0-1.447.234 1.036 1.036 0 0 0 1.447-.234zm-.69 3.535a1.418 1.418 0 1 0-1.979.32 1.417 1.417 0 0 0 1.979-.32zm-2.211 3.487a1.871 1.871 0 1 0 .421 2.613 1.873 1.873 0 0 0-.421-2.613z"/>
</svg>