<svg xmlns="http://www.w3.org/2000/svg" width="16" height="16" fill="currentColor" class="qi-1402" viewBox="0 0 16 16">
  <path d="M13.782 5.158a.562.562 0 0 0-.093-1.044l-8.6-2.465h-.01l-.05-.015v.01a.694.694 0 0 0-.809.48L.944 13.287a.7.7 0 0 0 .475.869.676.676 0 0 0 .2.029.7.7 0 0 0 .672-.5l.981-3.347zm1.377 3.777-3.785-1.086c-.01 0-.018-.012-.029-.015s-.023 0-.035 0l-.042-.012v.008a.692.692 0 0 0-.79.482L9.213 12.6a.7.7 0 0 0 .474.869.717.717 0 0 0 .2.028.7.7 0 0 0 .671-.5l.449-1.528L15.2 9.4a.252.252 0 0 0-.041-.465z"/>
</svg>