<svg xmlns="http://www.w3.org/2000/svg" width="16" height="16" fill="currentColor" class="qi-1603" viewBox="0 0 16 16">
  <path d="m14.183 3.286-1.438.816-6.302 10.909h9.119L14.183 3.286z"/>
  <path d="M12.232 5.903 9.153 7.186l-4.865 7.825h7.809l.135-9.108z"/>
  <path d="M9.149 8.653 4.566 9.809.903 15.011h7.809l.437-6.358zm1.956-2.84a.713.713 0 1 0-1 .16.713.713 0 0 0 1-.16z"/>
  <path d="M5.63 9.863a.825.825 0 1 0-1.151.186.825.825 0 0 0 1.151-.186zM3.835 7.438a.913.913 0 1 0-1.275.206.913.913 0 0 0 1.275-.206zm8.678-4.778a1.15 1.15 0 1 0-1.605.259 1.15 1.15 0 0 0 1.605-.259zm-4.239.906a1.15 1.15 0 1 0-1.606.259 1.15 1.15 0 0 0 1.606-.259zm-.084 4.16A1.573 1.573 0 1 0 6 8.081a1.571 1.571 0 0 0 2.19-.355zm-5.784 4.602a1.313 1.313 0 1 0 .3 1.833 1.313 1.313 0 0 0-.3-1.833z"/>
</svg>