<svg xmlns="http://www.w3.org/2000/svg" width="16" height="16" fill="currentColor" class="qi-1608" viewBox="0 0 16 16">
  <path d="M12.487.349 9.948 6.18l2.398.49-6.463 6.183 2.537-5.83-2.397-.493L12.487.35Z"/>
  <path d="m4 2-.423 6.346L6 8l-4 8 .423-6.346L0 10l4-8Zm8.699 7.552a.23.23 0 0 0-.398 0l-3.27 5.67a.227.227 0 0 0 .198.34h6.542a.227.227 0 0 0 .198-.34l-3.27-5.67Zm-.744 1.876c-.028-.247.224-.46.545-.46.32 0 .573.213.545.46l-.246 2.166H12.2l-.246-2.166Zm.986 3.04a.438.438 0 1 1-.875 0 .438.438 0 0 1 .875 0Z"/>
</svg>