<svg xmlns="http://www.w3.org/2000/svg" width="16" height="16" fill="currentColor" class="qi-2004" viewBox="0 0 16 16">
  <path d="M.084 9.283a.5.5 0 0 1 .693-.139l1.018.678a.5.5 0 0 0 .5.031l1.034-.517a1.5 1.5 0 0 1 1.342 0l1.105.553a.5.5 0 0 0 .448 0l1.105-.553a1.5 1.5 0 0 1 1.342 0l1.105.553a.5.5 0 0 0 .448 0l1.105-.553a1.5 1.5 0 0 1 1.342 0l1.034.517a.5.5 0 0 0 .5-.03l1.018-.679a.5.5 0 0 1 .554.832l-1.017.678a1.5 1.5 0 0 1-1.503.094l-1.033-.517a.5.5 0 0 0-.448 0l-1.105.553a1.5 1.5 0 0 1-1.342 0l-1.105-.553a.5.5 0 0 0-.448 0l-1.105.553a1.5 1.5 0 0 1-1.342 0l-1.105-.553a.5.5 0 0 0-.448 0l-1.033.517a1.5 1.5 0 0 1-1.503-.094L.223 9.976a.5.5 0 0 1-.139-.693Zm0 2.5a.5.5 0 0 1 .693-.139l1.018.678a.5.5 0 0 0 .5.031l1.034-.517a1.5 1.5 0 0 1 1.342 0l1.105.553a.5.5 0 0 0 .448 0l1.105-.553a1.5 1.5 0 0 1 1.342 0l1.105.553a.5.5 0 0 0 .448 0l1.105-.553a1.5 1.5 0 0 1 1.342 0l1.034.517a.5.5 0 0 0 .5-.03l1.018-.679a.5.5 0 1 1 .554.832l-1.017.678a1.5 1.5 0 0 1-1.503.094l-1.033-.517a.5.5 0 0 0-.448 0l-1.105.553a1.5 1.5 0 0 1-1.342 0l-1.105-.553a.5.5 0 0 0-.448 0l-1.105.553a1.5 1.5 0 0 1-1.342 0l-1.105-.553a.5.5 0 0 0-.448 0l-1.033.517a1.5 1.5 0 0 1-1.503-.094l-1.017-.678a.5.5 0 0 1-.139-.693Zm.693 2.361a.5.5 0 1 0-.554.832l1.017.678a1.5 1.5 0 0 0 1.503.094l1.033-.517a.5.5 0 0 1 .448 0l1.105.553a1.5 1.5 0 0 0 1.342 0l1.105-.553a.5.5 0 0 1 .448 0l1.105.553a1.5 1.5 0 0 0 1.342 0l1.105-.553a.5.5 0 0 1 .448 0l1.033.517a1.5 1.5 0 0 0 1.503-.094l1.017-.678a.5.5 0 1 0-.554-.832l-1.017.678a.5.5 0 0 1-.501.031l-1.034-.517a1.5 1.5 0 0 0-1.342 0l-1.105.553a.5.5 0 0 1-.448 0l-1.105-.553a1.5 1.5 0 0 0-1.342 0l-1.105.553a.5.5 0 0 1-.448 0l-1.105-.553a1.5 1.5 0 0 0-1.342 0l-1.034.517a.5.5 0 0 1-.5-.03l-1.018-.679ZM8.227.63a.263.263 0 0 0-.454 0L4.035 7.113a.26.26 0 0 0 .227.388h7.476a.26.26 0 0 0 .227-.388L8.227.63Zm-.85 2.144c-.032-.282.256-.524.623-.524s.655.242.623.524L8.34 5.25h-.68l-.282-2.476ZM8.504 6.25a.5.5 0 1 1-1 0 .5.5 0 0 1 1 0Z"/>
</svg>