<svg xmlns="http://www.w3.org/2000/svg" width="16" height="16" fill="currentColor" class="qi-2005" viewBox="0 0 16 16">
  <path d="M10.491 9.369a3.449 3.449 0 0 1-2.749-3.393A3.251 3.251 0 0 1 9.215 3.4L7.249.76a.3.3 0 0 0-.465 0l-2.5 3.35a.251.251 0 0 0 .232.391h1.153l-2.6 3.493a.362.362 0 0 0 .334.563h.717L1.367 12.1c-.257.33.017.774.478.774h4.408v1.757a.735.735 0 1 0 1.47 0v-1.76h4.409c.46 0 .734-.444.478-.774z"/>
  <path d="M14.243 3.147a1.467 1.467 0 0 0-1.126 1.545 4.048 4.048 0 0 1-.633-3.051c-2.116.825-1.624 3.2-1.687 3.923a2.687 2.687 0 0 1-.633-1.525 2.022 2.022 0 0 0-.844 1.743 2.706 2.706 0 0 0 2.774 2.705 2.653 2.653 0 0 0 2.711-2.7c0-.935-.64-1.242-.562-2.64z"/>
</svg>