<svg xmlns="http://www.w3.org/2000/svg" width="16" height="16" fill="currentColor" class="qi-2005" viewBox="0 0 16 16">
  <path d="M10.406 7.086c-.229-1.143.457-2.972 2.514-3.657 0 1.696.385 2.686.748 3.616.32.824.623 1.602.623 2.784A6.146 6.146 0 0 1 8.12 16c-3.429 0-6.4-2.514-6.4-6.171 0-1.6.686-3.429 2.057-4.115 0 0 .229 2.286 1.372 3.429.042-.337.037-.799.032-1.34C5.158 5.416 5.12 1.492 9.034 0c-.228 3.2-.228 5.257 1.372 7.086ZM9.05 11.1c-.7-.8-.7-1.7-.6-3.1-1.713.652-1.696 2.37-1.686 3.414.002.236.004.438-.014.586-.5-.5-.6-1.5-.6-1.5-.6.3-.9 1.1-.9 1.8 0 1.6 1.3 2.7 2.8 2.7 1.5 0 2.7-1.2 2.7-2.7 0-.517-.133-.857-.273-1.218-.158-.407-.327-.84-.327-1.582-.9.3-1.2 1.1-1.1 1.6Z"/>
</svg>