<svg xmlns="http://www.w3.org/2000/svg" width="16" height="16" fill="currentColor" class="qi-2008" viewBox="0 0 16 16">
  <path d="M7 4.863a.7.7 0 0 0-1.213.7l1 1.736h-2a.7.7 0 1 0 0 1.4h2l-1 1.737a.7.7 0 0 0 .257.956.691.691 0 0 0 .349.094.7.7 0 0 0 .607-.349L8 9.4l1 1.736a.7.7 0 0 0 .607.35.691.691 0 0 0 .349-.094.7.7 0 0 0 .257-.956l-1-1.737h2.005a.7.7 0 0 0 0-1.4H9.213l1-1.736A.7.7 0 0 0 9 4.863L8 6.6z"/>
  <path d="M14.649 3.743 8.35.1a.691.691 0 0 0-.7 0l-6.3 3.648a.7.7 0 0 0-.35.604v7.3a.7.7 0 0 0 .351.609l6.3 3.648a.692.692 0 0 0 .7 0l6.3-3.648a.7.7 0 0 0 .349-.613v-7.3a.7.7 0 0 0-.351-.605zm-1.052 7.5L8 14.484l-5.6-3.242V4.759L8 1.516l5.6 3.243z"/>
</svg>