<svg xmlns="http://www.w3.org/2000/svg" width="16" height="16" fill="currentColor" class="qi-2009" viewBox="0 0 16 16">
  <path d="M1.7 12.08h12.6a.7.7 0 0 0 .7-.7V3.543a.7.7 0 1 0-1.4 0v7.132H2.4V3.543a.7.7 0 1 0-1.4 0v7.834a.7.7 0 0 0 .7.703z"/>
  <path d="M4.14 6.273h2.647L5.463 8.566a.7.7 0 0 0 .257.956.691.691 0 0 0 .349.094.7.7 0 0 0 .607-.35L8 6.973l1.324 2.293a.7.7 0 0 0 .607.35.691.691 0 0 0 .349-.094.7.7 0 0 0 .257-.956L9.213 6.273h2.647a.7.7 0 1 0 0-1.4H9.212l1.325-2.294a.7.7 0 0 0-1.213-.7L8 4.173 6.676 1.88a.7.7 0 1 0-1.213.7l1.325 2.293H4.14a.7.7 0 1 0 0 1.4zm10.3 7.015H1.56a.7.7 0 1 0 0 1.4h12.88a.7.7 0 1 0 0-1.4z"/>
</svg>