<svg xmlns="http://www.w3.org/2000/svg" width="16" height="16" fill="currentColor" class="qi-2010" viewBox="0 0 16 16">
  <path d="M6.943 2.499a1 1 0 1 1-2 0 1 1 0 0 1 2 0Zm8.093 3.683a1 1 0 1 1-2 0 1 1 0 0 1 2 0Zm-11.19 7.847a1.308 1.308 0 1 0 0-2.616 1.308 1.308 0 0 0 0 2.616ZM9.308 3.36a.75.75 0 1 1-1.06 1.061.75.75 0 0 1 1.06-1.06Zm-1.886 8.144a.871.871 0 1 1 1.232 1.232.871.871 0 0 1-1.232-1.232Z"/>
  <path d="M12.817 4.107c0-1.716-1.305-3.112-2.908-3.112H8.696a.7.7 0 1 0 0 1.4h1.213c.831 0 1.507.768 1.507 1.712s-.676 1.712-1.507 1.712H1.686a.7.7 0 0 0 0 1.4H9.91c1.602.001 2.907-1.396 2.907-3.112Zm-1.351 4.516H2.635a.7.7 0 1 0 0 1.4h8.832c.921 0 1.67.809 1.67 1.804s-.749 1.805-1.67 1.805h-1.303a.7.7 0 1 0 0 1.4h1.303c1.693 0 3.071-1.438 3.071-3.205-.001-1.766-1.378-3.204-3.072-3.204Z"/>
</svg>