<svg xmlns="http://www.w3.org/2000/svg" width="16" height="16" fill="currentColor" class="qi-2015" viewBox="0 0 16 16">
  <path d="M13.975 4.9a2.931 2.931 0 0 0-1.751-1.13 3.037 3.037 0 0 0-2.858-2.762 2.976 2.976 0 0 0-2.695 1.8 2.874 2.874 0 0 0-2.24 1.635 2.212 2.212 0 0 0-2.353 1.185 1.707 1.707 0 0 0-1.207.131A1.626 1.626 0 0 0 0 7.173a1.647 1.647 0 0 0 1.08 1.51 1.777 1.777 0 0 0 1.468-.144 2.694 2.694 0 0 0 1.717.64 2.659 2.659 0 0 0 1.473-.451 4.08 4.08 0 0 0 .932.311l-1.184 1.839a.232.232 0 0 0 .2.344h1.56a.076.076 0 0 1 .073.1L6.246 15.01l4.511-4.793a.231.231 0 0 0-.168-.39H9.062A.076.076 0 0 1 9 9.71l.88-1.066a3.466 3.466 0 0 0 1.788.452 3.419 3.419 0 0 0 1.6-.449 2.005 2.005 0 0 0 1.582.056A1.955 1.955 0 0 0 16 6.83a2.154 2.154 0 0 0-2.025-1.93z"/>
  <path d="M4.949 11.437H3.915a.051.051 0 0 1-.043-.079l.983-1.191A.11.11 0 0 0 4.763 10H2.978a.187.187 0 0 0-.164.1l-1.322 2.049a.157.157 0 0 0 .137.233h1.057a.05.05 0 0 1 .049.065l-.728 2.5L5.063 11.7a.156.156 0 0 0-.114-.263zm9.261 0h-1.034a.051.051 0 0 1-.043-.079l.983-1.191a.111.111 0 0 0-.093-.17h-1.785a.186.186 0 0 0-.163.1l-1.322 2.055a.157.157 0 0 0 .137.233h1.057a.051.051 0 0 1 .049.065l-.728 2.5 3.056-3.25a.157.157 0 0 0-.114-.263z"/>
</svg>