<svg xmlns="http://www.w3.org/2000/svg" width="16" height="16" fill="currentColor" class="qi-2019" viewBox="0 0 16 16">
  <path fill-rule="evenodd" d="M9.08 9.375a.855.855 0 0 0-.701.321c-.173.214-.26.485-.26.813 0 .33.086.602.258.814.172.213.406.319.702.319.299 0 .533-.106.704-.317.171-.211.256-.484.256-.816 0-.337-.085-.61-.255-.819-.168-.211-.403-.315-.704-.315Zm0 1.855c-.314 0-.472-.241-.472-.723s.157-.723.472-.723c.314 0 .472.241.472.723 0 .483-.158.723-.472.723ZM7.012 8.18c.171-.211.256-.484.256-.816 0-.337-.085-.61-.254-.819-.17-.209-.405-.314-.706-.314a.855.855 0 0 0-.7.321c-.174.214-.26.485-.26.813 0 .33.085.602.257.814.172.213.406.319.702.319.299 0 .534-.106.705-.318Zm-1.176-.816c0-.482.157-.723.472-.723.315 0 .472.241.472.723s-.157.723-.472.723c-.315 0-.472-.241-.472-.723Zm3.486-1.091a.29.29 0 0 0-.398.097l-2.955 4.831a.29.29 0 0 0 .389.403.286.286 0 0 0 .105-.102l2.955-4.831a.289.289 0 0 0-.096-.398Z"/>
  <path fill-rule="evenodd" d="M7.694.214s-5.19 7.512-5.19 10.381a5.187 5.187 0 0 0 5.19 5.19 5.187 5.187 0 0 0 5.191-5.19c0-2.869-5.19-10.381-5.19-10.381Zm2.954 11.819c-.396.008-.623.08-1.465.351l-.12.038c-.576.23-1.055.355-1.346.355-.49 0-1.298-.338-1.306-.342l-.164-.054c-.883-.283-1.093-.35-1.446-.354-.322 0-.645.053-.985.16a4.073 4.073 0 0 1-.345-1.624c0-1.581 2.236-5.592 4.221-8.66 1.985 3.069 4.222 7.081 4.222 8.66 0 .545-.115 1.089-.342 1.618-.3-.094-.61-.143-.924-.148Z"/>
</svg>