<svg xmlns="http://www.w3.org/2000/svg" width="16" height="16" fill="currentColor" class="qi-2032" viewBox="0 0 16 16">
  <path d="M13.5 6c0-.355-.046-.7-.133-1.027a2.5 2.5 0 1 0-2.84-2.84A4.005 4.005 0 0 0 5.5 6a5 5 0 1 0 4.88 3.903A4.002 4.002 0 0 0 13.5 6Zm1-3.5A1.5 1.5 0 0 1 12.965 4 4.02 4.02 0 0 0 11.5 2.535V2.5a1.5 1.5 0 0 1 3 0Zm-4.44 6.448A5.009 5.009 0 0 0 6.503 6.1a3 3 0 1 1 3.56 2.847ZM9.5 11a4 4 0 1 1-8 0 4 4 0 0 1 8 0Z"/>
  <path d="M5.005 8.605c-.326.197-.553.635-.496.997l.345 2.198h1.078l.358-2.277a.846.846 0 0 0-.408-.853l-.07-.042c-.256-.156-.55-.176-.807-.023ZM5.4 13.5a.6.6 0 1 0 0-1.2.6.6 0 0 0 0 1.2Z"/>
</svg>