<svg xmlns="http://www.w3.org/2000/svg" width="16" height="16" fill="currentColor" class="qi-2073" viewBox="0 0 16 16">
  <path d="M11.5 3a.5.5 0 0 0-.5.5v6.063a2 2 0 1 0 1 0V3.5a.5.5 0 0 0-.5-.5Z"/>
  <path d="m10.2 8.399-.532.356a3.3 3.3 0 1 0 3.665 0l-.533-.356V2.5a1.3 1.3 0 1 0-2.6 0v5.899ZM9 2.5a2.5 2.5 0 0 1 5 0v5.258a4.5 4.5 0 1 1-5 0V2.5ZM2.07 1.026c.202-.099.405.104.356.32-.265 1.152-.246 2.447.636 3.373.883.926 2.42 1.263 3.603 1.075.222-.035.414.177.302.37a3.689 3.689 0 0 1-.677.839 3.773 3.773 0 0 1-5.278-.164 3.641 3.641 0 0 1 .166-5.2c.273-.253.574-.457.893-.613Z"/>
  <path d="M5.5.5A.5.5 0 0 0 5 1v1H4a.5.5 0 0 0 0 1h1v1a.5.5 0 0 0 1 0V3h1a.5.5 0 0 0 0-1H6V1a.5.5 0 0 0-.5-.5Z"/>
</svg>