<svg xmlns="http://www.w3.org/2000/svg" width="16" height="16" fill="currentColor" class="qi-2083" viewBox="0 0 16 16">
  <path d="M.5 11a.5.5 0 0 0 0 1h9a.5.5 0 0 0 0-1h-9Zm3 2a.5.5 0 0 0 0 1h3a.5.5 0 0 0 0-1h-3Zm4.5.5a.5.5 0 0 1 .5-.5h7a.5.5 0 0 1 0 1h-7a.5.5 0 0 1-.5-.5ZM4.5 15a.5.5 0 0 0 0 1h9a.5.5 0 0 0 0-1h-9Zm3.4-5a4.99 4.99 0 0 0 3.827-1.783 3 3 0 1 0 .553-5.63A4.999 4.999 0 0 0 7.9 0a4.998 4.998 0 0 0-4.359 2.549 3 3 0 1 0 .586 5.732A4.988 4.988 0 0 0 7.9 10Zm-.791-6.398c-.057-.362.17-.8.496-.997.256-.153.551-.133.806.023l.07.042a.846.846 0 0 1 .409.853L8.532 5.8H7.454L7.11 3.602ZM8.599 6.9a.6.6 0 1 1-1.2 0 .6.6 0 0 1 1.2 0Z"/>
</svg>