<svg xmlns="http://www.w3.org/2000/svg" width="16" height="16" fill="currentColor" class="qi-2084" viewBox="0 0 16 16">
  <path d="M5.034 11.673a1 1 0 0 0 1.932.518c.13-.483-.176-1.492-.448-2.191-.586.47-1.355 1.19-1.484 1.673Zm-4.129.051a1 1 0 0 0 1.932.518c.129-.483-.176-1.491-.449-2.19-.586.468-1.354 1.19-1.483 1.672Zm8.229.708a1 1 0 0 1-.1-.759c.13-.483.898-1.204 1.484-1.673.272.7.577 1.708.448 2.19a1 1 0 0 1-1.832.242Zm3.9-.759a1 1 0 1 0 1.932.518c.13-.483-.175-1.492-.448-2.191-.586.47-1.354 1.19-1.484 1.673Zm-1.9 3.759a1 1 0 0 1-.1-.759c.13-.483.898-1.204 1.484-1.673.272.7.577 1.708.448 2.19a1 1 0 0 1-1.832.242Zm-8.1-.759a1 1 0 0 0 1.932.518c.13-.483-.176-1.492-.448-2.191-.586.47-1.355 1.19-1.484 1.673ZM7.9 10a4.99 4.99 0 0 0 3.827-1.783 3 3 0 1 0 .553-5.63A4.999 4.999 0 0 0 7.9 0a4.998 4.998 0 0 0-4.359 2.549 3 3 0 1 0 .586 5.732A4.988 4.988 0 0 0 7.9 10Zm-.791-6.398c-.057-.362.17-.8.496-.997.256-.153.551-.133.806.023l.07.042a.846.846 0 0 1 .409.853L8.532 5.8H7.454L7.11 3.602ZM8.599 6.9a.6.6 0 1 1-1.2 0 .6.6 0 0 1 1.2 0Z"/>
</svg>