<svg xmlns="http://www.w3.org/2000/svg" width="16" height="16" fill="currentColor" class="qi-2101" viewBox="0 0 16 16">
  <path d="M1.293 12.207A1 1 0 0 1 1 11.5c0-.5.555-1.395 1-2 .445.605 1 1.5 1 2a1 1 0 0 1-1.707.707Zm3 1.5A1 1 0 0 1 4 13c0-.5.555-1.395 1-2 .445.605 1 1.5 1 2a1 1 0 0 1-1.707.707ZM10 13a1 1 0 0 0 2 0c0-.5-.555-1.395-1-2-.445.605-1 1.5-1 2Zm-2.707 2.707A1 1 0 0 1 7 15c0-.5.555-1.395 1-2 .445.605 1 1.5 1 2a1 1 0 0 1-1.707.707ZM13 11.5a1 1 0 0 0 2 0c0-.5-.555-1.395-1-2-.445.605-1 1.5-1 2ZM7.9 10a4.99 4.99 0 0 0 3.827-1.783 3 3 0 1 0 .553-5.63A4.999 4.999 0 0 0 7.9 0a4.998 4.998 0 0 0-4.359 2.549 3 3 0 1 0 .586 5.732A4.988 4.988 0 0 0 7.9 10Zm.495-5.467c-.024.043.011.093.065.093h1.468c.06 0 .094.065.055.107L7.005 7.976c-.052.055-.151.006-.124-.063L7.62 5.97c.015-.043-.019-.087-.069-.087h-1.42c-.096 0-.16-.09-.118-.17L7.41 3.078a.159.159 0 0 1 .058-.057.147.147 0 0 1 .076-.02h1.578c.054 0 .089.051.065.094l-.792 1.439Z"/>
</svg>