<svg xmlns="http://www.w3.org/2000/svg" width="16" height="16" fill="currentColor" class="qi-2104" viewBox="0 0 16 16">
  <path d="M.134 12.432a1 1 0 0 1-.1-.759c.13-.483.898-1.204 1.484-1.673.272.7.577 1.708.448 2.19a1 1 0 0 1-1.832.242Zm3 0a1 1 0 0 1-.1-.759c.13-.483.898-1.204 1.484-1.673.272.7.577 1.708.448 2.19a1 1 0 0 1-1.832.242ZM7 13a1 1 0 1 0 2 0c0-.5-.555-1.395-1-2-.445.605-1 1.5-1 2Zm7.497-.202a1 1 0 0 1-.466-.607c-.13-.483.175-1.492.448-2.191.586.47 1.354 1.19 1.484 1.673a1 1 0 0 1-1.466 1.125Zm-3.467-.608a1 1 0 1 0 1.933-.517c-.13-.483-.898-1.204-1.484-1.673-.273.7-.578 1.708-.448 2.19Zm-6.737 3.517A1 1 0 0 1 4 15c0-.5.555-1.395 1-2 .445.605 1 1.5 1 2a1 1 0 0 1-1.707.707ZM1 15a1 1 0 1 0 2 0c0-.5-.555-1.395-1-2-.445.605-1 1.5-1 2Zm9.293.707A1 1 0 0 1 10 15c0-.5.555-1.395 1-2 .445.605 1 1.5 1 2a1 1 0 0 1-1.707.707ZM13 15a1 1 0 0 0 2 0c0-.5-.555-1.395-1-2-.445.605-1 1.5-1 2Zm-5.1-5a4.99 4.99 0 0 0 3.827-1.783 3 3 0 1 0 .553-5.63A4.999 4.999 0 0 0 7.9 0a4.998 4.998 0 0 0-4.359 2.549 3 3 0 1 0 .586 5.732A4.988 4.988 0 0 0 7.9 10Zm-.791-6.398c-.057-.362.17-.8.496-.997.256-.153.551-.133.806.023l.07.042a.846.846 0 0 1 .409.853L8.532 5.8H7.454L7.11 3.602ZM8.599 6.9a.6.6 0 1 1-1.2 0 .6.6 0 0 1 1.2 0Z"/>
</svg>