<svg xmlns="http://www.w3.org/2000/svg" width="16" height="16" fill="currentColor" class="qi-2125" viewBox="0 0 16 16">
  <path d="M2.932 11.708 2.354 10 1 11.19l.319 2.674 1.613-2.156Zm12 0L14.354 10 13 11.19l.319 2.674 1.613-2.156ZM5.354 11l.578 1.708-1.613 2.156L4 12.19 5.354 11Zm6.578 1.708L11.354 11 10 12.19l.319 2.674 1.613-2.156ZM8.354 12l.578 1.708-1.613 2.156L7 13.19 8.354 12ZM7.9 10a4.99 4.99 0 0 0 3.827-1.783 3 3 0 1 0 .553-5.63A4.999 4.999 0 0 0 7.9 0a4.998 4.998 0 0 0-4.359 2.549 3 3 0 1 0 .586 5.732A4.988 4.988 0 0 0 7.9 10Zm-.791-6.398c-.057-.362.17-.8.496-.997.256-.153.551-.133.806.023l.07.042a.846.846 0 0 1 .409.853L8.532 5.8H7.454L7.11 3.602ZM8.599 6.9a.6.6 0 1 1-1.2 0 .6.6 0 0 1 1.2 0Z"/>
</svg>