<svg xmlns="http://www.w3.org/2000/svg" width="16" height="16" fill="currentColor" class="qi-2129" viewBox="0 0 16 16">
  <path d="M8.313.313a.312.312 0 1 0-.625 0v.808L7.284.717a.312.312 0 1 0-.442.441l.846.846v1.147a1.873 1.873 0 0 0-1.134.655.32.32 0 0 0-.022-.014l-.97-.56-.31-1.156a.312.312 0 1 0-.603.162l.148.552-.7-.404a.313.313 0 0 0-.313.54l.7.405-.552.148a.313.313 0 0 0 .162.603l1.156-.31.97.561a.319.319 0 0 0 .023.012 1.871 1.871 0 0 0 0 1.31.32.32 0 0 0-.023.012l-.97.56-1.156-.31a.312.312 0 1 0-.162.604l.552.148-.7.404a.312.312 0 1 0 .313.541l.7-.404-.148.552a.312.312 0 0 0 .603.162l.31-1.156.97-.56a.316.316 0 0 0 .022-.014c.282.34.68.58 1.135.655a.318.318 0 0 0-.001.026v1.12l-.846.847a.312.312 0 1 0 .442.441l.404-.404v.809a.312.312 0 1 0 .625 0v-.809l.404.404a.312.312 0 1 0 .442-.441l-.846-.846V6.875c0-.009 0-.017-.002-.026a1.873 1.873 0 0 0 1.135-.655l.022.014.97.56.31 1.156a.312.312 0 1 0 .603-.162l-.148-.552.7.404a.313.313 0 0 0 .313-.54l-.7-.405.552-.148a.313.313 0 0 0-.162-.603l-1.155.31-.97-.561a.317.317 0 0 0-.024-.012 1.871 1.871 0 0 0 0-1.31.313.313 0 0 0 .023-.012l.97-.56 1.156.31a.312.312 0 1 0 .162-.604l-.552-.148.7-.404a.312.312 0 1 0-.313-.541l-.7.404.148-.552a.312.312 0 0 0-.603-.162l-.31 1.156-.97.56a.324.324 0 0 0-.022.014 1.87 1.87 0 0 0-1.134-.655V2.005l.847-.847a.312.312 0 1 0-.442-.441l-.404.404V.313Zm-5.63 10.692-.832-.555L.69 12.191l1 2-.839 1.259.832.555 1.161-1.742-1-2 .839-1.258Zm4.154 0-.832-.555-1.161 1.741 1 2-.84 1.259.833.555 1.16-1.742-1-2 .84-1.258Zm3.322-.555.832.555-.84 1.258 1 2-1.16 1.742-.832-.555.839-1.259-1-2 1.16-1.741Zm4.986.555-.832-.555-1.161 1.741 1 2-.84 1.259.833.555 1.16-1.742-1-2 .84-1.258Z"/>
</svg>