<svg xmlns="http://www.w3.org/2000/svg" width="16" height="16" fill="currentColor" class="qi-2131" viewBox="0 0 16 16">
  <path d="M2.032 6.364a.75.75 0 0 1 1.054.117l2 2.5a.75.75 0 0 1-.056 1l-1.565 1.565L5.101 14H7.8l-1.423-2.134a.75.75 0 0 1 .094-.946l1.525-1.526-1.58-1.976a.75.75 0 0 1 1.17-.937l2 2.5a.75.75 0 0 1-.055 1l-1.565 1.565L9.601 14H12.3l-1.423-2.134a.75.75 0 0 1 .094-.946l1.525-1.526-1.58-1.976a.75.75 0 1 1 1.17-.937l2 2.5a.75.75 0 0 1-.054 1l-1.566 1.565L14.102 14H15a1 1 0 0 1 0 2H1a1 1 0 1 1 0-2h2.299l-1.423-2.134a.75.75 0 0 1 .094-.946l1.525-1.526-1.58-1.976a.75.75 0 0 1 .117-1.054Zm.97-5.051a1.687 1.687 0 1 0 0 3.374 1.687 1.687 0 0 0 0-3.375Zm.001-.374A.188.188 0 0 1 2.816.75V.19a.187.187 0 0 1 .375 0v.56a.187.187 0 0 1-.188.188Zm-1.59.657a.187.187 0 0 1-.133-.056l-.398-.397a.187.187 0 0 1 .265-.265l.399.397a.188.188 0 0 1-.133.32ZM.75 3.185H.19a.188.188 0 0 1 0-.375h.56a.188.188 0 1 1 0 .375Zm.26 1.988a.188.188 0 0 1-.133-.32l.398-.397a.188.188 0 0 1 .265.265l-.398.397a.187.187 0 0 1-.132.055ZM2.998 6a.188.188 0 0 1-.187-.188V5.25a.187.187 0 1 1 .375 0v.562A.187.187 0 0 1 2.998 6Zm1.99-.822a.187.187 0 0 1-.133-.055l-.398-.397a.188.188 0 1 1 .265-.266l.398.398a.187.187 0 0 1-.133.32Zm.826-1.987H5.25a.188.188 0 1 1 0-.375h.563a.188.188 0 1 1 0 .375ZM4.594 1.6a.188.188 0 0 1-.133-.32l.397-.398a.188.188 0 0 1 .266.265l-.398.397a.187.187 0 0 1-.132.055Z"/>
</svg>