<svg xmlns="http://www.w3.org/2000/svg" width="16" height="16" fill="currentColor" class="qi-2132" viewBox="0 0 16 16">
  <path d="M9.311 6.955a.086.086 0 0 0 .068-.14L5.66 2.034a.086.086 0 0 0-.135 0l-3.72 4.783a.086.086 0 0 0 .068.139h1.394c.07 0 .111.08.069.138l-2.378 3.17a.086.086 0 0 0 .069.137h2.122c.075 0 .114.088.065.144l-3.191 3.59a.086.086 0 0 0 .064.143h4.127c.048 0 .086.039.086.086v1.55c0 .048.039.087.087.087h2.412a.086.086 0 0 0 .086-.086v-1.55c0-.048.038-.087.086-.087h4.127a.086.086 0 0 0 .064-.143l-3.19-3.59a.086.086 0 0 1 .064-.144h2.122a.086.086 0 0 0 .07-.137L7.85 7.094a.086.086 0 0 1 .069-.138H9.31ZM14.9 1.5c-.9.3-1.2 1.1-1.1 1.6-.7-.8-.7-1.7-.6-3.1-2.1.8-1.6 3.2-1.7 4-.5-.5-.6-1.5-.6-1.5-.6.3-.9 1.1-.9 1.8C10 5.9 11.3 7 12.8 7c1.5 0 2.7-1.2 2.7-2.7 0-1.1-.6-1.4-.6-2.8Z"/>
</svg>