<svg xmlns="http://www.w3.org/2000/svg" width="16" height="16" fill="currentColor" class="qi-2151" viewBox="0 0 16 16">
  <path d="M11.313.313a.312.312 0 1 0-.626 0v.808l-.403-.404a.312.312 0 1 0-.442.441l.845.846v1.121c0 .009 0 .017.002.026a1.873 1.873 0 0 0-1.135.655.32.32 0 0 0-.022-.014l-.97-.56-.31-1.156a.312.312 0 1 0-.603.162l.148.552-.7-.404a.313.313 0 0 0-.313.54l.7.405-.552.148a.313.313 0 0 0 .162.603l1.156-.31.97.561a.319.319 0 0 0 .023.012 1.871 1.871 0 0 0 0 1.31.32.32 0 0 0-.023.012l-.97.56-1.156-.31a.312.312 0 1 0-.162.604l.552.148-.7.404a.312.312 0 1 0 .313.541l.7-.404-.148.552a.312.312 0 0 0 .603.162l.31-1.156.97-.56a.316.316 0 0 0 .022-.014c.282.34.68.58 1.135.655a.313.313 0 0 0-.002.026v1.12l-.845.847a.312.312 0 0 0 .441.441l.405-.404v.809a.313.313 0 0 0 .624 0v-.809l.405.404a.312.312 0 1 0 .441-.441l-.845-.846V6.875c0-.009 0-.017-.002-.026a1.873 1.873 0 0 0 1.135-.655.32.32 0 0 0 .022.014l.97.56.31 1.156a.312.312 0 1 0 .603-.162l-.148-.552.7.404a.313.313 0 0 0 .313-.54l-.7-.405.552-.148a.313.313 0 0 0-.162-.603l-1.155.31-.97-.561a.315.315 0 0 0-.024-.012 1.872 1.872 0 0 0 0-1.31.311.311 0 0 0 .023-.012l.97-.56 1.156.31a.312.312 0 1 0 .162-.604l-.552-.148.7-.404a.312.312 0 1 0-.313-.541l-.7.404.148-.552a.312.312 0 0 0-.603-.162l-.31 1.156-.97.56a.324.324 0 0 0-.022.014 1.87 1.87 0 0 0-1.134-.655V2.005l.847-.847a.312.312 0 1 0-.442-.441l-.405.404V.313ZM3.535 10.467a.467.467 0 1 1 .933 0v.725l.628-.363a.467.467 0 1 1 .467.808L4.935 12l.628.363a.467.467 0 0 1-.467.808l-.628-.363v.725a.467.467 0 1 1-.933 0v-.725l-.628.363a.467.467 0 1 1-.467-.808L3.068 12l-.628-.363a.467.467 0 0 1 .467-.808l.628.363v-.725Z"/>
  <path d="M7.324 9.872 4.175 8.048a.347.347 0 0 0-.35 0L.675 9.872a.352.352 0 0 0-.175.304v3.648c0 .126.067.242.175.305l3.15 1.824a.344.344 0 0 0 .35 0l3.149-1.824a.351.351 0 0 0 .176-.305v-3.648a.352.352 0 0 0-.176-.304Zm-.526 3.75L4 15.241l-2.798-1.62V10.38L4 8.758l2.798 1.621v3.242Z"/>
</svg>