<svg xmlns="http://www.w3.org/2000/svg" width="16" height="16" fill="currentColor" class="qi-2154" viewBox="0 0 16 16">
  <path d="M5 3.5a.5.5 0 0 1 .5-.5h6a.5.5 0 0 1 0 1h-6a.5.5 0 0 1-.5-.5Zm-4 2a.5.5 0 0 1 .5-.5H9a.5.5 0 0 1 0 1H1.5a.5.5 0 0 1-.5-.5Zm5 2a.5.5 0 0 1 .5-.5h8a.5.5 0 0 1 0 1h-8a.5.5 0 0 1-.5-.5ZM2 9a.5.5 0 0 1 .5-.5h6a.5.5 0 0 1 0 1h-6A.5.5 0 0 1 2 9Zm3 1.5a.5.5 0 0 1 .5-.5H13a.5.5 0 0 1 0 1H5.5a.5.5 0 0 1-.5-.5Zm-1.5 2A.5.5 0 0 1 4 12h6a.5.5 0 0 1 0 1H4a.5.5 0 0 1-.5-.5Z"/>
</svg>