<svg xmlns="http://www.w3.org/2000/svg" width="16" height="16" fill="currentColor" class="qi-2155" viewBox="0 0 16 16">
  <path d="M1.854.146a.5.5 0 1 0-.708.708l2 2a.5.5 0 1 0 .708-.708l-2-2ZM.5 3.5a.5.5 0 0 0 0 1h3a.5.5 0 0 0 0-1h-3Zm3.354 2.354a.5.5 0 1 0-.708-.708l-2 2a.5.5 0 1 0 .708.708l2-2ZM14.146.146a.5.5 0 0 1 .708.708l-2 2a.5.5 0 0 1-.708-.708l2-2ZM15.5 3.5a.5.5 0 0 1 0 1h-3a.5.5 0 0 1 0-1h3Zm-3.354 2.354a.5.5 0 0 1 .708-.708l2 2a.5.5 0 0 1-.708.708l-2-2ZM8 3a.5.5 0 0 0-.5.5v6.063a2 2 0 1 0 1 0V3.5A.5.5 0 0 0 8 3Z"/>
  <path d="m6.7 8.399-.532.356a3.3 3.3 0 1 0 3.665 0L9.3 8.399V2.5a1.3 1.3 0 0 0-2.6 0v5.899ZM5.5 2.5a2.5 2.5 0 0 1 5 0v5.258a4.5 4.5 0 1 1-5 0V2.5Z"/>
</svg>