<svg xmlns="http://www.w3.org/2000/svg" width="16" height="16" fill="currentColor" class="qi-2156" viewBox="0 0 16 16">
  <path d="m.646 5.707 2 2L3.354 7l-2-2-.708.707ZM3 8.354H0v1h3v-1ZM2.646 10l-2 2 .708.707 2-2L2.646 10Zm12.711-4.293-2 2L12.65 7l2-2 .707.707Zm-2.353 2.647h3v1h-3v-1ZM13.357 10l2 2-.707.707-2-2 .707-.707ZM8 7a.5.5 0 0 0-.5.5v2.063a2 2 0 1 0 1 0V7.5A.5.5 0 0 0 8 7Z"/>
  <path d="m6.7 8.399-.532.356a3.3 3.3 0 1 0 3.665 0L9.3 8.399V2.5a1.3 1.3 0 0 0-2.6 0v5.899ZM5.5 2.5a2.5 2.5 0 0 1 5 0v5.258a4.5 4.5 0 1 1-5 0V2.5Z"/>
</svg>