<svg xmlns="http://www.w3.org/2000/svg" width="16" height="16" fill="currentColor" class="qi-2158" viewBox="0 0 16 16">
  <path d="M15.4 3c-.9.3-1.2 1.1-1.1 1.6-.7-.8-.7-1.7-.6-3.1-2.1.8-1.6 3.2-1.7 4-.5-.5-.6-1.5-.6-1.5-.6.3-.9 1.1-.9 1.8 0 1.6 1.3 2.7 2.8 2.7 1.5 0 2.7-1.2 2.7-2.7 0-1.1-.6-1.4-.6-2.8Z"/>
  <path d="M12.3 9.3c-1.6-.4-2.8-1.8-2.8-3.6 0-.6.2-1.3.6-1.9L7.26.203a.2.2 0 0 0-.316.003l-3.7 4.873a.2.2 0 0 0 .159.321H4.8L2.056 8.876a.2.2 0 0 0 .157.324H4.2L.298 13.567a.2.2 0 0 0 .149.333H6v1.9c0 .11.09.2.2.2H8a.2.2 0 0 0 .2-.2v-1.9h5.547a.2.2 0 0 0 .147-.335L10 9.3h2.3Z"/>
</svg>