<svg xmlns="http://www.w3.org/2000/svg" width="16" height="16" fill="currentColor" class="qi-2161" viewBox="0 0 16 16">
  <path d="M10.833 13c1.809-.038 2.828.07 4.594.485a.47.47 0 0 0 .562-.377.497.497 0 0 0-.357-.593c-1.84-.432-2.934-.548-4.818-.508-1.174.025-2.072.274-2.922.51l-.012.003c-.852.236-1.657.458-2.713.48-1.809.038-2.828-.07-4.594-.485a.47.47 0 0 0-.562.377.497.497 0 0 0 .357.593c1.84.432 2.934.548 4.818.508 1.174-.025 2.072-.274 2.922-.51l.012-.003c.852-.236 1.657-.458 2.713-.48Zm0 2c1.809-.038 2.828.07 4.594.485a.47.47 0 0 0 .562-.377.497.497 0 0 0-.357-.593c-1.84-.432-2.934-.548-4.818-.508-1.174.025-2.072.274-2.922.51l-.012.003c-.852.236-1.657.458-2.713.48-1.809.038-2.828-.07-4.594-.485a.47.47 0 0 0-.562.377.497.497 0 0 0 .357.593c1.84.432 2.934.547 4.818.508 1.174-.025 2.072-.274 2.922-.51l.012-.003c.852-.236 1.657-.458 2.713-.48Z"/>
  <path d="M7.76.782a.393.393 0 0 1 .48 0l5.2 3.982c.307.236.144.736-.24.736H12v6.006a25.946 25.946 0 0 0-1.186.001c-1.174.025-2.072.274-2.922.51l-.012.003c-.852.236-1.657.458-2.713.48-.426.01-.808.01-1.167 0v-7H2.8c-.384 0-.547-.5-.24-.736L7.76.782Zm-.843 7.133a.4.4 0 0 0-.4.4v2.4a.4.4 0 0 0 .4.4h2.4a.4.4 0 0 0 .4-.4v-2.4a.4.4 0 0 0-.4-.4h-2.4Z"/>
</svg>