<svg xmlns="http://www.w3.org/2000/svg" width="16" height="16" fill="currentColor" class="qi-2210" viewBox="0 0 16 16">
  <path d="M14.619 1.958c.575.42 1.02.937 1.195 1.549a.5.5 0 1 1-.961.275c-.092-.322-.352-.671-.825-1.017-.469-.344-1.111-.656-1.894-.912-1.566-.511-3.624-.773-5.793-.643h-.005c-1.708.087-3.14.454-4.072.953-.467.25-.776.516-.945.765-.158.235-.191.45-.128.664.047.157.183.353.468.56.28.205.673.397 1.162.556.976.316 2.268.478 3.637.393h.002c1.087-.064 1.978-.298 2.545-.598.285-.151.456-.302.542-.426.076-.11.08-.183.062-.249-.014-.045-.066-.136-.227-.253a2.536 2.536 0 0 0-.692-.327c-.6-.195-1.402-.301-2.261-.26-.638.043-1.171.17-1.475.338a.5.5 0 0 1-.486-.874c.496-.275 1.205-.416 1.899-.462h.009c.961-.047 1.89.068 2.623.307.366.119.7.274.97.468.264.192.502.45.6.783v.003c.115.401.018.782-.201 1.097-.21.301-.53.545-.895.738-.733.389-1.775.644-2.954.713-1.475.092-2.894-.08-4.007-.44-.556-.18-1.052-.414-1.443-.699-.387-.282-.706-.642-.837-1.085-.16-.541-.042-1.06.259-1.506.29-.432.751-.793 1.3-1.088C2.894.691 4.482.303 6.285.211c2.274-.135 4.46.136 6.16.691.85.278 1.596.632 2.175 1.056Zm-1.323 3.974a.5.5 0 0 1-.116.697C10.858 8.288 7.814 8.6 5.092 8a.5.5 0 1 1 .216-.976c2.522.556 5.257.245 7.29-1.208a.5.5 0 0 1 .698.117ZM2.979 7.342A.5.5 0 0 0 2 7.146c-.129.64.123 1.21.478 1.651.354.44.847.8 1.326 1.063l.011.006c2.473 1.284 5.65 1.124 8.228.158a.5.5 0 0 0-.35-.937c-2.399.9-5.263 1.007-7.412-.106-.407-.224-.78-.507-1.024-.811-.245-.304-.327-.579-.277-.828Zm10.127 4.42a.5.5 0 0 1-.201.678c-2.168 1.175-4.853 1.278-7.12.203a.5.5 0 1 1 .43-.903c1.971.935 4.32.846 6.213-.18a.5.5 0 0 1 .678.202Zm.48 2.956a.5.5 0 0 0-.549-.836c-.61.4-1.124.629-1.641.727-.516.097-1.073.071-1.781-.096a.5.5 0 0 0-.23.974c.803.188 1.507.235 2.197.104.688-.13 1.325-.428 2.003-.873ZM13.5 9a.5.5 0 1 1-1 0 .5.5 0 0 1 1 0Zm-10-5a.5.5 0 1 0 0-1 .5.5 0 0 0 0 1Z"/>
</svg>