<svg xmlns="http://www.w3.org/2000/svg" width="16" height="16" fill="currentColor" class="qi-2214" viewBox="0 0 16 16">
  <path d="M2.724 12.362a.25.25 0 0 0-.448-.224l-1 2a.25.25 0 0 0 .448.224l1-2Zm4 1a.25.25 0 0 0-.447-.224l-1 2a.25.25 0 0 0 .447.224l1-2Zm3.888-.336a.25.25 0 0 1 .112.336l-1 2a.25.25 0 0 1-.447-.224l1-2a.25.25 0 0 1 .335-.112Zm4.112-.664a.25.25 0 0 0-.447-.224l-1 2a.25.25 0 1 0 .447.224l1-2ZM7.302 3.7a.7.7 0 0 1 1.4 0v1.088l.942-.544a.7.7 0 1 1 .7 1.212L9.402 6l.942.544a.7.7 0 0 1-.7 1.212l-.942-.544V8.3a.7.7 0 1 1-1.4 0V7.212l-.942.544a.7.7 0 0 1-.7-1.212L6.602 6l-.942-.544a.7.7 0 0 1 .7-1.212l.942.544V3.7Z"/>
  <path d="M12.987 2.807 8.262.071a.52.52 0 0 0-.525 0L3.013 2.807a.529.529 0 0 0-.263.457v5.472c0 .188.1.362.263.457l4.724 2.736a.516.516 0 0 0 .525 0l4.724-2.736a.527.527 0 0 0 .264-.457V3.264a.529.529 0 0 0-.263-.457Zm-.79 5.625L8 10.863 3.802 8.432V3.569L8 1.137l4.198 2.432v4.863Z"/>
</svg>