<svg xmlns="http://www.w3.org/2000/svg" width="16" height="16" fill="currentColor" class="qi-2215" viewBox="0 0 16 16">
  <path d="M8 0c.173 0 .313.14.313.313v.808l.404-.404a.313.313 0 0 1 .442.441l-.846.846v1.121l-.001.026c.454.076.852.315 1.134.655a.322.322 0 0 1 .022-.014l.97-.56.31-1.156a.313.313 0 0 1 .603.162l-.148.552.7-.404a.313.313 0 0 1 .313.54l-.7.405.552.148a.312.312 0 1 1-.162.603l-1.155-.31-.97.561a.313.313 0 0 1-.024.012 1.871 1.871 0 0 1 0 1.31.319.319 0 0 1 .023.012l.97.56 1.156-.31a.312.312 0 1 1 .162.604l-.552.148.7.404a.312.312 0 1 1-.313.541l-.7-.404.148.552a.313.313 0 0 1-.603.162l-.31-1.156-.97-.56a.318.318 0 0 1-.022-.014c-.282.34-.68.58-1.134.655v1.146l.847.847a.312.312 0 1 1-.442.441l-.404-.404v.809a.313.313 0 0 1-.625 0v-.809l-.404.404a.312.312 0 1 1-.442-.441l.846-.846V6.849a1.873 1.873 0 0 1-1.134-.655.318.318 0 0 1-.021.014l-.97.56-.31 1.156a.313.313 0 0 1-.604-.162l.148-.552-.7.404a.312.312 0 1 1-.313-.54l.7-.405-.552-.148a.313.313 0 1 1 .162-.603l1.156.31.97-.561a.316.316 0 0 1 .023-.012 1.871 1.871 0 0 1 0-1.31.319.319 0 0 1-.023-.012l-.97-.56-1.156.31a.313.313 0 0 1-.162-.604l.552-.148-.7-.404a.312.312 0 1 1 .313-.541l.7.404-.148-.552a.313.313 0 0 1 .603-.162l.31 1.156.97.56a.32.32 0 0 1 .022.014c.282-.34.68-.58 1.135-.655a.318.318 0 0 1-.001-.026v-1.12l-.846-.847a.312.312 0 1 1 .442-.441l.404.404V.313C7.688.14 7.828 0 8 0ZM2.502 9a.583.583 0 0 0-.584.583v.907l-.785-.454a.583.583 0 1 0-.583 1.01l.785.454-.785.453a.583.583 0 0 0 .583 1.01l.785-.453v.907a.583.583 0 0 0 1.167 0v-.907l.785.454a.583.583 0 1 0 .583-1.01l-.785-.454.785-.453a.583.583 0 0 0-.583-1.01l-.785.453v-.907A.583.583 0 0 0 2.502 9Zm6.033 3.467a.467.467 0 1 1 .933 0v.725l.628-.363a.467.467 0 1 1 .467.808L9.935 14l.628.363a.467.467 0 1 1-.467.808l-.628-.363v.725a.467.467 0 1 1-.933 0v-.725l-.628.363a.467.467 0 1 1-.467-.808L8.068 14l-.628-.363a.467.467 0 0 1 .467-.808l.628.363v-.725ZM14.501 10a.35.35 0 0 0-.35.35v.544l-.47-.272a.35.35 0 1 0-.35.606l.47.272-.47.272a.35.35 0 1 0 .35.606l.47-.272v.544a.35.35 0 1 0 .7 0v-.544l.47.272a.35.35 0 1 0 .35-.606l-.47-.272.47-.272a.35.35 0 1 0-.35-.606l-.47.272v-.544a.35.35 0 0 0-.35-.35Z"/>
</svg>