<svg xmlns="http://www.w3.org/2000/svg" width="16" height="16" fill="currentColor" class="qi-2302" viewBox="0 0 16 16">
  <path d="M11.542 6.782c0 .409.064.729.19.961.126.232.3.348.523.348.222 0 .398-.116.527-.348.129-.232.193-.552.193-.961 0-.41-.064-.73-.193-.962-.129-.232-.305-.348-.527-.348-.222 0-.397.116-.523.348-.126.232-.19.553-.19.962ZM3.036 5.718v-1.54h.488c.285 0 .489.059.61.177.122.119.183.316.183.59 0 .276-.062.474-.186.595-.122.119-.324.178-.607.178h-.488Zm5.617-.083c.136.149.206.37.21.662l-1.618.004c.026-.285.109-.505.25-.659a.722.722 0 0 1 .565-.234c.262 0 .46.075.593.227Z"/>
  <path d="M.5 0a.5.5 0 0 0-.5.5v15a.5.5 0 0 0 1 0V9.44c1.05 1.046 2.8 1.419 6.584.539C11.119 9.157 15 11 15 11V2.014c-4.033-1.45-5.997-1.012-9-.34l-.426.095C2.323 2.49 1 1 1 1V.5A.5.5 0 0 0 .5 0Zm12.475 5.252V3H14v5.89h-1.025v-.628c-.11.245-.253.429-.428.553a1.03 1.03 0 0 1-.615.185c-.45 0-.798-.194-1.046-.583-.248-.389-.372-.936-.372-1.643 0-.717.125-1.267.375-1.65.253-.384.613-.576 1.078-.576.21 0 .4.06.566.178.168.116.315.292.442.526ZM4.633 6.38c.077.081.171.24.281.477l.948 2.033H4.724l-.632-1.427a7.013 7.013 0 0 1-.073-.166c-.185-.427-.403-.64-.653-.64h-.33V8.89H2V3.238h1.496c.674 0 1.157.13 1.45.387.294.257.442.676.442 1.256 0 .389-.088.698-.263.928-.176.23-.429.367-.759.412a.497.497 0 0 1 .267.16Zm4.371 2.54c-.248.053-.51.08-.786.08-.658 0-1.161-.19-1.51-.568-.346-.38-.52-.929-.52-1.643 0-.691.168-1.238.502-1.639.335-.401.792-.602 1.37-.602.582 0 1.034.187 1.355.56.323.372.484.895.484 1.571v.451H7.235c.002.333.093.582.273.746.18.164.45.246.808.246.236 0 .47-.037.699-.11.229-.073.469-.19.72-.348v1.018a3.702 3.702 0 0 1-.73.239Z"/>
</svg>