<svg xmlns="http://www.w3.org/2000/svg" width="16" height="16" fill="currentColor" class="qi-2306" viewBox="0 0 16 16">
  <path d="M6.001 5.16 4.26 4 2.224 5.018.447 4.13 0 5.024l2.224 1.112 1.964-.982 1.258.839.555-.832Z"/>
  <path d="M4.26 6 6 7.16l-.555.833-1.258-.839-1.964.982L0 7.024l.447-.894 1.777.888L4.26 6Z"/>
  <path d="M6.001 9.16 4.26 8 2.224 9.018.447 8.13 0 9.024l2.224 1.112 1.964-.982 1.258.839.555-.832Z"/>
  <path d="M6.001 11.161 4.26 10l-2.036 1.018-1.777-.888-.447.894 2.224 1.112 1.964-.982 1.258.839.555-.832ZM13.5 2.5a2.5 2.5 0 0 0-2.421 1.875.5.5 0 0 0 .968.25A1.5 1.5 0 0 1 15 5c0 .812-.76 1.5-1.5 1.5h-6a.5.5 0 0 0 0 1h6C14.76 7.5 16 6.397 16 5a2.5 2.5 0 0 0-2.5-2.5Zm-6 6a.5.5 0 1 0 0 1h4a1 1 0 1 1-.943 1.333.5.5 0 0 0-.943.334A2 2 0 1 0 11.5 8.5h-4Z"/>
</svg>