<svg xmlns="http://www.w3.org/2000/svg" width="16" height="16" fill="currentColor" class="qi-2312" viewBox="0 0 16 16">
  <path d="M8.004 7.574c-1.59 0-3.093-.255-4.228-.714C2.535 6.356 1.85 5.644 1.85 4.857c0-.789.685-1.501 1.926-2.003 1.136-.461 2.637-.714 4.228-.714 1.59 0 3.092.254 4.227.714 1.241.504 1.926 1.216 1.926 2.003 0 .789-.685 1.5-1.926 2.003-.893.36-2.01.595-3.22.679a10.34 10.34 0 0 1-1.007.035Zm5.408-2.719c0-.451-.546-.94-1.461-1.312-1.05-.425-2.451-.659-3.947-.659-1.498 0-2.9.234-3.948.66-.913.37-1.46.86-1.46 1.311 0 .451.545.941 1.46 1.312 1.048.426 2.45.66 3.948.66.316 0 .627-.011.932-.031a6.71 6.71 0 0 0 1.63-.318c.655-.232.798-.47.798-.543 0-.072-.144-.31-.799-.542-.637-.226-1.49-.349-2.405-.349a.372.372 0 1 1 0-.746c.997 0 1.94.14 2.653.392 1.072.38 1.296.888 1.296 1.247a.851.851 0 0 1-.017.17c.828-.362 1.32-.824 1.32-1.252ZM7.098 15.086c.515.267 1.192.412 1.906.412.713 0 1.388-.145 1.905-.412.594-.306.92-.741.92-1.226a.372.372 0 1 0-.745 0c0 .186-.194.397-.517.563-.405.21-.975.33-1.563.33-.59 0-1.159-.12-1.564-.33-.323-.166-.516-.377-.516-.563a.372.372 0 1 0-.746 0c0 .483.326.92.92 1.226Zm.906-2.098c-1.002 0-1.95-.16-2.67-.453-.825-.334-1.28-.822-1.28-1.37a.372.372 0 1 1 .746 0c0 .212.32.48.815.68.632.255 1.48.396 2.389.396.908 0 1.756-.14 2.388-.397.495-.2.815-.467.815-.68a.372.372 0 1 1 .745 0c0 .549-.454 1.037-1.28 1.371-.72.293-1.667.453-2.668.453ZM3.919 9.953c.83.336 1.926.521 3.085.521 1.158 0 2.254-.184 3.081-.521.938-.38 1.453-.928 1.453-1.54a.372.372 0 1 0-.746 0c0 .276-.379.6-.987.847-.742.3-1.737.467-2.803.467-1.064 0-2.06-.166-2.803-.467-.61-.246-.987-.571-.987-.848a.372.372 0 1 0-.746 0c0 .614.517 1.162 1.453 1.54ZM4.5 1a.5.5 0 1 0 0-1 .5.5 0 0 0 0 1Zm10 2a.5.5 0 1 0 0-1 .5.5 0 0 0 0 1Z"/>
  <path d="M6.5 5a.5.5 0 1 0 0-1 .5.5 0 0 0 0 1ZM14 7.5a.5.5 0 1 1-1 0 .5.5 0 0 1 1 0ZM11.5.75a.75.75 0 1 1-1.5 0 .75.75 0 0 1 1.5 0Zm1.25 9.75a.75.75 0 1 0 0-1.5.75.75 0 0 0 0 1.5ZM2 7.5a.5.5 0 1 1-1 0 .5.5 0 0 1 1 0Zm.75-5a.75.75 0 1 0 0-1.5.75.75 0 0 0 0 1.5Z"/>
</svg>