<svg xmlns="http://www.w3.org/2000/svg" width="16" height="16" fill="currentColor" class="qi-2321" viewBox="0 0 16 16">
  <path d="M6.538 7.405a.602.602 0 0 0-1.078.161c-.087.291-.266.86-.509 1.469-.245.618-.541 1.242-.854 1.67C3.024 12.166.922 14.35.308 14.98-.072 15.371.223 16 .74 16h14.502a.602.602 0 0 0 .412-1.04c-.65-.61-2.721-2.609-3.729-4.225-.56-.897-1.208-2.345-1.407-2.8a.6.6 0 0 0-.975-.184l-.75.749H7.269l-.73-1.095ZM5.88 9.404c.106-.267.2-.526.281-.76l.392.589a.6.6 0 0 0 .5.267h1.905a.6.6 0 0 0 .424-.176l.456-.456c.247.54.618 1.32.99 1.979l-.765.51-.624-.624a.6.6 0 0 0-.924.091L8 11.598l-.516-.774a.6.6 0 0 0-.924-.091l-.624.623-.747-.498c.269-.455.503-.978.692-1.454ZM11.5.5a.5.5 0 1 1-1 0 .5.5 0 0 1 1 0ZM3 1.5a.5.5 0 1 0 0-1 .5.5 0 0 0 0 1Zm5.5.5a.5.5 0 1 0 0-1 .5.5 0 0 0 0 1Zm3.554 6.503a.5.5 0 1 0 0-1 .5.5 0 0 0 0 1ZM5.766.058a.5.5 0 0 1 .676.208c.604 1.14.85 1.882 1.052 3.156.19 1.209.19 1.947 0 3.156a.5.5 0 0 1-.988-.156c.175-1.105.175-1.738 0-2.844-.184-1.165-.396-1.801-.948-2.844a.5.5 0 0 1 .208-.676Zm4.86 1.749a.5.5 0 0 0-.79-.614c-.576.742-.84 1.27-1.087 2.176C8.587 3.96 8.5 4.474 8.5 5s.087 1.04.249 1.632a.5.5 0 0 0 .965-.263C9.567 5.83 9.5 5.409 9.5 5c0-.41.067-.83.214-1.368.212-.78.416-1.188.912-1.825Zm-6.246.368a.5.5 0 0 0-.76.65c.515.601.72 1.011.892 1.784.153.69.153 1.092 0 1.783a.5.5 0 1 0 .976.217c.185-.834.185-1.384 0-2.217-.207-.933-.487-1.492-1.108-2.217Zm8.894.746a.5.5 0 0 0-.539-.842c-.446.285-.803.589-1.086.967-.284.378-.476.806-.624 1.314a3.988 3.988 0 0 0-.185 1.14c0 .375.066.736.185 1.14a.5.5 0 1 0 .96-.28 3.003 3.003 0 0 1-.145-.86c0-.25.043-.514.144-.86.126-.428.273-.738.465-.994s.448-.484.825-.725Z"/>
</svg>