<svg xmlns="http://www.w3.org/2000/svg" width="16" height="16" fill="currentColor" class="qi-2322" viewBox="0 0 16 16">
  <path d="m5.138 4.941-1.072 8.576c-.083.666-1.03.714-1.18.061L1.755 8.675.9 9.815a.5.5 0 1 1-.8-.6l1.371-1.828a.6.6 0 0 1 1.065.225l.817 3.544 1.08-8.63c.083-.669 1.034-.713 1.18-.056l1.503 6.762 1.295-3.561c.206-.566 1.025-.51 1.15.08l1.02 4.754.883-2.944a.6.6 0 0 1 1.055-.188l1.231 1.642h1.75a.5.5 0 1 1 0 1h-1.95a.6.6 0 0 1-.48-.24l-.876-1.168-1.103 3.678c-.178.595-1.031.56-1.161-.046L8.876 7.32l-1.289 3.543c-.205.564-1.02.511-1.15-.074L5.139 4.94Z"/>
</svg>