<svg xmlns="http://www.w3.org/2000/svg" width="16" height="16" fill="currentColor" class="qi-2323" viewBox="0 0 16 16">
  <path d="m1.411 4 1.472.835 1.235 2.139 2.44 1.017L7.664 9.77l3.588.905L15 15.998H0L1.411 4Zm4.088-4a.35.35 0 0 1 .35.35v.544l.47-.272a.35.35 0 0 1 .35.606L6.2 1.5l.47.272a.35.35 0 0 1-.35.606l-.47-.272v.544a.35.35 0 1 1-.7 0v-.544l-.471.272a.35.35 0 0 1-.35-.606L4.8 1.5l-.471-.272a.35.35 0 1 1 .35-.606l.471.272V.35A.35.35 0 0 1 5.5 0Zm4.35 3.35a.35.35 0 1 0-.7 0v.544l-.47-.272a.35.35 0 0 0-.351.606l.471.272-.471.272a.35.35 0 0 0 .35.606l.471-.272v.544a.35.35 0 1 0 .7 0v-.544l.47.272a.35.35 0 1 0 .35-.606L10.2 4.5l.47-.272a.35.35 0 1 0-.35-.606l-.47.272V3.35Z"/>
  <path d="M5.849 4.35a.35.35 0 1 0-.7 0v.544l-.471-.272a.35.35 0 0 0-.35.606L4.8 5.5l-.471.272a.35.35 0 0 0 .35.606l.471-.272v.544a.35.35 0 1 0 .7 0v-.544l.47.272a.35.35 0 0 0 .35-.606L6.2 5.5l.47-.272a.35.35 0 0 0-.35-.606l-.47.272V4.35Zm5 3a.35.35 0 1 0-.7 0v.544l-.47-.272a.35.35 0 0 0-.351.606l.471.272-.471.272a.35.35 0 0 0 .35.606l.471-.272v.544a.35.35 0 1 0 .7 0v-.544l.47.272a.35.35 0 1 0 .35-.606L11.2 8.5l.47-.272a.35.35 0 1 0-.35-.606l-.47.272V7.35ZM13.499 9a.35.35 0 0 1 .35.35v.544l.47-.272a.35.35 0 1 1 .35.606l-.47.272.47.272a.35.35 0 1 1-.35.606l-.47-.272v.544a.35.35 0 1 1-.7 0v-.544l-.47.272a.35.35 0 1 1-.35-.606l.47-.272-.47-.272a.35.35 0 1 1 .35-.606l.47.272V9.35a.35.35 0 0 1 .35-.35Z"/>
</svg>