<svg xmlns="http://www.w3.org/2000/svg" width="16" height="16" fill="currentColor" class="qi-2351" viewBox="0 0 16 16">
  <path d="M7.535 2.467a.467.467 0 0 1 .933 0v.725l.628-.363a.467.467 0 1 1 .467.808L8.935 4l.628.363a.467.467 0 0 1-.467.808l-.628-.363v.725a.467.467 0 1 1-.933 0v-.725l-.628.363a.467.467 0 0 1-.467-.808L7.068 4l-.628-.363a.467.467 0 1 1 .467-.808l.628.363v-.725Z"/>
  <path d="M11.325 1.872 8.175.048a.347.347 0 0 0-.35 0l-3.15 1.824a.353.353 0 0 0-.175.304v3.648c0 .126.067.242.176.305l3.148 1.824a.344.344 0 0 0 .351 0l3.149-1.824a.351.351 0 0 0 .176-.305V2.176a.353.353 0 0 0-.175-.304Zm-.526 3.75L8 7.241l-2.798-1.62V2.38L8 .758l2.799 1.621v3.242Zm-7.264 4.845a.467.467 0 1 1 .933 0v.725l.628-.363a.467.467 0 1 1 .467.808L4.935 12l.628.363a.467.467 0 0 1-.467.808l-.628-.363v.725a.467.467 0 1 1-.933 0v-.725l-.628.363a.467.467 0 1 1-.467-.808L3.068 12l-.628-.363a.467.467 0 0 1 .467-.808l.628.363v-.725Z"/>
  <path d="M7.324 9.872 4.175 8.048a.347.347 0 0 0-.35 0L.675 9.872a.352.352 0 0 0-.175.304v3.648c0 .126.067.242.175.305l3.15 1.824a.344.344 0 0 0 .35 0l3.149-1.824a.351.351 0 0 0 .176-.305v-3.648a.352.352 0 0 0-.176-.304Zm-.526 3.75L4 15.241l-2.798-1.62V10.38L4 8.758l2.798 1.621v3.242Zm4.737-3.155a.467.467 0 0 1 .933 0v.725l.628-.363a.467.467 0 1 1 .467.808l-.628.363.628.363a.467.467 0 0 1-.467.808l-.628-.363v.725a.467.467 0 1 1-.933 0v-.725l-.628.363a.467.467 0 1 1-.467-.808l.628-.363-.628-.363a.467.467 0 0 1 .467-.808l.628.363v-.725Z"/>
  <path d="m15.325 9.872-3.15-1.824a.346.346 0 0 0-.35 0l-3.15 1.824a.353.353 0 0 0-.175.304v3.648c0 .126.067.242.175.305l3.15 1.824a.344.344 0 0 0 .35 0l3.149-1.824a.351.351 0 0 0 .176-.305v-3.648a.353.353 0 0 0-.175-.304Zm-.526 3.75L12 15.241l-2.799-1.62V10.38L12 8.758l2.799 1.621v3.242Z"/>
</svg>