<svg xmlns="http://www.w3.org/2000/svg" width="16" height="16" fill="currentColor" class="qi-2357" viewBox="0 0 16 16">
  <path d="M13 6a3 3 0 1 0 0-6 3 3 0 0 0 0 6Zm-.467-4.294c-.024-.212.192-.393.467-.393s.491.181.467.393l-.211 1.857h-.512l-.21-1.857Zm.845 2.607a.375.375 0 1 1-.75 0 .375.375 0 0 1 .75 0Z"/>
  <path d="m4.35 0 2.706 3.479h-.974l1.426 1.902h-1.31l1.901 2.14H5.328l-.025 1.817c.709-.135 1.403-.368 2.084-.596l.039-.013.037-.013C8.497 8.364 9.565 8 10.649 8c1.341 0 3.236.492 4.788.894l.049.013.514.13v1.473c0 3.012-2.607 5.49-5.813 5.49H5.814C2.607 16 0 13.522 0 10.51V8.567l.669.21c.104.022.2.051.304.083l.159.047c.625.205 1.315.431 2.233.516V7.52H.6l1.902-2.14h-1.31l1.426-1.902h-.974L4.35 0ZM1.029 9.895v.599c0 .154.008.307.024.457 1.485.307 2.475.387 4.114.354 1.056-.02 1.861-.23 2.713-.453l.012-.003c.85-.223 1.748-.458 2.922-.481 1.646-.033 2.689.046 4.152.339.003-.07.005-.142.005-.213V9.78c-1.389-.356-3.172-.81-4.322-.81-.908 0-1.869.325-2.863.665l-.035.011c-1.138.385-2.31.782-3.618.782-1.355 0-2.315-.275-3.104-.534Zm4.157 2.348c-1.55.03-2.566-.038-3.902-.29a4.48 4.48 0 0 0 .984 1.574c.911.13 1.744.162 2.9.14 1.055-.022 1.86-.231 2.712-.454l.012-.003c.85-.223 1.748-.458 2.922-.481 1.351-.027 2.297.021 3.402.201.268-.394.473-.831.602-1.297-1.415-.285-2.394-.36-3.985-.328-1.056.021-1.861.23-2.713.454l-.012.003c-.85.222-1.748.457-2.922.48Zm0 2.36c-.504.01-.952.01-1.372-.004a5 5 0 0 0 2 .413h4.373a4.921 4.921 0 0 0 3.292-1.24c-.816-.102-1.599-.127-2.646-.106-1.056.021-1.861.23-2.713.453l-.012.004c-.85.222-1.748.457-2.922.48Z"/>
</svg>