<svg xmlns="http://www.w3.org/2000/svg" width="16" height="16" fill="currentColor" class="qi-2365" viewBox="0 0 16 16">
  <path d="M7.502 6.62c-.026-.226.205-.42.498-.42.293 0 .524.194.498.42L8.273 8.6h-.546l-.225-1.98Zm.901 2.78a.4.4 0 1 1-.8 0 .4.4 0 0 1 .8 0Z"/>
  <path d="M7.45 2.615A4.11 4.11 0 0 1 10.84.828c.441 0 .857.088 1.256.217a6.446 6.446 0 0 0-6.167.535A6.564 6.564 0 0 0 3.77 3.959a6.643 6.643 0 0 0-.655 1.83 4.216 4.216 0 0 1-.354-2.318 4.23 4.23 0 0 1 .519-1.546 4.13 4.13 0 0 1 .814-.99 6.576 6.576 0 0 0-2.02 2.5 6.66 6.66 0 0 0 .352 6.252 6.6 6.6 0 0 0 1.239 1.488 4.095 4.095 0 0 1-2.16-.85A4.17 4.17 0 0 1 .442 9.099 4.144 4.144 0 0 1 0 7.89a6.64 6.64 0 0 0 1.13 3.02 6.538 6.538 0 0 0 2.41 2.116 6.45 6.45 0 0 0 5.009.361 4.11 4.11 0 0 1-3.388 1.786 4.04 4.04 0 0 1-1.256-.218 6.446 6.446 0 0 0 6.166-.535 6.564 6.564 0 0 0 2.159-2.38 6.643 6.643 0 0 0 .654-1.83 4.223 4.223 0 0 1-.164 3.865 4.132 4.132 0 0 1-.814.991 6.576 6.576 0 0 0 2.021-2.5 6.66 6.66 0 0 0-.352-6.253 6.571 6.571 0 0 0-1.238-1.487 4.088 4.088 0 0 1 2.158.849c.43.334.792.752 1.063 1.227.221.387.354.796.442 1.21a6.64 6.64 0 0 0-1.13-3.021 6.537 6.537 0 0 0-2.41-2.116 6.45 6.45 0 0 0-5.01-.36ZM11 8a3 3 0 1 1-6 0 3 3 0 0 1 6 0Z"/>
</svg>