<svg xmlns="http://www.w3.org/2000/svg" width="16" height="16" fill="currentColor" class="qi-2388" viewBox="0 0 16 16">
  <path d="M2.5 0a.5.5 0 0 0-.5.5v15a.5.5 0 0 0 1 0V9l11-4L3 1V.5a.5.5 0 0 0-.5-.5Z"/>
  <path d="M7.742 11.629v.001l-.007.01a3.608 3.608 0 0 1-.137.203 5.394 5.394 0 0 1-.392.49 2.913 2.913 0 0 1-.513.459c-.178.12-.324.169-.436.169-.111 0-.258-.05-.436-.17a2.913 2.913 0 0 1-.513-.459 5.394 5.394 0 0 1-.529-.692l-.006-.01v-.001l-.387.293c-.387.293-.386.294-.386.294l.001.001.003.005.01.016a4.828 4.828 0 0 0 .169.25c.112.157.273.368.466.582a3.9 3.9 0 0 0 .689.612c.258.173.574.318.92.318.344 0 .66-.145.918-.318.262-.175.497-.4.689-.612.097-.107.185-.213.263-.312.079.1.167.205.264.312.192.212.427.437.688.612.258.173.574.318.92.318.345 0 .661-.145.92-.318.26-.175.495-.4.688-.612a6.08 6.08 0 0 0 .263-.312c.078.1.167.205.264.312.192.212.427.437.688.612.258.173.574.318.92.318.345 0 .66-.145.919-.318.261-.175.496-.4.688-.612a6.429 6.429 0 0 0 .635-.832l.01-.016.004-.005.001-.002-.386-.293-.387-.293v.001l-.007.01a5.38 5.38 0 0 1-.53.692 2.912 2.912 0 0 1-.511.46c-.179.12-.325.169-.437.169-.111 0-.257-.05-.436-.17a2.915 2.915 0 0 1-.512-.459 5.4 5.4 0 0 1-.53-.692l-.006-.01v-.002L11.87 11l-.386.629-.001.001-.006.01-.028.043a5.397 5.397 0 0 1-.502.65 2.915 2.915 0 0 1-.512.459c-.178.12-.325.169-.436.169-.112 0-.258-.05-.436-.17a2.913 2.913 0 0 1-.513-.459 5.394 5.394 0 0 1-.53-.692l-.005-.01-.001-.002L8.128 11l-.386.629Z"/>
</svg>