<svg xmlns="http://www.w3.org/2000/svg" width="16" height="16" fill="currentColor" class="qi-2390" viewBox="0 0 16 16">
  <path d="M11.502 10.998c-.026-.268.205-.498.498-.498.293 0 .524.23.498.498l-.225 2.352h-.546l-.225-2.352Zm.873 3.127a.375.375 0 1 1-.75 0 .375.375 0 0 1 .75 0Z"/>
  <path d="M11.773 8.63a.263.263 0 0 1 .454 0l3.738 6.482a.26.26 0 0 1-.227.388H8.262a.26.26 0 0 1-.227-.388l3.738-6.481Zm3.377 6.27L12 9.438 8.85 14.9h6.3ZM.5 1.5a.5.5 0 0 0 0 1h15a.5.5 0 0 0 0-1H.5ZM.5 4a.5.5 0 0 0 0 1h8a.5.5 0 0 0 0-1h-8ZM7 7a.5.5 0 0 1 .5-.5h8a.5.5 0 0 1 0 1h-8A.5.5 0 0 1 7 7Zm3.5-3a.5.5 0 0 0 0 1h5a.5.5 0 0 0 0-1h-5ZM0 7a.5.5 0 0 1 .5-.5h5a.5.5 0 0 1 0 1h-5A.5.5 0 0 1 0 7Zm.5 2a.5.5 0 0 0 0 1h8a.5.5 0 0 0 0-1h-8Z"/>
</svg>