<svg xmlns="http://www.w3.org/2000/svg" width="16" height="16" fill="currentColor" class="qi-2391" viewBox="0 0 16 16">
  <path d="M15.734 11.961a.39.39 0 0 0-.495.245c-.188.553-.535.822-1.063.822-.51 0-.98-.373-1.169-.929a.39.39 0 0 0-.377-.265h-.005a.39.39 0 0 0-.372.265c-.188.556-.658.929-1.169.929s-.981-.373-1.17-.929a.39.39 0 0 0-.377-.265h-.004a.39.39 0 0 0-.372.265c-.188.556-.658.929-1.17.929-.398 0-.771-.228-1.006-.592a.398.398 0 0 0-.02-.049c-.735-1.445-.727-2.796-.32-3.864.005-.01.012-.021.017-.033.001-.004.15-.344.439-.617.341-.324.717-.408 1.148-.256.392.138.502.343.555.442.126.236.3.269.424.255a.404.404 0 0 0 .342-.295c.14-.43.185-1.215-.337-1.787.734-.116 1.555.071 2.314.808l.006.006c.059.055.27.225.535.142.236-.074.366-.314.325-.597l-.003-.02-.005-.02a5.252 5.252 0 0 0-1.219-2.113c-.854-.898-2.427-1.844-5.072-1.256-1.295.288-2.426.952-3.361 1.973-.737.804-1.342 1.834-1.829 3.049-.922 2.302-.94 4.196-.92 4.253.295.872.935 1.353 1.803 1.353.603 0 1.165-.298 1.546-.784.38.486.943.784 1.546.784.603 0 1.166-.298 1.546-.784.381.486.944.784 1.547.784.602 0 1.165-.298 1.546-.784.38.486.943.784 1.546.784.603 0 1.165-.298 1.546-.784.381.486.943.784 1.546.784.868 0 1.508-.48 1.803-1.353a.391.391 0 0 0-.245-.496Zm-6.926-4.95a2.132 2.132 0 0 0-.843-.245c.118-.085.244-.163.377-.233a.89.89 0 0 1 .466.477Zm-3.909 6.017c-.511 0-.981-.373-1.169-.929a.39.39 0 0 0-.377-.265h-.005a.39.39 0 0 0-.372.265c-.188.556-.658.929-1.17.929-.509 0-.85-.252-1.041-.767.008-.107.148-1.88.888-3.772.998-2.554 2.556-4.082 4.63-4.543C8.109 3.54 9.56 3.88 10.6 4.955c.29.3.507.619.667.903-1.193-.67-2.599-.581-3.789.296a4.59 4.59 0 0 0-1.531 2.021l-.004.008-.004.012c-.088.226-.16.459-.216.7-.247 1.076-.141 2.212.304 3.315-.21.493-.65.818-1.127.818Z"/>
  <path d="M13.189 7.874c-.016-.168.128-.311.311-.311s.327.143.311.31l-.14 1.47h-.341l-.141-1.47Zm.545 1.954a.234.234 0 1 1-.468 0 .234.234 0 0 1 .468 0Z"/>
  <path d="M13.358 6.394a.164.164 0 0 1 .284 0l2.336 4.05a.162.162 0 0 1-.142.243h-4.672a.162.162 0 0 1-.142-.242l2.336-4.05Zm2.11 3.918L13.5 6.899l-1.969 3.415h3.938Zm.267 3.815a.39.39 0 0 0-.496.245c-.187.552-.534.82-1.06.82-.511 0-.98-.372-1.168-.927a.39.39 0 0 0-.372-.265h-.011a.39.39 0 0 0-.371.265c-.188.555-.657.927-1.168.927-.51 0-.98-.372-1.168-.927a.39.39 0 0 0-.37-.265h-.012a.39.39 0 0 0-.371.265c-.188.555-.657.927-1.168.927-.51 0-.98-.372-1.168-.927A.39.39 0 0 0 6.461 14H6.45a.39.39 0 0 0-.371.265c-.188.555-.657.927-1.168.927-.51 0-.98-.372-1.168-.927A.39.39 0 0 0 3.372 14H3.36a.39.39 0 0 0-.371.265c-.188.555-.658.927-1.168.927-.527 0-.874-.268-1.061-.82a.39.39 0 1 0-.74.25c.295.872.934 1.352 1.8 1.352.603 0 1.165-.298 1.545-.783.38.485.943.783 1.545.783s1.164-.298 1.544-.783c.38.485.943.783 1.545.783s1.164-.298 1.545-.783c.38.485.942.783 1.544.783.602 0 1.164-.298 1.545-.783.38.485.942.783 1.544.783.867 0 1.506-.48 1.801-1.351a.39.39 0 0 0-.244-.496Z"/>
</svg>