<svg xmlns="http://www.w3.org/2000/svg" width="16" height="16" fill="currentColor" class="qi-2395" viewBox="0 0 16 16">
  <path d="M10.833 13c1.809-.038 2.828.07 4.594.485a.47.47 0 0 0 .562-.377.497.497 0 0 0-.357-.593c-1.84-.432-2.934-.548-4.818-.508-1.174.025-2.072.274-2.922.51l-.012.003c-.852.236-1.657.458-2.713.48-1.809.038-2.828-.07-4.594-.485a.47.47 0 0 0-.562.377.497.497 0 0 0 .357.593c1.84.432 2.934.548 4.818.508 1.174-.025 2.072-.274 2.922-.51l.012-.003c.852-.236 1.657-.458 2.713-.48Zm0 2c1.809-.038 2.828.07 4.594.485a.47.47 0 0 0 .562-.377.497.497 0 0 0-.357-.593c-1.84-.432-2.934-.548-4.818-.508-1.174.025-2.072.274-2.922.51l-.012.003c-.852.236-1.657.458-2.713.48-1.809.038-2.828-.07-4.594-.485a.47.47 0 0 0-.562.377.497.497 0 0 0 .357.593c1.84.432 2.934.547 4.818.508 1.174-.025 2.072-.274 2.922-.51l.012-.003c.852-.236 1.657-.458 2.713-.48ZM8.762 3.753c.055-.332.408-.535.762-.44.354.095.558.447.44.762L8.931 6.842l-.658-.177.489-2.912Zm.042 4.057a.469.469 0 1 1-.906-.242.469.469 0 0 1 .906.243Z"/>
  <path d="M9.854.982a.329.329 0 0 1 .55.147l2.415 9.035a.324.324 0 0 1-.4.395L8.631 9.544l-.801 2.99c-.543.15-1.069.293-1.655.38l1.007-3.758L3.393 8.14a.324.324 0 0 1-.149-.542L9.854.982Zm2.05 8.662L9.868 2.03 4.297 7.606l7.607 2.038Z"/>
</svg>