<svg xmlns="http://www.w3.org/2000/svg" width="16" height="16" fill="currentColor" class="qi-2411" viewBox="0 0 16 16">
  <path d="M6.586 8.414A2 2 0 0 1 6 7c0-1 1.11-2.79 2-4 .89 1.21 2 3 2 4a2 2 0 0 1-3.414 1.414Zm.353-.353A1.5 1.5 0 0 0 9.5 7c0-.75-.833-2.093-1.5-3-.667.907-1.5 2.25-1.5 3 0 .398.158.78.44 1.06Z"/>
  <path d="M8 16A8 8 0 1 1 8 0a8 8 0 0 1 0 16Zm0-1.3a6.68 6.68 0 0 0 4.734-1.958 1.73 1.73 0 0 0-.136-.081c-.187-.098-.41-.161-1.098-.161-.584 0-1.01.2-1.533.45l-.022.011c-.512.247-1.12.539-1.945.539s-1.433-.292-1.945-.539l-.022-.01c-.522-.252-.949-.451-1.533-.451-.688 0-.911.063-1.097.16-.044.024-.088.05-.137.082A6.68 6.68 0 0 0 8 14.7Zm5.063-2.924c.114.06.222.13.328.203.226-.305.426-.63.598-.972a4.881 4.881 0 0 0-.796-.308c-.488-.14-1.012-.199-1.693-.199-.584 0-1.01.2-1.533.45l-.022.011c-.512.247-1.12.539-1.945.539s-1.433-.292-1.945-.539l-.022-.01c-.522-.252-.949-.451-1.533-.451-.681 0-1.205.06-1.693.2a4.89 4.89 0 0 0-.796.307 6.7 6.7 0 0 0 .598.972 3.08 3.08 0 0 1 .328-.203c.406-.214.83-.276 1.563-.276.825 0 1.433.292 1.945.539l.022.01c.522.252.949.451 1.533.451s1.01-.2 1.533-.45l.022-.011c.512-.247 1.12-.539 1.945-.539.733 0 1.157.062 1.563.276Zm.405-2.038c.307.087.603.201.902.343a6.7 6.7 0 1 0-12.741 0c.3-.142.596-.256.903-.343C3.137 9.565 3.76 9.5 4.5 9.5c.825 0 1.433.292 1.945.539l.022.01c.522.252.949.451 1.533.451s1.01-.2 1.533-.45l.022-.011c.512-.247 1.12-.539 1.945-.539.74 0 1.363.065 1.968.238Z"/>
</svg>