<svg xmlns="http://www.w3.org/2000/svg" width="16" height="16" fill="currentColor" class="qi-2419" viewBox="0 0 16 16">
  <path d="M.496 3.258a.296.296 0 0 1 .335-.255c.447.065.82.168 1.167.343.347.176.652.418.972.742.319.324.557.633.73.985.074.15.135.304.185.467.084-.088.176-.166.277-.233A1.868 1.868 0 0 1 5.225 5c.398 0 .76.1 1.064.307.305.206.535.506.688.878a.302.302 0 0 1-.16.392.294.294 0 0 1-.386-.162 1.314 1.314 0 0 0-.47-.609 1.285 1.285 0 0 0-.736-.206c-.297 0-.54.074-.735.206a1.126 1.126 0 0 0-.163.134 2.14 2.14 0 0 1 .54.062c.359.091.678.281 1.033.561.48.38.93 1.063 1.09 1.658a.3.3 0 0 1-.208.368.295.295 0 0 1-.363-.21c-.127-.47-.503-1.043-.882-1.342-.325-.256-.568-.39-.813-.453a1.837 1.837 0 0 0-.682-.025v6.666l2.658.147V11.3H5l-.134-.568L7 9.665l2.134 1.067L9 11.3H7.3v2.106l1.37.076a1 1 0 0 1 .584.23L12 16H0v-3l3.45.192V6.559a1.837 1.837 0 0 0-.681.025c-.245.062-.488.197-.813.453-.38.3-.755.872-.882 1.342a.295.295 0 0 1-.363.21.3.3 0 0 1-.208-.368c.16-.595.61-1.279 1.09-1.658.355-.28.674-.47 1.033-.56.077-.02.154-.035.233-.045a3.474 3.474 0 0 0-.14-.075c-.351-.178-.705-.283-.944-.283-.284 0-.498.03-.692.096a2.124 2.124 0 0 0-.61.344.293.293 0 0 1-.414-.06.303.303 0 0 1 .06-.42c.26-.198.505-.342.777-.433A2.68 2.68 0 0 1 1.775 5c.37 0 .819.149 1.21.346.084.044.17.09.252.14a2.43 2.43 0 0 0-.065-.144c-.137-.278-.331-.536-.62-.83-.29-.293-.545-.49-.818-.629-.274-.139-.582-.227-.987-.286a.3.3 0 0 1-.251-.34ZM11.955 1.99c-.028-.247.224-.459.545-.459.32 0 .573.212.545.459l-.246 2.166H12.2l-.246-2.166Zm.985 3.041a.438.438 0 1 1-.874 0 .438.438 0 0 1 .875 0Z"/>
  <path d="M9 3.5a3.5 3.5 0 1 0 7 0 3.5 3.5 0 0 0-7 0Zm6.431 0a2.931 2.931 0 1 1-5.862 0 2.931 2.931 0 0 1 5.862 0ZM9.7 13.5a.3.3 0 0 1 .3-.3h2a.3.3 0 1 1 0 .6h-2a.3.3 0 0 1-.3-.3Zm3 0a.3.3 0 0 1 .3-.3h.5a.3.3 0 1 1 0 .6H13a.3.3 0 0 1-.3-.3Zm1.5 0a.3.3 0 0 1 .3-.3h1a.3.3 0 1 1 0 .6h-1a.3.3 0 0 1-.3-.3Zm-3.5 1a.3.3 0 0 1 .3-.3h1a.3.3 0 1 1 0 .6h-1a.3.3 0 0 1-.3-.3Zm2 0a.3.3 0 0 1 .3-.3h2.5a.3.3 0 1 1 0 .6H13a.3.3 0 0 1-.3-.3Zm-1 1a.3.3 0 0 1 .3-.3h3.5a.3.3 0 1 1 0 .6H12a.3.3 0 0 1-.3-.3Z"/>
</svg>