<svg xmlns="http://www.w3.org/2000/svg" width="16" height="16" fill="currentColor" class="qi-2426" viewBox="0 0 16 16">
  <path d="M15.427 15.485c-1.766-.416-2.785-.523-4.594-.485-1.056.022-1.861.244-2.713.48l-.012.003c-.85.236-1.748.485-2.922.51-1.884.04-2.978-.076-4.818-.508a.497.497 0 0 1-.357-.593.47.47 0 0 1 .562-.377c1.766.416 2.785.523 4.594.485 1.056-.022 1.861-.244 2.713-.48l.012-.003c.85-.236 1.748-.485 2.922-.51 1.884-.04 2.978.076 4.818.508.253.06.413.325.357.593a.47.47 0 0 1-.562.377Zm0-2c-1.766-.416-2.785-.523-4.594-.485-1.056.022-1.861.244-2.713.48l-.012.003c-.85.236-1.748.485-2.922.51-1.884.04-2.978-.076-4.818-.508a.497.497 0 0 1-.357-.593.47.47 0 0 1 .562-.377c1.766.416 2.785.523 4.594.485 1.056-.022 1.861-.244 2.713-.48l.012-.003c.85-.236 1.748-.485 2.922-.51 1.884-.04 2.978.076 4.818.508.253.06.413.325.357.593a.47.47 0 0 1-.562.377Zm-7.1-10.23c.047-.316.43-.495.83-.389.398.107.64.454.523.751L8.653 6.226l-.74-.199.414-2.772ZM8.54 7.36a.563.563 0 1 1-1.088-.291.563.563 0 0 1 1.087.29Z"/>
  <path d="M4.154 4.147a4.501 4.501 0 0 0 2.474 5.257l-.956 3.57a9.516 9.516 0 0 0 1.632-.298l.773-2.884a4.501 4.501 0 1 0-3.923-5.645Zm7.988 2.14A3.769 3.769 0 1 1 4.86 4.336a3.769 3.769 0 0 1 7.28 1.95ZM4.5 2H0V1h4.5v1Zm-1 2H0V3h3.5v1Zm0 2H0V5h3.5v1Z"/>
</svg>