<svg xmlns="http://www.w3.org/2000/svg" width="16" height="16" fill="currentColor" class="qi-311-fill" viewBox="0 0 16 16">
  <path d="M12.254 2.086a3.147 3.147 0 0 0-.397.04 4.675 4.675 0 0 0-7.838 0 3.147 3.147 0 0 0-.396-.04 3.184 3.184 0 1 0 1.243 6.116 4.61 4.61 0 0 0 6.144 0 3.185 3.185 0 1 0 1.244-6.116zM6.938 13.362a1 1 0 0 0 2 0 6.604 6.604 0 0 0-1-2 6.604 6.604 0 0 0-1 2zm-5-1.669a1 1 0 0 0 2 0 6.604 6.604 0 0 0-1-2 6.604 6.604 0 0 0-1 2zm10.026 0a1 1 0 0 0 2 0 6.604 6.604 0 0 0-1-2 6.604 6.604 0 0 0-1 2zM.734 8.975a.5.5 0 0 0-.5.5v1.999a.5.5 0 0 0 1 0V9.475a.5.5 0 0 0-.5-.5zm4.72 1.382a.5.5 0 0 0-.5.5v1.999a.5.5 0 0 0 1 0v-2a.5.5 0 0 0-.5-.5zm4.996.006a.5.5 0 0 0-.5.5v1.999a.5.5 0 0 0 1 0v-2a.5.5 0 0 0-.5-.5zm4.816-1.388a.5.5 0 0 0-.5.5v1.999a.5.5 0 0 0 1 0V9.475a.5.5 0 0 0-.5-.5z"/>
</svg>