<svg xmlns="http://www.w3.org/2000/svg" width="16" height="16" fill="currentColor" class="qi-400-fill" viewBox="0 0 16 16">
  <path d="M12.315 2.086a3.146 3.146 0 0 0-.396.04 4.675 4.675 0 0 0-7.838 0 3.146 3.146 0 0 0-.396-.04 3.184 3.184 0 1 0 1.243 6.116 4.61 4.61 0 0 0 6.144 0 3.185 3.185 0 1 0 1.243-6.116zm-1.055 10.38-.44-.254.434-.251a.35.35 0 0 0-.35-.607l-.435.251v-.508a.35.35 0 1 0-.699 0v.509l-.435-.251a.35.35 0 0 0-.35.606l.434.25-.44.255a.35.35 0 1 0 .35.606l.441-.255v.503a.35.35 0 1 0 .7 0v-.502l.44.254a.35.35 0 0 0 .35-.606zm-4.739 0-.44-.254.434-.251a.35.35 0 0 0-.35-.607l-.434.251v-.508a.35.35 0 1 0-.699 0v.509l-.436-.251a.35.35 0 0 0-.35.606l.435.25-.44.255a.35.35 0 1 0 .35.606l.441-.255v.503a.35.35 0 1 0 .7 0v-.502l.44.254a.35.35 0 0 0 .35-.606z"/>
</svg>