<svg xmlns="http://www.w3.org/2000/svg" width="16" height="16" fill="currentColor" class="qi-402-fill" viewBox="0 0 16 16">
  <path d="M3.661 8.455a3.172 3.172 0 0 0 1.244-.253 4.61 4.61 0 0 0 6.144 0 3.185 3.185 0 1 0 1.243-6.116 3.147 3.147 0 0 0-.396.04 4.675 4.675 0 0 0-7.838 0 3.147 3.147 0 0 0-.397-.04 3.184 3.184 0 1 0 0 6.369zm4.783 4.893.514-.297a.303.303 0 0 0-.304-.524l-.513.296v-.6a.302.302 0 0 0-.605 0v.601l-.514-.297a.303.303 0 0 0-.304.524l.514.297-.52.3a.303.303 0 0 0 .304.525l.52-.3v.593a.302.302 0 0 0 .605 0v-.593l.52.3a.303.303 0 0 0 .303-.525zm-3.579-1.559.514-.297a.303.303 0 0 0-.303-.524l-.514.296v-.6a.302.302 0 0 0-.605 0v.6l-.514-.296a.303.303 0 0 0-.303.524l.514.297-.52.3a.303.303 0 0 0 .303.524l.52-.3v.593a.302.302 0 0 0 .605 0v-.593l.52.3a.303.303 0 0 0 .303-.524zm7.255 0 .514-.297a.303.303 0 0 0-.304-.524l-.513.296v-.6a.302.302 0 1 0-.605 0v.6l-.513-.296a.303.303 0 0 0-.304.524l.514.296-.52.3a.303.303 0 0 0 .303.525l.52-.3v.593a.302.302 0 1 0 .605 0v-.593l.52.3a.303.303 0 0 0 .303-.524zm3.729-1.516-.52-.3.514-.297a.303.303 0 0 0-.304-.524l-.514.297v-.6a.302.302 0 0 0-.605 0v.6l-.513-.297a.303.303 0 0 0-.304.524l.514.297-.52.3a.303.303 0 0 0 .304.525l.52-.3v.593a.302.302 0 0 0 .604 0v-.594l.52.3a.303.303 0 0 0 .304-.524zm-13.966-.3.514-.297a.303.303 0 0 0-.304-.524l-.514.297v-.6a.302.302 0 0 0-.605 0v.6L.46 9.151a.303.303 0 0 0-.304.524l.514.297-.52.3a.303.303 0 0 0 .304.525l.519-.3v.593a.302.302 0 0 0 .605 0v-.594l.52.3a.303.303 0 0 0 .304-.524z"/>
</svg>