<svg id="&#x56FE;&#x5C42;_1" xmlns="http://www.w3.org/2000/svg" width="16" height="16" fill="currentColor" class="qi-503-fill" viewBox="0 0 16 16">
  <defs>
    <style>
      .cls-1{fill-rule:evenodd}
    </style>
  </defs>
  <path d="M15.511 5.497c0-1.69-2.342-3.136-5.654-3.724 1.786.733 2.906 1.785 2.906 2.954 0 2.212-4.008 4.006-8.953 4.006A18.977 18.977 0 0 1 .511 8.45 16.37 16.37 0 0 0 6.56 9.503a16.766 16.766 0 0 0 5.718-.924 1.363 1.363 0 0 1 .01.16c0 1.659-3.006 3.004-6.714 3.004a14.17 14.17 0 0 1-2.474-.212 12.265 12.265 0 0 0 4.535.79 12.914 12.914 0 0 0 4-.592c.001.018.006.035.006.052 0 1.245-2.255 2.253-5.036 2.253a10.654 10.654 0 0 1-1.856-.158 9.206 9.206 0 0 0 3.402.592c2.78 0 5.036-1.009 5.036-2.254a1.325 1.325 0 0 0-.463-.94c1.012-.525 1.626-1.21 1.626-1.958a1.843 1.843 0 0 0-.73-1.357 3.109 3.109 0 0 0 1.892-2.462z" class="cls-1"/>
  <circle cx="4.748" cy="7.207" r=".581"/>
  <path d="M3.572 3.719a.581.581 0 1 0-.58-.581.58.58 0 0 0 .58.581zm6.082 2.674a.581.581 0 1 0-.582-.581.581.581 0 0 0 .582.581zM8.386 3.719a.581.581 0 1 0-.582-.581.582.582 0 0 0 .582.581z" class="cls-1"/>
  <circle cx="1.828" cy="5.463" r=".581"/>
  <path d="M8.923 10.676a.581.581 0 1 0-.759.316.581.581 0 0 0 .76-.316zm-3.637 0a.581.581 0 1 0-.76.316.581.581 0 0 0 .76-.316zm1.51 2.769a.581.581 0 1 0-.758.317.58.58 0 0 0 .758-.317zM6.492 5.58a.582.582 0 1 0-.581-.582.582.582 0 0 0 .58.582z" class="cls-1"/>
</svg>