<svg xmlns="http://www.w3.org/2000/svg" width="16" height="16" fill="currentColor" class="qi-504" viewBox="0 0 16 16">
  <path d="M7 1.5a.5.5 0 1 1-1 0 .5.5 0 0 1 1 0Zm-4 7a.5.5 0 1 1-1 0 .5.5 0 0 1 1 0ZM7.5 8a.5.5 0 1 0 0-1 .5.5 0 0 0 0 1Zm0 6.75a.75.75 0 1 1-1.5 0 .75.75 0 0 1 1.5 0Zm6.25-1.25a.75.75 0 1 0 0-1.5.75.75 0 0 0 0 1.5ZM10 4a1 1 0 1 1-2 0 1 1 0 0 1 2 0ZM5 7a1 1 0 1 0 0-2 1 1 0 0 0 0 2Zm6.5 7.25a1.25 1.25 0 1 1-2.5 0 1.25 1.25 0 0 1 2.5 0ZM2 4a1 1 0 1 0 0-2 1 1 0 0 0 0 2Z"/>
  <path d="M4.323 11.87a13.333 13.333 0 0 1-.804-.139A14.111 14.111 0 0 1 0 10.501c1.162.27 2.34.404 3.519.4.286 0 .564-.012.834-.037C9.075 10.434 11.478 6.419 12 5c.296-.806.238-1.6-.175-2.323-.356-.623-.974-1.194-1.856-1.677.93.22 1.788.525 2.547.898C14.643 2.943 16 4.526 16 6.298c0 1.32-.777 2.484-2.018 3.502a5.19 5.19 0 0 1-1.43.882c-1.961.907-4.026 1.352-6.1 1.315a13.14 13.14 0 0 1-2.129-.127Zm8.815-8.453a3.767 3.767 0 0 1-.2 1.928c-.326.888-1.212 2.5-2.728 3.902a10.22 10.22 0 0 1-2.49 1.71 13.09 13.09 0 0 0 4.412-1.182l.022-.01.023-.01a4.19 4.19 0 0 0 1.154-.714l.008-.007.009-.007C14.48 8.097 15 7.19 15 6.297c0-.83-.428-1.689-1.344-2.479a6.397 6.397 0 0 0-.518-.4Z"/>
</svg>