<svg xmlns="http://www.w3.org/2000/svg" width="16" height="16" fill="currentColor" class="qi-515-fill" viewBox="0 0 16 16">
  <path d="M4.428 8.202a4.61 4.61 0 0 0 6.144 0 3.166 3.166 0 0 0 3.783-1.029H6.047a.502.502 0 1 1 0-1h8.807A3.15 3.15 0 0 0 15 5.27a3.187 3.187 0 0 0-.059-.583H8.394a.5.5 0 0 1 0-1h6.17a3.17 3.17 0 0 0-2.748-1.601 3.146 3.146 0 0 0-.397.04 4.675 4.675 0 0 0-7.838 0 3.149 3.149 0 0 0-.396-.04 3.184 3.184 0 1 0 1.243 6.116zM14.502 10.3H7.525a.5.5 0 0 0 0 1h6.977a.5.5 0 0 0 0-1zm-10.496 0a.5.5 0 0 0 0 1h1.99a.5.5 0 1 0 0-1zm8.807 2.813a.5.5 0 1 0 0-1h-1.989a.5.5 0 0 0 0 1zm-8.316.813h-1.99a.5.5 0 1 0 0 1h1.99a.5.5 0 1 0 0-1zm5.486-1.313a.5.5 0 0 0-.5-.5H1.508a.5.5 0 1 0 0 1h7.975a.5.5 0 0 0 .5-.5zm3.111 1.344H6.118a.5.5 0 0 0 0 1h6.976a.5.5 0 0 0 0-1z"/>
</svg>